<?xml version="1.0" encoding="UTF-8"?><?xml-stylesheet type="text/css" href="style.css"?><svg xmlns="http://www.w3.org/2000/svg" xmlns:xlink="http://www.w3.org/1999/xlink" contentScriptType="text/ecmascript" zoomAndPan="magnify" contentStyleType="text/css" preserveAspectRatio="xMidYMid meet" version="1.0">
<g id="scaleSvg" transform="scale(0.25)">
<polygon class="T1" points="250,950 350,1150 150,1150 "/>
<polygon class="T1" points="350,1150 250,950 350,1150 150,1150 250,950 "/>
<polygon class="T1" points="250,950 150,1150 250,950 350,1150 150,1150 "/>
<polygon class="T1" points="150,1150 350,1150 150,1150 250,950 350,1150 "/>
<circle r="25" class="T1n" cx="1850" cy="1650"/>
<circle r="25" class="T1n" cx="1050" cy="350"/>
<circle r="25" class="T1n" cx="2050" cy="250"/>
<circle r="25" class="T1n" cx="1350" cy="450"/>
<circle r="25" class="T1n" cx="50" cy="950"/>
<circle r="25" class="T1n" cx="950" cy="1650"/>
<circle r="25" class="T1n" cx="250" cy="950"/>
<circle r="25" class="T1n" cx="350" cy="1150"/>
<circle r="25" class="T1n" cx="1450" cy="950"/>
<circle r="25" class="T1n" cx="1750" cy="1850"/>
<circle r="25" class="T1n" cx="950" cy="1250"/>
<circle r="25" class="T1n" cx="650" cy="150"/>
<circle r="25" class="T1n" cx="50" cy="850"/>
<circle r="25" class="T1n" cx="1350" cy="1350"/>
<circle r="25" class="T1n" cx="350" cy="1550"/>
<circle r="25" class="T1n" cx="1650" cy="950"/>
<circle r="25" class="T1n" cx="450" cy="750"/>
<circle r="25" class="T1n" cx="150" cy="1150"/>
<circle r="25" class="T1n" cx="1050" cy="1750"/>
<circle r="25" class="T1n" cx="950" cy="1350"/>
<circle r="25" class="T1n" cx="1050" cy="1650"/>
<circle r="25" class="T1n" cx="50" cy="350"/>
<circle r="25" class="T1n" cx="1750" cy="1950"/>
<circle r="25" class="T1n" cx="250" cy="2050"/>
<circle r="25" class="T1n" cx="2150" cy="1950"/>
<line y2="1150" x1="250" class="T1e" x2="350" y1="950"/>
<line y2="1150" x1="250" class="T1e" x2="150" y1="950"/>
<line y2="1150" x1="350" class="T1e" x2="150" y1="1150"/>
<line y2="1750" x1="950" class="T1e" x2="1050" y1="1650"/>
<line y2="1350" x1="950" class="T1e" x2="950" y1="1250"/>
<line y2="1750" x1="1050" class="T1e" x2="1050" y1="1650"/>
<line y2="950" x1="1450" class="T1e" x2="1650" y1="950"/>
<line y2="1950" x1="1750" class="T1e" x2="1750" y1="1850"/>
<circle r="18" class="N" cx="1850" cy="1650"/>
<circle r="5" class="N" cx="1050" cy="350"/>
<circle r="5" class="N" cx="2050" cy="250"/>
<circle r="18" class="N" cx="1350" cy="450"/>
<circle r="5" class="N" cx="50" cy="950"/>
<circle r="5" class="N" cx="950" cy="1650"/>
<circle r="6" class="N" cx="250" cy="950"/>
<circle r="5" class="N" cx="350" cy="1150"/>
<circle r="6" class="N" cx="1450" cy="950"/>
<circle r="6" class="N" cx="1750" cy="1850"/>
<circle r="11" class="N" cx="950" cy="1250"/>
<circle r="5" class="N" cx="650" cy="150"/>
<circle r="8" class="N" cx="50" cy="850"/>
<circle r="8" class="N" cx="1350" cy="1350"/>
<circle r="12" class="N" cx="350" cy="1550"/>
<circle r="6" class="N" cx="1650" cy="950"/>
<circle r="8" class="N" cx="450" cy="750"/>
<circle r="5" class="N" cx="150" cy="1150"/>
<circle r="5" class="N" cx="1050" cy="1750"/>
<circle r="11" class="N" cx="950" cy="1350"/>
<circle r="5" class="N" cx="1050" cy="1650"/>
<circle r="5" class="N" cx="50" cy="350"/>
<circle r="5" class="N" cx="1750" cy="1950"/>
<circle r="6" class="N" cx="250" cy="2050"/>
<circle r="6" class="N" cx="2150" cy="1950"/>
<line y2="1150" x1="250" class="E sw3" x2="350" y1="950"/>
<line y2="1150" x1="250" class="E sw9" x2="150" y1="950"/>
<line y2="1150" x1="350" class="E sw5" x2="150" y1="1150"/>
<line y2="1750" x1="950" class="E sw5" x2="1050" y1="1650"/>
<line y2="1350" x1="950" class="E sw5" x2="950" y1="1250"/>
<line y2="1750" x1="1050" class="E sw9" x2="1050" y1="1650"/>
<line y2="950" x1="1450" class="E sw8" x2="1650" y1="950"/>
<line y2="1950" x1="1750" class="E sw10" x2="1750" y1="1850"/>
<polygon class="T2" points="250,550 50,650 150,550 "/>
<polygon class="T2" points="550,1750 450,1850 450,1750 "/>
<polygon class="T2" points="850,1850 850,2050 750,2050 750,1950 "/>
<polygon class="T2" points="450,2050 350,1950 450,1850 550,1950 "/>
<polygon class="T2" points="550,2150 450,2050 550,1950 650,2050 "/>
<polygon class="T2" points="450,2050 450,1950 450,1850 550,1950 "/>
<polygon class="T2" points="450,1950 450,2050 350,1950 450,1850 "/>
<polygon class="T2" points="50,650 250,550 50,650 150,550 250,550 "/>
<polygon class="T2" points="350,650 250,850 150,850 50,650 250,550 "/>
<polygon class="T2" points="50,650 150,850 50,650 150,550 250,550 "/>
<polygon class="T2" points="450,1750 450,1550 450,1750 550,1750 450,1850 "/>
<polygon class="T2" points="450,1750 350,1850 450,1750 550,1750 450,1850 "/>
<polygon class="T2" points="450,1850 350,1950 450,1850 450,1750 550,1750 "/>
<polygon class="T2" points="150,550 50,650 150,550 250,550 50,650 "/>
<polygon class="T2" points="550,1950 450,1850 450,1750 550,1750 450,1850 "/>
<polygon class="T2" points="450,1850 550,1750 450,1850 450,1750 550,1750 "/>
<polygon class="T2" points="350,650 250,550 50,650 150,550 250,550 "/>
<polygon class="T2" points="450,1750 450,1850 450,1750 550,1750 450,1850 "/>
<polygon class="T2" points="550,1750 450,1750 550,1750 450,1850 450,1750 "/>
<polygon class="T2" points="350,550 250,550 50,650 150,550 250,550 "/>
<polygon class="T2" points="250,550 150,550 250,550 50,650 150,550 "/>
<polygon class="T2" points="550,2150 850,2150 550,2150 450,2050 550,1950 650,2050 "/>
<polygon class="T2" points="250,1850 350,1650 450,1550 450,1750 450,1850 350,1950 "/>
<polygon class="T2" points="850,2050 850,1850 850,2050 750,2050 750,1950 850,1850 "/>
<polygon class="T2" points="350,1950 450,2050 350,1950 450,1850 550,1950 450,2050 "/>
<polygon class="T2" points="250,1850 350,1950 450,1850 550,1950 450,2050 350,1950 "/>
<polygon class="T2" points="450,2050 550,2150 450,2050 350,1950 450,1850 550,1950 "/>
<polygon class="T2" points="550,2150 650,2050 550,2150 450,2050 550,1950 650,2050 "/>
<polygon class="T2" points="650,2050 550,1950 450,2050 350,1950 450,1850 550,1950 "/>
<polygon class="T2" points="850,1850 750,1950 850,1850 850,2050 750,2050 750,1950 "/>
<polygon class="T2" points="650,2050 750,2050 650,2050 550,2150 450,2050 550,1950 "/>
<polygon class="T2" points="750,1950 750,2050 750,1950 850,1850 850,2050 750,2050 "/>
<polygon class="T2" points="750,2050 850,2050 750,2050 750,1950 850,1850 850,2050 "/>
<polygon class="T2" points="250,850 350,650 250,850 150,850 50,650 250,550 350,650 "/>
<polygon class="T2" points="350,550 350,350 350,550 250,550 50,650 150,550 250,550 "/>
<polygon class="T2" points="450,1550 350,1650 450,1550 450,1750 550,1750 450,1850 450,1750 "/>
<polygon class="T2" points="150,850 250,850 150,850 50,650 250,550 350,650 250,850 "/>
<circle r="25" class="T2n" cx="150" cy="550"/>
<circle r="25" class="T2n" cx="250" cy="850"/>
<circle r="25" class="T2n" cx="1150" cy="1850"/>
<circle r="25" class="T2n" cx="750" cy="1250"/>
<circle r="25" class="T2n" cx="350" cy="550"/>
<circle r="25" class="T2n" cx="1850" cy="1850"/>
<circle r="25" class="T2n" cx="450" cy="350"/>
<circle r="25" class="T2n" cx="250" cy="550"/>
<circle r="25" class="T2n" cx="1650" cy="2150"/>
<circle r="25" class="T2n" cx="150" cy="850"/>
<circle r="25" class="T2n" cx="850" cy="1850"/>
<circle r="25" class="T2n" cx="1750" cy="250"/>
<circle r="25" class="T2n" cx="1250" cy="1650"/>
<circle r="25" class="T2n" cx="450" cy="2050"/>
<circle r="25" class="T2n" cx="2050" cy="1350"/>
<circle r="25" class="T2n" cx="650" cy="2050"/>
<circle r="25" class="T2n" cx="750" cy="1950"/>
<circle r="25" class="T2n" cx="250" cy="1850"/>
<circle r="25" class="T2n" cx="850" cy="2150"/>
<circle r="25" class="T2n" cx="550" cy="2150"/>
<circle r="25" class="T2n" cx="750" cy="2050"/>
<circle r="25" class="T2n" cx="350" cy="1950"/>
<circle r="25" class="T2n" cx="350" cy="350"/>
<circle r="25" class="T2n" cx="450" cy="1550"/>
<circle r="25" class="T2n" cx="350" cy="1850"/>
<circle r="25" class="T2n" cx="550" cy="1750"/>
<circle r="25" class="T2n" cx="1750" cy="1750"/>
<circle r="25" class="T2n" cx="350" cy="650"/>
<circle r="25" class="T2n" cx="450" cy="1750"/>
<circle r="25" class="T2n" cx="50" cy="650"/>
<circle r="25" class="T2n" cx="550" cy="850"/>
<circle r="25" class="T2n" cx="850" cy="2050"/>
<circle r="25" class="T2n" cx="50" cy="1650"/>
<circle r="25" class="T2n" cx="550" cy="1950"/>
<circle r="25" class="T2n" cx="350" cy="1650"/>
<circle r="25" class="T2n" cx="1950" cy="50"/>
<circle r="25" class="T2n" cx="1350" cy="50"/>
<circle r="25" class="T2n" cx="1450" cy="1150"/>
<circle r="25" class="T2n" cx="450" cy="1950"/>
<circle r="25" class="T2n" cx="450" cy="1850"/>
<circle r="25" class="T2n" cx="1350" cy="2150"/>
<line y2="2150" x1="550" class="T2e" x2="850" y1="2150"/>
<line y2="1650" x1="250" class="T2e" x2="350" y1="1850"/>
<line y2="650" x1="250" class="T2e" x2="50" y1="550"/>
<line y2="850" x1="350" class="T2e" x2="250" y1="650"/>
<line y2="650" x1="150" class="T2e" x2="50" y1="850"/>
<line y2="1550" x1="450" class="T2e" x2="450" y1="1750"/>
<line y2="350" x1="350" class="T2e" x2="350" y1="550"/>
<line y2="2050" x1="850" class="T2e" x2="850" y1="1850"/>
<line y2="1850" x1="450" class="T2e" x2="350" y1="1750"/>
<line y2="2050" x1="350" class="T2e" x2="450" y1="1950"/>
<line y2="1850" x1="350" class="T2e" x2="250" y1="1950"/>
<line y2="1850" x1="350" class="T2e" x2="450" y1="1950"/>
<line y2="2150" x1="450" class="T2e" x2="550" y1="2050"/>
<line y2="1950" x1="450" class="T2e" x2="550" y1="2050"/>
<line y2="650" x1="150" class="T2e" x2="50" y1="550"/>
<line y2="2050" x1="550" class="T2e" x2="650" y1="2150"/>
<line y2="1850" x1="550" class="T2e" x2="450" y1="1950"/>
<line y2="2050" x1="550" class="T2e" x2="650" y1="1950"/>
<line y2="1750" x1="450" class="T2e" x2="550" y1="1850"/>
<line y2="650" x1="250" class="T2e" x2="350" y1="550"/>
<line y2="1850" x1="750" class="T2e" x2="850" y1="1950"/>
<line y2="1650" x1="450" class="T2e" x2="350" y1="1550"/>
<line y2="1850" x1="450" class="T2e" x2="450" y1="1750"/>
<line y2="1750" x1="450" class="T2e" x2="550" y1="1750"/>
<line y2="550" x1="350" class="T2e" x2="250" y1="550"/>
<line y2="350" x1="450" class="T2e" x2="350" y1="350"/>
<line y2="1950" x1="450" class="T2e" x2="450" y1="2050"/>
<line y2="550" x1="150" class="T2e" x2="250" y1="550"/>
<line y2="1950" x1="450" class="T2e" x2="450" y1="1850"/>
<line y2="2050" x1="650" class="T2e" x2="750" y1="2050"/>
<line y2="2050" x1="750" class="T2e" x2="750" y1="1950"/>
<line y2="850" x1="150" class="T2e" x2="250" y1="850"/>
<line y2="2050" x1="750" class="T2e" x2="850" y1="2050"/>
<line y2="2150" x1="1650" class="T2e" x2="1350" y1="2150"/>
<line y2="1850" x1="1750" class="T2e" x2="1850" y1="1750"/>
<circle r="6" class="N" cx="150" cy="550"/>
<circle r="11" class="N" cx="250" cy="850"/>
<circle r="5" class="N" cx="1150" cy="1850"/>
<circle r="8" class="N" cx="750" cy="1250"/>
<circle r="6" class="N" cx="350" cy="550"/>
<circle r="9" class="N" cx="1850" cy="1850"/>
<circle r="5" class="N" cx="450" cy="350"/>
<circle r="9" class="N" cx="250" cy="550"/>
<circle r="5" class="N" cx="1650" cy="2150"/>
<circle r="8" class="N" cx="150" cy="850"/>
<circle r="5" class="N" cx="850" cy="1850"/>
<circle r="5" class="N" cx="1750" cy="250"/>
<circle r="5" class="N" cx="1250" cy="1650"/>
<circle r="5" class="N" cx="450" cy="2050"/>
<circle r="6" class="N" cx="2050" cy="1350"/>
<circle r="5" class="N" cx="650" cy="2050"/>
<circle r="5" class="N" cx="750" cy="1950"/>
<circle r="14" class="N" cx="250" cy="1850"/>
<circle r="5" class="N" cx="850" cy="2150"/>
<circle r="5" class="N" cx="550" cy="2150"/>
<circle r="5" class="N" cx="750" cy="2050"/>
<circle r="8" class="N" cx="350" cy="1950"/>
<circle r="5" class="N" cx="350" cy="350"/>
<circle r="14" class="N" cx="450" cy="1550"/>
<circle r="9" class="N" cx="350" cy="1850"/>
<circle r="8" class="N" cx="550" cy="1750"/>
<circle r="9" class="N" cx="1750" cy="1750"/>
<circle r="18" class="N" cx="350" cy="650"/>
<circle r="9" class="N" cx="450" cy="1750"/>
<circle r="8" class="N" cx="50" cy="650"/>
<circle r="8" class="N" cx="550" cy="850"/>
<circle r="5" class="N" cx="850" cy="2050"/>
<circle r="8" class="N" cx="50" cy="1650"/>
<circle r="5" class="N" cx="550" cy="1950"/>
<circle r="18" class="N" cx="350" cy="1650"/>
<circle r="5" class="N" cx="1950" cy="50"/>
<circle r="5" class="N" cx="1350" cy="50"/>
<circle r="11" class="N" cx="1450" cy="1150"/>
<circle r="5" class="N" cx="450" cy="1950"/>
<circle r="6" class="N" cx="450" cy="1850"/>
<circle r="5" class="N" cx="1350" cy="2150"/>
<line y2="2150" x1="550" class="E sw4" x2="850" y1="2150"/>
<line x1="250" x2="350" y1="1850" y2="1650" style="stroke-width:11;" class="E"/>
<line x1="250" x2="50" y1="550" y2="650" style="stroke-width:11;" class="E"/>
<line y2="850" x1="350" class="E sw4" x2="250" y1="650"/>
<line y2="650" x1="150" class="E sw4" x2="50" y1="850"/>
<line y2="1550" x1="450" class="E sw8" x2="450" y1="1750"/>
<line y2="350" x1="350" class="E sw9" x2="350" y1="550"/>
<line y2="2050" x1="850" class="E sw3" x2="850" y1="1850"/>
<line y2="1850" x1="450" class="E sw4" x2="350" y1="1750"/>
<line y2="2050" x1="350" class="E sw4" x2="450" y1="1950"/>
<line x1="350" x2="250" y1="1950" y2="1850" style="stroke-width:11;" class="E"/>
<line y2="1850" x1="350" class="E sw3" x2="450" y1="1950"/>
<line y2="2150" x1="450" class="E sw6" x2="550" y1="2050"/>
<line y2="1950" x1="450" class="E sw10" x2="550" y1="2050"/>
<line y2="650" x1="150" class="E sw9" x2="50" y1="550"/>
<line y2="2050" x1="550" class="E sw4" x2="650" y1="2150"/>
<line y2="1850" x1="550" class="E sw9" x2="450" y1="1950"/>
<line x1="550" x2="650" y1="1950" y2="2050" style="stroke-width:11;" class="E"/>
<line y2="1750" x1="450" class="E sw5" x2="550" y1="1850"/>
<line y2="650" x1="250" class="E sw8" x2="350" y1="550"/>
<line y2="1850" x1="750" class="E sw4" x2="850" y1="1950"/>
<line x1="450" x2="350" y1="1550" y2="1650" style="stroke-width:11;" class="E"/>
<line x1="450" x2="450" y1="1750" y2="1850" style="stroke-width:11;" class="E"/>
<line y2="1750" x1="450" class="E sw8" x2="550" y1="1750"/>
<line y2="550" x1="350" class="E sw5" x2="250" y1="550"/>
<line y2="350" x1="450" class="E sw3" x2="350" y1="350"/>
<line y2="1950" x1="450" class="E sw9" x2="450" y1="2050"/>
<line x1="150" x2="250" y1="550" y2="550" style="stroke-width:11;" class="E"/>
<line y2="1950" x1="450" class="E sw10" x2="450" y1="1850"/>
<line y2="2050" x1="650" class="E sw10" x2="750" y1="2050"/>
<line x1="750" x2="750" y1="1950" y2="2050" style="stroke-width:11;" class="E"/>
<line y2="850" x1="150" class="E sw5" x2="250" y1="850"/>
<line y2="2050" x1="750" class="E sw3" x2="850" y1="2050"/>
<line y2="2150" x1="1650" class="E sw4" x2="1350" y1="2150"/>
<line y2="1850" x1="1750" class="E sw4" x2="1850" y1="1750"/>
<circle r="18" class="s5 sw2 f14" cx="1857" cy="1698"/>
<rect x="1830" width="54" y="1662" height="18" class="s14 sw2 f8"/>
<text x="1850" y="1701" class="f4">5</text>
<circle r="3" class="s4 sw0 f4" cx="1866" cy="1665"/>
<circle r="3" class="s4 sw0 f4" cx="1866" cy="1677"/>
<circle r="3" class="s4 sw0 f4" cx="1857" cy="1671"/>
<circle r="3" class="s4 sw0 f4" cx="1875" cy="1671"/>
<line y2="1671" x1="1860" class="s4 sw1" x2="1872" y1="1671"/>
<line y2="1674" x1="1866" class="s4 sw1" x2="1866" y1="1668"/>
<polygon class=" s5 sw2 f14" points="1860,1653 1914,1653 1887,1689"/>
<rect x="1860" width="54" y="1635" height="18" class="s14 sw2 f8"/>
<text x="1880" y="1674" class="f4">28</text>
<circle r="3" class="s4 sw0 f4" cx="1896" cy="1638"/>
<circle r="3" class="s4 sw0 f4" cx="1896" cy="1650"/>
<circle r="3" class="s4 sw0 f4" cx="1887" cy="1644"/>
<circle r="3" class="s4 sw0 f4" cx="1905" cy="1644"/>
<line y2="1644" x1="1890" class="s4 sw1" x2="1902" y1="1644"/>
<line y2="1647" x1="1896" class="s4 sw1" x2="1896" y1="1641"/>
<rect x="239" width="36" y="880" height="36" class="s5 sw2 f13"/>
<rect x="230" width="54" y="862" height="18" class="s13 sw2 f7"/>
<text x="250" y="901" class="f4">20</text>
<polygon class=" s5 sw2 f13" points="1148,1880 1166,1880 1175,1889 1175,1907 1166,1916 1148,1916 1139,1907 1139,1889"/>
<rect x="1130" width="54" y="1862" height="18" class="s13 sw2 f7"/>
<text x="1150" y="1901" class="f4">7</text>
<polygon class=" s5 sw2 f13" points="730,1280 784,1280 757,1316"/>
<rect x="730" width="54" y="1262" height="18" class="s13 sw2 f7"/>
<text x="750" y="1301" class="f4">28</text>
<rect x="1039" width="36" y="380" height="36" class="s5 sw2 f14"/>
<rect x="1030" width="54" y="362" height="18" class="s14 sw2 f8"/>
<text x="1050" y="401" class="f4">21</text>
<circle r="3" class="s4 sw0 f4" cx="1066" cy="365"/>
<circle r="3" class="s4 sw0 f4" cx="1066" cy="377"/>
<circle r="3" class="s4 sw0 f4" cx="1057" cy="371"/>
<circle r="3" class="s4 sw0 f4" cx="1075" cy="371"/>
<line y2="371" x1="1060" class="s4 sw1" x2="1072" y1="371"/>
<line y2="374" x1="1066" class="s4 sw1" x2="1066" y1="368"/>
<polygon class=" s5 sw2 f14" points="2048,280 2066,280 2075,289 2075,307 2066,316 2048,316 2039,307 2039,289"/>
<rect x="2030" width="54" y="262" height="18" class="s14 sw2 f8"/>
<text x="2050" y="301" class="f4">9</text>
<polygon class=" s4 sw0 f4" points="2066,262 2066,268 2072,268 2060,280 2060,274 2054,274"/>
<rect x="2069" width="36" y="253" height="36" class="s5 sw2 f14"/>
<rect x="2060" width="54" y="235" height="18" class="s14 sw2 f8"/>
<text x="2080" y="274" class="f4">18</text>
<circle r="3" class="s4 sw0 f4" cx="2096" cy="238"/>
<circle r="3" class="s4 sw0 f4" cx="2096" cy="250"/>
<circle r="3" class="s4 sw0 f4" cx="2087" cy="244"/>
<circle r="3" class="s4 sw0 f4" cx="2105" cy="244"/>
<line y2="244" x1="2090" class="s4 sw1" x2="2102" y1="244"/>
<line y2="247" x1="2096" class="s4 sw1" x2="2096" y1="241"/>
<rect x="339" width="36" y="580" height="36" class="s5 sw2 f13"/>
<rect x="330" width="54" y="562" height="18" class="s13 sw2 f7"/>
<text x="350" y="601" class="f4">19</text>
<polygon class=" s5 sw2 f14" points="1330,480 1384,480 1357,516"/>
<rect x="1330" width="54" y="462" height="18" class="s14 sw2 f8"/>
<text x="1350" y="501" class="f4">23</text>
<circle r="3" class="s4 sw0 f4" cx="1366" cy="465"/>
<circle r="3" class="s4 sw0 f4" cx="1366" cy="477"/>
<circle r="3" class="s4 sw0 f4" cx="1357" cy="471"/>
<circle r="3" class="s4 sw0 f4" cx="1375" cy="471"/>
<line y2="471" x1="1360" class="s4 sw1" x2="1372" y1="471"/>
<line y2="474" x1="1366" class="s4 sw1" x2="1366" y1="468"/>
<polygon class=" s5 sw2 f14" points="48,980 66,980 75,989 75,1007 66,1016 48,1016 39,1007 39,989"/>
<rect x="30" width="54" y="962" height="18" class="s14 sw2 f8"/>
<text x="50" y="1001" class="f4">11</text>
<circle r="3" class="s4 sw0 f4" cx="66" cy="965"/>
<circle r="3" class="s4 sw0 f4" cx="66" cy="977"/>
<circle r="3" class="s4 sw0 f4" cx="57" cy="971"/>
<circle r="3" class="s4 sw0 f4" cx="75" cy="971"/>
<line y2="971" x1="60" class="s4 sw1" x2="72" y1="971"/>
<line y2="974" x1="66" class="s4 sw1" x2="66" y1="968"/>
<rect x="1839" width="36" y="1880" height="36" class="s5 sw2 f13"/>
<rect x="1830" width="54" y="1862" height="18" class="s13 sw2 f7"/>
<text x="1850" y="1901" class="f4">22</text>
<polygon class=" s5 sw2 f14" points="948,1680 966,1680 975,1689 975,1707 966,1716 948,1716 939,1707 939,1689"/>
<rect x="930" width="54" y="1662" height="18" class="s14 sw2 f8"/>
<text x="950" y="1701" class="f4">8</text>
<polygon class=" s4 sw0 f4" points="966,1662 966,1668 972,1668 960,1680 960,1674 954,1674"/>
<polygon class=" s5 sw2 f14" points="987,1653 1005,1671 987,1689 969,1671"/>
<rect x="960" width="54" y="1635" height="18" class="s14 sw2 f8"/>
<text x="980" y="1674" class="f4">16</text>
<circle r="3" class="s4 sw0 f4" cx="996" cy="1638"/>
<circle r="3" class="s4 sw0 f4" cx="996" cy="1650"/>
<circle r="3" class="s4 sw0 f4" cx="987" cy="1644"/>
<circle r="3" class="s4 sw0 f4" cx="1005" cy="1644"/>
<line y2="1644" x1="990" class="s4 sw1" x2="1002" y1="1644"/>
<line y2="1647" x1="996" class="s4 sw1" x2="996" y1="1641"/>
<polygon class=" s5 sw2 f14" points="248,980 266,980 275,989 275,1007 266,1016 248,1016 239,1007 239,989"/>
<rect x="230" width="54" y="962" height="18" class="s14 sw2 f8"/>
<text x="250" y="1001" class="f4">7</text>
<polygon class=" s4 sw0 f4" points="266,962 266,968 272,968 260,980 260,974 254,974"/>
<circle r="18" class="s5 sw2 f14" cx="357" cy="1198"/>
<rect x="330" width="54" y="1162" height="18" class="s14 sw2 f8"/>
<text x="350" y="1201" class="f4">1</text>
<circle r="3" class="s4 sw0 f4" cx="366" cy="1165"/>
<circle r="3" class="s4 sw0 f4" cx="366" cy="1177"/>
<circle r="3" class="s4 sw0 f4" cx="357" cy="1171"/>
<circle r="3" class="s4 sw0 f4" cx="375" cy="1171"/>
<line y2="1171" x1="360" class="s4 sw1" x2="372" y1="1171"/>
<line y2="1174" x1="366" class="s4 sw1" x2="366" y1="1168"/>
<polygon class=" s5 sw2 f13" points="2130,380 2184,380 2157,416"/>
<rect x="2130" width="54" y="362" height="18" class="s13 sw2 f7"/>
<text x="2150" y="401" class="f4">24</text>
<rect x="2169" width="36" y="353" height="36" class="s5 sw2 f14"/>
<rect x="2160" width="54" y="335" height="18" class="s14 sw2 f8"/>
<text x="2180" y="374" class="f4">19</text>
<circle r="3" class="s4 sw0 f4" cx="2196" cy="338"/>
<circle r="3" class="s4 sw0 f4" cx="2196" cy="350"/>
<circle r="3" class="s4 sw0 f4" cx="2187" cy="344"/>
<circle r="3" class="s4 sw0 f4" cx="2205" cy="344"/>
<line y2="344" x1="2190" class="s4 sw1" x2="2202" y1="344"/>
<line y2="347" x1="2196" class="s4 sw1" x2="2196" y1="341"/>
<circle r="18" class="s5 sw2 f13" cx="457" cy="398"/>
<rect x="430" width="54" y="362" height="18" class="s13 sw2 f7"/>
<text x="450" y="401" class="f4">5</text>
<polygon class=" s5 sw2 f14" points="1757,1880 1775,1898 1757,1916 1739,1898"/>
<rect x="1730" width="54" y="1862" height="18" class="s14 sw2 f7"/>
<text x="1750" y="1901" class="f4">13</text>
<polygon class=" s5 sw2 f13" points="248,580 266,580 275,589 275,607 266,616 248,616 239,607 239,589"/>
<rect x="230" width="54" y="562" height="18" class="s13 sw2 f7"/>
<text x="250" y="601" class="f4">11</text>
<rect x="939" width="36" y="1280" height="36" class="s5 sw2 f14"/>
<rect x="930" width="54" y="1262" height="18" class="s14 sw2 f8"/>
<text x="950" y="1301" class="f4">17</text>
<polygon class=" s4 sw0 f4" points="966,1262 966,1268 972,1268 960,1280 960,1274 954,1274"/>
<polygon class=" s5 sw2 f14" points="960,1253 1014,1253 987,1289"/>
<rect x="960" width="54" y="1235" height="18" class="s14 sw2 f8"/>
<text x="980" y="1274" class="f4">24</text>
<polygon class=" s4 sw0 f4" points="996,1235 996,1241 1002,1241 990,1253 990,1247 984,1247"/>
<polygon class=" s5 sw2 f14" points="657,180 675,198 657,216 639,198"/>
<rect x="630" width="54" y="162" height="18" class="s14 sw2 f8"/>
<text x="650" y="201" class="f4">15</text>
<polygon class=" s4 sw0 f4" points="666,162 666,168 672,168 660,180 660,174 654,174"/>
<rect x="39" width="36" y="880" height="36" class="s5 sw2 f14"/>
<rect x="30" width="54" y="862" height="18" class="s14 sw2 f8"/>
<text x="50" y="901" class="f4">22</text>
<circle r="3" class="s4 sw0 f4" cx="66" cy="865"/>
<circle r="3" class="s4 sw0 f4" cx="66" cy="877"/>
<circle r="3" class="s4 sw0 f4" cx="57" cy="871"/>
<circle r="3" class="s4 sw0 f4" cx="75" cy="871"/>
<line y2="871" x1="60" class="s4 sw1" x2="72" y1="871"/>
<line y2="874" x1="66" class="s4 sw1" x2="66" y1="868"/>
<polygon class=" s5 sw2 f13" points="1030,780 1084,780 1057,816"/>
<rect x="1030" width="54" y="762" height="18" class="s13 sw2 f7"/>
<text x="1050" y="801" class="f4">23</text>
<circle r="18" class="s5 sw2 f14" cx="1087" cy="771"/>
<rect x="1060" width="54" y="735" height="18" class="s14 sw2 f8"/>
<text x="1080" y="774" class="f4">2</text>
<circle r="3" class="s4 sw0 f4" cx="1096" cy="738"/>
<circle r="3" class="s4 sw0 f4" cx="1096" cy="750"/>
<circle r="3" class="s4 sw0 f4" cx="1087" cy="744"/>
<circle r="3" class="s4 sw0 f4" cx="1105" cy="744"/>
<line y2="744" x1="1090" class="s4 sw1" x2="1102" y1="744"/>
<line y2="747" x1="1096" class="s4 sw1" x2="1096" y1="741"/>
<circle r="18" class="s5 sw2 f14" cx="1357" cy="1398"/>
<rect x="1330" width="54" y="1362" height="18" class="s14 sw2 f8"/>
<text x="1350" y="1401" class="f4">6</text>
<polygon class=" s4 sw0 f4" points="1366,1362 1366,1368 1372,1368 1360,1380 1360,1374 1354,1374"/>
<polygon class=" s5 sw2 f14" points="1378,1353 1396,1353 1405,1362 1405,1380 1396,1389 1378,1389 1369,1380 1369,1362"/>
<rect x="1360" width="54" y="1335" height="18" class="s14 sw2 f8"/>
<text x="1380" y="1374" class="f4">10</text>
<circle r="3" class="s4 sw0 f4" cx="1396" cy="1338"/>
<circle r="3" class="s4 sw0 f4" cx="1396" cy="1350"/>
<circle r="3" class="s4 sw0 f4" cx="1387" cy="1344"/>
<circle r="3" class="s4 sw0 f4" cx="1405" cy="1344"/>
<line y2="1344" x1="1390" class="s4 sw1" x2="1402" y1="1344"/>
<line y2="1347" x1="1396" class="s4 sw1" x2="1396" y1="1341"/>
<polygon class=" s5 sw2 f14" points="330,1580 384,1580 357,1616"/>
<rect x="330" width="54" y="1562" height="18" class="s14 sw2 f8"/>
<text x="350" y="1601" class="f4">25</text>
<circle r="3" class="s4 sw0 f4" cx="366" cy="1565"/>
<circle r="3" class="s4 sw0 f4" cx="366" cy="1577"/>
<circle r="3" class="s4 sw0 f4" cx="357" cy="1571"/>
<circle r="3" class="s4 sw0 f4" cx="375" cy="1571"/>
<line y2="1571" x1="360" class="s4 sw1" x2="372" y1="1571"/>
<line y2="1574" x1="366" class="s4 sw1" x2="366" y1="1568"/>
<polygon class=" s5 sw2 f14" points="1648,980 1666,980 1675,989 1675,1007 1666,1016 1648,1016 1639,1007 1639,989"/>
<rect x="1630" width="54" y="962" height="18" class="s14 sw2 f8"/>
<text x="1650" y="1001" class="f4">12</text>
<circle r="3" class="s4 sw0 f4" cx="1666" cy="965"/>
<circle r="3" class="s4 sw0 f4" cx="1666" cy="977"/>
<circle r="3" class="s4 sw0 f4" cx="1657" cy="971"/>
<circle r="3" class="s4 sw0 f4" cx="1675" cy="971"/>
<line y2="971" x1="1660" class="s4 sw1" x2="1672" y1="971"/>
<line y2="974" x1="1666" class="s4 sw1" x2="1666" y1="968"/>
<polygon class=" s5 sw2 f14" points="457,780 475,798 457,816 439,798"/>
<rect x="430" width="54" y="762" height="18" class="s14 sw2 f8"/>
<text x="450" y="801" class="f4">14</text>
<circle r="3" class="s4 sw0 f4" cx="466" cy="765"/>
<circle r="3" class="s4 sw0 f4" cx="466" cy="777"/>
<circle r="3" class="s4 sw0 f4" cx="457" cy="771"/>
<circle r="3" class="s4 sw0 f4" cx="475" cy="771"/>
<line y2="771" x1="460" class="s4 sw1" x2="472" y1="771"/>
<line y2="774" x1="466" class="s4 sw1" x2="466" y1="768"/>
<circle r="18" class="s5 sw2 f13" cx="1657" cy="2198"/>
<rect x="1630" width="54" y="2162" height="18" class="s13 sw2 f7"/>
<text x="1650" y="2201" class="f4">4</text>
<polygon class=" s5 sw2 f13" points="848,1880 866,1880 875,1889 875,1907 866,1916 848,1916 839,1907 839,1889"/>
<rect x="830" width="54" y="1862" height="18" class="s13 sw2 f7"/>
<text x="850" y="1901" class="f4">12</text>
<polygon class=" s5 sw2 f13" points="1748,280 1766,280 1775,289 1775,307 1766,316 1748,316 1739,307 1739,289"/>
<rect x="1730" width="54" y="262" height="18" class="s13 sw2 f7"/>
<text x="1750" y="301" class="f4">9</text>
<polygon class=" s5 sw2 f13" points="1257,1680 1275,1698 1257,1716 1239,1698"/>
<rect x="1230" width="54" y="1662" height="18" class="s13 sw2 f7"/>
<text x="1250" y="1701" class="f4">13</text>
<polygon class=" s5 sw2 f13" points="2057,1380 2075,1398 2057,1416 2039,1398"/>
<rect x="2030" width="54" y="1362" height="18" class="s13 sw2 f7"/>
<text x="2050" y="1401" class="f4">14</text>
<circle r="18" class="s5 sw2 f13" cx="257" cy="1898"/>
<rect x="230" width="54" y="1862" height="18" class="s13 sw2 f7"/>
<text x="250" y="1901" class="f4">1</text>
<rect x="269" width="36" y="1853" height="36" class="s5 sw2 f13"/>
<rect x="260" width="54" y="1835" height="18" class="s13 sw2 f7"/>
<text x="280" y="1874" class="f4">18</text>
<polygon class=" s5 sw2 f13" points="748,2080 766,2080 775,2089 775,2107 766,2116 748,2116 739,2107 739,2089"/>
<rect x="730" width="54" y="2062" height="18" class="s13 sw2 f7"/>
<text x="750" y="2101" class="f4">10</text>
<circle r="18" class="s5 sw2 f13" cx="357" cy="1998"/>
<rect x="330" width="54" y="1962" height="18" class="s13 sw2 f7"/>
<text x="350" y="2001" class="f4">2</text>
<polygon class=" s5 sw2 f13" points="448,1580 466,1580 475,1589 475,1607 466,1616 448,1616 439,1607 439,1589"/>
<rect x="430" width="54" y="1562" height="18" class="s13 sw2 f7"/>
<text x="450" y="1601" class="f4">8</text>
<polygon class=" s5 sw2 f13" points="1730,1780 1784,1780 1757,1816"/>
<rect x="1730" width="54" y="1762" height="18" class="s13 sw2 f7"/>
<text x="1750" y="1801" class="f4">25</text>
<polygon class=" s5 sw2 f13" points="30,680 84,680 57,716"/>
<rect x="30" width="54" y="662" height="18" class="s13 sw2 f7"/>
<text x="50" y="701" class="f4">26</text>
<circle r="18" class="s5 sw2 f13" cx="557" cy="898"/>
<rect x="530" width="54" y="862" height="18" class="s13 sw2 f7"/>
<text x="550" y="901" class="f4">3</text>
<polygon class=" s5 sw2 f14" points="1030,1680 1084,1680 1057,1716"/>
<rect x="1030" width="54" y="1662" height="18" class="s14 sw2 f8"/>
<text x="1050" y="1701" class="f4">26</text>
<circle r="3" class="s4 sw0 f4" cx="1066" cy="1665"/>
<circle r="3" class="s4 sw0 f4" cx="1066" cy="1677"/>
<circle r="3" class="s4 sw0 f4" cx="1057" cy="1671"/>
<circle r="3" class="s4 sw0 f4" cx="1075" cy="1671"/>
<line y2="1671" x1="1060" class="s4 sw1" x2="1072" y1="1671"/>
<line y2="1674" x1="1066" class="s4 sw1" x2="1066" y1="1668"/>
<rect x="39" width="36" y="1680" height="36" class="s5 sw2 f13"/>
<rect x="30" width="54" y="1662" height="18" class="s13 sw2 f7"/>
<text x="50" y="1701" class="f4">21</text>
<polygon class=" s5 sw2 f13" points="557,1980 575,1998 557,2016 539,1998"/>
<rect x="530" width="54" y="1962" height="18" class="s13 sw2 f7"/>
<text x="550" y="2001" class="f4">16</text>
<circle r="18" class="s5 sw2 f14" cx="57" cy="398"/>
<rect x="30" width="54" y="362" height="18" class="s14 sw2 f8"/>
<text x="50" y="401" class="f4">3</text>
<circle r="3" class="s4 sw0 f4" cx="66" cy="365"/>
<circle r="3" class="s4 sw0 f4" cx="66" cy="377"/>
<circle r="3" class="s4 sw0 f4" cx="57" cy="371"/>
<circle r="3" class="s4 sw0 f4" cx="75" cy="371"/>
<line y2="371" x1="60" class="s4 sw1" x2="72" y1="371"/>
<line y2="374" x1="66" class="s4 sw1" x2="66" y1="368"/>
<circle r="18" class="s5 sw2 f14" cx="1757" cy="1998"/>
<rect x="1730" width="54" y="1962" height="18" class="s14 sw2 f8"/>
<text x="1750" y="2001" class="f4">4</text>
<circle r="3" class="s4 sw0 f4" cx="1766" cy="1965"/>
<circle r="3" class="s4 sw0 f4" cx="1766" cy="1977"/>
<circle r="3" class="s4 sw0 f4" cx="1757" cy="1971"/>
<circle r="3" class="s4 sw0 f4" cx="1775" cy="1971"/>
<line y2="1971" x1="1760" class="s4 sw1" x2="1772" y1="1971"/>
<line y2="1974" x1="1766" class="s4 sw1" x2="1766" y1="1968"/>
<circle r="18" class="s5 sw2 f13" cx="1957" cy="98"/>
<rect x="1930" width="54" y="62" height="18" class="s13 sw2 f7"/>
<text x="1950" y="101" class="f4">6</text>
<rect x="1339" width="36" y="80" height="36" class="s5 sw2 f13"/>
<rect x="1330" width="54" y="62" height="18" class="s13 sw2 f7"/>
<text x="1350" y="101" class="f4">17</text>
<polygon class=" s5 sw2 f13" points="1430,1180 1484,1180 1457,1216"/>
<rect x="1430" width="54" y="1162" height="18" class="s13 sw2 f7"/>
<text x="1450" y="1201" class="f4">27</text>
<polygon class=" s5 sw2 f13" points="457,1980 475,1998 457,2016 439,1998"/>
<rect x="430" width="54" y="1962" height="18" class="s13 sw2 f7"/>
<text x="450" y="2001" class="f4">15</text>
<polygon class=" s5 sw2 f14" points="230,2080 284,2080 257,2116"/>
<rect x="230" width="54" y="2062" height="18" class="s14 sw2 f8"/>
<text x="250" y="2101" class="f4">27</text>
<polygon class=" s4 sw0 f4" points="266,2062 266,2068 272,2068 260,2080 260,2074 254,2074"/>
<rect x="2139" width="36" y="1980" height="36" class="s5 sw2 f14"/>
<rect x="2130" width="54" y="1962" height="18" class="s14 sw2 f8"/>
<text x="2150" y="2001" class="f4">20</text>
<circle r="3" class="s4 sw0 f4" cx="2166" cy="1965"/>
<circle r="3" class="s4 sw0 f4" cx="2166" cy="1977"/>
<circle r="3" class="s4 sw0 f4" cx="2157" cy="1971"/>
<circle r="3" class="s4 sw0 f4" cx="2175" cy="1971"/>
<line y2="1971" x1="2160" class="s4 sw1" x2="2172" y1="1971"/>
<line y2="1974" x1="2166" class="s4 sw1" x2="2166" y1="1968"/>
<g id="teamTable" transform="translate(-100, 150)">
<text x="2350" y="75" class="TxtNrml">Step: 58</text>
<text x="2350" y="180" class="Tb" text-anchor="start">
<tspan fill="rgba(0,158,115,1.0)" x="2350">Nabf</tspan>
<tspan x="2750">1371</tspan>
<tspan x="2950">14</tspan>
<tspan x="3150">12</tspan>
<tspan x="3350">2</tspan>
</text>
<text x="2350" y="220" class="Tb" text-anchor="start">
<tspan fill="rgba(0,114,178,1.0)" x="2350">B</tspan>
<tspan x="2750">1867</tspan>
<tspan x="2950">33</tspan>
<tspan x="3150">31</tspan>
<tspan x="3350">2</tspan>
</text>
</g>
<g id="agentTable" transform="translate(-100, 150)">
<text x="2350" y="316" class="Tb2" text-anchor="start">
<tspan x="2535">22/35</tspan>
<tspan x="2650">4/4</tspan>
<tspan x="2765">0</tspan>
<tspan x="2880">2</tspan>
<tspan x="2995">goto v56:successful</tspan>
</text>
<text x="2350" y="346" class="Tb2" text-anchor="start">
<tspan x="2535">22/35</tspan>
<tspan x="2650">4/4</tspan>
<tspan x="2765">0</tspan>
<tspan x="2880">2</tspan>
<tspan x="2995">goto v86:successful</tspan>
</text>
<text x="2350" y="376" class="Tb2" text-anchor="start">
<tspan x="2535">16/35</tspan>
<tspan x="2650">4/4</tspan>
<tspan x="2765">0</tspan>
<tspan x="2880">2</tspan>
<tspan x="2995">goto v266:successful</tspan>
</text>
<text x="2350" y="406" class="Tb2" text-anchor="start">
<tspan x="2535">19/35</tspan>
<tspan x="2650">4/4</tspan>
<tspan x="2765">0</tspan>
<tspan x="2880">2</tspan>
<tspan x="2995">goto v270:successful</tspan>
</text>
<text x="2350" y="436" class="Tb2" text-anchor="start">
<tspan x="2535">8/35</tspan>
<tspan x="2650">4/4</tspan>
<tspan x="2765">0</tspan>
<tspan x="2880">2</tspan>
<tspan x="2995">goto v6:successful</tspan>
</text>
<text x="2350" y="466" class="Tb2" text-anchor="start">
<tspan x="2535">26/35</tspan>
<tspan x="2650">4/4</tspan>
<tspan x="2765">0</tspan>
<tspan x="2880">2</tspan>
<tspan x="2995">recharge :successful</tspan>
</text>
<text x="2350" y="496" class="Tb2" text-anchor="start">
<tspan x="2535">22/25</tspan>
<tspan x="2650">6/6</tspan>
<tspan x="2765">0</tspan>
<tspan x="2880">1</tspan>
<tspan x="2995">recharge :successful</tspan>
</text>
<text x="2350" y="526" class="Tb2" text-anchor="start">
<tspan x="2535">15/25</tspan>
<tspan x="2650">6/6</tspan>
<tspan x="2765">0</tspan>
<tspan x="2880">1</tspan>
<tspan x="2995">recharge :successful</tspan>
</text>
<text x="2350" y="556" class="Tb2" text-anchor="start">
<tspan x="2535">22/25</tspan>
<tspan x="2650">6/6</tspan>
<tspan x="2765">0</tspan>
<tspan x="2880">1</tspan>
<tspan x="2995">recharge :successful</tspan>
</text>
<text x="2350" y="586" class="Tb2" text-anchor="start">
<tspan x="2535">1/25</tspan>
<tspan x="2650">6/6</tspan>
<tspan x="2765">0</tspan>
<tspan x="2880">1</tspan>
<tspan x="2995">goto v88:successful</tspan>
</text>
<text x="2350" y="616" class="Tb2" text-anchor="start">
<tspan x="2535">5/25</tspan>
<tspan x="2650">6/6</tspan>
<tspan x="2765">0</tspan>
<tspan x="2880">1</tspan>
<tspan x="2995">goto v43:successful</tspan>
</text>
<text x="2350" y="646" class="Tb2" text-anchor="start">
<tspan x="2535">4/25</tspan>
<tspan x="2650">6/6</tspan>
<tspan x="2765">0</tspan>
<tspan x="2880">1</tspan>
<tspan x="2995">goto v91:successful</tspan>
</text>
<text x="2350" y="676" class="Tb2" text-anchor="start">
<tspan x="2535">3/20</tspan>
<tspan x="2650">3/3</tspan>
<tspan x="2765">3</tspan>
<tspan x="2880">1</tspan>
<tspan fill="red" x="2995">noAction :failed</tspan>
</text>
<text x="2350" y="706" class="Tb2" text-anchor="start">
<tspan x="2535">12/20</tspan>
<tspan x="2650">3/3</tspan>
<tspan x="2765">3</tspan>
<tspan x="2880">1</tspan>
<tspan x="2995">goto v98:successful</tspan>
</text>
<text x="2350" y="736" class="Tb2" text-anchor="start">
<tspan x="2535">18/20</tspan>
<tspan x="2650">3/3</tspan>
<tspan x="2765">3</tspan>
<tspan x="2880">1</tspan>
<tspan x="2995">recharge :successful</tspan>
</text>
<text x="2350" y="766" class="Tb2" text-anchor="start">
<tspan x="2535">4/20</tspan>
<tspan x="2650">3/3</tspan>
<tspan x="2765">3</tspan>
<tspan x="2880">1</tspan>
<tspan x="2995">goto v51:successful</tspan>
</text>
<text x="2350" y="796" class="Tb2" text-anchor="start">
<tspan x="2535">18/30</tspan>
<tspan x="2650">1/1</tspan>
<tspan x="2765">0</tspan>
<tspan x="2880">3</tspan>
<tspan x="2995">recharge :successful</tspan>
</text>
<text x="2350" y="826" class="Tb2" text-anchor="start">
<tspan x="2535">20/30</tspan>
<tspan x="2650">1/1</tspan>
<tspan x="2765">0</tspan>
<tspan x="2880">3</tspan>
<tspan x="2995">goto v31:successful</tspan>
</text>
<text x="2350" y="856" class="Tb2" text-anchor="start">
<tspan x="2535">10/30</tspan>
<tspan x="2650">1/1</tspan>
<tspan x="2765">0</tspan>
<tspan x="2880">3</tspan>
<tspan x="2995">goto v57:successful</tspan>
</text>
<text x="2350" y="886" class="Tb2" text-anchor="start">
<tspan x="2535">23/30</tspan>
<tspan x="2650">1/1</tspan>
<tspan x="2765">0</tspan>
<tspan x="2880">3</tspan>
<tspan x="2995">goto v293:successful</tspan>
</text>
<text x="2350" y="916" class="Tb2" text-anchor="start">
<tspan x="2535">9/30</tspan>
<tspan x="2650">1/1</tspan>
<tspan x="2765">0</tspan>
<tspan x="2880">3</tspan>
<tspan x="2995">goto v28:successful</tspan>
</text>
<text x="2350" y="946" class="Tb2" text-anchor="start">
<tspan x="2535">3/30</tspan>
<tspan x="2650">1/1</tspan>
<tspan x="2765">0</tspan>
<tspan x="2880">3</tspan>
<tspan x="2995">goto v82:successful</tspan>
</text>
<text x="2350" y="976" class="Tb2" text-anchor="start">
<tspan x="2535">11/25</tspan>
<tspan x="2650">6/6</tspan>
<tspan x="2765">0</tspan>
<tspan x="2880">1</tspan>
<tspan x="2995">goto v41:successful</tspan>
</text>
<text x="2350" y="1006" class="Tb2" text-anchor="start">
<tspan x="2535">18/25</tspan>
<tspan x="2650">6/6</tspan>
<tspan x="2765">0</tspan>
<tspan x="2880">1</tspan>
<tspan x="2995">recharge :successful</tspan>
</text>
<text x="2350" y="1036" class="Tb2" text-anchor="start">
<tspan x="2535">10/25</tspan>
<tspan x="2650">6/6</tspan>
<tspan x="2765">0</tspan>
<tspan x="2880">1</tspan>
<tspan x="2995">goto v89:successful</tspan>
</text>
<text x="2350" y="1066" class="Tb2" text-anchor="start">
<tspan x="2535">5/25</tspan>
<tspan x="2650">6/6</tspan>
<tspan x="2765">0</tspan>
<tspan x="2880">1</tspan>
<tspan x="2995">goto v238:successful</tspan>
</text>
<text x="2350" y="1096" class="Tb2" text-anchor="start">
<tspan x="2535">15/25</tspan>
<tspan x="2650">6/6</tspan>
<tspan x="2765">0</tspan>
<tspan x="2880">1</tspan>
<tspan x="2995">recharge :successful</tspan>
</text>
<text x="2350" y="1126" class="Tb2" text-anchor="start">
<tspan x="2535">12/25</tspan>
<tspan x="2650">6/6</tspan>
<tspan x="2765">0</tspan>
<tspan x="2880">1</tspan>
<tspan x="2995">goto v6:successful</tspan>
</text>
<text x="2350" y="1156" class="Tb2" text-anchor="start">
<tspan x="2535">35/35</tspan>
<tspan x="2650">4/4</tspan>
<tspan x="2765">0</tspan>
<tspan x="2880">2</tspan>
<tspan fill="red" x="2995">noAction :failed</tspan>
</text>
<text x="2350" y="1186" class="Tb2" text-anchor="start">
<tspan x="2535">35/35</tspan>
<tspan x="2650">4/4</tspan>
<tspan x="2765">0</tspan>
<tspan x="2880">2</tspan>
<tspan fill="red" x="2995">noAction :failed</tspan>
</text>
<text x="2350" y="1216" class="Tb2" text-anchor="start">
<tspan x="2535">35/35</tspan>
<tspan x="2650">4/4</tspan>
<tspan x="2765">0</tspan>
<tspan x="2880">2</tspan>
<tspan fill="red" x="2995">noAction :failed</tspan>
</text>
<text x="2350" y="1246" class="Tb2" text-anchor="start">
<tspan x="2535">35/35</tspan>
<tspan x="2650">4/4</tspan>
<tspan x="2765">0</tspan>
<tspan x="2880">2</tspan>
<tspan fill="red" x="2995">noAction :failed</tspan>
</text>
<text x="2350" y="1276" class="Tb2" text-anchor="start">
<tspan x="2535">35/35</tspan>
<tspan x="2650">4/4</tspan>
<tspan x="2765">0</tspan>
<tspan x="2880">2</tspan>
<tspan fill="red" x="2995">noAction :failed</tspan>
</text>
<text x="2350" y="1306" class="Tb2" text-anchor="start">
<tspan x="2535">35/35</tspan>
<tspan x="2650">4/4</tspan>
<tspan x="2765">0</tspan>
<tspan x="2880">2</tspan>
<tspan fill="red" x="2995">noAction :failed</tspan>
</text>
<text x="2350" y="1336" class="Tb2" text-anchor="start">
<tspan x="2535">25/25</tspan>
<tspan x="2650">6/6</tspan>
<tspan x="2765">0</tspan>
<tspan x="2880">1</tspan>
<tspan fill="red" x="2995">noAction :failed</tspan>
</text>
<text x="2350" y="1366" class="Tb2" text-anchor="start">
<tspan x="2535">25/25</tspan>
<tspan x="2650">6/6</tspan>
<tspan x="2765">0</tspan>
<tspan x="2880">1</tspan>
<tspan fill="red" x="2995">noAction :failed</tspan>
</text>
<text x="2350" y="1396" class="Tb2" text-anchor="start">
<tspan x="2535">25/25</tspan>
<tspan x="2650">6/6</tspan>
<tspan x="2765">0</tspan>
<tspan x="2880">1</tspan>
<tspan fill="red" x="2995">noAction :failed</tspan>
</text>
<text x="2350" y="1426" class="Tb2" text-anchor="start">
<tspan x="2535">25/25</tspan>
<tspan x="2650">6/6</tspan>
<tspan x="2765">0</tspan>
<tspan x="2880">1</tspan>
<tspan fill="red" x="2995">noAction :failed</tspan>
</text>
<text x="2350" y="1456" class="Tb2" text-anchor="start">
<tspan x="2535">25/25</tspan>
<tspan x="2650">6/6</tspan>
<tspan x="2765">0</tspan>
<tspan x="2880">1</tspan>
<tspan fill="red" x="2995">noAction :failed</tspan>
</text>
<text x="2350" y="1486" class="Tb2" text-anchor="start">
<tspan x="2535">25/25</tspan>
<tspan x="2650">6/6</tspan>
<tspan x="2765">0</tspan>
<tspan x="2880">1</tspan>
<tspan fill="red" x="2995">noAction :failed</tspan>
</text>
<text x="2350" y="1516" class="Tb2" text-anchor="start">
<tspan x="2535">20/20</tspan>
<tspan x="2650">3/3</tspan>
<tspan x="2765">3</tspan>
<tspan x="2880">1</tspan>
<tspan fill="red" x="2995">noAction :failed</tspan>
</text>
<text x="2350" y="1546" class="Tb2" text-anchor="start">
<tspan x="2535">20/20</tspan>
<tspan x="2650">3/3</tspan>
<tspan x="2765">3</tspan>
<tspan x="2880">1</tspan>
<tspan fill="red" x="2995">noAction :failed</tspan>
</text>
<text x="2350" y="1576" class="Tb2" text-anchor="start">
<tspan x="2535">20/20</tspan>
<tspan x="2650">3/3</tspan>
<tspan x="2765">3</tspan>
<tspan x="2880">1</tspan>
<tspan fill="red" x="2995">noAction :failed</tspan>
</text>
<text x="2350" y="1606" class="Tb2" text-anchor="start">
<tspan x="2535">20/20</tspan>
<tspan x="2650">3/3</tspan>
<tspan x="2765">3</tspan>
<tspan x="2880">1</tspan>
<tspan fill="red" x="2995">noAction :failed</tspan>
</text>
<text x="2350" y="1636" class="Tb2" text-anchor="start">
<tspan x="2535">30/30</tspan>
<tspan x="2650">1/1</tspan>
<tspan x="2765">0</tspan>
<tspan x="2880">3</tspan>
<tspan fill="red" x="2995">noAction :failed</tspan>
</text>
<text x="2350" y="1666" class="Tb2" text-anchor="start">
<tspan x="2535">30/30</tspan>
<tspan x="2650">1/1</tspan>
<tspan x="2765">0</tspan>
<tspan x="2880">3</tspan>
<tspan fill="red" x="2995">noAction :failed</tspan>
</text>
<text x="2350" y="1696" class="Tb2" text-anchor="start">
<tspan x="2535">30/30</tspan>
<tspan x="2650">1/1</tspan>
<tspan x="2765">0</tspan>
<tspan x="2880">3</tspan>
<tspan fill="red" x="2995">noAction :failed</tspan>
</text>
<text x="2350" y="1726" class="Tb2" text-anchor="start">
<tspan x="2535">30/30</tspan>
<tspan x="2650">1/1</tspan>
<tspan x="2765">0</tspan>
<tspan x="2880">3</tspan>
<tspan fill="red" x="2995">noAction :failed</tspan>
</text>
<text x="2350" y="1756" class="Tb2" text-anchor="start">
<tspan x="2535">30/30</tspan>
<tspan x="2650">1/1</tspan>
<tspan x="2765">0</tspan>
<tspan x="2880">3</tspan>
<tspan fill="red" x="2995">noAction :failed</tspan>
</text>
<text x="2350" y="1786" class="Tb2" text-anchor="start">
<tspan x="2535">30/30</tspan>
<tspan x="2650">1/1</tspan>
<tspan x="2765">0</tspan>
<tspan x="2880">3</tspan>
<tspan fill="red" x="2995">noAction :failed</tspan>
</text>
<text x="2350" y="1816" class="Tb2" text-anchor="start">
<tspan x="2535">25/25</tspan>
<tspan x="2650">6/6</tspan>
<tspan x="2765">0</tspan>
<tspan x="2880">1</tspan>
<tspan fill="red" x="2995">noAction :failed</tspan>
</text>
<text x="2350" y="1846" class="Tb2" text-anchor="start">
<tspan x="2535">25/25</tspan>
<tspan x="2650">6/6</tspan>
<tspan x="2765">0</tspan>
<tspan x="2880">1</tspan>
<tspan fill="red" x="2995">noAction :failed</tspan>
</text>
<text x="2350" y="1876" class="Tb2" text-anchor="start">
<tspan x="2535">25/25</tspan>
<tspan x="2650">6/6</tspan>
<tspan x="2765">0</tspan>
<tspan x="2880">1</tspan>
<tspan fill="red" x="2995">noAction :failed</tspan>
</text>
<text x="2350" y="1906" class="Tb2" text-anchor="start">
<tspan x="2535">25/25</tspan>
<tspan x="2650">6/6</tspan>
<tspan x="2765">0</tspan>
<tspan x="2880">1</tspan>
<tspan fill="red" x="2995">noAction :failed</tspan>
</text>
<text x="2350" y="1936" class="Tb2" text-anchor="start">
<tspan x="2535">25/25</tspan>
<tspan x="2650">6/6</tspan>
<tspan x="2765">0</tspan>
<tspan x="2880">1</tspan>
<tspan fill="red" x="2995">noAction :failed</tspan>
</text>
<text x="2350" y="1966" class="Tb2" text-anchor="start">
<tspan x="2535">25/25</tspan>
<tspan x="2650">6/6</tspan>
<tspan x="2765">0</tspan>
<tspan x="2880">1</tspan>
<tspan fill="red" x="2995">noAction :failed</tspan>
</text>
</g>
<line y2="442" x1="3290" class="s5 sw1" x2="3290" y1="1996"/>
<g id="achievementPart" transform="translate(-100, 150)">
<text x="3400" y="301" class="TxtAch">
<tspan x="3400">Achievements</tspan>
<tspan fill="rgba(0,158,115,1.0)" x="3400" y="331">Nabf</tspan>
<tspan x="3400" y="351">area10</tspan>
<tspan fill="rgba(0,114,178,1.0)" x="3400" y="376">B</tspan>
<tspan x="3400" y="396">area10</tspan>
</text>
</g>
</g>
</svg>
