<?xml version="1.0" encoding="UTF-8"?><?xml-stylesheet type="text/css" href="style.css"?><svg xmlns="http://www.w3.org/2000/svg" xmlns:xlink="http://www.w3.org/1999/xlink" contentScriptType="text/ecmascript" zoomAndPan="magnify" contentStyleType="text/css" preserveAspectRatio="xMidYMid meet" version="1.0">
<g id="scaleSvg" transform="scale(0.25)">
<polygon class="T1" points="950,1650 750,1450 850,1450 "/>
<polygon class="T1" points="950,1850 950,1650 1050,1750 "/>
<polygon class="T1" points="950,1250 850,1350 850,1250 "/>
<polygon class="T1" points="750,1450 850,1350 850,1450 "/>
<polygon class="T1" points="1050,1650 1050,1550 1150,1550 1150,1650 "/>
<polygon class="T1" points="1050,1750 1050,1650 1150,1650 1150,1750 "/>
<polygon class="T1" points="750,1450 950,1650 750,1450 850,1350 850,1450 "/>
<polygon class="T1" points="950,1650 850,1450 950,1650 750,1450 850,1450 "/>
<polygon class="T1" points="950,1850 850,2050 950,1850 950,1650 1050,1750 "/>
<polygon class="T1" points="950,1650 950,1850 950,1650 750,1450 850,1450 "/>
<polygon class="T1" points="850,1350 950,1250 850,1350 850,1250 950,1250 "/>
<polygon class="T1" points="850,1350 750,1450 850,1350 850,1250 950,1250 "/>
<polygon class="T1" points="950,1850 1050,1750 950,1850 950,1650 1050,1750 "/>
<polygon class="T1" points="1050,1750 950,1650 750,1450 850,1450 950,1650 "/>
<polygon class="T1" points="950,1250 850,1250 950,1250 850,1350 850,1250 "/>
<polygon class="T1" points="850,1250 850,1350 850,1250 950,1250 850,1350 "/>
<polygon class="T1" points="850,1450 850,1350 850,1250 950,1250 850,1350 "/>
<polygon class="T1" points="950,1250 950,1350 950,1250 850,1350 850,1250 "/>
<polygon class="T1" points="1050,1650 1050,1750 950,1850 950,1650 1050,1750 "/>
<polygon class="T1" points="750,1450 750,1350 750,1450 850,1350 850,1450 "/>
<polygon class="T1" points="1050,1750 1150,1750 1050,1750 950,1850 950,1650 "/>
<polygon class="T1" points="1050,1550 1050,1650 1050,1550 1150,1550 1150,1650 1050,1650 "/>
<polygon class="T1" points="1150,1650 1150,1550 1150,1650 1150,1750 1050,1750 1050,1650 "/>
<polygon class="T1" points="1150,1750 1150,1650 1150,1750 1050,1750 1050,1650 1150,1650 "/>
<polygon class="T1" points="1150,1550 1050,1550 1150,1550 1150,1650 1050,1650 1050,1550 "/>
<circle r="25" class="T1n" cx="950" cy="1850"/>
<circle r="25" class="T1n" cx="1750" cy="350"/>
<circle r="25" class="T1n" cx="2050" cy="250"/>
<circle r="25" class="T1n" cx="2050" cy="1950"/>
<circle r="25" class="T1n" cx="1550" cy="1350"/>
<circle r="25" class="T1n" cx="1350" cy="1050"/>
<circle r="25" class="T1n" cx="950" cy="1650"/>
<circle r="25" class="T1n" cx="850" cy="1350"/>
<circle r="25" class="T1n" cx="1850" cy="350"/>
<circle r="25" class="T1n" cx="850" cy="1250"/>
<circle r="25" class="T1n" cx="950" cy="1250"/>
<circle r="25" class="T1n" cx="950" cy="750"/>
<circle r="25" class="T1n" cx="1150" cy="1650"/>
<circle r="25" class="T1n" cx="1150" cy="1550"/>
<circle r="25" class="T1n" cx="150" cy="1150"/>
<circle r="25" class="T1n" cx="1150" cy="1750"/>
<circle r="25" class="T1n" cx="750" cy="850"/>
<circle r="25" class="T1n" cx="1250" cy="950"/>
<circle r="25" class="T1n" cx="1250" cy="650"/>
<circle r="25" class="T1n" cx="650" cy="250"/>
<circle r="25" class="T1n" cx="1750" cy="1550"/>
<circle r="25" class="T1n" cx="750" cy="1450"/>
<circle r="25" class="T1n" cx="350" cy="650"/>
<circle r="25" class="T1n" cx="650" cy="1250"/>
<circle r="25" class="T1n" cx="150" cy="450"/>
<circle r="25" class="T1n" cx="1050" cy="1550"/>
<circle r="25" class="T1n" cx="1050" cy="1750"/>
<circle r="25" class="T1n" cx="850" cy="1450"/>
<circle r="25" class="T1n" cx="950" cy="1350"/>
<circle r="25" class="T1n" cx="1350" cy="350"/>
<circle r="25" class="T1n" cx="750" cy="1350"/>
<circle r="25" class="T1n" cx="1050" cy="1650"/>
<circle r="25" class="T1n" cx="850" cy="2050"/>
<circle r="25" class="T1n" cx="850" cy="950"/>
<circle r="25" class="T1n" cx="1750" cy="1950"/>
<circle r="25" class="T1n" cx="2050" cy="150"/>
<circle r="25" class="T1n" cx="1150" cy="750"/>
<circle r="25" class="T1n" cx="2150" cy="650"/>
<circle r="25" class="T1n" cx="2150" cy="850"/>
<line y2="1650" x1="750" class="T1e" x2="950" y1="1450"/>
<line y2="1650" x1="850" class="T1e" x2="950" y1="1450"/>
<line y2="750" x1="850" class="T1e" x2="950" y1="950"/>
<line y2="2050" x1="950" class="T1e" x2="850" y1="1850"/>
<line y2="1650" x1="950" class="T1e" x2="950" y1="1850"/>
<line y2="950" x1="750" class="T1e" x2="850" y1="850"/>
<line y2="1350" x1="950" class="T1e" x2="850" y1="1250"/>
<line y2="1350" x1="750" class="T1e" x2="850" y1="1450"/>
<line y2="1750" x1="950" class="T1e" x2="1050" y1="1850"/>
<line y2="1750" x1="950" class="T1e" x2="1050" y1="1650"/>
<line y2="1250" x1="850" class="T1e" x2="950" y1="1250"/>
<line y2="1350" x1="850" class="T1e" x2="850" y1="1250"/>
<line y2="1450" x1="850" class="T1e" x2="750" y1="1450"/>
<line y2="1350" x1="850" class="T1e" x2="850" y1="1450"/>
<line y2="1350" x1="950" class="T1e" x2="950" y1="1250"/>
<line y2="1550" x1="1050" class="T1e" x2="1050" y1="1650"/>
<line y2="1750" x1="1050" class="T1e" x2="1050" y1="1650"/>
<line y2="1350" x1="750" class="T1e" x2="750" y1="1450"/>
<line y2="750" x1="1250" class="T1e" x2="1150" y1="950"/>
<line y2="250" x1="1850" class="T1e" x2="2050" y1="350"/>
<line y2="850" x1="2150" class="T1e" x2="2150" y1="650"/>
<line y2="750" x1="1250" class="T1e" x2="1150" y1="650"/>
<line y2="1050" x1="1250" class="T1e" x2="1350" y1="950"/>
<line y2="350" x1="1750" class="T1e" x2="1850" y1="350"/>
<line y2="1550" x1="1150" class="T1e" x2="1150" y1="1650"/>
<line y2="1750" x1="1150" class="T1e" x2="1150" y1="1650"/>
<line y2="150" x1="2050" class="T1e" x2="2050" y1="250"/>
<line y2="1550" x1="1050" class="T1e" x2="1150" y1="1550"/>
<line y2="1750" x1="1050" class="T1e" x2="1150" y1="1750"/>
<line y2="1650" x1="1050" class="T1e" x2="1150" y1="1650"/>
<circle r="5" class="N" cx="950" cy="1850"/>
<circle r="5" class="N" cx="1750" cy="350"/>
<circle r="5" class="N" cx="2050" cy="250"/>
<circle r="8" class="N" cx="2050" cy="1950"/>
<circle r="8" class="N" cx="1550" cy="1350"/>
<circle r="18" class="N" cx="1350" cy="1050"/>
<circle r="5" class="N" cx="950" cy="1650"/>
<circle r="8" class="N" cx="850" cy="1350"/>
<circle r="5" class="N" cx="1850" cy="350"/>
<circle r="9" class="N" cx="850" cy="1250"/>
<circle r="11" class="N" cx="950" cy="1250"/>
<circle r="9" class="N" cx="950" cy="750"/>
<circle r="5" class="N" cx="1150" cy="1650"/>
<circle r="5" class="N" cx="1150" cy="1550"/>
<circle r="5" class="N" cx="150" cy="1150"/>
<circle r="5" class="N" cx="1150" cy="1750"/>
<circle r="8" class="N" cx="750" cy="850"/>
<circle r="12" class="N" cx="1250" cy="950"/>
<circle r="11" class="N" cx="1250" cy="650"/>
<circle r="5" class="N" cx="650" cy="250"/>
<circle r="14" class="N" cx="1750" cy="1550"/>
<circle r="5" class="N" cx="750" cy="1450"/>
<circle r="18" class="N" cx="350" cy="650"/>
<circle r="6" class="N" cx="650" cy="1250"/>
<circle r="5" class="N" cx="150" cy="450"/>
<circle r="5" class="N" cx="1050" cy="1550"/>
<circle r="5" class="N" cx="1050" cy="1750"/>
<circle r="5" class="N" cx="850" cy="1450"/>
<circle r="11" class="N" cx="950" cy="1350"/>
<circle r="6" class="N" cx="1350" cy="350"/>
<circle r="5" class="N" cx="750" cy="1350"/>
<circle r="5" class="N" cx="1050" cy="1650"/>
<circle r="5" class="N" cx="850" cy="2050"/>
<circle r="9" class="N" cx="850" cy="950"/>
<circle r="5" class="N" cx="1750" cy="1950"/>
<circle r="5" class="N" cx="2050" cy="150"/>
<circle r="11" class="N" cx="1150" cy="750"/>
<circle r="8" class="N" cx="2150" cy="650"/>
<circle r="8" class="N" cx="2150" cy="850"/>
<line y2="1650" x1="750" class="E sw6" x2="950" y1="1450"/>
<line y2="1650" x1="850" class="E sw10" x2="950" y1="1450"/>
<line y2="750" x1="850" class="E sw8" x2="950" y1="950"/>
<line y2="2050" x1="950" class="E sw6" x2="850" y1="1850"/>
<line x1="950" x2="950" y1="1850" y2="1650" style="stroke-width:11;" class="E"/>
<line y2="950" x1="750" class="E sw10" x2="850" y1="850"/>
<line x1="950" x2="850" y1="1250" y2="1350" style="stroke-width:11;" class="E"/>
<line y2="1350" x1="750" class="E sw8" x2="850" y1="1450"/>
<line y2="1750" x1="950" class="E sw8" x2="1050" y1="1850"/>
<line y2="1750" x1="950" class="E sw5" x2="1050" y1="1650"/>
<line y2="1250" x1="850" class="E sw8" x2="950" y1="1250"/>
<line x1="850" x2="850" y1="1250" y2="1350" style="stroke-width:11;" class="E"/>
<line y2="1450" x1="850" class="E sw10" x2="750" y1="1450"/>
<line y2="1350" x1="850" class="E sw3" x2="850" y1="1450"/>
<line y2="1350" x1="950" class="E sw5" x2="950" y1="1250"/>
<line x1="1050" x2="1050" y1="1650" y2="1550" style="stroke-width:11;" class="E"/>
<line y2="1750" x1="1050" class="E sw9" x2="1050" y1="1650"/>
<line y2="1350" x1="750" class="E sw8" x2="750" y1="1450"/>
<line y2="750" x1="1250" class="E sw8" x2="1150" y1="950"/>
<line y2="250" x1="1850" class="E sw6" x2="2050" y1="350"/>
<line x1="2150" x2="2150" y1="650" y2="850" style="stroke-width:11;" class="E"/>
<line y2="750" x1="1250" class="E sw6" x2="1150" y1="650"/>
<line y2="1050" x1="1250" class="E sw8" x2="1350" y1="950"/>
<line y2="350" x1="1750" class="E sw3" x2="1850" y1="350"/>
<line x1="1150" x2="1150" y1="1650" y2="1550" style="stroke-width:11;" class="E"/>
<line y2="1750" x1="1150" class="E sw9" x2="1150" y1="1650"/>
<line y2="150" x1="2050" class="E sw3" x2="2050" y1="250"/>
<line y2="1550" x1="1050" class="E sw5" x2="1150" y1="1550"/>
<line y2="1750" x1="1050" class="E sw5" x2="1150" y1="1750"/>
<line y2="1650" x1="1050" class="E sw10" x2="1150" y1="1650"/>
<polygon class="T2" points="550,1750 450,1850 450,1750 "/>
<polygon class="T2" points="550,2150 450,2050 550,1950 650,2050 "/>
<polygon class="T2" points="550,1950 450,2050 450,1950 450,1850 "/>
<polygon class="T2" points="450,1750 450,1550 450,1750 550,1750 450,1850 "/>
<polygon class="T2" points="450,1750 350,1850 450,1750 550,1750 450,1850 "/>
<polygon class="T2" points="550,1950 450,1850 450,1750 550,1750 450,1850 "/>
<polygon class="T2" points="450,1850 550,1750 450,1850 450,1750 550,1750 "/>
<polygon class="T2" points="450,1750 450,1850 450,1750 550,1750 450,1850 "/>
<polygon class="T2" points="550,1750 450,1750 550,1750 450,1850 450,1750 "/>
<polygon class="T2" points="450,1850 450,1950 450,1850 450,1750 550,1750 "/>
<polygon class="T2" points="550,2150 850,2150 550,2150 450,2050 550,1950 650,2050 "/>
<polygon class="T2" points="450,2050 550,2150 450,2050 550,1950 650,2050 550,2150 "/>
<polygon class="T2" points="550,2150 650,2050 550,2150 450,2050 550,1950 650,2050 "/>
<polygon class="T2" points="650,2050 550,1950 450,2050 450,1950 450,1850 550,1950 "/>
<polygon class="T2" points="450,1950 450,2050 550,1950 650,2050 550,2150 450,2050 "/>
<polygon class="T2" points="650,2050 750,2050 650,2050 550,2150 450,2050 550,1950 "/>
<polygon class="T2" points="450,1550 350,1650 450,1550 450,1750 550,1750 450,1850 450,1750 "/>
<circle r="25" class="T2n" cx="1150" cy="1850"/>
<circle r="25" class="T2n" cx="750" cy="1250"/>
<circle r="25" class="T2n" cx="350" cy="550"/>
<circle r="25" class="T2n" cx="1850" cy="1850"/>
<circle r="25" class="T2n" cx="2150" cy="350"/>
<circle r="25" class="T2n" cx="450" cy="350"/>
<circle r="25" class="T2n" cx="50" cy="850"/>
<circle r="25" class="T2n" cx="1050" cy="750"/>
<circle r="25" class="T2n" cx="1650" cy="2150"/>
<circle r="25" class="T2n" cx="850" cy="1850"/>
<circle r="25" class="T2n" cx="1750" cy="250"/>
<circle r="25" class="T2n" cx="1250" cy="1650"/>
<circle r="25" class="T2n" cx="450" cy="2050"/>
<circle r="25" class="T2n" cx="650" cy="2050"/>
<circle r="25" class="T2n" cx="750" cy="1950"/>
<circle r="25" class="T2n" cx="250" cy="1850"/>
<circle r="25" class="T2n" cx="850" cy="2150"/>
<circle r="25" class="T2n" cx="550" cy="2150"/>
<circle r="25" class="T2n" cx="750" cy="2050"/>
<circle r="25" class="T2n" cx="950" cy="650"/>
<circle r="25" class="T2n" cx="350" cy="350"/>
<circle r="25" class="T2n" cx="450" cy="1550"/>
<circle r="25" class="T2n" cx="350" cy="1850"/>
<circle r="25" class="T2n" cx="550" cy="1750"/>
<circle r="25" class="T2n" cx="450" cy="1750"/>
<circle r="25" class="T2n" cx="50" cy="650"/>
<circle r="25" class="T2n" cx="550" cy="850"/>
<circle r="25" class="T2n" cx="50" cy="1650"/>
<circle r="25" class="T2n" cx="550" cy="1950"/>
<circle r="25" class="T2n" cx="350" cy="1650"/>
<circle r="25" class="T2n" cx="1950" cy="50"/>
<circle r="25" class="T2n" cx="1350" cy="50"/>
<circle r="25" class="T2n" cx="450" cy="1950"/>
<circle r="25" class="T2n" cx="450" cy="1850"/>
<circle r="25" class="T2n" cx="1350" cy="2150"/>
<line y2="2150" x1="550" class="T2e" x2="850" y1="2150"/>
<line y2="1650" x1="250" class="T2e" x2="350" y1="1850"/>
<line y2="1550" x1="450" class="T2e" x2="450" y1="1750"/>
<line y2="350" x1="350" class="T2e" x2="350" y1="550"/>
<line y2="850" x1="50" class="T2e" x2="50" y1="650"/>
<line y2="1850" x1="450" class="T2e" x2="350" y1="1750"/>
<line y2="2150" x1="450" class="T2e" x2="550" y1="2050"/>
<line y2="1950" x1="450" class="T2e" x2="550" y1="2050"/>
<line y2="2050" x1="550" class="T2e" x2="650" y1="2150"/>
<line y2="1850" x1="550" class="T2e" x2="450" y1="1950"/>
<line y2="2050" x1="550" class="T2e" x2="650" y1="1950"/>
<line y2="750" x1="950" class="T2e" x2="1050" y1="650"/>
<line y2="1750" x1="450" class="T2e" x2="550" y1="1850"/>
<line y2="1850" x1="750" class="T2e" x2="850" y1="1950"/>
<line y2="1650" x1="450" class="T2e" x2="350" y1="1550"/>
<line y2="1850" x1="450" class="T2e" x2="450" y1="1750"/>
<line y2="1750" x1="450" class="T2e" x2="550" y1="1750"/>
<line y2="350" x1="450" class="T2e" x2="350" y1="350"/>
<line y2="1950" x1="450" class="T2e" x2="450" y1="2050"/>
<line y2="1950" x1="450" class="T2e" x2="450" y1="1850"/>
<line y2="2050" x1="650" class="T2e" x2="750" y1="2050"/>
<line y2="2050" x1="750" class="T2e" x2="750" y1="1950"/>
<line y2="2150" x1="1650" class="T2e" x2="1350" y1="2150"/>
<circle r="5" class="N" cx="1150" cy="1850"/>
<circle r="8" class="N" cx="750" cy="1250"/>
<circle r="6" class="N" cx="350" cy="550"/>
<circle r="9" class="N" cx="1850" cy="1850"/>
<circle r="5" class="N" cx="2150" cy="350"/>
<circle r="5" class="N" cx="450" cy="350"/>
<circle r="8" class="N" cx="50" cy="850"/>
<circle r="11" class="N" cx="1050" cy="750"/>
<circle r="5" class="N" cx="1650" cy="2150"/>
<circle r="5" class="N" cx="850" cy="1850"/>
<circle r="5" class="N" cx="1750" cy="250"/>
<circle r="5" class="N" cx="1250" cy="1650"/>
<circle r="5" class="N" cx="450" cy="2050"/>
<circle r="5" class="N" cx="650" cy="2050"/>
<circle r="5" class="N" cx="750" cy="1950"/>
<circle r="14" class="N" cx="250" cy="1850"/>
<circle r="5" class="N" cx="850" cy="2150"/>
<circle r="5" class="N" cx="550" cy="2150"/>
<circle r="5" class="N" cx="750" cy="2050"/>
<circle r="11" class="N" cx="950" cy="650"/>
<circle r="5" class="N" cx="350" cy="350"/>
<circle r="14" class="N" cx="450" cy="1550"/>
<circle r="9" class="N" cx="350" cy="1850"/>
<circle r="8" class="N" cx="550" cy="1750"/>
<circle r="9" class="N" cx="450" cy="1750"/>
<circle r="8" class="N" cx="50" cy="650"/>
<circle r="8" class="N" cx="550" cy="850"/>
<circle r="8" class="N" cx="50" cy="1650"/>
<circle r="5" class="N" cx="550" cy="1950"/>
<circle r="18" class="N" cx="350" cy="1650"/>
<circle r="5" class="N" cx="1950" cy="50"/>
<circle r="5" class="N" cx="1350" cy="50"/>
<circle r="5" class="N" cx="450" cy="1950"/>
<circle r="6" class="N" cx="450" cy="1850"/>
<circle r="5" class="N" cx="1350" cy="2150"/>
<line y2="2150" x1="550" class="E sw4" x2="850" y1="2150"/>
<line x1="250" x2="350" y1="1850" y2="1650" style="stroke-width:11;" class="E"/>
<line y2="1550" x1="450" class="E sw8" x2="450" y1="1750"/>
<line y2="350" x1="350" class="E sw9" x2="350" y1="550"/>
<line x1="50" x2="50" y1="650" y2="850" style="stroke-width:11;" class="E"/>
<line y2="1850" x1="450" class="E sw4" x2="350" y1="1750"/>
<line y2="2150" x1="450" class="E sw6" x2="550" y1="2050"/>
<line y2="1950" x1="450" class="E sw10" x2="550" y1="2050"/>
<line y2="2050" x1="550" class="E sw4" x2="650" y1="2150"/>
<line y2="1850" x1="550" class="E sw9" x2="450" y1="1950"/>
<line x1="550" x2="650" y1="1950" y2="2050" style="stroke-width:11;" class="E"/>
<line y2="750" x1="950" class="E sw6" x2="1050" y1="650"/>
<line y2="1750" x1="450" class="E sw5" x2="550" y1="1850"/>
<line y2="1850" x1="750" class="E sw4" x2="850" y1="1950"/>
<line x1="450" x2="350" y1="1550" y2="1650" style="stroke-width:11;" class="E"/>
<line x1="450" x2="450" y1="1750" y2="1850" style="stroke-width:11;" class="E"/>
<line y2="1750" x1="450" class="E sw8" x2="550" y1="1750"/>
<line y2="350" x1="450" class="E sw3" x2="350" y1="350"/>
<line y2="1950" x1="450" class="E sw9" x2="450" y1="2050"/>
<line y2="1950" x1="450" class="E sw10" x2="450" y1="1850"/>
<line y2="2050" x1="650" class="E sw10" x2="750" y1="2050"/>
<line x1="750" x2="750" y1="1950" y2="2050" style="stroke-width:11;" class="E"/>
<line y2="2150" x1="1650" class="E sw4" x2="1350" y1="2150"/>
<rect x="239" width="36" y="880" height="36" class="s5 sw2 f13"/>
<rect x="230" width="54" y="862" height="18" class="s13 sw2 f7"/>
<text x="250" y="901" class="f4">20</text>
<circle r="18" class="s5 sw2 f14" cx="287" cy="871"/>
<rect x="260" width="54" y="835" height="18" class="s14 sw2 f8"/>
<text x="280" y="874" class="f4">1</text>
<circle r="3" class="s4 sw0 f4" cx="296" cy="838"/>
<circle r="3" class="s4 sw0 f4" cx="296" cy="850"/>
<circle r="3" class="s4 sw0 f4" cx="287" cy="844"/>
<circle r="3" class="s4 sw0 f4" cx="305" cy="844"/>
<line y2="844" x1="290" class="s4 sw1" x2="302" y1="844"/>
<line y2="847" x1="296" class="s4 sw1" x2="296" y1="841"/>
<polygon class=" s5 sw2 f13" points="1148,1880 1166,1880 1175,1889 1175,1907 1166,1916 1148,1916 1139,1907 1139,1889"/>
<rect x="1130" width="54" y="1862" height="18" class="s13 sw2 f7"/>
<text x="1150" y="1901" class="f4">7</text>
<polygon class=" s5 sw2 f13" points="730,1280 784,1280 757,1316"/>
<rect x="730" width="54" y="1262" height="18" class="s13 sw2 f7"/>
<text x="750" y="1301" class="f4">28</text>
<rect x="339" width="36" y="580" height="36" class="s5 sw2 f13"/>
<rect x="330" width="54" y="562" height="18" class="s13 sw2 f7"/>
<text x="350" y="601" class="f4">19</text>
<rect x="2039" width="36" y="1980" height="36" class="s5 sw2 f14"/>
<rect x="2030" width="54" y="1962" height="18" class="s14 sw2 f8"/>
<text x="2050" y="2001" class="f4">20</text>
<circle r="3" class="s4 sw0 f4" cx="2066" cy="1965"/>
<circle r="3" class="s4 sw0 f4" cx="2066" cy="1977"/>
<circle r="3" class="s4 sw0 f4" cx="2057" cy="1971"/>
<circle r="3" class="s4 sw0 f4" cx="2075" cy="1971"/>
<line y2="1971" x1="2060" class="s4 sw1" x2="2072" y1="1971"/>
<line y2="1974" x1="2066" class="s4 sw1" x2="2066" y1="1968"/>
<polygon class=" s5 sw2 f14" points="1548,1380 1566,1380 1575,1389 1575,1407 1566,1416 1548,1416 1539,1407 1539,1389"/>
<rect x="1530" width="54" y="1362" height="18" class="s14 sw2 f8"/>
<text x="1550" y="1401" class="f4">12</text>
<circle r="3" class="s4 sw0 f4" cx="1566" cy="1365"/>
<circle r="3" class="s4 sw0 f4" cx="1566" cy="1377"/>
<circle r="3" class="s4 sw0 f4" cx="1557" cy="1371"/>
<circle r="3" class="s4 sw0 f4" cx="1575" cy="1371"/>
<line y2="1371" x1="1560" class="s4 sw1" x2="1572" y1="1371"/>
<line y2="1374" x1="1566" class="s4 sw1" x2="1566" y1="1368"/>
<rect x="1839" width="36" y="1880" height="36" class="s5 sw2 f13"/>
<rect x="1830" width="54" y="1862" height="18" class="s13 sw2 f7"/>
<text x="1850" y="1901" class="f4">22</text>
<polygon class=" s5 sw2 f14" points="1348,1080 1366,1080 1375,1089 1375,1107 1366,1116 1348,1116 1339,1107 1339,1089"/>
<rect x="1330" width="54" y="1062" height="18" class="s14 sw2 f8"/>
<text x="1350" y="1101" class="f4">10</text>
<polygon class=" s4 sw0 f4" points="1366,1062 1366,1068 1372,1068 1360,1080 1360,1074 1354,1074"/>
<polygon class=" s5 sw2 f14" points="957,1680 975,1698 957,1716 939,1698"/>
<rect x="930" width="54" y="1662" height="18" class="s14 sw2 f8"/>
<text x="950" y="1701" class="f4">16</text>
<polygon class=" s4 sw0 f4" points="966,1662 966,1668 972,1668 960,1680 960,1674 954,1674"/>
<polygon class=" s5 sw2 f13" points="2130,380 2184,380 2157,416"/>
<rect x="2130" width="54" y="362" height="18" class="s13 sw2 f7"/>
<text x="2150" y="401" class="f4">24</text>
<circle r="18" class="s5 sw2 f13" cx="457" cy="398"/>
<rect x="430" width="54" y="362" height="18" class="s13 sw2 f7"/>
<text x="450" y="401" class="f4">5</text>
<rect x="839" width="36" y="1380" height="36" class="s5 sw2 f14"/>
<rect x="830" width="54" y="1362" height="18" class="s14 sw2 f8"/>
<text x="850" y="1401" class="f4">17</text>
<circle r="3" class="s4 sw0 f4" cx="866" cy="1365"/>
<circle r="3" class="s4 sw0 f4" cx="866" cy="1377"/>
<circle r="3" class="s4 sw0 f4" cx="857" cy="1371"/>
<circle r="3" class="s4 sw0 f4" cx="875" cy="1371"/>
<line y2="1371" x1="860" class="s4 sw1" x2="872" y1="1371"/>
<line y2="1374" x1="866" class="s4 sw1" x2="866" y1="1368"/>
<polygon class=" s5 sw2 f14" points="1848,380 1866,380 1875,389 1875,407 1866,416 1848,416 1839,407 1839,389"/>
<rect x="1830" width="54" y="362" height="18" class="s14 sw2 f8"/>
<text x="1850" y="401" class="f4">9</text>
<polygon class=" s4 sw0 f4" points="1866,362 1866,368 1872,368 1860,380 1860,374 1854,374"/>
<polygon class=" s5 sw2 f13" points="248,580 266,580 275,589 275,607 266,616 248,616 239,607 239,589"/>
<rect x="230" width="54" y="562" height="18" class="s13 sw2 f7"/>
<text x="250" y="601" class="f4">11</text>
<rect x="269" width="36" y="553" height="36" class="s5 sw2 f14"/>
<rect x="260" width="54" y="535" height="18" class="s14 sw2 f8"/>
<text x="280" y="574" class="f4">22</text>
<polygon class=" s4 sw0 f4" points="296,535 296,541 302,541 290,553 290,547 284,547"/>
<polygon class=" s5 sw2 f14" points="930,1280 984,1280 957,1316"/>
<rect x="930" width="54" y="1262" height="18" class="s14 sw2 f8"/>
<text x="950" y="1301" class="f4">24</text>
<polygon class=" s4 sw0 f4" points="966,1262 966,1268 972,1268 960,1280 960,1274 954,1274"/>
<circle r="18" class="s5 sw2 f14" cx="957" cy="798"/>
<rect x="930" width="54" y="762" height="18" class="s14 sw2 f8"/>
<text x="950" y="801" class="f4">2</text>
<polygon class=" s4 sw0 f4" points="966,762 966,768 972,768 960,780 960,774 954,774"/>
<polygon class=" s5 sw2 f13" points="1030,780 1084,780 1057,816"/>
<rect x="1030" width="54" y="762" height="18" class="s13 sw2 f7"/>
<text x="1050" y="801" class="f4">23</text>
<polygon class=" s5 sw2 f14" points="148,1180 166,1180 175,1189 175,1207 166,1216 148,1216 139,1207 139,1189"/>
<rect x="130" width="54" y="1162" height="18" class="s14 sw2 f8"/>
<text x="150" y="1201" class="f4">11</text>
<polygon class=" s4 sw0 f4" points="166,1162 166,1168 172,1168 160,1180 160,1174 154,1174"/>
<circle r="18" class="s5 sw2 f13" cx="1657" cy="2198"/>
<rect x="1630" width="54" y="2162" height="18" class="s13 sw2 f7"/>
<text x="1650" y="2201" class="f4">4</text>
<polygon class=" s5 sw2 f13" points="848,1880 866,1880 875,1889 875,1907 866,1916 848,1916 839,1907 839,1889"/>
<rect x="830" width="54" y="1862" height="18" class="s13 sw2 f7"/>
<text x="850" y="1901" class="f4">12</text>
<polygon class=" s5 sw2 f14" points="1130,1780 1184,1780 1157,1816"/>
<rect x="1130" width="54" y="1762" height="18" class="s14 sw2 f8"/>
<text x="1150" y="1801" class="f4">26</text>
<polygon class=" s4 sw0 f4" points="1166,1762 1166,1768 1172,1768 1160,1780 1160,1774 1154,1774"/>
<polygon class=" s5 sw2 f13" points="1748,280 1766,280 1775,289 1775,307 1766,316 1748,316 1739,307 1739,289"/>
<rect x="1730" width="54" y="262" height="18" class="s13 sw2 f7"/>
<text x="1750" y="301" class="f4">9</text>
<polygon class=" s5 sw2 f13" points="1257,1680 1275,1698 1257,1716 1239,1698"/>
<rect x="1230" width="54" y="1662" height="18" class="s13 sw2 f7"/>
<text x="1250" y="1701" class="f4">13</text>
<polygon class=" s5 sw2 f13" points="2057,1380 2075,1398 2057,1416 2039,1398"/>
<rect x="2030" width="54" y="1362" height="18" class="s13 sw2 f7"/>
<text x="2050" y="1401" class="f4">14</text>
<polygon class=" s5 sw2 f14" points="2060,1353 2114,1353 2087,1389"/>
<rect x="2060" width="54" y="1335" height="18" class="s14 sw2 f8"/>
<text x="2080" y="1374" class="f4">28</text>
<line y2="1347" x1="2090" class="s4 sw3" x2="2102" y1="1341"/>
<circle r="6" class="s4 sw0 f4" cx="2090" cy="1341"/>
<polygon class=" s5 sw2 f14" points="757,880 775,898 757,916 739,898"/>
<rect x="730" width="54" y="862" height="18" class="s14 sw2 f8"/>
<text x="750" y="901" class="f4">14</text>
<circle r="3" class="s4 sw0 f4" cx="766" cy="865"/>
<circle r="3" class="s4 sw0 f4" cx="766" cy="877"/>
<circle r="3" class="s4 sw0 f4" cx="757" cy="871"/>
<circle r="3" class="s4 sw0 f4" cx="775" cy="871"/>
<line y2="871" x1="760" class="s4 sw1" x2="772" y1="871"/>
<line y2="874" x1="766" class="s4 sw1" x2="766" y1="868"/>
<circle r="18" class="s5 sw2 f13" cx="257" cy="1898"/>
<rect x="230" width="54" y="1862" height="18" class="s13 sw2 f7"/>
<text x="250" y="1901" class="f4">1</text>
<rect x="269" width="36" y="1853" height="36" class="s5 sw2 f13"/>
<rect x="260" width="54" y="1835" height="18" class="s13 sw2 f7"/>
<text x="280" y="1874" class="f4">18</text>
<polygon class=" s5 sw2 f13" points="748,2080 766,2080 775,2089 775,2107 766,2116 748,2116 739,2107 739,2089"/>
<rect x="730" width="54" y="2062" height="18" class="s13 sw2 f7"/>
<text x="750" y="2101" class="f4">10</text>
<polygon class=" s5 sw2 f14" points="330,1980 384,1980 357,2016"/>
<rect x="330" width="54" y="1962" height="18" class="s14 sw2 f8"/>
<text x="350" y="2001" class="f4">27</text>
<polygon class=" s4 sw0 f4" points="366,1962 366,1968 372,1968 360,1980 360,1974 354,1974"/>
<circle r="18" class="s5 sw2 f13" cx="387" cy="1971"/>
<rect x="360" width="54" y="1935" height="18" class="s13 sw2 f7"/>
<text x="380" y="1974" class="f4">2</text>
<polygon class=" s5 sw2 f14" points="657,280 675,298 657,316 639,298"/>
<rect x="630" width="54" y="262" height="18" class="s14 sw2 f8"/>
<text x="650" y="301" class="f4">15</text>
<polygon class=" s4 sw0 f4" points="666,262 666,268 672,268 660,280 660,274 654,274"/>
<circle r="18" class="s5 sw2 f14" cx="1757" cy="1598"/>
<rect x="1730" width="54" y="1562" height="18" class="s14 sw2 f8"/>
<text x="1750" y="1601" class="f4">5</text>
<polygon class=" s4 sw0 f4" points="1766,1562 1766,1568 1772,1568 1760,1580 1760,1574 1754,1574"/>
<polygon class=" s5 sw2 f13" points="448,1580 466,1580 475,1589 475,1607 466,1616 448,1616 439,1607 439,1589"/>
<rect x="430" width="54" y="1562" height="18" class="s13 sw2 f7"/>
<text x="450" y="1601" class="f4">8</text>
<polygon class=" s5 sw2 f13" points="1730,1780 1784,1780 1757,1816"/>
<rect x="1730" width="54" y="1762" height="18" class="s13 sw2 f7"/>
<text x="1750" y="1801" class="f4">25</text>
<polygon class=" s5 sw2 f14" points="1787,1753 1805,1771 1787,1789 1769,1771"/>
<rect x="1760" width="54" y="1735" height="18" class="s14 sw2 f8"/>
<text x="1780" y="1774" class="f4">13</text>
<circle r="3" class="s4 sw0 f4" cx="1796" cy="1738"/>
<circle r="3" class="s4 sw0 f4" cx="1796" cy="1750"/>
<circle r="3" class="s4 sw0 f4" cx="1787" cy="1744"/>
<circle r="3" class="s4 sw0 f4" cx="1805" cy="1744"/>
<line y2="1744" x1="1790" class="s4 sw1" x2="1802" y1="1744"/>
<line y2="1747" x1="1796" class="s4 sw1" x2="1796" y1="1741"/>
<polygon class=" s5 sw2 f14" points="348,680 366,680 375,689 375,707 366,716 348,716 339,707 339,689"/>
<rect x="330" width="54" y="662" height="18" class="s14 sw2 f8"/>
<text x="350" y="701" class="f4">7</text>
<polygon class=" s4 sw0 f4" points="366,662 366,668 372,668 360,680 360,674 354,674"/>
<polygon class=" s5 sw2 f14" points="630,1280 684,1280 657,1316"/>
<rect x="630" width="54" y="1262" height="18" class="s14 sw2 f8"/>
<text x="650" y="1301" class="f4">25</text>
<circle r="3" class="s4 sw0 f4" cx="666" cy="1265"/>
<circle r="3" class="s4 sw0 f4" cx="666" cy="1277"/>
<circle r="3" class="s4 sw0 f4" cx="657" cy="1271"/>
<circle r="3" class="s4 sw0 f4" cx="675" cy="1271"/>
<line y2="1271" x1="660" class="s4 sw1" x2="672" y1="1271"/>
<line y2="1274" x1="666" class="s4 sw1" x2="666" y1="1268"/>
<circle r="18" class="s5 sw2 f14" cx="157" cy="498"/>
<rect x="130" width="54" y="462" height="18" class="s14 sw2 f8"/>
<text x="150" y="501" class="f4">3</text>
<polygon class=" s4 sw0 f4" points="166,462 166,468 172,468 160,480 160,474 154,474"/>
<polygon class=" s5 sw2 f13" points="30,680 84,680 57,716"/>
<rect x="30" width="54" y="662" height="18" class="s13 sw2 f7"/>
<text x="50" y="701" class="f4">26</text>
<rect x="1339" width="36" y="380" height="36" class="s5 sw2 f14"/>
<rect x="1330" width="54" y="362" height="18" class="s14 sw2 f8"/>
<text x="1350" y="401" class="f4">21</text>
<polygon class=" s4 sw0 f4" points="1366,362 1366,368 1372,368 1360,380 1360,374 1354,374"/>
<circle r="18" class="s5 sw2 f13" cx="557" cy="898"/>
<rect x="530" width="54" y="862" height="18" class="s13 sw2 f7"/>
<text x="550" y="901" class="f4">3</text>
<polygon class=" s5 sw2 f14" points="848,2080 866,2080 875,2089 875,2107 866,2116 848,2116 839,2107 839,2089"/>
<rect x="830" width="54" y="2062" height="18" class="s14 sw2 f8"/>
<text x="850" y="2101" class="f4">8</text>
<polygon class=" s4 sw0 f4" points="866,2062 866,2068 872,2068 860,2080 860,2074 854,2074"/>
<rect x="39" width="36" y="1680" height="36" class="s5 sw2 f13"/>
<rect x="30" width="54" y="1662" height="18" class="s13 sw2 f7"/>
<text x="50" y="1701" class="f4">21</text>
<polygon class=" s5 sw2 f13" points="557,1980 575,1998 557,2016 539,1998"/>
<rect x="530" width="54" y="1962" height="18" class="s13 sw2 f7"/>
<text x="550" y="2001" class="f4">16</text>
<circle r="18" class="s5 sw2 f14" cx="1757" cy="1998"/>
<rect x="1730" width="54" y="1962" height="18" class="s14 sw2 f8"/>
<text x="1750" y="2001" class="f4">4</text>
<polygon class=" s4 sw0 f4" points="1766,1962 1766,1968 1772,1968 1760,1980 1760,1974 1754,1974"/>
<circle r="18" class="s5 sw2 f13" cx="1957" cy="98"/>
<rect x="1930" width="54" y="62" height="18" class="s13 sw2 f7"/>
<text x="1950" y="101" class="f4">6</text>
<rect x="1339" width="36" y="80" height="36" class="s5 sw2 f13"/>
<rect x="1330" width="54" y="62" height="18" class="s13 sw2 f7"/>
<text x="1350" y="101" class="f4">17</text>
<polygon class=" s5 sw2 f13" points="1430,1180 1484,1180 1457,1216"/>
<rect x="1430" width="54" y="1162" height="18" class="s13 sw2 f7"/>
<text x="1450" y="1201" class="f4">27</text>
<circle r="18" class="s5 sw2 f14" cx="1487" cy="1171"/>
<rect x="1460" width="54" y="1135" height="18" class="s14 sw2 f8"/>
<text x="1480" y="1174" class="f4">6</text>
<polygon class=" s4 sw0 f4" points="1487,1135 1505,1135 1496,1153"/>
<polygon class=" s5 sw2 f13" points="457,1980 475,1998 457,2016 439,1998"/>
<rect x="430" width="54" y="1962" height="18" class="s13 sw2 f7"/>
<text x="450" y="2001" class="f4">15</text>
<rect x="2039" width="36" y="180" height="36" class="s5 sw2 f14"/>
<rect x="2030" width="54" y="162" height="18" class="s14 sw2 f8"/>
<text x="2050" y="201" class="f4">18</text>
<polygon class=" s4 sw0 f4" points="2066,162 2066,168 2072,168 2060,180 2060,174 2054,174"/>
<polygon class=" s5 sw2 f14" points="1130,780 1184,780 1157,816"/>
<rect x="1130" width="54" y="762" height="18" class="s14 sw2 f8"/>
<text x="1150" y="801" class="f4">23</text>
<polygon class=" s4 sw0 f4" points="1166,762 1166,768 1172,768 1160,780 1160,774 1154,774"/>
<rect x="2139" width="36" y="680" height="36" class="s5 sw2 f14"/>
<rect x="2130" width="54" y="662" height="18" class="s14 sw2 f8"/>
<text x="2150" y="701" class="f4">19</text>
<circle r="3" class="s4 sw0 f4" cx="2166" cy="665"/>
<circle r="3" class="s4 sw0 f4" cx="2166" cy="677"/>
<circle r="3" class="s4 sw0 f4" cx="2157" cy="671"/>
<circle r="3" class="s4 sw0 f4" cx="2175" cy="671"/>
<line y2="671" x1="2160" class="s4 sw1" x2="2172" y1="671"/>
<line y2="674" x1="2166" class="s4 sw1" x2="2166" y1="668"/>
<g id="teamTable" transform="translate(-100, 150)">
<text x="2350" y="75" class="TxtNrml">Step: 4</text>
<text x="2350" y="180" class="Tb" text-anchor="start">
<tspan fill="rgba(0,158,115,1.0)" x="2350">Nabf</tspan>
<tspan x="2750">121</tspan>
<tspan x="2950">36</tspan>
<tspan x="3150">32</tspan>
<tspan x="3350">4</tspan>
</text>
<text x="2350" y="220" class="Tb" text-anchor="start">
<tspan fill="rgba(0,114,178,1.0)" x="2350">GOAL-DTU</tspan>
<tspan x="2750">109</tspan>
<tspan x="2950">27</tspan>
<tspan x="3150">25</tspan>
<tspan x="3350">2</tspan>
</text>
</g>
<g id="agentTable" transform="translate(-100, 150)">
<text x="2350" y="316" class="Tb2" text-anchor="start">
<tspan x="2535">30/35</tspan>
<tspan x="2650">4/4</tspan>
<tspan x="2765">0</tspan>
<tspan x="2880">2</tspan>
<tspan x="2995">goto v13:successful</tspan>
</text>
<text x="2350" y="346" class="Tb2" text-anchor="start">
<tspan x="2535">35/35</tspan>
<tspan x="2650">4/4</tspan>
<tspan x="2765">0</tspan>
<tspan x="2880">2</tspan>
<tspan x="2995">recharge :successful</tspan>
</text>
<text x="2350" y="376" class="Tb2" text-anchor="start">
<tspan x="2535">35/35</tspan>
<tspan x="2650">4/4</tspan>
<tspan x="2765">0</tspan>
<tspan x="2880">2</tspan>
<tspan x="2995">recharge :successful</tspan>
</text>
<text x="2350" y="406" class="Tb2" text-anchor="start">
<tspan x="2535">35/35</tspan>
<tspan x="2650">4/4</tspan>
<tspan x="2765">0</tspan>
<tspan x="2880">2</tspan>
<tspan x="2995">recharge :successful</tspan>
</text>
<text x="2350" y="436" class="Tb2" text-anchor="start">
<tspan x="2535">35/35</tspan>
<tspan x="2650">4/4</tspan>
<tspan x="2765">0</tspan>
<tspan x="2880">2</tspan>
<tspan x="2995">recharge :successful</tspan>
</text>
<text x="2350" y="466" class="Tb2" text-anchor="start">
<tspan x="2535">35/35</tspan>
<tspan x="2650">4/4</tspan>
<tspan x="2765">0</tspan>
<tspan x="2880">2</tspan>
<tspan x="2995">probe :successful</tspan>
</text>
<text x="2350" y="496" class="Tb2" text-anchor="start">
<tspan x="2535">25/25</tspan>
<tspan x="2650">6/6</tspan>
<tspan x="2765">0</tspan>
<tspan x="2880">1</tspan>
<tspan x="2995">recharge :successful</tspan>
</text>
<text x="2350" y="526" class="Tb2" text-anchor="start">
<tspan x="2535">25/25</tspan>
<tspan x="2650">6/6</tspan>
<tspan x="2765">0</tspan>
<tspan x="2880">1</tspan>
<tspan x="2995">recharge :successful</tspan>
</text>
<text x="2350" y="556" class="Tb2" text-anchor="start">
<tspan x="2535">25/25</tspan>
<tspan x="2650">6/6</tspan>
<tspan x="2765">0</tspan>
<tspan x="2880">1</tspan>
<tspan x="2995">recharge :successful</tspan>
</text>
<text x="2350" y="586" class="Tb2" text-anchor="start">
<tspan x="2535">25/25</tspan>
<tspan x="2650">6/6</tspan>
<tspan x="2765">0</tspan>
<tspan x="2880">1</tspan>
<tspan x="2995">recharge :successful</tspan>
</text>
<text x="2350" y="616" class="Tb2" text-anchor="start">
<tspan x="2535">25/25</tspan>
<tspan x="2650">6/6</tspan>
<tspan x="2765">0</tspan>
<tspan x="2880">1</tspan>
<tspan x="2995">recharge :successful</tspan>
</text>
<text x="2350" y="646" class="Tb2" text-anchor="start">
<tspan x="2535">22/25</tspan>
<tspan x="2650">6/6</tspan>
<tspan x="2765">0</tspan>
<tspan x="2880">1</tspan>
<tspan x="2995">goto v44:successful</tspan>
</text>
<text x="2350" y="676" class="Tb2" text-anchor="start">
<tspan x="2535">18/20</tspan>
<tspan x="2650">3/3</tspan>
<tspan x="2765">3</tspan>
<tspan x="2880">1</tspan>
<tspan x="2995">goto v195:successful</tspan>
</text>
<text x="2350" y="706" class="Tb2" text-anchor="start">
<tspan x="2535">11/20</tspan>
<tspan x="2650">3/3</tspan>
<tspan x="2765">3</tspan>
<tspan x="2880">1</tspan>
<tspan x="2995">goto v150:successful</tspan>
</text>
<text x="2350" y="736" class="Tb2" text-anchor="start">
<tspan x="2535">20/20</tspan>
<tspan x="2650">3/3</tspan>
<tspan x="2765">3</tspan>
<tspan x="2880">1</tspan>
<tspan x="2995">recharge :successful</tspan>
</text>
<text x="2350" y="766" class="Tb2" text-anchor="start">
<tspan x="2535">20/20</tspan>
<tspan x="2650">3/3</tspan>
<tspan x="2765">3</tspan>
<tspan x="2880">1</tspan>
<tspan x="2995">recharge :successful</tspan>
</text>
<text x="2350" y="796" class="Tb2" text-anchor="start">
<tspan x="2535">21/30</tspan>
<tspan x="2650">1/1</tspan>
<tspan x="2765">0</tspan>
<tspan x="2880">3</tspan>
<tspan x="2995">goto v67:successful</tspan>
</text>
<text x="2350" y="826" class="Tb2" text-anchor="start">
<tspan x="2535">30/30</tspan>
<tspan x="2650">1/1</tspan>
<tspan x="2765">0</tspan>
<tspan x="2880">3</tspan>
<tspan x="2995">recharge :successful</tspan>
</text>
<text x="2350" y="856" class="Tb2" text-anchor="start">
<tspan x="2535">23/30</tspan>
<tspan x="2650">1/1</tspan>
<tspan x="2765">0</tspan>
<tspan x="2880">3</tspan>
<tspan x="2995">goto v296:successful</tspan>
</text>
<text x="2350" y="886" class="Tb2" text-anchor="start">
<tspan x="2535">23/30</tspan>
<tspan x="2650">1/1</tspan>
<tspan x="2765">0</tspan>
<tspan x="2880">3</tspan>
<tspan x="2995">goto v37:successful</tspan>
</text>
<text x="2350" y="916" class="Tb2" text-anchor="start">
<tspan x="2535">30/30</tspan>
<tspan x="2650">1/1</tspan>
<tspan x="2765">0</tspan>
<tspan x="2880">3</tspan>
<tspan x="2995">recharge :successful</tspan>
</text>
<text x="2350" y="946" class="Tb2" text-anchor="start">
<tspan x="2535">30/30</tspan>
<tspan x="2650">1/1</tspan>
<tspan x="2765">0</tspan>
<tspan x="2880">3</tspan>
<tspan x="2995">recharge :successful</tspan>
</text>
<text x="2350" y="976" class="Tb2" text-anchor="start">
<tspan x="2535">25/25</tspan>
<tspan x="2650">6/6</tspan>
<tspan x="2765">0</tspan>
<tspan x="2880">1</tspan>
<tspan x="2995">recharge :successful</tspan>
</text>
<text x="2350" y="1006" class="Tb2" text-anchor="start">
<tspan x="2535">25/25</tspan>
<tspan x="2650">6/6</tspan>
<tspan x="2765">0</tspan>
<tspan x="2880">1</tspan>
<tspan x="2995">recharge :successful</tspan>
</text>
<text x="2350" y="1036" class="Tb2" text-anchor="start">
<tspan x="2535">24/25</tspan>
<tspan x="2650">6/6</tspan>
<tspan x="2765">0</tspan>
<tspan x="2880">1</tspan>
<tspan x="2995">goto v217:successful</tspan>
</text>
<text x="2350" y="1066" class="Tb2" text-anchor="start">
<tspan x="2535">25/25</tspan>
<tspan x="2650">6/6</tspan>
<tspan x="2765">0</tspan>
<tspan x="2880">1</tspan>
<tspan x="2995">recharge :successful</tspan>
</text>
<text x="2350" y="1096" class="Tb2" text-anchor="start">
<tspan x="2535">25/25</tspan>
<tspan x="2650">6/6</tspan>
<tspan x="2765">0</tspan>
<tspan x="2880">1</tspan>
<tspan x="2995">recharge :successful</tspan>
</text>
<text x="2350" y="1126" class="Tb2" text-anchor="start">
<tspan x="2535">23/25</tspan>
<tspan x="2650">6/6</tspan>
<tspan x="2765">0</tspan>
<tspan x="2880">1</tspan>
<tspan x="2995">inspect :successful</tspan>
</text>
<text x="2350" y="1156" class="Tb2" text-anchor="start">
<tspan x="2535">35/35</tspan>
<tspan x="2650">4/4</tspan>
<tspan x="2765">0</tspan>
<tspan x="2880">2</tspan>
<tspan fill="red" x="2995">noAction :failed</tspan>
</text>
<text x="2350" y="1186" class="Tb2" text-anchor="start">
<tspan x="2535">35/35</tspan>
<tspan x="2650">4/4</tspan>
<tspan x="2765">0</tspan>
<tspan x="2880">2</tspan>
<tspan fill="red" x="2995">noAction :failed</tspan>
</text>
<text x="2350" y="1216" class="Tb2" text-anchor="start">
<tspan x="2535">35/35</tspan>
<tspan x="2650">4/4</tspan>
<tspan x="2765">0</tspan>
<tspan x="2880">2</tspan>
<tspan fill="red" x="2995">noAction :failed</tspan>
</text>
<text x="2350" y="1246" class="Tb2" text-anchor="start">
<tspan x="2535">35/35</tspan>
<tspan x="2650">4/4</tspan>
<tspan x="2765">0</tspan>
<tspan x="2880">2</tspan>
<tspan fill="red" x="2995">noAction :failed</tspan>
</text>
<text x="2350" y="1276" class="Tb2" text-anchor="start">
<tspan x="2535">35/35</tspan>
<tspan x="2650">4/4</tspan>
<tspan x="2765">0</tspan>
<tspan x="2880">2</tspan>
<tspan fill="red" x="2995">noAction :failed</tspan>
</text>
<text x="2350" y="1306" class="Tb2" text-anchor="start">
<tspan x="2535">35/35</tspan>
<tspan x="2650">4/4</tspan>
<tspan x="2765">0</tspan>
<tspan x="2880">2</tspan>
<tspan fill="red" x="2995">noAction :failed</tspan>
</text>
<text x="2350" y="1336" class="Tb2" text-anchor="start">
<tspan x="2535">25/25</tspan>
<tspan x="2650">6/6</tspan>
<tspan x="2765">0</tspan>
<tspan x="2880">1</tspan>
<tspan fill="red" x="2995">noAction :failed</tspan>
</text>
<text x="2350" y="1366" class="Tb2" text-anchor="start">
<tspan x="2535">25/25</tspan>
<tspan x="2650">6/6</tspan>
<tspan x="2765">0</tspan>
<tspan x="2880">1</tspan>
<tspan fill="red" x="2995">noAction :failed</tspan>
</text>
<text x="2350" y="1396" class="Tb2" text-anchor="start">
<tspan x="2535">25/25</tspan>
<tspan x="2650">6/6</tspan>
<tspan x="2765">0</tspan>
<tspan x="2880">1</tspan>
<tspan fill="red" x="2995">noAction :failed</tspan>
</text>
<text x="2350" y="1426" class="Tb2" text-anchor="start">
<tspan x="2535">25/25</tspan>
<tspan x="2650">6/6</tspan>
<tspan x="2765">0</tspan>
<tspan x="2880">1</tspan>
<tspan fill="red" x="2995">noAction :failed</tspan>
</text>
<text x="2350" y="1456" class="Tb2" text-anchor="start">
<tspan x="2535">25/25</tspan>
<tspan x="2650">6/6</tspan>
<tspan x="2765">0</tspan>
<tspan x="2880">1</tspan>
<tspan fill="red" x="2995">noAction :failed</tspan>
</text>
<text x="2350" y="1486" class="Tb2" text-anchor="start">
<tspan x="2535">25/25</tspan>
<tspan x="2650">6/6</tspan>
<tspan x="2765">0</tspan>
<tspan x="2880">1</tspan>
<tspan fill="red" x="2995">noAction :failed</tspan>
</text>
<text x="2350" y="1516" class="Tb2" text-anchor="start">
<tspan x="2535">20/20</tspan>
<tspan x="2650">3/3</tspan>
<tspan x="2765">3</tspan>
<tspan x="2880">1</tspan>
<tspan fill="red" x="2995">noAction :failed</tspan>
</text>
<text x="2350" y="1546" class="Tb2" text-anchor="start">
<tspan x="2535">20/20</tspan>
<tspan x="2650">3/3</tspan>
<tspan x="2765">3</tspan>
<tspan x="2880">1</tspan>
<tspan fill="red" x="2995">noAction :failed</tspan>
</text>
<text x="2350" y="1576" class="Tb2" text-anchor="start">
<tspan x="2535">20/20</tspan>
<tspan x="2650">3/3</tspan>
<tspan x="2765">3</tspan>
<tspan x="2880">1</tspan>
<tspan fill="red" x="2995">noAction :failed</tspan>
</text>
<text x="2350" y="1606" class="Tb2" text-anchor="start">
<tspan x="2535">20/20</tspan>
<tspan x="2650">3/3</tspan>
<tspan x="2765">3</tspan>
<tspan x="2880">1</tspan>
<tspan fill="red" x="2995">noAction :failed_random</tspan>
</text>
<text x="2350" y="1636" class="Tb2" text-anchor="start">
<tspan x="2535">30/30</tspan>
<tspan x="2650">1/1</tspan>
<tspan x="2765">0</tspan>
<tspan x="2880">3</tspan>
<tspan fill="red" x="2995">noAction :failed</tspan>
</text>
<text x="2350" y="1666" class="Tb2" text-anchor="start">
<tspan x="2535">30/30</tspan>
<tspan x="2650">1/1</tspan>
<tspan x="2765">0</tspan>
<tspan x="2880">3</tspan>
<tspan fill="red" x="2995">noAction :failed</tspan>
</text>
<text x="2350" y="1696" class="Tb2" text-anchor="start">
<tspan x="2535">30/30</tspan>
<tspan x="2650">1/1</tspan>
<tspan x="2765">0</tspan>
<tspan x="2880">3</tspan>
<tspan fill="red" x="2995">noAction :failed</tspan>
</text>
<text x="2350" y="1726" class="Tb2" text-anchor="start">
<tspan x="2535">30/30</tspan>
<tspan x="2650">1/1</tspan>
<tspan x="2765">0</tspan>
<tspan x="2880">3</tspan>
<tspan fill="red" x="2995">noAction :failed</tspan>
</text>
<text x="2350" y="1756" class="Tb2" text-anchor="start">
<tspan x="2535">30/30</tspan>
<tspan x="2650">1/1</tspan>
<tspan x="2765">0</tspan>
<tspan x="2880">3</tspan>
<tspan fill="red" x="2995">noAction :failed</tspan>
</text>
<text x="2350" y="1786" class="Tb2" text-anchor="start">
<tspan x="2535">30/30</tspan>
<tspan x="2650">1/1</tspan>
<tspan x="2765">0</tspan>
<tspan x="2880">3</tspan>
<tspan fill="red" x="2995">noAction :failed</tspan>
</text>
<text x="2350" y="1816" class="Tb2" text-anchor="start">
<tspan x="2535">25/25</tspan>
<tspan x="2650">6/6</tspan>
<tspan x="2765">0</tspan>
<tspan x="2880">1</tspan>
<tspan fill="red" x="2995">noAction :failed</tspan>
</text>
<text x="2350" y="1846" class="Tb2" text-anchor="start">
<tspan x="2535">25/25</tspan>
<tspan x="2650">6/6</tspan>
<tspan x="2765">0</tspan>
<tspan x="2880">1</tspan>
<tspan fill="red" x="2995">noAction :failed</tspan>
</text>
<text x="2350" y="1876" class="Tb2" text-anchor="start">
<tspan x="2535">25/25</tspan>
<tspan x="2650">6/6</tspan>
<tspan x="2765">0</tspan>
<tspan x="2880">1</tspan>
<tspan fill="red" x="2995">noAction :failed</tspan>
</text>
<text x="2350" y="1906" class="Tb2" text-anchor="start">
<tspan x="2535">25/25</tspan>
<tspan x="2650">6/6</tspan>
<tspan x="2765">0</tspan>
<tspan x="2880">1</tspan>
<tspan fill="red" x="2995">noAction :failed</tspan>
</text>
<text x="2350" y="1936" class="Tb2" text-anchor="start">
<tspan x="2535">25/25</tspan>
<tspan x="2650">6/6</tspan>
<tspan x="2765">0</tspan>
<tspan x="2880">1</tspan>
<tspan fill="red" x="2995">noAction :failed</tspan>
</text>
<text x="2350" y="1966" class="Tb2" text-anchor="start">
<tspan x="2535">25/25</tspan>
<tspan x="2650">6/6</tspan>
<tspan x="2765">0</tspan>
<tspan x="2880">1</tspan>
<tspan fill="red" x="2995">noAction :failed</tspan>
</text>
</g>
<line y2="442" x1="3290" class="s5 sw1" x2="3290" y1="1996"/>
<g id="achievementPart" transform="translate(-100, 150)">
<text x="3400" y="301" class="TxtAch">
<tspan x="3400">Achievements</tspan>
<tspan fill="rgba(0,158,115,1.0)" x="3400" y="331">Nabf</tspan>
<tspan x="3400" y="351">proved5</tspan>
<tspan x="3400" y="371">area10</tspan>
<tspan fill="rgba(0,114,178,1.0)" x="3400" y="396">GOAL-DTU</tspan>
<tspan x="3400" y="416">area10</tspan>
</text>
</g>
</g>
</svg>
