<?xml version="1.0" encoding="UTF-8"?><?xml-stylesheet type="text/css" href="style.css"?><svg xmlns="http://www.w3.org/2000/svg" xmlns:xlink="http://www.w3.org/1999/xlink" contentScriptType="text/ecmascript" zoomAndPan="magnify" contentStyleType="text/css" preserveAspectRatio="xMidYMid meet" version="1.0">
<g id="scaleSvg" transform="scale(0.25)">
<polygon class="T1" points="1850,2150 1950,2050 1950,2150 "/>
<polygon class="T1" points="450,450 550,650 450,750 450,650 "/>
<polygon class="T1" points="1950,2050 1850,2150 1950,2050 1950,2150 1850,2150 "/>
<polygon class="T1" points="1950,2050 2050,1950 1950,2050 1950,2150 1850,2150 "/>
<polygon class="T1" points="1950,2150 1950,2050 1950,2150 1850,2150 1950,2050 "/>
<polygon class="T1" points="1850,2150 1950,2150 1850,2150 1950,2050 1950,2150 "/>
<polygon class="T1" points="550,650 450,450 550,650 450,750 450,650 450,450 "/>
<polygon class="T1" points="450,450 450,650 450,450 550,650 450,750 450,650 "/>
<polygon class="T1" points="450,750 550,650 450,750 450,650 450,450 550,650 "/>
<polygon class="T1" points="450,650 450,750 450,650 450,450 550,650 450,750 "/>
<circle r="25" class="T1n" cx="1950" cy="2150"/>
<circle r="25" class="T1n" cx="750" cy="1250"/>
<circle r="25" class="T1n" cx="1350" cy="2050"/>
<circle r="25" class="T1n" cx="1750" cy="1050"/>
<circle r="25" class="T1n" cx="2050" cy="1950"/>
<circle r="25" class="T1n" cx="1350" cy="450"/>
<circle r="25" class="T1n" cx="1550" cy="1350"/>
<circle r="25" class="T1n" cx="550" cy="650"/>
<circle r="25" class="T1n" cx="450" cy="450"/>
<circle r="25" class="T1n" cx="1150" cy="450"/>
<circle r="25" class="T1n" cx="450" cy="750"/>
<circle r="25" class="T1n" cx="850" cy="450"/>
<circle r="25" class="T1n" cx="1050" cy="150"/>
<circle r="25" class="T1n" cx="950" cy="950"/>
<circle r="25" class="T1n" cx="1550" cy="1450"/>
<circle r="25" class="T1n" cx="1450" cy="450"/>
<circle r="25" class="T1n" cx="1550" cy="1750"/>
<circle r="25" class="T1n" cx="1050" cy="450"/>
<circle r="25" class="T1n" cx="750" cy="1750"/>
<circle r="25" class="T1n" cx="450" cy="650"/>
<circle r="25" class="T1n" cx="1850" cy="2150"/>
<circle r="25" class="T1n" cx="1950" cy="2050"/>
<circle r="25" class="T1n" cx="1650" cy="1350"/>
<line y2="650" x1="450" class="T1e" x2="550" y1="450"/>
<line y2="450" x1="1050" class="T1e" x2="850" y1="450"/>
<line y2="450" x1="450" class="T1e" x2="450" y1="650"/>
<line y2="750" x1="550" class="T1e" x2="450" y1="650"/>
<line y2="750" x1="450" class="T1e" x2="450" y1="650"/>
<line y2="1450" x1="1550" class="T1e" x2="1550" y1="1750"/>
<line y2="450" x1="1150" class="T1e" x2="1350" y1="450"/>
<line y2="2150" x1="1950" class="T1e" x2="1850" y1="2050"/>
<line y2="1950" x1="1950" class="T1e" x2="2050" y1="2050"/>
<line y2="1350" x1="1550" class="T1e" x2="1650" y1="1450"/>
<line y2="2150" x1="1950" class="T1e" x2="1950" y1="2050"/>
<line y2="2150" x1="1850" class="T1e" x2="1950" y1="2150"/>
<line y2="1350" x1="1650" class="T1e" x2="1550" y1="1350"/>
<line y2="450" x1="1450" class="T1e" x2="1350" y1="450"/>
<line y2="450" x1="1050" class="T1e" x2="1150" y1="450"/>
<circle r="5" class="N" cx="1950" cy="2150"/>
<circle r="8" class="N" cx="750" cy="1250"/>
<circle r="5" class="N" cx="1350" cy="2050"/>
<circle r="5" class="N" cx="1750" cy="1050"/>
<circle r="8" class="N" cx="2050" cy="1950"/>
<circle r="18" class="N" cx="1350" cy="450"/>
<circle r="8" class="N" cx="1550" cy="1350"/>
<circle r="6" class="N" cx="550" cy="650"/>
<circle r="6" class="N" cx="450" cy="450"/>
<circle r="14" class="N" cx="1150" cy="450"/>
<circle r="8" class="N" cx="450" cy="750"/>
<circle r="18" class="N" cx="850" cy="450"/>
<circle r="5" class="N" cx="1050" cy="150"/>
<circle r="12" class="N" cx="950" cy="950"/>
<circle r="18" class="N" cx="1550" cy="1450"/>
<circle r="12" class="N" cx="1450" cy="450"/>
<circle r="15" class="N" cx="1550" cy="1750"/>
<circle r="14" class="N" cx="1050" cy="450"/>
<circle r="5" class="N" cx="750" cy="1750"/>
<circle r="8" class="N" cx="450" cy="650"/>
<circle r="5" class="N" cx="1850" cy="2150"/>
<circle r="6" class="N" cx="1950" cy="2050"/>
<circle r="11" class="N" cx="1650" cy="1350"/>
<line x1="450" x2="550" y1="450" y2="650" style="stroke-width:11;" class="E"/>
<line y2="450" x1="1050" class="E sw5" x2="850" y1="450"/>
<line y2="450" x1="450" class="E sw3" x2="450" y1="650"/>
<line y2="750" x1="550" class="E sw4" x2="450" y1="650"/>
<line y2="750" x1="450" class="E sw4" x2="450" y1="650"/>
<line x1="1550" x2="1550" y1="1750" y2="1450" style="stroke-width:11;" class="E"/>
<line y2="450" x1="1150" class="E sw5" x2="1350" y1="450"/>
<line y2="2150" x1="1950" class="E sw10" x2="1850" y1="2050"/>
<line y2="1950" x1="1950" class="E sw8" x2="2050" y1="2050"/>
<line y2="1350" x1="1550" class="E sw3" x2="1650" y1="1450"/>
<line y2="2150" x1="1950" class="E sw5" x2="1950" y1="2050"/>
<line y2="2150" x1="1850" class="E sw7" x2="1950" y1="2150"/>
<line y2="1350" x1="1650" class="E sw8" x2="1550" y1="1350"/>
<line x1="1450" x2="1350" y1="450" y2="450" style="stroke-width:11;" class="E"/>
<line y2="450" x1="1050" class="E sw6" x2="1150" y1="450"/>
<polygon class="T2" points="250,550 50,650 150,550 "/>
<polygon class="T2" points="550,1750 450,1850 450,1750 "/>
<polygon class="T2" points="850,1850 850,2050 750,2050 750,1950 "/>
<polygon class="T2" points="550,2150 450,2050 550,1950 650,2050 "/>
<polygon class="T2" points="550,1950 450,2050 450,1950 450,1850 "/>
<polygon class="T2" points="50,650 250,550 50,650 150,550 250,550 "/>
<polygon class="T2" points="350,650 250,850 150,850 50,650 250,550 "/>
<polygon class="T2" points="50,650 150,850 50,650 150,550 250,550 "/>
<polygon class="T2" points="450,1750 450,1550 450,1750 550,1750 450,1850 "/>
<polygon class="T2" points="50,650 50,850 50,650 150,550 250,550 "/>
<polygon class="T2" points="450,1750 350,1850 450,1750 550,1750 450,1850 "/>
<polygon class="T2" points="150,550 50,650 150,550 250,550 50,650 "/>
<polygon class="T2" points="550,1950 450,1850 450,1750 550,1750 450,1850 "/>
<polygon class="T2" points="450,1850 550,1750 450,1850 450,1750 550,1750 "/>
<polygon class="T2" points="350,650 250,550 50,650 150,550 250,550 "/>
<polygon class="T2" points="450,1750 450,1850 450,1750 550,1750 450,1850 "/>
<polygon class="T2" points="550,1750 450,1750 550,1750 450,1850 450,1750 "/>
<polygon class="T2" points="350,550 250,550 50,650 150,550 250,550 "/>
<polygon class="T2" points="250,550 150,550 250,550 50,650 150,550 "/>
<polygon class="T2" points="450,1850 450,1950 450,1850 450,1750 550,1750 "/>
<polygon class="T2" points="550,2150 850,2150 550,2150 450,2050 550,1950 650,2050 "/>
<polygon class="T2" points="850,2050 850,1850 850,2050 750,2050 750,1950 850,1850 "/>
<polygon class="T2" points="450,2050 550,2150 450,2050 550,1950 650,2050 550,2150 "/>
<polygon class="T2" points="550,2150 650,2050 550,2150 450,2050 550,1950 650,2050 "/>
<polygon class="T2" points="650,2050 550,1950 450,2050 450,1950 450,1850 550,1950 "/>
<polygon class="T2" points="850,1850 750,1950 850,1850 850,2050 750,2050 750,1950 "/>
<polygon class="T2" points="450,1950 450,2050 550,1950 650,2050 550,2150 450,2050 "/>
<polygon class="T2" points="650,2050 750,2050 650,2050 550,2150 450,2050 550,1950 "/>
<polygon class="T2" points="750,1950 750,2050 750,1950 850,1850 850,2050 750,2050 "/>
<polygon class="T2" points="750,2050 850,2050 750,2050 750,1950 850,1850 850,2050 "/>
<polygon class="T2" points="250,850 350,650 250,850 150,850 50,650 250,550 350,650 "/>
<polygon class="T2" points="350,550 350,350 350,550 250,550 50,650 150,550 250,550 "/>
<polygon class="T2" points="450,1550 350,1650 450,1550 450,1750 550,1750 450,1850 450,1750 "/>
<polygon class="T2" points="150,850 250,850 150,850 50,650 250,550 350,650 250,850 "/>
<circle r="25" class="T2n" cx="150" cy="550"/>
<circle r="25" class="T2n" cx="250" cy="850"/>
<circle r="25" class="T2n" cx="1150" cy="1850"/>
<circle r="25" class="T2n" cx="350" cy="550"/>
<circle r="25" class="T2n" cx="1850" cy="1850"/>
<circle r="25" class="T2n" cx="2150" cy="350"/>
<circle r="25" class="T2n" cx="450" cy="350"/>
<circle r="25" class="T2n" cx="250" cy="550"/>
<circle r="25" class="T2n" cx="50" cy="850"/>
<circle r="25" class="T2n" cx="1650" cy="2150"/>
<circle r="25" class="T2n" cx="150" cy="850"/>
<circle r="25" class="T2n" cx="850" cy="1850"/>
<circle r="25" class="T2n" cx="1750" cy="250"/>
<circle r="25" class="T2n" cx="450" cy="2050"/>
<circle r="25" class="T2n" cx="650" cy="2050"/>
<circle r="25" class="T2n" cx="750" cy="1950"/>
<circle r="25" class="T2n" cx="250" cy="1850"/>
<circle r="25" class="T2n" cx="850" cy="2150"/>
<circle r="25" class="T2n" cx="550" cy="2150"/>
<circle r="25" class="T2n" cx="750" cy="2050"/>
<circle r="25" class="T2n" cx="350" cy="350"/>
<circle r="25" class="T2n" cx="450" cy="1550"/>
<circle r="25" class="T2n" cx="350" cy="1850"/>
<circle r="25" class="T2n" cx="550" cy="1750"/>
<circle r="25" class="T2n" cx="350" cy="650"/>
<circle r="25" class="T2n" cx="450" cy="1750"/>
<circle r="25" class="T2n" cx="50" cy="650"/>
<circle r="25" class="T2n" cx="850" cy="2050"/>
<circle r="25" class="T2n" cx="50" cy="1650"/>
<circle r="25" class="T2n" cx="550" cy="1950"/>
<circle r="25" class="T2n" cx="350" cy="1650"/>
<circle r="25" class="T2n" cx="1950" cy="50"/>
<circle r="25" class="T2n" cx="1350" cy="50"/>
<circle r="25" class="T2n" cx="1450" cy="1150"/>
<circle r="25" class="T2n" cx="450" cy="1950"/>
<circle r="25" class="T2n" cx="450" cy="1850"/>
<circle r="25" class="T2n" cx="1350" cy="2150"/>
<line y2="2150" x1="550" class="T2e" x2="850" y1="2150"/>
<line y2="1650" x1="250" class="T2e" x2="350" y1="1850"/>
<line y2="650" x1="250" class="T2e" x2="50" y1="550"/>
<line y2="850" x1="350" class="T2e" x2="250" y1="650"/>
<line y2="650" x1="150" class="T2e" x2="50" y1="850"/>
<line y2="1550" x1="450" class="T2e" x2="450" y1="1750"/>
<line y2="350" x1="350" class="T2e" x2="350" y1="550"/>
<line y2="850" x1="50" class="T2e" x2="50" y1="650"/>
<line y2="2050" x1="850" class="T2e" x2="850" y1="1850"/>
<line y2="1850" x1="450" class="T2e" x2="350" y1="1750"/>
<line y2="2150" x1="450" class="T2e" x2="550" y1="2050"/>
<line y2="1950" x1="450" class="T2e" x2="550" y1="2050"/>
<line y2="650" x1="150" class="T2e" x2="50" y1="550"/>
<line y2="2050" x1="550" class="T2e" x2="650" y1="2150"/>
<line y2="1850" x1="550" class="T2e" x2="450" y1="1950"/>
<line y2="2050" x1="550" class="T2e" x2="650" y1="1950"/>
<line y2="1750" x1="450" class="T2e" x2="550" y1="1850"/>
<line y2="650" x1="250" class="T2e" x2="350" y1="550"/>
<line y2="1850" x1="750" class="T2e" x2="850" y1="1950"/>
<line y2="1650" x1="450" class="T2e" x2="350" y1="1550"/>
<line y2="1850" x1="450" class="T2e" x2="450" y1="1750"/>
<line y2="1750" x1="450" class="T2e" x2="550" y1="1750"/>
<line y2="550" x1="350" class="T2e" x2="250" y1="550"/>
<line y2="350" x1="450" class="T2e" x2="350" y1="350"/>
<line y2="1950" x1="450" class="T2e" x2="450" y1="2050"/>
<line y2="550" x1="150" class="T2e" x2="250" y1="550"/>
<line y2="1950" x1="450" class="T2e" x2="450" y1="1850"/>
<line y2="2050" x1="650" class="T2e" x2="750" y1="2050"/>
<line y2="2050" x1="750" class="T2e" x2="750" y1="1950"/>
<line y2="850" x1="150" class="T2e" x2="250" y1="850"/>
<line y2="2050" x1="750" class="T2e" x2="850" y1="2050"/>
<line y2="2150" x1="1650" class="T2e" x2="1350" y1="2150"/>
<circle r="6" class="N" cx="150" cy="550"/>
<circle r="11" class="N" cx="250" cy="850"/>
<circle r="5" class="N" cx="1150" cy="1850"/>
<circle r="6" class="N" cx="350" cy="550"/>
<circle r="9" class="N" cx="1850" cy="1850"/>
<circle r="5" class="N" cx="2150" cy="350"/>
<circle r="5" class="N" cx="450" cy="350"/>
<circle r="9" class="N" cx="250" cy="550"/>
<circle r="8" class="N" cx="50" cy="850"/>
<circle r="5" class="N" cx="1650" cy="2150"/>
<circle r="8" class="N" cx="150" cy="850"/>
<circle r="5" class="N" cx="850" cy="1850"/>
<circle r="5" class="N" cx="1750" cy="250"/>
<circle r="5" class="N" cx="450" cy="2050"/>
<circle r="5" class="N" cx="650" cy="2050"/>
<circle r="5" class="N" cx="750" cy="1950"/>
<circle r="14" class="N" cx="250" cy="1850"/>
<circle r="5" class="N" cx="850" cy="2150"/>
<circle r="5" class="N" cx="550" cy="2150"/>
<circle r="5" class="N" cx="750" cy="2050"/>
<circle r="5" class="N" cx="350" cy="350"/>
<circle r="14" class="N" cx="450" cy="1550"/>
<circle r="9" class="N" cx="350" cy="1850"/>
<circle r="8" class="N" cx="550" cy="1750"/>
<circle r="18" class="N" cx="350" cy="650"/>
<circle r="9" class="N" cx="450" cy="1750"/>
<circle r="8" class="N" cx="50" cy="650"/>
<circle r="5" class="N" cx="850" cy="2050"/>
<circle r="8" class="N" cx="50" cy="1650"/>
<circle r="5" class="N" cx="550" cy="1950"/>
<circle r="18" class="N" cx="350" cy="1650"/>
<circle r="5" class="N" cx="1950" cy="50"/>
<circle r="5" class="N" cx="1350" cy="50"/>
<circle r="11" class="N" cx="1450" cy="1150"/>
<circle r="5" class="N" cx="450" cy="1950"/>
<circle r="6" class="N" cx="450" cy="1850"/>
<circle r="5" class="N" cx="1350" cy="2150"/>
<line y2="2150" x1="550" class="E sw4" x2="850" y1="2150"/>
<line x1="250" x2="350" y1="1850" y2="1650" style="stroke-width:11;" class="E"/>
<line x1="250" x2="50" y1="550" y2="650" style="stroke-width:11;" class="E"/>
<line y2="850" x1="350" class="E sw4" x2="250" y1="650"/>
<line y2="650" x1="150" class="E sw4" x2="50" y1="850"/>
<line y2="1550" x1="450" class="E sw8" x2="450" y1="1750"/>
<line y2="350" x1="350" class="E sw9" x2="350" y1="550"/>
<line x1="50" x2="50" y1="650" y2="850" style="stroke-width:11;" class="E"/>
<line y2="2050" x1="850" class="E sw3" x2="850" y1="1850"/>
<line y2="1850" x1="450" class="E sw4" x2="350" y1="1750"/>
<line y2="2150" x1="450" class="E sw6" x2="550" y1="2050"/>
<line y2="1950" x1="450" class="E sw10" x2="550" y1="2050"/>
<line y2="650" x1="150" class="E sw9" x2="50" y1="550"/>
<line y2="2050" x1="550" class="E sw4" x2="650" y1="2150"/>
<line y2="1850" x1="550" class="E sw9" x2="450" y1="1950"/>
<line x1="550" x2="650" y1="1950" y2="2050" style="stroke-width:11;" class="E"/>
<line y2="1750" x1="450" class="E sw5" x2="550" y1="1850"/>
<line y2="650" x1="250" class="E sw8" x2="350" y1="550"/>
<line y2="1850" x1="750" class="E sw4" x2="850" y1="1950"/>
<line x1="450" x2="350" y1="1550" y2="1650" style="stroke-width:11;" class="E"/>
<line x1="450" x2="450" y1="1750" y2="1850" style="stroke-width:11;" class="E"/>
<line y2="1750" x1="450" class="E sw8" x2="550" y1="1750"/>
<line y2="550" x1="350" class="E sw5" x2="250" y1="550"/>
<line y2="350" x1="450" class="E sw3" x2="350" y1="350"/>
<line y2="1950" x1="450" class="E sw9" x2="450" y1="2050"/>
<line x1="150" x2="250" y1="550" y2="550" style="stroke-width:11;" class="E"/>
<line y2="1950" x1="450" class="E sw10" x2="450" y1="1850"/>
<line y2="2050" x1="650" class="E sw10" x2="750" y1="2050"/>
<line x1="750" x2="750" y1="1950" y2="2050" style="stroke-width:11;" class="E"/>
<line y2="850" x1="150" class="E sw5" x2="250" y1="850"/>
<line y2="2050" x1="750" class="E sw3" x2="850" y1="2050"/>
<line y2="2150" x1="1650" class="E sw4" x2="1350" y1="2150"/>
<rect x="239" width="36" y="880" height="36" class="s5 sw2 f13"/>
<rect x="230" width="54" y="862" height="18" class="s13 sw2 f7"/>
<text x="250" y="901" class="f4">20</text>
<polygon class=" s5 sw2 f13" points="1148,1880 1166,1880 1175,1889 1175,1907 1166,1916 1148,1916 1139,1907 1139,1889"/>
<rect x="1130" width="54" y="1862" height="18" class="s13 sw2 f7"/>
<text x="1150" y="1901" class="f4">7</text>
<polygon class=" s5 sw2 f13" points="730,1280 784,1280 757,1316"/>
<rect x="730" width="54" y="1262" height="18" class="s13 sw2 f7"/>
<text x="750" y="1301" class="f4">28</text>
<polygon class=" s5 sw2 f14" points="760,1253 814,1253 787,1289"/>
<rect x="760" width="54" y="1235" height="18" class="s14 sw2 f8"/>
<text x="780" y="1274" class="f4">25</text>
<line y2="1247" x1="790" class="s4 sw3" x2="802" y1="1241"/>
<circle r="6" class="s4 sw0 f4" cx="790" cy="1241"/>
<polygon class=" s5 sw2 f14" points="753,1215 807,1215 780,1251"/>
<rect x="753" width="54" y="1197" height="18" class="s14 sw2 f8"/>
<text x="773" y="1236" class="f4">24</text>
<line y2="1209" x1="783" class="s4 sw3" x2="795" y1="1203"/>
<circle r="6" class="s4 sw0 f4" cx="783" cy="1203"/>
<circle r="18" class="s5 sw2 f14" cx="1357" cy="2098"/>
<rect x="1330" width="54" y="2062" height="18" class="s14 sw2 f8"/>
<text x="1350" y="2101" class="f4">6</text>
<circle r="3" class="s4 sw0 f4" cx="1366" cy="2065"/>
<circle r="3" class="s4 sw0 f4" cx="1366" cy="2077"/>
<circle r="3" class="s4 sw0 f4" cx="1357" cy="2071"/>
<circle r="3" class="s4 sw0 f4" cx="1375" cy="2071"/>
<line y2="2071" x1="1360" class="s4 sw1" x2="1372" y1="2071"/>
<line y2="2074" x1="1366" class="s4 sw1" x2="1366" y1="2068"/>
<rect x="339" width="36" y="580" height="36" class="s5 sw2 f13"/>
<rect x="330" width="54" y="562" height="18" class="s13 sw2 f7"/>
<text x="350" y="601" class="f4">19</text>
<polygon class=" s5 sw2 f14" points="1748,1080 1766,1080 1775,1089 1775,1107 1766,1116 1748,1116 1739,1107 1739,1089"/>
<rect x="1730" width="54" y="1062" height="18" class="s14 sw2 f8"/>
<text x="1750" y="1101" class="f4">7</text>
<circle r="3" class="s4 sw0 f4" cx="1766" cy="1065"/>
<circle r="3" class="s4 sw0 f4" cx="1766" cy="1077"/>
<circle r="3" class="s4 sw0 f4" cx="1757" cy="1071"/>
<circle r="3" class="s4 sw0 f4" cx="1775" cy="1071"/>
<line y2="1071" x1="1760" class="s4 sw1" x2="1772" y1="1071"/>
<line y2="1074" x1="1766" class="s4 sw1" x2="1766" y1="1068"/>
<rect x="2039" width="36" y="1980" height="36" class="s5 sw2 f14"/>
<rect x="2030" width="54" y="1962" height="18" class="s14 sw2 f8"/>
<text x="2050" y="2001" class="f4">19</text>
<circle r="3" class="s4 sw0 f4" cx="2066" cy="1965"/>
<circle r="3" class="s4 sw0 f4" cx="2066" cy="1977"/>
<circle r="3" class="s4 sw0 f4" cx="2057" cy="1971"/>
<circle r="3" class="s4 sw0 f4" cx="2075" cy="1971"/>
<line y2="1971" x1="2060" class="s4 sw1" x2="2072" y1="1971"/>
<line y2="1974" x1="2066" class="s4 sw1" x2="2066" y1="1968"/>
<polygon class=" s5 sw2 f14" points="2087,1953 2105,1971 2087,1989 2069,1971"/>
<rect x="2060" width="54" y="1935" height="18" class="s14 sw2 f8"/>
<text x="2080" y="1974" class="f4">16</text>
<circle r="3" class="s4 sw0 f4" cx="2096" cy="1938"/>
<circle r="3" class="s4 sw0 f4" cx="2096" cy="1950"/>
<circle r="3" class="s4 sw0 f4" cx="2087" cy="1944"/>
<circle r="3" class="s4 sw0 f4" cx="2105" cy="1944"/>
<line y2="1944" x1="2090" class="s4 sw1" x2="2102" y1="1944"/>
<line y2="1947" x1="2096" class="s4 sw1" x2="2096" y1="1941"/>
<polygon class=" s5 sw2 f14" points="1348,480 1366,480 1375,489 1375,507 1366,516 1348,516 1339,507 1339,489"/>
<rect x="1330" width="54" y="462" height="18" class="s14 sw2 f8"/>
<text x="1350" y="501" class="f4">11</text>
<circle r="3" class="s4 sw0 f4" cx="1366" cy="465"/>
<circle r="3" class="s4 sw0 f4" cx="1366" cy="477"/>
<circle r="3" class="s4 sw0 f4" cx="1357" cy="471"/>
<circle r="3" class="s4 sw0 f4" cx="1375" cy="471"/>
<line y2="471" x1="1360" class="s4 sw1" x2="1372" y1="471"/>
<line y2="474" x1="1366" class="s4 sw1" x2="1366" y1="468"/>
<polygon class=" s5 sw2 f14" points="1548,1380 1566,1380 1575,1389 1575,1407 1566,1416 1548,1416 1539,1407 1539,1389"/>
<rect x="1530" width="54" y="1362" height="18" class="s14 sw2 f8"/>
<text x="1550" y="1401" class="f4">8</text>
<circle r="3" class="s4 sw0 f4" cx="1566" cy="1365"/>
<circle r="3" class="s4 sw0 f4" cx="1566" cy="1377"/>
<circle r="3" class="s4 sw0 f4" cx="1557" cy="1371"/>
<circle r="3" class="s4 sw0 f4" cx="1575" cy="1371"/>
<line y2="1371" x1="1560" class="s4 sw1" x2="1572" y1="1371"/>
<line y2="1374" x1="1566" class="s4 sw1" x2="1566" y1="1368"/>
<rect x="1839" width="36" y="1880" height="36" class="s5 sw2 f13"/>
<rect x="1830" width="54" y="1862" height="18" class="s13 sw2 f7"/>
<text x="1850" y="1901" class="f4">22</text>
<polygon class=" s5 sw2 f13" points="2130,380 2184,380 2157,416"/>
<rect x="2130" width="54" y="362" height="18" class="s13 sw2 f7"/>
<text x="2150" y="401" class="f4">24</text>
<circle r="18" class="s5 sw2 f13" cx="457" cy="398"/>
<rect x="430" width="54" y="362" height="18" class="s13 sw2 f7"/>
<text x="450" y="401" class="f4">5</text>
<polygon class=" s5 sw2 f13" points="248,580 266,580 275,589 275,607 266,616 248,616 239,607 239,589"/>
<rect x="230" width="54" y="562" height="18" class="s13 sw2 f7"/>
<text x="250" y="601" class="f4">11</text>
<circle r="18" class="s5 sw2 f14" cx="457" cy="498"/>
<rect x="430" width="54" y="462" height="18" class="s14 sw2 f8"/>
<text x="450" y="501" class="f4">2</text>
<circle r="3" class="s4 sw0 f4" cx="466" cy="465"/>
<circle r="3" class="s4 sw0 f4" cx="466" cy="477"/>
<circle r="3" class="s4 sw0 f4" cx="457" cy="471"/>
<circle r="3" class="s4 sw0 f4" cx="475" cy="471"/>
<line y2="471" x1="460" class="s4 sw1" x2="472" y1="471"/>
<line y2="474" x1="466" class="s4 sw1" x2="466" y1="468"/>
<polygon class=" s5 sw2 f13" points="1030,780 1084,780 1057,816"/>
<rect x="1030" width="54" y="762" height="18" class="s13 sw2 f7"/>
<text x="1050" y="801" class="f4">23</text>
<polygon class=" s5 sw2 f14" points="1060,753 1114,753 1087,789"/>
<rect x="1060" width="54" y="735" height="18" class="s14 sw2 f8"/>
<text x="1080" y="774" class="f4">23</text>
<polygon class=" s4 sw0 f4" points="1096,735 1096,741 1102,741 1090,753 1090,747 1084,747"/>
<rect x="439" width="36" y="780" height="36" class="s5 sw2 f14"/>
<rect x="430" width="54" y="762" height="18" class="s14 sw2 f8"/>
<text x="450" y="801" class="f4">17</text>
<circle r="3" class="s4 sw0 f4" cx="466" cy="765"/>
<circle r="3" class="s4 sw0 f4" cx="466" cy="777"/>
<circle r="3" class="s4 sw0 f4" cx="457" cy="771"/>
<circle r="3" class="s4 sw0 f4" cx="475" cy="771"/>
<line y2="771" x1="460" class="s4 sw1" x2="472" y1="771"/>
<line y2="774" x1="466" class="s4 sw1" x2="466" y1="768"/>
<circle r="18" class="s5 sw2 f13" cx="1657" cy="2198"/>
<rect x="1630" width="54" y="2162" height="18" class="s13 sw2 f7"/>
<text x="1650" y="2201" class="f4">4</text>
<polygon class=" s5 sw2 f13" points="848,1880 866,1880 875,1889 875,1907 866,1916 848,1916 839,1907 839,1889"/>
<rect x="830" width="54" y="1862" height="18" class="s13 sw2 f7"/>
<text x="850" y="1901" class="f4">12</text>
<polygon class=" s5 sw2 f14" points="848,480 866,480 875,489 875,507 866,516 848,516 839,507 839,489"/>
<rect x="830" width="54" y="462" height="18" class="s14 sw2 f8"/>
<text x="850" y="501" class="f4">9</text>
<circle r="3" class="s4 sw0 f4" cx="866" cy="465"/>
<circle r="3" class="s4 sw0 f4" cx="866" cy="477"/>
<circle r="3" class="s4 sw0 f4" cx="857" cy="471"/>
<circle r="3" class="s4 sw0 f4" cx="875" cy="471"/>
<line y2="471" x1="860" class="s4 sw1" x2="872" y1="471"/>
<line y2="474" x1="866" class="s4 sw1" x2="866" y1="468"/>
<polygon class=" s5 sw2 f13" points="1748,280 1766,280 1775,289 1775,307 1766,316 1748,316 1739,307 1739,289"/>
<rect x="1730" width="54" y="262" height="18" class="s13 sw2 f7"/>
<text x="1750" y="301" class="f4">9</text>
<polygon class=" s5 sw2 f13" points="1257,1680 1275,1698 1257,1716 1239,1698"/>
<rect x="1230" width="54" y="1662" height="18" class="s13 sw2 f7"/>
<text x="1250" y="1701" class="f4">13</text>
<polygon class=" s5 sw2 f14" points="1260,1653 1314,1653 1287,1689"/>
<rect x="1260" width="54" y="1635" height="18" class="s14 sw2 f8"/>
<text x="1280" y="1674" class="f4">26</text>
<line y2="1647" x1="1290" class="s4 sw3" x2="1302" y1="1641"/>
<circle r="6" class="s4 sw0 f4" cx="1290" cy="1641"/>
<polygon class=" s5 sw2 f13" points="2057,1380 2075,1398 2057,1416 2039,1398"/>
<rect x="2030" width="54" y="1362" height="18" class="s13 sw2 f7"/>
<text x="2050" y="1401" class="f4">14</text>
<polygon class=" s5 sw2 f14" points="2060,1353 2114,1353 2087,1389"/>
<rect x="2060" width="54" y="1335" height="18" class="s14 sw2 f8"/>
<text x="2080" y="1374" class="f4">28</text>
<line y2="1347" x1="2090" class="s4 sw3" x2="2102" y1="1341"/>
<circle r="6" class="s4 sw0 f4" cx="2090" cy="1341"/>
<circle r="18" class="s5 sw2 f14" cx="1057" cy="198"/>
<rect x="1030" width="54" y="162" height="18" class="s14 sw2 f8"/>
<text x="1050" y="201" class="f4">3</text>
<circle r="3" class="s4 sw0 f4" cx="1066" cy="165"/>
<circle r="3" class="s4 sw0 f4" cx="1066" cy="177"/>
<circle r="3" class="s4 sw0 f4" cx="1057" cy="171"/>
<circle r="3" class="s4 sw0 f4" cx="1075" cy="171"/>
<line y2="171" x1="1060" class="s4 sw1" x2="1072" y1="171"/>
<line y2="174" x1="1066" class="s4 sw1" x2="1066" y1="168"/>
<circle r="18" class="s5 sw2 f13" cx="257" cy="1898"/>
<rect x="230" width="54" y="1862" height="18" class="s13 sw2 f7"/>
<text x="250" y="1901" class="f4">1</text>
<rect x="269" width="36" y="1853" height="36" class="s5 sw2 f13"/>
<rect x="260" width="54" y="1835" height="18" class="s13 sw2 f7"/>
<text x="280" y="1874" class="f4">18</text>
<polygon class=" s5 sw2 f13" points="748,2080 766,2080 775,2089 775,2107 766,2116 748,2116 739,2107 739,2089"/>
<rect x="730" width="54" y="2062" height="18" class="s13 sw2 f7"/>
<text x="750" y="2101" class="f4">10</text>
<rect x="939" width="36" y="980" height="36" class="s5 sw2 f14"/>
<rect x="930" width="54" y="962" height="18" class="s14 sw2 f8"/>
<text x="950" y="1001" class="f4">22</text>
<circle r="3" class="s4 sw0 f4" cx="966" cy="965"/>
<circle r="3" class="s4 sw0 f4" cx="966" cy="977"/>
<circle r="3" class="s4 sw0 f4" cx="957" cy="971"/>
<circle r="3" class="s4 sw0 f4" cx="975" cy="971"/>
<line y2="971" x1="960" class="s4 sw1" x2="972" y1="971"/>
<line y2="974" x1="966" class="s4 sw1" x2="966" y1="968"/>
<polygon class=" s5 sw2 f14" points="330,1980 384,1980 357,2016"/>
<rect x="330" width="54" y="1962" height="18" class="s14 sw2 f8"/>
<text x="350" y="2001" class="f4">27</text>
<line y2="1974" x1="360" class="s4 sw3" x2="372" y1="1968"/>
<circle r="6" class="s4 sw0 f4" cx="360" cy="1968"/>
<circle r="18" class="s5 sw2 f13" cx="387" cy="1971"/>
<rect x="360" width="54" y="1935" height="18" class="s13 sw2 f7"/>
<text x="380" y="1974" class="f4">2</text>
<rect x="1539" width="36" y="1480" height="36" class="s5 sw2 f14"/>
<rect x="1530" width="54" y="1462" height="18" class="s14 sw2 f8"/>
<text x="1550" y="1501" class="f4">20</text>
<circle r="3" class="s4 sw0 f4" cx="1566" cy="1465"/>
<circle r="3" class="s4 sw0 f4" cx="1566" cy="1477"/>
<circle r="3" class="s4 sw0 f4" cx="1557" cy="1471"/>
<circle r="3" class="s4 sw0 f4" cx="1575" cy="1471"/>
<line y2="1471" x1="1560" class="s4 sw1" x2="1572" y1="1471"/>
<line y2="1474" x1="1566" class="s4 sw1" x2="1566" y1="1468"/>
<circle r="18" class="s5 sw2 f14" cx="1457" cy="498"/>
<rect x="1430" width="54" y="462" height="18" class="s14 sw2 f8"/>
<text x="1450" y="501" class="f4">1</text>
<polygon class=" s4 sw0 f4" points="1466,462 1466,468 1472,468 1460,480 1460,474 1454,474"/>
<polygon class=" s5 sw2 f14" points="1478,453 1496,453 1505,462 1505,480 1496,489 1478,489 1469,480 1469,462"/>
<rect x="1460" width="54" y="435" height="18" class="s14 sw2 f8"/>
<text x="1480" y="474" class="f4">10</text>
<polygon class=" s4 sw0 f4" points="1496,435 1496,441 1502,441 1490,453 1490,447 1484,447"/>
<polygon class=" s5 sw2 f13" points="448,1580 466,1580 475,1589 475,1607 466,1616 448,1616 439,1607 439,1589"/>
<rect x="430" width="54" y="1562" height="18" class="s13 sw2 f7"/>
<text x="450" y="1601" class="f4">8</text>
<rect x="1539" width="36" y="1780" height="36" class="s5 sw2 f14"/>
<rect x="1530" width="54" y="1762" height="18" class="s14 sw2 f8"/>
<text x="1550" y="1801" class="f4">21</text>
<circle r="3" class="s4 sw0 f4" cx="1566" cy="1765"/>
<circle r="3" class="s4 sw0 f4" cx="1566" cy="1777"/>
<circle r="3" class="s4 sw0 f4" cx="1557" cy="1771"/>
<circle r="3" class="s4 sw0 f4" cx="1575" cy="1771"/>
<line y2="1771" x1="1560" class="s4 sw1" x2="1572" y1="1771"/>
<line y2="1774" x1="1566" class="s4 sw1" x2="1566" y1="1768"/>
<polygon class=" s5 sw2 f13" points="1730,1780 1784,1780 1757,1816"/>
<rect x="1730" width="54" y="1762" height="18" class="s13 sw2 f7"/>
<text x="1750" y="1801" class="f4">25</text>
<circle r="18" class="s5 sw2 f14" cx="1787" cy="1771"/>
<rect x="1760" width="54" y="1735" height="18" class="s14 sw2 f8"/>
<text x="1780" y="1774" class="f4">5</text>
<polygon class=" s4 sw0 f4" points="1796,1735 1796,1741 1802,1741 1790,1753 1790,1747 1784,1747"/>
<polygon class=" s5 sw2 f14" points="1057,480 1075,498 1057,516 1039,498"/>
<rect x="1030" width="54" y="462" height="18" class="s14 sw2 f8"/>
<text x="1050" y="501" class="f4">13</text>
<polygon class=" s4 sw0 f4" points="1066,462 1066,468 1072,468 1060,480 1060,474 1054,474"/>
<polygon class=" s5 sw2 f14" points="1087,453 1105,471 1087,489 1069,471"/>
<rect x="1060" width="54" y="435" height="18" class="s14 sw2 f8"/>
<text x="1080" y="474" class="f4">14</text>
<polygon class=" s4 sw0 f4" points="1096,435 1096,441 1102,441 1090,453 1090,447 1084,447"/>
<polygon class=" s5 sw2 f14" points="1080,415 1098,433 1080,451 1062,433"/>
<rect x="1053" width="54" y="397" height="18" class="s14 sw2 f8"/>
<text x="1073" y="436" class="f4">15</text>
<circle r="3" class="s4 sw0 f4" cx="1089" cy="400"/>
<circle r="3" class="s4 sw0 f4" cx="1089" cy="412"/>
<circle r="3" class="s4 sw0 f4" cx="1080" cy="406"/>
<circle r="3" class="s4 sw0 f4" cx="1098" cy="406"/>
<line y2="406" x1="1083" class="s4 sw1" x2="1095" y1="406"/>
<line y2="409" x1="1089" class="s4 sw1" x2="1089" y1="403"/>
<polygon class=" s5 sw2 f14" points="748,1780 766,1780 775,1789 775,1807 766,1816 748,1816 739,1807 739,1789"/>
<rect x="730" width="54" y="1762" height="18" class="s14 sw2 f8"/>
<text x="750" y="1801" class="f4">12</text>
<circle r="3" class="s4 sw0 f4" cx="766" cy="1765"/>
<circle r="3" class="s4 sw0 f4" cx="766" cy="1777"/>
<circle r="3" class="s4 sw0 f4" cx="757" cy="1771"/>
<circle r="3" class="s4 sw0 f4" cx="775" cy="1771"/>
<line y2="1771" x1="760" class="s4 sw1" x2="772" y1="1771"/>
<line y2="1774" x1="766" class="s4 sw1" x2="766" y1="1768"/>
<polygon class=" s5 sw2 f13" points="30,680 84,680 57,716"/>
<rect x="30" width="54" y="662" height="18" class="s13 sw2 f7"/>
<text x="50" y="701" class="f4">26</text>
<circle r="18" class="s5 sw2 f13" cx="557" cy="898"/>
<rect x="530" width="54" y="862" height="18" class="s13 sw2 f7"/>
<text x="550" y="901" class="f4">3</text>
<rect x="569" width="36" y="853" height="36" class="s5 sw2 f14"/>
<rect x="560" width="54" y="835" height="18" class="s14 sw2 f8"/>
<text x="580" y="874" class="f4">18</text>
<circle r="3" class="s4 sw0 f4" cx="596" cy="838"/>
<circle r="3" class="s4 sw0 f4" cx="596" cy="850"/>
<circle r="3" class="s4 sw0 f4" cx="587" cy="844"/>
<circle r="3" class="s4 sw0 f4" cx="605" cy="844"/>
<line y2="844" x1="590" class="s4 sw1" x2="602" y1="844"/>
<line y2="847" x1="596" class="s4 sw1" x2="596" y1="841"/>
<rect x="39" width="36" y="1680" height="36" class="s5 sw2 f13"/>
<rect x="30" width="54" y="1662" height="18" class="s13 sw2 f7"/>
<text x="50" y="1701" class="f4">21</text>
<polygon class=" s5 sw2 f13" points="557,1980 575,1998 557,2016 539,1998"/>
<rect x="530" width="54" y="1962" height="18" class="s13 sw2 f7"/>
<text x="550" y="2001" class="f4">16</text>
<circle r="18" class="s5 sw2 f14" cx="1857" cy="2198"/>
<rect x="1830" width="54" y="2162" height="18" class="s14 sw2 f8"/>
<text x="1850" y="2201" class="f4">4</text>
<circle r="3" class="s4 sw0 f4" cx="1866" cy="2165"/>
<circle r="3" class="s4 sw0 f4" cx="1866" cy="2177"/>
<circle r="3" class="s4 sw0 f4" cx="1857" cy="2171"/>
<circle r="3" class="s4 sw0 f4" cx="1875" cy="2171"/>
<line y2="2171" x1="1860" class="s4 sw1" x2="1872" y1="2171"/>
<line y2="2174" x1="1866" class="s4 sw1" x2="1866" y1="2168"/>
<circle r="18" class="s5 sw2 f13" cx="1957" cy="98"/>
<rect x="1930" width="54" y="62" height="18" class="s13 sw2 f7"/>
<text x="1950" y="101" class="f4">6</text>
<rect x="1339" width="36" y="80" height="36" class="s5 sw2 f13"/>
<rect x="1330" width="54" y="62" height="18" class="s13 sw2 f7"/>
<text x="1350" y="101" class="f4">17</text>
<polygon class=" s5 sw2 f13" points="1430,1180 1484,1180 1457,1216"/>
<rect x="1430" width="54" y="1162" height="18" class="s13 sw2 f7"/>
<text x="1450" y="1201" class="f4">27</text>
<polygon class=" s5 sw2 f13" points="457,1980 475,1998 457,2016 439,1998"/>
<rect x="430" width="54" y="1962" height="18" class="s13 sw2 f7"/>
<text x="450" y="2001" class="f4">15</text>
<g id="teamTable" transform="translate(-100, 150)">
<text x="2350" y="75" class="TxtNrml">Step: 102</text>
<text x="2350" y="180" class="Tb" text-anchor="start">
<tspan fill="rgba(0,158,115,1.0)" x="2350">Nabf</tspan>
<tspan x="2750">10314</tspan>
<tspan x="2950">101</tspan>
<tspan x="3150">81</tspan>
<tspan x="3350">20</tspan>
</text>
<text x="2350" y="220" class="Tb" text-anchor="start">
<tspan fill="rgba(0,114,178,1.0)" x="2350">B</tspan>
<tspan x="2750">2963</tspan>
<tspan x="2950">31</tspan>
<tspan x="3150">29</tspan>
<tspan x="3350">2</tspan>
</text>
</g>
<g id="agentTable" transform="translate(-100, 150)">
<text x="2350" y="316" class="Tb2" text-anchor="start">
<tspan x="2535">35/35</tspan>
<tspan x="2650">4/4</tspan>
<tspan x="2765">0</tspan>
<tspan x="2880">2</tspan>
<tspan x="2995">recharge :successful</tspan>
</text>
<text x="2350" y="346" class="Tb2" text-anchor="start">
<tspan x="2535">15/35</tspan>
<tspan x="2650">4/4</tspan>
<tspan x="2765">0</tspan>
<tspan x="2880">2</tspan>
<tspan x="2995">goto v79:successful</tspan>
</text>
<text x="2350" y="376" class="Tb2" text-anchor="start">
<tspan x="2535">19/35</tspan>
<tspan x="2650">4/4</tspan>
<tspan x="2765">0</tspan>
<tspan x="2880">2</tspan>
<tspan x="2995">goto v157:successful</tspan>
</text>
<text x="2350" y="406" class="Tb2" text-anchor="start">
<tspan x="2535">22/35</tspan>
<tspan x="2650">4/4</tspan>
<tspan x="2765">0</tspan>
<tspan x="2880">2</tspan>
<tspan x="2995">goto v272:successful</tspan>
</text>
<text x="2350" y="436" class="Tb2" text-anchor="start">
<tspan x="2535">28/35</tspan>
<tspan x="2650">4/4</tspan>
<tspan x="2765">0</tspan>
<tspan x="2880">2</tspan>
<tspan x="2995">recharge :successful</tspan>
</text>
<text x="2350" y="466" class="Tb2" text-anchor="start">
<tspan x="2535">34/35</tspan>
<tspan x="2650">4/4</tspan>
<tspan x="2765">0</tspan>
<tspan x="2880">2</tspan>
<tspan x="2995">goto v30:successful</tspan>
</text>
<text x="2350" y="496" class="Tb2" text-anchor="start">
<tspan x="2535">17/25</tspan>
<tspan x="2650">6/6</tspan>
<tspan x="2765">0</tspan>
<tspan x="2880">1</tspan>
<tspan x="2995">goto v34:successful</tspan>
</text>
<text x="2350" y="526" class="Tb2" text-anchor="start">
<tspan x="2535">18/25</tspan>
<tspan x="2650">6/6</tspan>
<tspan x="2765">0</tspan>
<tspan x="2880">1</tspan>
<tspan x="2995">goto v44:successful</tspan>
</text>
<text x="2350" y="556" class="Tb2" text-anchor="start">
<tspan x="2535">11/25</tspan>
<tspan x="2650">6/6</tspan>
<tspan x="2765">0</tspan>
<tspan x="2880">1</tspan>
<tspan x="2995">goto v126:successful</tspan>
</text>
<text x="2350" y="586" class="Tb2" text-anchor="start">
<tspan x="2535">25/25</tspan>
<tspan x="2650">6/6</tspan>
<tspan x="2765">0</tspan>
<tspan x="2880">1</tspan>
<tspan x="2995">recharge :successful</tspan>
</text>
<text x="2350" y="616" class="Tb2" text-anchor="start">
<tspan x="2535">18/25</tspan>
<tspan x="2650">6/6</tspan>
<tspan x="2765">0</tspan>
<tspan x="2880">1</tspan>
<tspan x="2995">goto v41:successful</tspan>
</text>
<text x="2350" y="646" class="Tb2" text-anchor="start">
<tspan x="2535">9/25</tspan>
<tspan x="2650">6/6</tspan>
<tspan x="2765">0</tspan>
<tspan x="2880">1</tspan>
<tspan x="2995">goto v202:successful</tspan>
</text>
<text x="2350" y="676" class="Tb2" text-anchor="start">
<tspan x="2535">16/20</tspan>
<tspan x="2650">3/3</tspan>
<tspan x="2765">3</tspan>
<tspan x="2880">1</tspan>
<tspan x="2995">recharge :successful</tspan>
</text>
<text x="2350" y="706" class="Tb2" text-anchor="start">
<tspan x="2535">10/20</tspan>
<tspan x="2650">3/3</tspan>
<tspan x="2765">3</tspan>
<tspan x="2880">1</tspan>
<tspan x="2995">recharge :successful</tspan>
</text>
<text x="2350" y="736" class="Tb2" text-anchor="start">
<tspan x="2535">4/20</tspan>
<tspan x="2650">3/3</tspan>
<tspan x="2765">3</tspan>
<tspan x="2880">1</tspan>
<tspan x="2995">goto v199:successful</tspan>
</text>
<text x="2350" y="766" class="Tb2" text-anchor="start">
<tspan x="2535">11/20</tspan>
<tspan x="2650">3/3</tspan>
<tspan x="2765">3</tspan>
<tspan x="2880">1</tspan>
<tspan x="2995">goto v37:successful</tspan>
</text>
<text x="2350" y="796" class="Tb2" text-anchor="start">
<tspan x="2535">15/30</tspan>
<tspan x="2650">1/1</tspan>
<tspan x="2765">0</tspan>
<tspan x="2880">3</tspan>
<tspan x="2995">goto v98:successful</tspan>
</text>
<text x="2350" y="826" class="Tb2" text-anchor="start">
<tspan x="2535">18/30</tspan>
<tspan x="2650">1/1</tspan>
<tspan x="2765">0</tspan>
<tspan x="2880">3</tspan>
<tspan x="2995">goto v236:successful</tspan>
</text>
<text x="2350" y="856" class="Tb2" text-anchor="start">
<tspan x="2535">6/30</tspan>
<tspan x="2650">1/1</tspan>
<tspan x="2765">0</tspan>
<tspan x="2880">3</tspan>
<tspan x="2995">goto v37:successful</tspan>
</text>
<text x="2350" y="886" class="Tb2" text-anchor="start">
<tspan x="2535">20/30</tspan>
<tspan x="2650">1/1</tspan>
<tspan x="2765">0</tspan>
<tspan x="2880">3</tspan>
<tspan x="2995">goto v177:successful</tspan>
</text>
<text x="2350" y="916" class="Tb2" text-anchor="start">
<tspan x="2535">16/30</tspan>
<tspan x="2650">1/1</tspan>
<tspan x="2765">0</tspan>
<tspan x="2880">3</tspan>
<tspan x="2995">goto v194:successful</tspan>
</text>
<text x="2350" y="946" class="Tb2" text-anchor="start">
<tspan x="2535">14/30</tspan>
<tspan x="2650">1/1</tspan>
<tspan x="2765">0</tspan>
<tspan x="2880">3</tspan>
<tspan x="2995">goto v168:successful</tspan>
</text>
<text x="2350" y="976" class="Tb2" text-anchor="start">
<tspan x="2535">25/25</tspan>
<tspan x="2650">6/6</tspan>
<tspan x="2765">0</tspan>
<tspan x="2880">1</tspan>
<tspan x="2995">recharge :successful</tspan>
</text>
<text x="2350" y="1006" class="Tb2" text-anchor="start">
<tspan x="2535">0/25</tspan>
<tspan x="2650">6/6</tspan>
<tspan x="2765">0</tspan>
<tspan x="2880">1</tspan>
<tspan x="2995">inspect :successful</tspan>
</text>
<text x="2350" y="1036" class="Tb2" text-anchor="start">
<tspan x="2535">7/25</tspan>
<tspan x="2650">6/6</tspan>
<tspan x="2765">0</tspan>
<tspan x="2880">1</tspan>
<tspan x="2995">inspect :successful</tspan>
</text>
<text x="2350" y="1066" class="Tb2" text-anchor="start">
<tspan x="2535">21/25</tspan>
<tspan x="2650">6/6</tspan>
<tspan x="2765">0</tspan>
<tspan x="2880">1</tspan>
<tspan x="2995">inspect :successful</tspan>
</text>
<text x="2350" y="1096" class="Tb2" text-anchor="start">
<tspan x="2535">12/25</tspan>
<tspan x="2650">6/6</tspan>
<tspan x="2765">0</tspan>
<tspan x="2880">1</tspan>
<tspan x="2995">inspect :successful</tspan>
</text>
<text x="2350" y="1126" class="Tb2" text-anchor="start">
<tspan x="2535">11/25</tspan>
<tspan x="2650">6/6</tspan>
<tspan x="2765">0</tspan>
<tspan x="2880">1</tspan>
<tspan x="2995">inspect :successful</tspan>
</text>
<text x="2350" y="1156" class="Tb2" text-anchor="start">
<tspan x="2535">35/35</tspan>
<tspan x="2650">4/4</tspan>
<tspan x="2765">0</tspan>
<tspan x="2880">2</tspan>
<tspan fill="red" x="2995">noAction :failed</tspan>
</text>
<text x="2350" y="1186" class="Tb2" text-anchor="start">
<tspan x="2535">35/35</tspan>
<tspan x="2650">4/4</tspan>
<tspan x="2765">0</tspan>
<tspan x="2880">2</tspan>
<tspan fill="red" x="2995">noAction :failed</tspan>
</text>
<text x="2350" y="1216" class="Tb2" text-anchor="start">
<tspan x="2535">35/35</tspan>
<tspan x="2650">4/4</tspan>
<tspan x="2765">0</tspan>
<tspan x="2880">2</tspan>
<tspan fill="red" x="2995">noAction :failed</tspan>
</text>
<text x="2350" y="1246" class="Tb2" text-anchor="start">
<tspan x="2535">35/35</tspan>
<tspan x="2650">4/4</tspan>
<tspan x="2765">0</tspan>
<tspan x="2880">2</tspan>
<tspan fill="red" x="2995">noAction :failed</tspan>
</text>
<text x="2350" y="1276" class="Tb2" text-anchor="start">
<tspan x="2535">35/35</tspan>
<tspan x="2650">4/4</tspan>
<tspan x="2765">0</tspan>
<tspan x="2880">2</tspan>
<tspan fill="red" x="2995">noAction :failed</tspan>
</text>
<text x="2350" y="1306" class="Tb2" text-anchor="start">
<tspan x="2535">35/35</tspan>
<tspan x="2650">4/4</tspan>
<tspan x="2765">0</tspan>
<tspan x="2880">2</tspan>
<tspan fill="red" x="2995">noAction :failed</tspan>
</text>
<text x="2350" y="1336" class="Tb2" text-anchor="start">
<tspan x="2535">25/25</tspan>
<tspan x="2650">6/6</tspan>
<tspan x="2765">0</tspan>
<tspan x="2880">1</tspan>
<tspan fill="red" x="2995">noAction :failed</tspan>
</text>
<text x="2350" y="1366" class="Tb2" text-anchor="start">
<tspan x="2535">25/25</tspan>
<tspan x="2650">6/6</tspan>
<tspan x="2765">0</tspan>
<tspan x="2880">1</tspan>
<tspan fill="red" x="2995">noAction :failed</tspan>
</text>
<text x="2350" y="1396" class="Tb2" text-anchor="start">
<tspan x="2535">25/25</tspan>
<tspan x="2650">6/6</tspan>
<tspan x="2765">0</tspan>
<tspan x="2880">1</tspan>
<tspan fill="red" x="2995">noAction :failed</tspan>
</text>
<text x="2350" y="1426" class="Tb2" text-anchor="start">
<tspan x="2535">25/25</tspan>
<tspan x="2650">6/6</tspan>
<tspan x="2765">0</tspan>
<tspan x="2880">1</tspan>
<tspan fill="red" x="2995">noAction :failed</tspan>
</text>
<text x="2350" y="1456" class="Tb2" text-anchor="start">
<tspan x="2535">25/25</tspan>
<tspan x="2650">6/6</tspan>
<tspan x="2765">0</tspan>
<tspan x="2880">1</tspan>
<tspan fill="red" x="2995">noAction :failed</tspan>
</text>
<text x="2350" y="1486" class="Tb2" text-anchor="start">
<tspan x="2535">25/25</tspan>
<tspan x="2650">6/6</tspan>
<tspan x="2765">0</tspan>
<tspan x="2880">1</tspan>
<tspan fill="red" x="2995">noAction :failed</tspan>
</text>
<text x="2350" y="1516" class="Tb2" text-anchor="start">
<tspan x="2535">20/20</tspan>
<tspan x="2650">3/3</tspan>
<tspan x="2765">3</tspan>
<tspan x="2880">1</tspan>
<tspan fill="red" x="2995">noAction :failed</tspan>
</text>
<text x="2350" y="1546" class="Tb2" text-anchor="start">
<tspan x="2535">20/20</tspan>
<tspan x="2650">3/3</tspan>
<tspan x="2765">3</tspan>
<tspan x="2880">1</tspan>
<tspan fill="red" x="2995">noAction :failed</tspan>
</text>
<text x="2350" y="1576" class="Tb2" text-anchor="start">
<tspan x="2535">20/20</tspan>
<tspan x="2650">3/3</tspan>
<tspan x="2765">3</tspan>
<tspan x="2880">1</tspan>
<tspan fill="red" x="2995">noAction :failed</tspan>
</text>
<text x="2350" y="1606" class="Tb2" text-anchor="start">
<tspan x="2535">20/20</tspan>
<tspan x="2650">3/3</tspan>
<tspan x="2765">3</tspan>
<tspan x="2880">1</tspan>
<tspan fill="red" x="2995">noAction :failed</tspan>
</text>
<text x="2350" y="1636" class="Tb2" text-anchor="start">
<tspan x="2535">30/30</tspan>
<tspan x="2650">1/1</tspan>
<tspan x="2765">0</tspan>
<tspan x="2880">3</tspan>
<tspan fill="red" x="2995">noAction :failed</tspan>
</text>
<text x="2350" y="1666" class="Tb2" text-anchor="start">
<tspan x="2535">30/30</tspan>
<tspan x="2650">1/1</tspan>
<tspan x="2765">0</tspan>
<tspan x="2880">3</tspan>
<tspan fill="red" x="2995">noAction :failed</tspan>
</text>
<text x="2350" y="1696" class="Tb2" text-anchor="start">
<tspan x="2535">30/30</tspan>
<tspan x="2650">1/1</tspan>
<tspan x="2765">0</tspan>
<tspan x="2880">3</tspan>
<tspan fill="red" x="2995">noAction :failed</tspan>
</text>
<text x="2350" y="1726" class="Tb2" text-anchor="start">
<tspan x="2535">30/30</tspan>
<tspan x="2650">1/1</tspan>
<tspan x="2765">0</tspan>
<tspan x="2880">3</tspan>
<tspan fill="red" x="2995">noAction :failed</tspan>
</text>
<text x="2350" y="1756" class="Tb2" text-anchor="start">
<tspan x="2535">30/30</tspan>
<tspan x="2650">1/1</tspan>
<tspan x="2765">0</tspan>
<tspan x="2880">3</tspan>
<tspan fill="red" x="2995">noAction :failed</tspan>
</text>
<text x="2350" y="1786" class="Tb2" text-anchor="start">
<tspan x="2535">30/30</tspan>
<tspan x="2650">1/1</tspan>
<tspan x="2765">0</tspan>
<tspan x="2880">3</tspan>
<tspan fill="red" x="2995">noAction :failed</tspan>
</text>
<text x="2350" y="1816" class="Tb2" text-anchor="start">
<tspan x="2535">25/25</tspan>
<tspan x="2650">6/6</tspan>
<tspan x="2765">0</tspan>
<tspan x="2880">1</tspan>
<tspan fill="red" x="2995">noAction :failed</tspan>
</text>
<text x="2350" y="1846" class="Tb2" text-anchor="start">
<tspan x="2535">25/25</tspan>
<tspan x="2650">6/6</tspan>
<tspan x="2765">0</tspan>
<tspan x="2880">1</tspan>
<tspan fill="red" x="2995">noAction :failed</tspan>
</text>
<text x="2350" y="1876" class="Tb2" text-anchor="start">
<tspan x="2535">25/25</tspan>
<tspan x="2650">6/6</tspan>
<tspan x="2765">0</tspan>
<tspan x="2880">1</tspan>
<tspan fill="red" x="2995">noAction :failed</tspan>
</text>
<text x="2350" y="1906" class="Tb2" text-anchor="start">
<tspan x="2535">25/25</tspan>
<tspan x="2650">6/6</tspan>
<tspan x="2765">0</tspan>
<tspan x="2880">1</tspan>
<tspan fill="red" x="2995">noAction :failed</tspan>
</text>
<text x="2350" y="1936" class="Tb2" text-anchor="start">
<tspan x="2535">25/25</tspan>
<tspan x="2650">6/6</tspan>
<tspan x="2765">0</tspan>
<tspan x="2880">1</tspan>
<tspan fill="red" x="2995">noAction :failed</tspan>
</text>
<text x="2350" y="1966" class="Tb2" text-anchor="start">
<tspan x="2535">25/25</tspan>
<tspan x="2650">6/6</tspan>
<tspan x="2765">0</tspan>
<tspan x="2880">1</tspan>
<tspan fill="red" x="2995">noAction :failed</tspan>
</text>
</g>
<line y2="442" x1="3290" class="s5 sw1" x2="3290" y1="1996"/>
<g id="achievementPart" transform="translate(-100, 150)">
<text x="3400" y="301" class="TxtAch">
<tspan x="3400">Achievements</tspan>
<tspan fill="rgba(0,158,115,1.0)" x="3400" y="331">Nabf</tspan>
<tspan x="3400" y="351">proved5</tspan>
<tspan x="3400" y="371">proved10</tspan>
<tspan x="3400" y="391">proved20</tspan>
<tspan x="3400" y="411">proved40</tspan>
<tspan x="3400" y="431">proved80</tspan>
<tspan x="3400" y="451">inspected5</tspan>
<tspan x="3400" y="471">area10</tspan>
<tspan x="3400" y="491">area20</tspan>
<tspan x="3400" y="511">area40</tspan>
<tspan x="3400" y="531">area80</tspan>
<tspan fill="rgba(0,114,178,1.0)" x="3400" y="556">B</tspan>
<tspan x="3400" y="576">area10</tspan>
</text>
</g>
</g>
</svg>
