<?xml version="1.0" encoding="UTF-8"?><?xml-stylesheet type="text/css" href="style.css"?><svg xmlns="http://www.w3.org/2000/svg" xmlns:xlink="http://www.w3.org/1999/xlink" contentScriptType="text/ecmascript" zoomAndPan="magnify" contentStyleType="text/css" preserveAspectRatio="xMidYMid meet" version="1.0">
<g id="scaleSvg" transform="scale(0.25)">
<polygon class="T1" points="2150,1250 2050,1150 2150,1150 "/>
<polygon class="T1" points="2150,1050 2050,1150 2050,1050 "/>
<polygon class="T1" points="2050,1150 2150,1050 2150,1150 "/>
<polygon class="T1" points="2050,1150 2150,1250 2050,1150 2150,1050 2150,1150 "/>
<polygon class="T1" points="2150,1050 2050,1050 2150,1050 2050,1150 2050,1050 "/>
<polygon class="T1" points="2050,1050 2050,1150 2150,1050 2150,1150 2050,1150 "/>
<polygon class="T1" points="2150,950 2150,1050 2050,1150 2050,1050 2150,1050 "/>
<polygon class="T1" points="2150,1250 2150,1150 2150,1250 2050,1150 2150,1150 "/>
<polygon class="T1" points="2150,1150 2150,1050 2050,1150 2050,1050 2150,1050 "/>
<circle r="25" class="T1n" cx="2150" cy="950"/>
<circle r="25" class="T1n" cx="750" cy="1250"/>
<circle r="25" class="T1n" cx="2050" cy="1950"/>
<circle r="25" class="T1n" cx="1650" cy="850"/>
<circle r="25" class="T1n" cx="1450" cy="850"/>
<circle r="25" class="T1n" cx="750" cy="1150"/>
<circle r="25" class="T1n" cx="1450" cy="350"/>
<circle r="25" class="T1n" cx="350" cy="1250"/>
<circle r="25" class="T1n" cx="1750" cy="650"/>
<circle r="25" class="T1n" cx="1850" cy="550"/>
<circle r="25" class="T1n" cx="850" cy="450"/>
<circle r="25" class="T1n" cx="850" cy="1050"/>
<circle r="25" class="T1n" cx="1950" cy="1950"/>
<circle r="25" class="T1n" cx="650" cy="650"/>
<circle r="25" class="T1n" cx="1550" cy="1450"/>
<circle r="25" class="T1n" cx="1450" cy="450"/>
<circle r="25" class="T1n" cx="1750" cy="1550"/>
<circle r="25" class="T1n" cx="350" cy="1850"/>
<circle r="25" class="T1n" cx="750" cy="450"/>
<circle r="25" class="T1n" cx="1550" cy="1750"/>
<circle r="25" class="T1n" cx="2050" cy="1150"/>
<circle r="25" class="T1n" cx="350" cy="650"/>
<circle r="25" class="T1n" cx="450" cy="1750"/>
<circle r="25" class="T1n" cx="2150" cy="1150"/>
<circle r="25" class="T1n" cx="2150" cy="1250"/>
<circle r="25" class="T1n" cx="250" cy="1550"/>
<circle r="25" class="T1n" cx="2150" cy="1050"/>
<circle r="25" class="T1n" cx="1450" cy="1350"/>
<circle r="25" class="T1n" cx="650" cy="450"/>
<circle r="25" class="T1n" cx="1850" cy="1950"/>
<circle r="25" class="T1n" cx="1750" cy="750"/>
<circle r="25" class="T1n" cx="750" cy="650"/>
<circle r="25" class="T1n" cx="750" cy="550"/>
<circle r="25" class="T1n" cx="1350" cy="950"/>
<circle r="25" class="T1n" cx="2050" cy="1050"/>
<circle r="25" class="T1n" cx="1450" cy="1450"/>
<line y2="450" x1="750" class="T1e" x2="850" y1="650"/>
<line y2="1850" x1="450" class="T1e" x2="350" y1="1750"/>
<line y2="550" x1="650" class="T1e" x2="750" y1="650"/>
<line y2="550" x1="650" class="T1e" x2="750" y1="450"/>
<line y2="1050" x1="750" class="T1e" x2="850" y1="1150"/>
<line y2="1250" x1="750" class="T1e" x2="750" y1="1150"/>
<line y2="550" x1="750" class="T1e" x2="750" y1="650"/>
<line y2="450" x1="750" class="T1e" x2="850" y1="450"/>
<line y2="1450" x1="1550" class="T1e" x2="1550" y1="1750"/>
<line y2="1550" x1="1550" class="T1e" x2="1750" y1="1450"/>
<line y2="850" x1="1450" class="T1e" x2="1650" y1="850"/>
<line y2="950" x1="1450" class="T1e" x2="1350" y1="850"/>
<line y2="650" x1="1850" class="T1e" x2="1750" y1="550"/>
<line y2="1150" x1="2150" class="T1e" x2="2050" y1="1250"/>
<line y2="750" x1="1650" class="T1e" x2="1750" y1="850"/>
<line y2="1150" x1="2150" class="T1e" x2="2050" y1="1050"/>
<line y2="1950" x1="1850" class="T1e" x2="1950" y1="1950"/>
<line y2="1050" x1="2050" class="T1e" x2="2150" y1="1050"/>
<line y2="1150" x1="2050" class="T1e" x2="2050" y1="1050"/>
<line y2="1950" x1="1950" class="T1e" x2="2050" y1="1950"/>
<line y2="1050" x1="2150" class="T1e" x2="2150" y1="950"/>
<line y2="450" x1="1450" class="T1e" x2="1450" y1="350"/>
<line y2="1150" x1="2150" class="T1e" x2="2150" y1="1250"/>
<line y2="750" x1="1750" class="T1e" x2="1750" y1="650"/>
<line y2="1050" x1="2150" class="T1e" x2="2150" y1="1150"/>
<line y2="1150" x1="2150" class="T1e" x2="2050" y1="1150"/>
<line y2="1350" x1="1450" class="T1e" x2="1450" y1="1450"/>
<circle r="5" class="N" cx="2150" cy="950"/>
<circle r="8" class="N" cx="750" cy="1250"/>
<circle r="8" class="N" cx="2050" cy="1950"/>
<circle r="8" class="N" cx="1650" cy="850"/>
<circle r="8" class="N" cx="1450" cy="850"/>
<circle r="11" class="N" cx="750" cy="1150"/>
<circle r="6" class="N" cx="1450" cy="350"/>
<circle r="8" class="N" cx="350" cy="1250"/>
<circle r="8" class="N" cx="1750" cy="650"/>
<circle r="6" class="N" cx="1850" cy="550"/>
<circle r="18" class="N" cx="850" cy="450"/>
<circle r="18" class="N" cx="850" cy="1050"/>
<circle r="8" class="N" cx="1950" cy="1950"/>
<circle r="8" class="N" cx="650" cy="650"/>
<circle r="18" class="N" cx="1550" cy="1450"/>
<circle r="12" class="N" cx="1450" cy="450"/>
<circle r="14" class="N" cx="1750" cy="1550"/>
<circle r="9" class="N" cx="350" cy="1850"/>
<circle r="12" class="N" cx="750" cy="450"/>
<circle r="15" class="N" cx="1550" cy="1750"/>
<circle r="5" class="N" cx="2050" cy="1150"/>
<circle r="18" class="N" cx="350" cy="650"/>
<circle r="9" class="N" cx="450" cy="1750"/>
<circle r="5" class="N" cx="2150" cy="1150"/>
<circle r="6" class="N" cx="2150" cy="1250"/>
<circle r="12" class="N" cx="250" cy="1550"/>
<circle r="5" class="N" cx="2150" cy="1050"/>
<circle r="5" class="N" cx="1450" cy="1350"/>
<circle r="8" class="N" cx="650" cy="450"/>
<circle r="8" class="N" cx="1850" cy="1950"/>
<circle r="8" class="N" cx="1750" cy="750"/>
<circle r="11" class="N" cx="750" cy="650"/>
<circle r="8" class="N" cx="750" cy="550"/>
<circle r="9" class="N" cx="1350" cy="950"/>
<circle r="5" class="N" cx="2050" cy="1050"/>
<circle r="5" class="N" cx="1450" cy="1450"/>
<line y2="450" x1="750" class="E sw5" x2="850" y1="650"/>
<line y2="1850" x1="450" class="E sw4" x2="350" y1="1750"/>
<line y2="550" x1="650" class="E sw6" x2="750" y1="650"/>
<line y2="550" x1="650" class="E sw9" x2="750" y1="450"/>
<line y2="1050" x1="750" class="E sw5" x2="850" y1="1150"/>
<line y2="1250" x1="750" class="E sw9" x2="750" y1="1150"/>
<line y2="550" x1="750" class="E sw9" x2="750" y1="650"/>
<line x1="750" x2="850" y1="450" y2="450" style="stroke-width:11;" class="E"/>
<line x1="1550" x2="1550" y1="1750" y2="1450" style="stroke-width:11;" class="E"/>
<line y2="1550" x1="1550" class="E sw7" x2="1750" y1="1450"/>
<line x1="1450" x2="1650" y1="850" y2="850" style="stroke-width:11;" class="E"/>
<line y2="950" x1="1450" class="E sw10" x2="1350" y1="850"/>
<line x1="1850" x2="1750" y1="550" y2="650" style="stroke-width:11;" class="E"/>
<line y2="1150" x1="2150" class="E sw9" x2="2050" y1="1250"/>
<line y2="750" x1="1650" class="E sw8" x2="1750" y1="850"/>
<line y2="1150" x1="2150" class="E sw3" x2="2050" y1="1050"/>
<line y2="1950" x1="1850" class="E sw8" x2="1950" y1="1950"/>
<line x1="2050" x2="2150" y1="1050" y2="1050" style="stroke-width:11;" class="E"/>
<line y2="1150" x1="2050" class="E sw5" x2="2050" y1="1050"/>
<line y2="1950" x1="1950" class="E sw4" x2="2050" y1="1950"/>
<line x1="2150" x2="2150" y1="950" y2="1050" style="stroke-width:11;" class="E"/>
<line y2="450" x1="1450" class="E sw8" x2="1450" y1="350"/>
<line y2="1150" x1="2150" class="E sw5" x2="2150" y1="1250"/>
<line y2="750" x1="1750" class="E sw4" x2="1750" y1="650"/>
<line x1="2150" x2="2150" y1="1150" y2="1050" style="stroke-width:11;" class="E"/>
<line x1="2150" x2="2050" y1="1150" y2="1150" style="stroke-width:11;" class="E"/>
<line y2="1350" x1="1450" class="E sw8" x2="1450" y1="1450"/>
<polygon class="T2" points="250,550 50,650 150,550 "/>
<polygon class="T2" points="850,1850 850,2050 750,2050 750,1950 "/>
<polygon class="T2" points="550,2150 450,2050 550,1950 650,2050 "/>
<polygon class="T2" points="550,1950 450,2050 450,1950 450,1850 "/>
<polygon class="T2" points="50,650 250,550 50,650 150,550 250,550 "/>
<polygon class="T2" points="150,850 50,650 150,550 250,550 50,650 "/>
<polygon class="T2" points="50,650 50,850 50,650 150,550 250,550 "/>
<polygon class="T2" points="150,550 50,650 150,550 250,550 50,650 "/>
<polygon class="T2" points="350,550 250,550 50,650 150,550 250,550 "/>
<polygon class="T2" points="250,550 150,550 250,550 50,650 150,550 "/>
<polygon class="T2" points="550,2150 850,2150 550,2150 450,2050 550,1950 650,2050 "/>
<polygon class="T2" points="850,2050 850,1850 850,2050 750,2050 750,1950 850,1850 "/>
<polygon class="T2" points="450,2050 550,2150 450,2050 550,1950 650,2050 550,2150 "/>
<polygon class="T2" points="550,2150 650,2050 550,2150 450,2050 550,1950 650,2050 "/>
<polygon class="T2" points="550,1950 450,1850 550,1950 450,2050 450,1950 450,1850 "/>
<polygon class="T2" points="650,2050 550,1950 450,2050 450,1950 450,1850 550,1950 "/>
<polygon class="T2" points="850,1850 750,1950 850,1850 850,2050 750,2050 750,1950 "/>
<polygon class="T2" points="450,1950 450,2050 550,1950 650,2050 550,2150 450,2050 "/>
<polygon class="T2" points="450,1850 450,1950 450,1850 550,1950 450,2050 450,1950 "/>
<polygon class="T2" points="650,2050 750,2050 650,2050 550,2150 450,2050 550,1950 "/>
<polygon class="T2" points="750,1950 750,2050 750,1950 850,1850 850,2050 750,2050 "/>
<polygon class="T2" points="750,2050 850,2050 750,2050 750,1950 850,1850 850,2050 "/>
<polygon class="T2" points="350,550 350,350 350,550 250,550 50,650 150,550 250,550 "/>
<polygon class="T2" points="150,850 250,850 150,850 50,650 150,550 250,550 50,650 "/>
<circle r="25" class="T2n" cx="150" cy="550"/>
<circle r="25" class="T2n" cx="250" cy="850"/>
<circle r="25" class="T2n" cx="1150" cy="1850"/>
<circle r="25" class="T2n" cx="350" cy="550"/>
<circle r="25" class="T2n" cx="1850" cy="1850"/>
<circle r="25" class="T2n" cx="2150" cy="350"/>
<circle r="25" class="T2n" cx="450" cy="350"/>
<circle r="25" class="T2n" cx="250" cy="550"/>
<circle r="25" class="T2n" cx="50" cy="850"/>
<circle r="25" class="T2n" cx="1650" cy="2150"/>
<circle r="25" class="T2n" cx="150" cy="850"/>
<circle r="25" class="T2n" cx="850" cy="1850"/>
<circle r="25" class="T2n" cx="1750" cy="250"/>
<circle r="25" class="T2n" cx="450" cy="2050"/>
<circle r="25" class="T2n" cx="650" cy="2050"/>
<circle r="25" class="T2n" cx="750" cy="1950"/>
<circle r="25" class="T2n" cx="250" cy="1850"/>
<circle r="25" class="T2n" cx="850" cy="2150"/>
<circle r="25" class="T2n" cx="550" cy="2150"/>
<circle r="25" class="T2n" cx="750" cy="2050"/>
<circle r="25" class="T2n" cx="350" cy="350"/>
<circle r="25" class="T2n" cx="450" cy="1550"/>
<circle r="25" class="T2n" cx="1750" cy="1750"/>
<circle r="25" class="T2n" cx="50" cy="650"/>
<circle r="25" class="T2n" cx="550" cy="850"/>
<circle r="25" class="T2n" cx="850" cy="2050"/>
<circle r="25" class="T2n" cx="50" cy="1650"/>
<circle r="25" class="T2n" cx="550" cy="1950"/>
<circle r="25" class="T2n" cx="350" cy="1650"/>
<circle r="25" class="T2n" cx="1950" cy="50"/>
<circle r="25" class="T2n" cx="1350" cy="50"/>
<circle r="25" class="T2n" cx="1450" cy="1150"/>
<circle r="25" class="T2n" cx="450" cy="1950"/>
<circle r="25" class="T2n" cx="450" cy="1850"/>
<circle r="25" class="T2n" cx="1350" cy="2150"/>
<line y2="2150" x1="550" class="T2e" x2="850" y1="2150"/>
<line y2="1650" x1="250" class="T2e" x2="350" y1="1850"/>
<line y2="650" x1="250" class="T2e" x2="50" y1="550"/>
<line y2="650" x1="150" class="T2e" x2="50" y1="850"/>
<line y2="350" x1="350" class="T2e" x2="350" y1="550"/>
<line y2="850" x1="50" class="T2e" x2="50" y1="650"/>
<line y2="2050" x1="850" class="T2e" x2="850" y1="1850"/>
<line y2="2150" x1="450" class="T2e" x2="550" y1="2050"/>
<line y2="1950" x1="450" class="T2e" x2="550" y1="2050"/>
<line y2="650" x1="150" class="T2e" x2="50" y1="550"/>
<line y2="2050" x1="550" class="T2e" x2="650" y1="2150"/>
<line y2="1850" x1="550" class="T2e" x2="450" y1="1950"/>
<line y2="2050" x1="550" class="T2e" x2="650" y1="1950"/>
<line y2="1850" x1="750" class="T2e" x2="850" y1="1950"/>
<line y2="1650" x1="450" class="T2e" x2="350" y1="1550"/>
<line y2="550" x1="350" class="T2e" x2="250" y1="550"/>
<line y2="350" x1="450" class="T2e" x2="350" y1="350"/>
<line y2="1950" x1="450" class="T2e" x2="450" y1="2050"/>
<line y2="550" x1="150" class="T2e" x2="250" y1="550"/>
<line y2="1950" x1="450" class="T2e" x2="450" y1="1850"/>
<line y2="2050" x1="650" class="T2e" x2="750" y1="2050"/>
<line y2="2050" x1="750" class="T2e" x2="750" y1="1950"/>
<line y2="850" x1="150" class="T2e" x2="250" y1="850"/>
<line y2="2050" x1="750" class="T2e" x2="850" y1="2050"/>
<line y2="2150" x1="1650" class="T2e" x2="1350" y1="2150"/>
<line y2="1850" x1="1750" class="T2e" x2="1850" y1="1750"/>
<circle r="6" class="N" cx="150" cy="550"/>
<circle r="11" class="N" cx="250" cy="850"/>
<circle r="5" class="N" cx="1150" cy="1850"/>
<circle r="6" class="N" cx="350" cy="550"/>
<circle r="9" class="N" cx="1850" cy="1850"/>
<circle r="5" class="N" cx="2150" cy="350"/>
<circle r="5" class="N" cx="450" cy="350"/>
<circle r="9" class="N" cx="250" cy="550"/>
<circle r="8" class="N" cx="50" cy="850"/>
<circle r="5" class="N" cx="1650" cy="2150"/>
<circle r="8" class="N" cx="150" cy="850"/>
<circle r="5" class="N" cx="850" cy="1850"/>
<circle r="5" class="N" cx="1750" cy="250"/>
<circle r="5" class="N" cx="450" cy="2050"/>
<circle r="5" class="N" cx="650" cy="2050"/>
<circle r="5" class="N" cx="750" cy="1950"/>
<circle r="14" class="N" cx="250" cy="1850"/>
<circle r="5" class="N" cx="850" cy="2150"/>
<circle r="5" class="N" cx="550" cy="2150"/>
<circle r="5" class="N" cx="750" cy="2050"/>
<circle r="5" class="N" cx="350" cy="350"/>
<circle r="14" class="N" cx="450" cy="1550"/>
<circle r="9" class="N" cx="1750" cy="1750"/>
<circle r="8" class="N" cx="50" cy="650"/>
<circle r="8" class="N" cx="550" cy="850"/>
<circle r="5" class="N" cx="850" cy="2050"/>
<circle r="8" class="N" cx="50" cy="1650"/>
<circle r="5" class="N" cx="550" cy="1950"/>
<circle r="18" class="N" cx="350" cy="1650"/>
<circle r="5" class="N" cx="1950" cy="50"/>
<circle r="5" class="N" cx="1350" cy="50"/>
<circle r="11" class="N" cx="1450" cy="1150"/>
<circle r="5" class="N" cx="450" cy="1950"/>
<circle r="6" class="N" cx="450" cy="1850"/>
<circle r="5" class="N" cx="1350" cy="2150"/>
<line y2="2150" x1="550" class="E sw4" x2="850" y1="2150"/>
<line x1="250" x2="350" y1="1850" y2="1650" style="stroke-width:11;" class="E"/>
<line x1="250" x2="50" y1="550" y2="650" style="stroke-width:11;" class="E"/>
<line y2="650" x1="150" class="E sw4" x2="50" y1="850"/>
<line y2="350" x1="350" class="E sw9" x2="350" y1="550"/>
<line x1="50" x2="50" y1="650" y2="850" style="stroke-width:11;" class="E"/>
<line y2="2050" x1="850" class="E sw3" x2="850" y1="1850"/>
<line y2="2150" x1="450" class="E sw6" x2="550" y1="2050"/>
<line y2="1950" x1="450" class="E sw10" x2="550" y1="2050"/>
<line y2="650" x1="150" class="E sw9" x2="50" y1="550"/>
<line y2="2050" x1="550" class="E sw4" x2="650" y1="2150"/>
<line y2="1850" x1="550" class="E sw9" x2="450" y1="1950"/>
<line x1="550" x2="650" y1="1950" y2="2050" style="stroke-width:11;" class="E"/>
<line y2="1850" x1="750" class="E sw4" x2="850" y1="1950"/>
<line x1="450" x2="350" y1="1550" y2="1650" style="stroke-width:11;" class="E"/>
<line y2="550" x1="350" class="E sw5" x2="250" y1="550"/>
<line y2="350" x1="450" class="E sw3" x2="350" y1="350"/>
<line y2="1950" x1="450" class="E sw9" x2="450" y1="2050"/>
<line x1="150" x2="250" y1="550" y2="550" style="stroke-width:11;" class="E"/>
<line y2="1950" x1="450" class="E sw10" x2="450" y1="1850"/>
<line y2="2050" x1="650" class="E sw10" x2="750" y1="2050"/>
<line x1="750" x2="750" y1="1950" y2="2050" style="stroke-width:11;" class="E"/>
<line y2="850" x1="150" class="E sw5" x2="250" y1="850"/>
<line y2="2050" x1="750" class="E sw3" x2="850" y1="2050"/>
<line y2="2150" x1="1650" class="E sw4" x2="1350" y1="2150"/>
<line y2="1850" x1="1750" class="E sw4" x2="1850" y1="1750"/>
<rect x="239" width="36" y="880" height="36" class="s5 sw2 f13"/>
<rect x="230" width="54" y="862" height="18" class="s13 sw2 f7"/>
<text x="250" y="901" class="f4">20</text>
<polygon class=" s5 sw2 f13" points="1148,1880 1166,1880 1175,1889 1175,1907 1166,1916 1148,1916 1139,1907 1139,1889"/>
<rect x="1130" width="54" y="1862" height="18" class="s13 sw2 f7"/>
<text x="1150" y="1901" class="f4">7</text>
<polygon class=" s5 sw2 f13" points="730,1280 784,1280 757,1316"/>
<rect x="730" width="54" y="1262" height="18" class="s13 sw2 f7"/>
<text x="750" y="1301" class="f4">28</text>
<polygon class=" s5 sw2 f14" points="760,1253 814,1253 787,1289"/>
<rect x="760" width="54" y="1235" height="18" class="s14 sw2 f8"/>
<text x="780" y="1274" class="f4">25</text>
<line y2="1247" x1="790" class="s4 sw3" x2="802" y1="1241"/>
<circle r="6" class="s4 sw0 f4" cx="790" cy="1241"/>
<polygon class=" s5 sw2 f14" points="753,1215 807,1215 780,1251"/>
<rect x="753" width="54" y="1197" height="18" class="s14 sw2 f8"/>
<text x="773" y="1236" class="f4">24</text>
<polygon class=" s4 sw0 f4" points="789,1197 789,1203 795,1203 783,1215 783,1209 777,1209"/>
<rect x="339" width="36" y="580" height="36" class="s5 sw2 f13"/>
<rect x="330" width="54" y="562" height="18" class="s13 sw2 f7"/>
<text x="350" y="601" class="f4">19</text>
<rect x="2039" width="36" y="1980" height="36" class="s5 sw2 f14"/>
<rect x="2030" width="54" y="1962" height="18" class="s14 sw2 f8"/>
<text x="2050" y="2001" class="f4">21</text>
<circle r="3" class="s4 sw0 f4" cx="2066" cy="1965"/>
<circle r="3" class="s4 sw0 f4" cx="2066" cy="1977"/>
<circle r="3" class="s4 sw0 f4" cx="2057" cy="1971"/>
<circle r="3" class="s4 sw0 f4" cx="2075" cy="1971"/>
<line y2="1971" x1="2060" class="s4 sw1" x2="2072" y1="1971"/>
<line y2="1974" x1="2066" class="s4 sw1" x2="2066" y1="1968"/>
<rect x="1839" width="36" y="1880" height="36" class="s5 sw2 f13"/>
<rect x="1830" width="54" y="1862" height="18" class="s13 sw2 f7"/>
<text x="1850" y="1901" class="f4">22</text>
<polygon class=" s5 sw2 f13" points="2130,380 2184,380 2157,416"/>
<rect x="2130" width="54" y="362" height="18" class="s13 sw2 f7"/>
<text x="2150" y="401" class="f4">24</text>
<circle r="18" class="s5 sw2 f13" cx="457" cy="398"/>
<rect x="430" width="54" y="362" height="18" class="s13 sw2 f7"/>
<text x="450" y="401" class="f4">5</text>
<circle r="18" class="s5 sw2 f14" cx="1657" cy="898"/>
<rect x="1630" width="54" y="862" height="18" class="s14 sw2 f8"/>
<text x="1650" y="901" class="f4">3</text>
<circle r="3" class="s4 sw0 f4" cx="1666" cy="865"/>
<circle r="3" class="s4 sw0 f4" cx="1666" cy="877"/>
<circle r="3" class="s4 sw0 f4" cx="1657" cy="871"/>
<circle r="3" class="s4 sw0 f4" cx="1675" cy="871"/>
<line y2="871" x1="1660" class="s4 sw1" x2="1672" y1="871"/>
<line y2="874" x1="1666" class="s4 sw1" x2="1666" y1="868"/>
<polygon class=" s5 sw2 f13" points="248,580 266,580 275,589 275,607 266,616 248,616 239,607 239,589"/>
<rect x="230" width="54" y="562" height="18" class="s13 sw2 f7"/>
<text x="250" y="601" class="f4">11</text>
<polygon class=" s5 sw2 f13" points="1030,780 1084,780 1057,816"/>
<rect x="1030" width="54" y="762" height="18" class="s13 sw2 f7"/>
<text x="1050" y="801" class="f4">23</text>
<polygon class=" s5 sw2 f14" points="1060,753 1114,753 1087,789"/>
<rect x="1060" width="54" y="735" height="18" class="s14 sw2 f8"/>
<text x="1080" y="774" class="f4">23</text>
<line y2="747" x1="1090" class="s4 sw3" x2="1102" y1="741"/>
<circle r="6" class="s4 sw0 f4" cx="1090" cy="741"/>
<polygon class=" s5 sw2 f14" points="1448,380 1466,380 1475,389 1475,407 1466,416 1448,416 1439,407 1439,389"/>
<rect x="1430" width="54" y="362" height="18" class="s14 sw2 f8"/>
<text x="1450" y="401" class="f4">9</text>
<polygon class=" s4 sw0 f4" points="1466,362 1466,368 1472,368 1460,380 1460,374 1454,374"/>
<circle r="18" class="s5 sw2 f13" cx="1657" cy="2198"/>
<rect x="1630" width="54" y="2162" height="18" class="s13 sw2 f7"/>
<text x="1650" y="2201" class="f4">4</text>
<circle r="18" class="s5 sw2 f14" cx="357" cy="1298"/>
<rect x="330" width="54" y="1262" height="18" class="s14 sw2 f8"/>
<text x="350" y="1301" class="f4">2</text>
<circle r="3" class="s4 sw0 f4" cx="366" cy="1265"/>
<circle r="3" class="s4 sw0 f4" cx="366" cy="1277"/>
<circle r="3" class="s4 sw0 f4" cx="357" cy="1271"/>
<circle r="3" class="s4 sw0 f4" cx="375" cy="1271"/>
<line y2="1271" x1="360" class="s4 sw1" x2="372" y1="1271"/>
<line y2="1274" x1="366" class="s4 sw1" x2="366" y1="1268"/>
<polygon class=" s5 sw2 f14" points="1848,580 1866,580 1875,589 1875,607 1866,616 1848,616 1839,607 1839,589"/>
<rect x="1830" width="54" y="562" height="18" class="s14 sw2 f8"/>
<text x="1850" y="601" class="f4">10</text>
<circle r="3" class="s4 sw0 f4" cx="1866" cy="565"/>
<circle r="3" class="s4 sw0 f4" cx="1866" cy="577"/>
<circle r="3" class="s4 sw0 f4" cx="1857" cy="571"/>
<circle r="3" class="s4 sw0 f4" cx="1875" cy="571"/>
<line y2="571" x1="1860" class="s4 sw1" x2="1872" y1="571"/>
<line y2="574" x1="1866" class="s4 sw1" x2="1866" y1="568"/>
<polygon class=" s5 sw2 f13" points="848,1880 866,1880 875,1889 875,1907 866,1916 848,1916 839,1907 839,1889"/>
<rect x="830" width="54" y="1862" height="18" class="s13 sw2 f7"/>
<text x="850" y="1901" class="f4">12</text>
<polygon class=" s5 sw2 f13" points="1748,280 1766,280 1775,289 1775,307 1766,316 1748,316 1739,307 1739,289"/>
<rect x="1730" width="54" y="262" height="18" class="s13 sw2 f7"/>
<text x="1750" y="301" class="f4">9</text>
<polygon class=" s5 sw2 f13" points="1257,1680 1275,1698 1257,1716 1239,1698"/>
<rect x="1230" width="54" y="1662" height="18" class="s13 sw2 f7"/>
<text x="1250" y="1701" class="f4">13</text>
<polygon class=" s5 sw2 f14" points="1260,1653 1314,1653 1287,1689"/>
<rect x="1260" width="54" y="1635" height="18" class="s14 sw2 f8"/>
<text x="1280" y="1674" class="f4">26</text>
<polygon class=" s4 sw0 f4" points="1296,1635 1296,1641 1302,1641 1290,1653 1290,1647 1284,1647"/>
<polygon class=" s5 sw2 f14" points="857,1080 875,1098 857,1116 839,1098"/>
<rect x="830" width="54" y="1062" height="18" class="s14 sw2 f8"/>
<text x="850" y="1101" class="f4">15</text>
<circle r="3" class="s4 sw0 f4" cx="866" cy="1065"/>
<circle r="3" class="s4 sw0 f4" cx="866" cy="1077"/>
<circle r="3" class="s4 sw0 f4" cx="857" cy="1071"/>
<circle r="3" class="s4 sw0 f4" cx="875" cy="1071"/>
<line y2="1071" x1="860" class="s4 sw1" x2="872" y1="1071"/>
<line y2="1074" x1="866" class="s4 sw1" x2="866" y1="1068"/>
<polygon class=" s5 sw2 f13" points="2057,1380 2075,1398 2057,1416 2039,1398"/>
<rect x="2030" width="54" y="1362" height="18" class="s13 sw2 f7"/>
<text x="2050" y="1401" class="f4">14</text>
<polygon class=" s5 sw2 f14" points="2060,1353 2114,1353 2087,1389"/>
<rect x="2060" width="54" y="1335" height="18" class="s14 sw2 f8"/>
<text x="2080" y="1374" class="f4">28</text>
<line y2="1347" x1="2090" class="s4 sw3" x2="2102" y1="1341"/>
<circle r="6" class="s4 sw0 f4" cx="2090" cy="1341"/>
<circle r="18" class="s5 sw2 f13" cx="257" cy="1898"/>
<rect x="230" width="54" y="1862" height="18" class="s13 sw2 f7"/>
<text x="250" y="1901" class="f4">1</text>
<rect x="269" width="36" y="1853" height="36" class="s5 sw2 f13"/>
<rect x="260" width="54" y="1835" height="18" class="s13 sw2 f7"/>
<text x="280" y="1874" class="f4">18</text>
<polygon class=" s5 sw2 f13" points="748,2080 766,2080 775,2089 775,2107 766,2116 748,2116 739,2107 739,2089"/>
<rect x="730" width="54" y="2062" height="18" class="s13 sw2 f7"/>
<text x="750" y="2101" class="f4">10</text>
<polygon class=" s5 sw2 f14" points="330,1980 384,1980 357,2016"/>
<rect x="330" width="54" y="1962" height="18" class="s14 sw2 f8"/>
<text x="350" y="2001" class="f4">27</text>
<line y2="1974" x1="360" class="s4 sw3" x2="372" y1="1968"/>
<circle r="6" class="s4 sw0 f4" cx="360" cy="1968"/>
<circle r="18" class="s5 sw2 f13" cx="387" cy="1971"/>
<rect x="360" width="54" y="1935" height="18" class="s13 sw2 f7"/>
<text x="380" y="1974" class="f4">2</text>
<polygon class=" s5 sw2 f14" points="1457,480 1475,498 1457,516 1439,498"/>
<rect x="1430" width="54" y="462" height="18" class="s14 sw2 f8"/>
<text x="1450" y="501" class="f4">16</text>
<polygon class=" s4 sw0 f4" points="1466,462 1466,468 1472,468 1460,480 1460,474 1454,474"/>
<polygon class=" s5 sw2 f14" points="1478,453 1496,453 1505,462 1505,480 1496,489 1478,489 1469,480 1469,462"/>
<rect x="1460" width="54" y="435" height="18" class="s14 sw2 f8"/>
<text x="1480" y="474" class="f4">12</text>
<polygon class=" s4 sw0 f4" points="1496,435 1496,441 1502,441 1490,453 1490,447 1484,447"/>
<rect x="1739" width="36" y="1580" height="36" class="s5 sw2 f14"/>
<rect x="1730" width="54" y="1562" height="18" class="s14 sw2 f8"/>
<text x="1750" y="1601" class="f4">17</text>
<circle r="3" class="s4 sw0 f4" cx="1766" cy="1565"/>
<circle r="3" class="s4 sw0 f4" cx="1766" cy="1577"/>
<circle r="3" class="s4 sw0 f4" cx="1757" cy="1571"/>
<circle r="3" class="s4 sw0 f4" cx="1775" cy="1571"/>
<line y2="1571" x1="1760" class="s4 sw1" x2="1772" y1="1571"/>
<line y2="1574" x1="1766" class="s4 sw1" x2="1766" y1="1568"/>
<polygon class=" s5 sw2 f13" points="448,1580 466,1580 475,1589 475,1607 466,1616 448,1616 439,1607 439,1589"/>
<rect x="430" width="54" y="1562" height="18" class="s13 sw2 f7"/>
<text x="450" y="1601" class="f4">8</text>
<polygon class=" s5 sw2 f14" points="757,480 775,498 757,516 739,498"/>
<rect x="730" width="54" y="462" height="18" class="s14 sw2 f8"/>
<text x="750" y="501" class="f4">13</text>
<polygon class=" s4 sw0 f4" points="766,462 766,468 772,468 760,480 760,474 754,474"/>
<rect x="1539" width="36" y="1780" height="36" class="s5 sw2 f14"/>
<rect x="1530" width="54" y="1762" height="18" class="s14 sw2 f8"/>
<text x="1550" y="1801" class="f4">20</text>
<polygon class=" s4 sw0 f4" points="1566,1762 1566,1768 1572,1768 1560,1780 1560,1774 1554,1774"/>
<polygon class=" s5 sw2 f13" points="1730,1780 1784,1780 1757,1816"/>
<rect x="1730" width="54" y="1762" height="18" class="s13 sw2 f7"/>
<text x="1750" y="1801" class="f4">25</text>
<rect x="339" width="36" y="680" height="36" class="s5 sw2 f14"/>
<rect x="330" width="54" y="662" height="18" class="s14 sw2 f8"/>
<text x="350" y="701" class="f4">18</text>
<circle r="3" class="s4 sw0 f4" cx="366" cy="665"/>
<circle r="3" class="s4 sw0 f4" cx="366" cy="677"/>
<circle r="3" class="s4 sw0 f4" cx="357" cy="671"/>
<circle r="3" class="s4 sw0 f4" cx="375" cy="671"/>
<line y2="671" x1="360" class="s4 sw1" x2="372" y1="671"/>
<line y2="674" x1="366" class="s4 sw1" x2="366" y1="668"/>
<circle r="18" class="s5 sw2 f14" cx="457" cy="1798"/>
<rect x="430" width="54" y="1762" height="18" class="s14 sw2 f8"/>
<text x="450" y="1801" class="f4">4</text>
<circle r="3" class="s4 sw0 f4" cx="466" cy="1765"/>
<circle r="3" class="s4 sw0 f4" cx="466" cy="1777"/>
<circle r="3" class="s4 sw0 f4" cx="457" cy="1771"/>
<circle r="3" class="s4 sw0 f4" cx="475" cy="1771"/>
<line y2="1771" x1="460" class="s4 sw1" x2="472" y1="1771"/>
<line y2="1774" x1="466" class="s4 sw1" x2="466" y1="1768"/>
<circle r="18" class="s5 sw2 f14" cx="2157" cy="1198"/>
<rect x="2130" width="54" y="1162" height="18" class="s14 sw2 f8"/>
<text x="2150" y="1201" class="f4">6</text>
<polygon class=" s4 sw0 f4" points="2157,1162 2175,1162 2166,1180"/>
<polygon class=" s5 sw2 f14" points="2157,1280 2175,1298 2157,1316 2139,1298"/>
<rect x="2130" width="54" y="1262" height="18" class="s14 sw2 f8"/>
<text x="2150" y="1301" class="f4">14</text>
<circle r="3" class="s4 sw0 f4" cx="2166" cy="1265"/>
<circle r="3" class="s4 sw0 f4" cx="2166" cy="1277"/>
<circle r="3" class="s4 sw0 f4" cx="2157" cy="1271"/>
<circle r="3" class="s4 sw0 f4" cx="2175" cy="1271"/>
<line y2="1271" x1="2160" class="s4 sw1" x2="2172" y1="1271"/>
<line y2="1274" x1="2166" class="s4 sw1" x2="2166" y1="1268"/>
<polygon class=" s5 sw2 f13" points="30,680 84,680 57,716"/>
<rect x="30" width="54" y="662" height="18" class="s13 sw2 f7"/>
<text x="50" y="701" class="f4">26</text>
<circle r="18" class="s5 sw2 f14" cx="257" cy="1598"/>
<rect x="230" width="54" y="1562" height="18" class="s14 sw2 f8"/>
<text x="250" y="1601" class="f4">1</text>
<circle r="3" class="s4 sw0 f4" cx="266" cy="1565"/>
<circle r="3" class="s4 sw0 f4" cx="266" cy="1577"/>
<circle r="3" class="s4 sw0 f4" cx="257" cy="1571"/>
<circle r="3" class="s4 sw0 f4" cx="275" cy="1571"/>
<line y2="1571" x1="260" class="s4 sw1" x2="272" y1="1571"/>
<line y2="1574" x1="266" class="s4 sw1" x2="266" y1="1568"/>
<circle r="18" class="s5 sw2 f13" cx="557" cy="898"/>
<rect x="530" width="54" y="862" height="18" class="s13 sw2 f7"/>
<text x="550" y="901" class="f4">3</text>
<rect x="39" width="36" y="1680" height="36" class="s5 sw2 f13"/>
<rect x="30" width="54" y="1662" height="18" class="s13 sw2 f7"/>
<text x="50" y="1701" class="f4">21</text>
<rect x="1839" width="36" y="1980" height="36" class="s5 sw2 f14"/>
<rect x="1830" width="54" y="1962" height="18" class="s14 sw2 f8"/>
<text x="1850" y="2001" class="f4">22</text>
<polygon class=" s4 sw0 f4" points="1866,1962 1866,1968 1872,1968 1860,1980 1860,1974 1854,1974"/>
<polygon class=" s5 sw2 f14" points="1748,780 1766,780 1775,789 1775,807 1766,816 1748,816 1739,807 1739,789"/>
<rect x="1730" width="54" y="762" height="18" class="s14 sw2 f8"/>
<text x="1750" y="801" class="f4">11</text>
<circle r="3" class="s4 sw0 f4" cx="1766" cy="765"/>
<circle r="3" class="s4 sw0 f4" cx="1766" cy="777"/>
<circle r="3" class="s4 sw0 f4" cx="1757" cy="771"/>
<circle r="3" class="s4 sw0 f4" cx="1775" cy="771"/>
<line y2="771" x1="1760" class="s4 sw1" x2="1772" y1="771"/>
<line y2="774" x1="1766" class="s4 sw1" x2="1766" y1="768"/>
<polygon class=" s5 sw2 f14" points="748,680 766,680 775,689 775,707 766,716 748,716 739,707 739,689"/>
<rect x="730" width="54" y="662" height="18" class="s14 sw2 f8"/>
<text x="750" y="701" class="f4">7</text>
<circle r="3" class="s4 sw0 f4" cx="766" cy="665"/>
<circle r="3" class="s4 sw0 f4" cx="766" cy="677"/>
<circle r="3" class="s4 sw0 f4" cx="757" cy="671"/>
<circle r="3" class="s4 sw0 f4" cx="775" cy="671"/>
<line y2="671" x1="760" class="s4 sw1" x2="772" y1="671"/>
<line y2="674" x1="766" class="s4 sw1" x2="766" y1="668"/>
<circle r="18" class="s5 sw2 f14" cx="757" cy="598"/>
<rect x="730" width="54" y="562" height="18" class="s14 sw2 f8"/>
<text x="750" y="601" class="f4">5</text>
<polygon class=" s4 sw0 f4" points="757,562 775,562 766,580"/>
<polygon class=" s5 sw2 f13" points="557,1980 575,1998 557,2016 539,1998"/>
<rect x="530" width="54" y="1962" height="18" class="s13 sw2 f7"/>
<text x="550" y="2001" class="f4">16</text>
<polygon class=" s5 sw2 f14" points="1348,980 1366,980 1375,989 1375,1007 1366,1016 1348,1016 1339,1007 1339,989"/>
<rect x="1330" width="54" y="962" height="18" class="s14 sw2 f8"/>
<text x="1350" y="1001" class="f4">8</text>
<circle r="3" class="s4 sw0 f4" cx="1366" cy="965"/>
<circle r="3" class="s4 sw0 f4" cx="1366" cy="977"/>
<circle r="3" class="s4 sw0 f4" cx="1357" cy="971"/>
<circle r="3" class="s4 sw0 f4" cx="1375" cy="971"/>
<line y2="971" x1="1360" class="s4 sw1" x2="1372" y1="971"/>
<line y2="974" x1="1366" class="s4 sw1" x2="1366" y1="968"/>
<circle r="18" class="s5 sw2 f13" cx="1957" cy="98"/>
<rect x="1930" width="54" y="62" height="18" class="s13 sw2 f7"/>
<text x="1950" y="101" class="f4">6</text>
<rect x="1339" width="36" y="80" height="36" class="s5 sw2 f13"/>
<rect x="1330" width="54" y="62" height="18" class="s13 sw2 f7"/>
<text x="1350" y="101" class="f4">17</text>
<polygon class=" s5 sw2 f13" points="1430,1180 1484,1180 1457,1216"/>
<rect x="1430" width="54" y="1162" height="18" class="s13 sw2 f7"/>
<text x="1450" y="1201" class="f4">27</text>
<polygon class=" s5 sw2 f13" points="457,1980 475,1998 457,2016 439,1998"/>
<rect x="430" width="54" y="1962" height="18" class="s13 sw2 f7"/>
<text x="450" y="2001" class="f4">15</text>
<rect x="1439" width="36" y="1480" height="36" class="s5 sw2 f14"/>
<rect x="1430" width="54" y="1462" height="18" class="s14 sw2 f7"/>
<text x="1450" y="1501" class="f4">19</text>
<circle r="3" class="s4 sw0 f4" cx="1466" cy="1465"/>
<circle r="3" class="s4 sw0 f4" cx="1466" cy="1477"/>
<circle r="3" class="s4 sw0 f4" cx="1457" cy="1471"/>
<circle r="3" class="s4 sw0 f4" cx="1475" cy="1471"/>
<line y2="1471" x1="1460" class="s4 sw1" x2="1472" y1="1471"/>
<line y2="1474" x1="1466" class="s4 sw1" x2="1466" y1="1468"/>
<g id="teamTable" transform="translate(-100, 150)">
<text x="2350" y="75" class="TxtNrml">Step: 218</text>
<text x="2350" y="180" class="Tb" text-anchor="start">
<tspan fill="rgba(0,158,115,1.0)" x="2350">Nabf</tspan>
<tspan x="2750">27593</tspan>
<tspan x="2950">139</tspan>
<tspan x="3150">115</tspan>
<tspan x="3350">24</tspan>
</text>
<text x="2350" y="220" class="Tb" text-anchor="start">
<tspan fill="rgba(0,114,178,1.0)" x="2350">B</tspan>
<tspan x="2750">6420</tspan>
<tspan x="2950">29</tspan>
<tspan x="3150">27</tspan>
<tspan x="3350">2</tspan>
</text>
</g>
<g id="agentTable" transform="translate(-100, 150)">
<text x="2350" y="316" class="Tb2" text-anchor="start">
<tspan x="2535">21/35</tspan>
<tspan x="2650">4/4</tspan>
<tspan x="2765">0</tspan>
<tspan x="2880">2</tspan>
<tspan x="2995">goto v231:successful</tspan>
</text>
<text x="2350" y="346" class="Tb2" text-anchor="start">
<tspan x="2535">9/35</tspan>
<tspan x="2650">4/4</tspan>
<tspan x="2765">0</tspan>
<tspan x="2880">2</tspan>
<tspan x="2995">goto v119:successful</tspan>
</text>
<text x="2350" y="376" class="Tb2" text-anchor="start">
<tspan x="2535">12/35</tspan>
<tspan x="2650">4/4</tspan>
<tspan x="2765">0</tspan>
<tspan x="2880">2</tspan>
<tspan x="2995">goto v64:successful</tspan>
</text>
<text x="2350" y="406" class="Tb2" text-anchor="start">
<tspan x="2535">8/35</tspan>
<tspan x="2650">4/4</tspan>
<tspan x="2765">0</tspan>
<tspan x="2880">2</tspan>
<tspan x="2995">goto v210:successful</tspan>
</text>
<text x="2350" y="436" class="Tb2" text-anchor="start">
<tspan x="2535">28/35</tspan>
<tspan x="2650">4/4</tspan>
<tspan x="2765">0</tspan>
<tspan x="2880">2</tspan>
<tspan x="2995">probe :successful</tspan>
</text>
<text x="2350" y="466" class="Tb2" text-anchor="start">
<tspan x="2535">22/35</tspan>
<tspan x="2650">4/4</tspan>
<tspan x="2765">0</tspan>
<tspan x="2880">2</tspan>
<tspan x="2995">probe :successful</tspan>
</text>
<text x="2350" y="496" class="Tb2" text-anchor="start">
<tspan x="2535">22/25</tspan>
<tspan x="2650">6/6</tspan>
<tspan x="2765">0</tspan>
<tspan x="2880">1</tspan>
<tspan x="2995">goto v261:successful</tspan>
</text>
<text x="2350" y="526" class="Tb2" text-anchor="start">
<tspan x="2535">5/25</tspan>
<tspan x="2650">6/6</tspan>
<tspan x="2765">0</tspan>
<tspan x="2880">1</tspan>
<tspan x="2995">goto v264:successful</tspan>
</text>
<text x="2350" y="556" class="Tb2" text-anchor="start">
<tspan x="2535">25/25</tspan>
<tspan x="2650">6/6</tspan>
<tspan x="2765">0</tspan>
<tspan x="2880">1</tspan>
<tspan x="2995">recharge :successful</tspan>
</text>
<text x="2350" y="586" class="Tb2" text-anchor="start">
<tspan x="2535">16/25</tspan>
<tspan x="2650">6/6</tspan>
<tspan x="2765">0</tspan>
<tspan x="2880">1</tspan>
<tspan x="2995">goto v122:successful</tspan>
</text>
<text x="2350" y="616" class="Tb2" text-anchor="start">
<tspan x="2535">23/25</tspan>
<tspan x="2650">6/6</tspan>
<tspan x="2765">0</tspan>
<tspan x="2880">1</tspan>
<tspan x="2995">goto v260:successful</tspan>
</text>
<text x="2350" y="646" class="Tb2" text-anchor="start">
<tspan x="2535">22/25</tspan>
<tspan x="2650">6/6</tspan>
<tspan x="2765">0</tspan>
<tspan x="2880">1</tspan>
<tspan x="2995">recharge :successful</tspan>
</text>
<text x="2350" y="676" class="Tb2" text-anchor="start">
<tspan x="2535">20/20</tspan>
<tspan x="2650">3/3</tspan>
<tspan x="2765">3</tspan>
<tspan x="2880">1</tspan>
<tspan x="2995">recharge :successful</tspan>
</text>
<text x="2350" y="706" class="Tb2" text-anchor="start">
<tspan x="2535">15/20</tspan>
<tspan x="2650">3/3</tspan>
<tspan x="2765">3</tspan>
<tspan x="2880">1</tspan>
<tspan x="2995">goto v222:successful</tspan>
</text>
<text x="2350" y="736" class="Tb2" text-anchor="start">
<tspan x="2535">6/20</tspan>
<tspan x="2650">3/3</tspan>
<tspan x="2765">3</tspan>
<tspan x="2880">1</tspan>
<tspan x="2995">goto v141:successful</tspan>
</text>
<text x="2350" y="766" class="Tb2" text-anchor="start">
<tspan x="2535">20/20</tspan>
<tspan x="2650">3/3</tspan>
<tspan x="2765">3</tspan>
<tspan x="2880">1</tspan>
<tspan x="2995">recharge :successful</tspan>
</text>
<text x="2350" y="796" class="Tb2" text-anchor="start">
<tspan x="2535">14/30</tspan>
<tspan x="2650">1/1</tspan>
<tspan x="2765">0</tspan>
<tspan x="2880">3</tspan>
<tspan x="2995">goto v183:successful</tspan>
</text>
<text x="2350" y="826" class="Tb2" text-anchor="start">
<tspan x="2535">23/30</tspan>
<tspan x="2650">1/1</tspan>
<tspan x="2765">0</tspan>
<tspan x="2880">3</tspan>
<tspan x="2995">goto v204:successful</tspan>
</text>
<text x="2350" y="856" class="Tb2" text-anchor="start">
<tspan x="2535">16/30</tspan>
<tspan x="2650">1/1</tspan>
<tspan x="2765">0</tspan>
<tspan x="2880">3</tspan>
<tspan fill="red" x="2995">goto v87:failed_random</tspan>
</text>
<text x="2350" y="886" class="Tb2" text-anchor="start">
<tspan x="2535">30/30</tspan>
<tspan x="2650">1/1</tspan>
<tspan x="2765">0</tspan>
<tspan x="2880">3</tspan>
<tspan x="2995">recharge :successful</tspan>
</text>
<text x="2350" y="916" class="Tb2" text-anchor="start">
<tspan x="2535">2/30</tspan>
<tspan x="2650">1/1</tspan>
<tspan x="2765">0</tspan>
<tspan x="2880">3</tspan>
<tspan x="2995">goto v37:successful</tspan>
</text>
<text x="2350" y="946" class="Tb2" text-anchor="start">
<tspan x="2535">18/30</tspan>
<tspan x="2650">1/1</tspan>
<tspan x="2765">0</tspan>
<tspan x="2880">3</tspan>
<tspan x="2995">recharge :successful</tspan>
</text>
<text x="2350" y="976" class="Tb2" text-anchor="start">
<tspan x="2535">15/25</tspan>
<tspan x="2650">6/6</tspan>
<tspan x="2765">0</tspan>
<tspan x="2880">1</tspan>
<tspan x="2995">inspect :successful</tspan>
</text>
<text x="2350" y="1006" class="Tb2" text-anchor="start">
<tspan x="2535">25/25</tspan>
<tspan x="2650">6/6</tspan>
<tspan x="2765">0</tspan>
<tspan x="2880">1</tspan>
<tspan x="2995">recharge :successful</tspan>
</text>
<text x="2350" y="1036" class="Tb2" text-anchor="start">
<tspan x="2535">2/25</tspan>
<tspan x="2650">6/6</tspan>
<tspan x="2765">0</tspan>
<tspan x="2880">1</tspan>
<tspan x="2995">inspect :successful</tspan>
</text>
<text x="2350" y="1066" class="Tb2" text-anchor="start">
<tspan x="2535">25/25</tspan>
<tspan x="2650">6/6</tspan>
<tspan x="2765">0</tspan>
<tspan x="2880">1</tspan>
<tspan x="2995">recharge :successful</tspan>
</text>
<text x="2350" y="1096" class="Tb2" text-anchor="start">
<tspan x="2535">19/25</tspan>
<tspan x="2650">6/6</tspan>
<tspan x="2765">0</tspan>
<tspan x="2880">1</tspan>
<tspan x="2995">inspect :successful</tspan>
</text>
<text x="2350" y="1126" class="Tb2" text-anchor="start">
<tspan x="2535">23/25</tspan>
<tspan x="2650">6/6</tspan>
<tspan x="2765">0</tspan>
<tspan x="2880">1</tspan>
<tspan x="2995">inspect :successful</tspan>
</text>
<text x="2350" y="1156" class="Tb2" text-anchor="start">
<tspan x="2535">35/35</tspan>
<tspan x="2650">4/4</tspan>
<tspan x="2765">0</tspan>
<tspan x="2880">2</tspan>
<tspan fill="red" x="2995">noAction :failed</tspan>
</text>
<text x="2350" y="1186" class="Tb2" text-anchor="start">
<tspan x="2535">35/35</tspan>
<tspan x="2650">4/4</tspan>
<tspan x="2765">0</tspan>
<tspan x="2880">2</tspan>
<tspan fill="red" x="2995">noAction :failed</tspan>
</text>
<text x="2350" y="1216" class="Tb2" text-anchor="start">
<tspan x="2535">35/35</tspan>
<tspan x="2650">4/4</tspan>
<tspan x="2765">0</tspan>
<tspan x="2880">2</tspan>
<tspan fill="red" x="2995">noAction :failed</tspan>
</text>
<text x="2350" y="1246" class="Tb2" text-anchor="start">
<tspan x="2535">35/35</tspan>
<tspan x="2650">4/4</tspan>
<tspan x="2765">0</tspan>
<tspan x="2880">2</tspan>
<tspan fill="red" x="2995">noAction :failed</tspan>
</text>
<text x="2350" y="1276" class="Tb2" text-anchor="start">
<tspan x="2535">35/35</tspan>
<tspan x="2650">4/4</tspan>
<tspan x="2765">0</tspan>
<tspan x="2880">2</tspan>
<tspan fill="red" x="2995">noAction :failed</tspan>
</text>
<text x="2350" y="1306" class="Tb2" text-anchor="start">
<tspan x="2535">35/35</tspan>
<tspan x="2650">4/4</tspan>
<tspan x="2765">0</tspan>
<tspan x="2880">2</tspan>
<tspan fill="red" x="2995">noAction :failed</tspan>
</text>
<text x="2350" y="1336" class="Tb2" text-anchor="start">
<tspan x="2535">25/25</tspan>
<tspan x="2650">6/6</tspan>
<tspan x="2765">0</tspan>
<tspan x="2880">1</tspan>
<tspan fill="red" x="2995">noAction :failed</tspan>
</text>
<text x="2350" y="1366" class="Tb2" text-anchor="start">
<tspan x="2535">25/25</tspan>
<tspan x="2650">6/6</tspan>
<tspan x="2765">0</tspan>
<tspan x="2880">1</tspan>
<tspan fill="red" x="2995">noAction :failed</tspan>
</text>
<text x="2350" y="1396" class="Tb2" text-anchor="start">
<tspan x="2535">25/25</tspan>
<tspan x="2650">6/6</tspan>
<tspan x="2765">0</tspan>
<tspan x="2880">1</tspan>
<tspan fill="red" x="2995">noAction :failed</tspan>
</text>
<text x="2350" y="1426" class="Tb2" text-anchor="start">
<tspan x="2535">25/25</tspan>
<tspan x="2650">6/6</tspan>
<tspan x="2765">0</tspan>
<tspan x="2880">1</tspan>
<tspan fill="red" x="2995">noAction :failed</tspan>
</text>
<text x="2350" y="1456" class="Tb2" text-anchor="start">
<tspan x="2535">25/25</tspan>
<tspan x="2650">6/6</tspan>
<tspan x="2765">0</tspan>
<tspan x="2880">1</tspan>
<tspan fill="red" x="2995">noAction :failed</tspan>
</text>
<text x="2350" y="1486" class="Tb2" text-anchor="start">
<tspan x="2535">25/25</tspan>
<tspan x="2650">6/6</tspan>
<tspan x="2765">0</tspan>
<tspan x="2880">1</tspan>
<tspan fill="red" x="2995">noAction :failed</tspan>
</text>
<text x="2350" y="1516" class="Tb2" text-anchor="start">
<tspan x="2535">20/20</tspan>
<tspan x="2650">3/3</tspan>
<tspan x="2765">3</tspan>
<tspan x="2880">1</tspan>
<tspan fill="red" x="2995">noAction :failed</tspan>
</text>
<text x="2350" y="1546" class="Tb2" text-anchor="start">
<tspan x="2535">20/20</tspan>
<tspan x="2650">3/3</tspan>
<tspan x="2765">3</tspan>
<tspan x="2880">1</tspan>
<tspan fill="red" x="2995">noAction :failed</tspan>
</text>
<text x="2350" y="1576" class="Tb2" text-anchor="start">
<tspan x="2535">20/20</tspan>
<tspan x="2650">3/3</tspan>
<tspan x="2765">3</tspan>
<tspan x="2880">1</tspan>
<tspan fill="red" x="2995">noAction :failed</tspan>
</text>
<text x="2350" y="1606" class="Tb2" text-anchor="start">
<tspan x="2535">20/20</tspan>
<tspan x="2650">3/3</tspan>
<tspan x="2765">3</tspan>
<tspan x="2880">1</tspan>
<tspan fill="red" x="2995">noAction :failed</tspan>
</text>
<text x="2350" y="1636" class="Tb2" text-anchor="start">
<tspan x="2535">30/30</tspan>
<tspan x="2650">1/1</tspan>
<tspan x="2765">0</tspan>
<tspan x="2880">3</tspan>
<tspan fill="red" x="2995">noAction :failed</tspan>
</text>
<text x="2350" y="1666" class="Tb2" text-anchor="start">
<tspan x="2535">30/30</tspan>
<tspan x="2650">1/1</tspan>
<tspan x="2765">0</tspan>
<tspan x="2880">3</tspan>
<tspan fill="red" x="2995">noAction :failed</tspan>
</text>
<text x="2350" y="1696" class="Tb2" text-anchor="start">
<tspan x="2535">30/30</tspan>
<tspan x="2650">1/1</tspan>
<tspan x="2765">0</tspan>
<tspan x="2880">3</tspan>
<tspan fill="red" x="2995">noAction :failed</tspan>
</text>
<text x="2350" y="1726" class="Tb2" text-anchor="start">
<tspan x="2535">30/30</tspan>
<tspan x="2650">1/1</tspan>
<tspan x="2765">0</tspan>
<tspan x="2880">3</tspan>
<tspan fill="red" x="2995">noAction :failed</tspan>
</text>
<text x="2350" y="1756" class="Tb2" text-anchor="start">
<tspan x="2535">30/30</tspan>
<tspan x="2650">1/1</tspan>
<tspan x="2765">0</tspan>
<tspan x="2880">3</tspan>
<tspan fill="red" x="2995">noAction :failed</tspan>
</text>
<text x="2350" y="1786" class="Tb2" text-anchor="start">
<tspan x="2535">30/30</tspan>
<tspan x="2650">1/1</tspan>
<tspan x="2765">0</tspan>
<tspan x="2880">3</tspan>
<tspan fill="red" x="2995">noAction :failed</tspan>
</text>
<text x="2350" y="1816" class="Tb2" text-anchor="start">
<tspan x="2535">25/25</tspan>
<tspan x="2650">6/6</tspan>
<tspan x="2765">0</tspan>
<tspan x="2880">1</tspan>
<tspan fill="red" x="2995">noAction :failed</tspan>
</text>
<text x="2350" y="1846" class="Tb2" text-anchor="start">
<tspan x="2535">25/25</tspan>
<tspan x="2650">6/6</tspan>
<tspan x="2765">0</tspan>
<tspan x="2880">1</tspan>
<tspan fill="red" x="2995">noAction :failed</tspan>
</text>
<text x="2350" y="1876" class="Tb2" text-anchor="start">
<tspan x="2535">25/25</tspan>
<tspan x="2650">6/6</tspan>
<tspan x="2765">0</tspan>
<tspan x="2880">1</tspan>
<tspan fill="red" x="2995">noAction :failed</tspan>
</text>
<text x="2350" y="1906" class="Tb2" text-anchor="start">
<tspan x="2535">25/25</tspan>
<tspan x="2650">6/6</tspan>
<tspan x="2765">0</tspan>
<tspan x="2880">1</tspan>
<tspan fill="red" x="2995">noAction :failed</tspan>
</text>
<text x="2350" y="1936" class="Tb2" text-anchor="start">
<tspan x="2535">25/25</tspan>
<tspan x="2650">6/6</tspan>
<tspan x="2765">0</tspan>
<tspan x="2880">1</tspan>
<tspan fill="red" x="2995">noAction :failed</tspan>
</text>
<text x="2350" y="1966" class="Tb2" text-anchor="start">
<tspan x="2535">25/25</tspan>
<tspan x="2650">6/6</tspan>
<tspan x="2765">0</tspan>
<tspan x="2880">1</tspan>
<tspan fill="red" x="2995">noAction :failed</tspan>
</text>
</g>
<line y2="442" x1="3290" class="s5 sw1" x2="3290" y1="1996"/>
<g id="achievementPart" transform="translate(-100, 150)">
<text x="3400" y="301" class="TxtAch">
<tspan x="3400">Achievements</tspan>
<tspan fill="rgba(0,158,115,1.0)" x="3400" y="331">Nabf</tspan>
<tspan x="3400" y="351">proved5</tspan>
<tspan x="3400" y="371">proved10</tspan>
<tspan x="3400" y="391">proved20</tspan>
<tspan x="3400" y="411">proved40</tspan>
<tspan x="3400" y="431">proved80</tspan>
<tspan x="3400" y="451">proved160</tspan>
<tspan x="3400" y="471">inspected5</tspan>
<tspan x="3400" y="491">area10</tspan>
<tspan x="3400" y="511">area20</tspan>
<tspan x="3400" y="531">area40</tspan>
<tspan x="3400" y="551">area80</tspan>
<tspan x="3400" y="571">area160</tspan>
<tspan fill="rgba(0,114,178,1.0)" x="3400" y="596">B</tspan>
<tspan x="3400" y="616">area10</tspan>
</text>
</g>
</g>
</svg>
