<?xml version="1.0" encoding="UTF-8"?><?xml-stylesheet type="text/css" href="style.css"?><svg xmlns="http://www.w3.org/2000/svg" xmlns:xlink="http://www.w3.org/1999/xlink" contentScriptType="text/ecmascript" zoomAndPan="magnify" contentStyleType="text/css" preserveAspectRatio="xMidYMid meet" version="1.0">
<g id="scaleSvg" transform="scale(0.25)">
<use xlink:href="Surface.svg#surface" x="0" z-index="0" y="0" transform="scale(7.761236153249136)"/>
<line y2="350" x1="50" class="E sw10" x2="50" y1="950"/>
<line y2="450" x1="1050" class="E sw3" x2="1050" y1="950"/>
<line y2="50" x1="450" class="E sw6" x2="850" y1="50"/>
<line y2="1250" x1="50" class="E sw9" x2="50" y1="1650"/>
<line y2="1450" x1="750" class="E sw5" x2="750" y1="1750"/>
<line y2="850" x1="150" class="E sw4" x2="150" y1="550"/>
<line y2="950" x1="1050" class="E sw7" x2="1050" y1="1250"/>
<line y2="2150" x1="550" class="E sw6" x2="850" y1="2150"/>
<line y2="1450" x1="650" class="E sw7" x2="650" y1="1750"/>
<line y2="1650" x1="850" class="E sw8" x2="1050" y1="1450"/>
<line y2="250" x1="450" class="E sw7" x2="650" y1="50"/>
<line y2="2150" x1="50" class="E sw5" x2="250" y1="1950"/>
<line y2="250" x1="450" class="E sw9" x2="650" y1="150"/>
<line y2="450" x1="650" class="E sw4" x2="550" y1="650"/>
<line y2="1850" x1="750" class="E sw10" x2="950" y1="1750"/>
<line y2="50" x1="750" class="E sw4" x2="850" y1="250"/>
<line y2="1250" x1="150" class="E sw4" x2="250" y1="1050"/>
<line y2="1150" x1="150" class="E sw9" x2="350" y1="1050"/>
<line y2="350" x1="150" class="E sw5" x2="50" y1="550"/>
<line y2="1150" x1="250" class="E sw4" x2="350" y1="950"/>
<line y2="850" x1="750" class="E sw3" x2="550" y1="950"/>
<line y2="1050" x1="950" class="E sw10" x2="850" y1="1250"/>
<line y2="750" x1="1050" class="E sw10" x2="950" y1="950"/>
<line y2="1050" x1="1050" class="E sw3" x2="850" y1="950"/>
<line y2="150" x1="450" class="E sw8" x2="250" y1="50"/>
<line y2="1650" x1="250" class="E sw10" x2="350" y1="1850"/>
<line y2="550" x1="350" class="E sw5" x2="250" y1="750"/>
<line y2="850" x1="350" class="E sw9" x2="150" y1="750"/>
<line y2="450" x1="950" class="E sw9" x2="850" y1="650"/>
<line y2="2150" x1="650" class="E sw3" x2="850" y1="2050"/>
<line y2="450" x1="350" class="E sw9" x2="150" y1="350"/>
<line y2="250" x1="350" class="E sw3" x2="150" y1="350"/>
<line y2="150" x1="350" class="E sw8" x2="250" y1="350"/>
<line y2="1450" x1="50" class="E sw3" x2="150" y1="1650"/>
<line y2="1250" x1="350" class="E sw9" x2="550" y1="1150"/>
<line y2="750" x1="750" class="E sw5" x2="950" y1="650"/>
<line y2="450" x1="750" class="E sw10" x2="850" y1="650"/>
<line y2="750" x1="850" class="E sw4" x2="750" y1="950"/>
<line y2="750" x1="850" class="E sw7" x2="950" y1="950"/>
<line y2="850" x1="350" class="E sw8" x2="150" y1="950"/>
<line y2="850" x1="350" class="E sw7" x2="550" y1="950"/>
<line x1="750" x2="950" y1="1950" y2="1850" style="stroke-width:11;" class="E"/>
<line y2="1250" x1="150" class="E sw7" x2="50" y1="1450"/>
<line y2="2150" x1="150" class="E sw5" x2="250" y1="1950"/>
<line x1="1050" x2="950" y1="1650" y2="1450" style="stroke-width:11;" class="E"/>
<line y2="1850" x1="1050" class="E sw7" x2="950" y1="1650"/>
<line y2="1250" x1="250" class="E sw10" x2="350" y1="1450"/>
<line y2="150" x1="450" class="E sw5" x2="250" y1="250"/>
<line y2="650" x1="550" class="E sw3" x2="450" y1="450"/>
<line y2="250" x1="550" class="E sw4" x2="650" y1="450"/>
<line y2="1250" x1="450" class="E sw9" x2="350" y1="1450"/>
<line y2="1550" x1="450" class="E sw10" x2="250" y1="1450"/>
<line y2="1750" x1="450" class="E sw6" x2="550" y1="1550"/>
<line y2="1550" x1="450" class="E sw7" x2="450" y1="1750"/>
<line y2="1250" x1="850" class="E sw10" x2="650" y1="1250"/>
<line y2="1050" x1="850" class="E sw4" x2="850" y1="1250"/>
<line x1="750" x2="550" y1="850" y2="850" style="stroke-width:11;" class="E"/>
<line y2="150" x1="450" class="E sw10" x2="250" y1="150"/>
<line y2="450" x1="650" class="E sw6" x2="650" y1="650"/>
<line y2="1050" x1="150" class="E sw10" x2="150" y1="1250"/>
<line y2="350" x1="350" class="E sw6" x2="350" y1="550"/>
<line y2="1850" x1="950" class="E sw7" x2="950" y1="2050"/>
<line y2="2050" x1="450" class="E sw4" x2="250" y1="2050"/>
<line y2="250" x1="650" class="E sw6" x2="650" y1="450"/>
<line y2="350" x1="150" class="E sw5" x2="350" y1="350"/>
<line y2="2150" x1="550" class="E sw5" x2="350" y1="2150"/>
<line y2="1750" x1="50" class="E sw7" x2="50" y1="1950"/>
<line y2="950" x1="350" class="E sw10" x2="350" y1="750"/>
<line y2="650" x1="950" class="E sw5" x2="750" y1="650"/>
<line x1="450" x2="650" y1="1850" y2="1850" style="stroke-width:11;" class="E"/>
<line y2="50" x1="1050" class="E sw5" x2="850" y1="50"/>
<line y2="750" x1="950" class="E sw10" x2="950" y1="950"/>
<line x1="150" x2="150" y1="1750" y2="1950" style="stroke-width:11;" class="E"/>
<line x1="550" x2="750" y1="750" y2="750" style="stroke-width:11;" class="E"/>
<line y2="450" x1="1050" class="E sw9" x2="850" y1="450"/>
<line y2="1450" x1="250" class="E sw7" x2="450" y1="1450"/>
<line y2="450" x1="450" class="E sw7" x2="450" y1="650"/>
<line x1="850" x2="950" y1="250" y2="150" style="stroke-width:11;" class="E"/>
<line y2="1650" x1="450" class="E sw3" x2="350" y1="1750"/>
<line y2="1150" x1="850" class="E sw5" x2="750" y1="1250"/>
<line y2="1350" x1="850" class="E sw9" x2="950" y1="1250"/>
<line y2="2050" x1="1050" class="E sw7" x2="950" y1="1950"/>
<line y2="1850" x1="1050" class="E sw4" x2="950" y1="1950"/>
<line y2="950" x1="750" class="E sw9" x2="850" y1="850"/>
<line y2="50" x1="50" class="E sw6" x2="150" y1="150"/>
<line y2="750" x1="650" class="E sw7" x2="750" y1="650"/>
<line y2="1150" x1="150" class="E sw9" x2="50" y1="1250"/>
<line x1="750" x2="650" y1="1750" y2="1850" style="stroke-width:11;" class="E"/>
<line y2="450" x1="350" class="E sw9" x2="450" y1="550"/>
<line y2="450" x1="450" class="E sw7" x2="550" y1="350"/>
<line y2="2050" x1="350" class="E sw10" x2="450" y1="1950"/>
<line y2="1850" x1="350" class="E sw4" x2="250" y1="1950"/>
<line y2="2150" x1="950" class="E sw8" x2="850" y1="2050"/>
<line y2="1950" x1="450" class="E sw6" x2="550" y1="2050"/>
<line y2="550" x1="650" class="E sw3" x2="750" y1="450"/>
<line y2="350" x1="650" class="E sw9" x2="750" y1="450"/>
<line x1="250" x2="150" y1="2050" y2="1950" style="stroke-width:11;" class="E"/>
<line y2="350" x1="750" class="E sw10" x2="850" y1="250"/>
<line y2="950" x1="150" class="E sw7" x2="250" y1="1050"/>
<line y2="950" x1="150" class="E sw7" x2="50" y1="1050"/>
<line y2="1350" x1="850" class="E sw8" x2="950" y1="1450"/>
<line y2="850" x1="250" class="E sw7" x2="150" y1="950"/>
<line y2="1050" x1="750" class="E sw8" x2="850" y1="950"/>
<line y2="2050" x1="550" class="E sw8" x2="650" y1="2150"/>
<line y2="250" x1="1050" class="E sw10" x2="950" y1="150"/>
<line y2="1850" x1="550" class="E sw9" x2="650" y1="1950"/>
<line y2="1750" x1="250" class="E sw10" x2="150" y1="1850"/>
<line y2="150" x1="50" class="E sw3" x2="150" y1="250"/>
<line x1="950" x2="1050" y1="250" y2="350" style="stroke-width:11;" class="E"/>
<line y2="150" x1="1050" class="E sw6" x2="950" y1="50"/>
<line x1="950" x2="850" y1="950" y2="1050" style="stroke-width:11;" class="E"/>
<line y2="850" x1="50" class="E sw7" x2="150" y1="950"/>
<line y2="1950" x1="650" class="E sw8" x2="750" y1="2050"/>
<line y2="250" x1="350" class="E sw4" x2="450" y1="350"/>
<line y2="2050" x1="850" class="E sw8" x2="750" y1="2150"/>
<line y2="450" x1="250" class="E sw5" x2="150" y1="550"/>
<line y2="1450" x1="1050" class="E sw10" x2="950" y1="1350"/>
<line y2="1750" x1="650" class="E sw4" x2="550" y1="1850"/>
<line y2="1350" x1="550" class="E sw8" x2="450" y1="1250"/>
<line y2="1350" x1="550" class="E sw4" x2="650" y1="1250"/>
<line y2="1650" x1="50" class="E sw4" x2="150" y1="1750"/>
<line y2="1350" x1="250" class="E sw4" x2="150" y1="1450"/>
<line y2="1250" x1="450" class="E sw3" x2="350" y1="1350"/>
<line y2="1350" x1="450" class="E sw4" x2="550" y1="1450"/>
<line y2="450" x1="750" class="E sw8" x2="850" y1="550"/>
<line y2="250" x1="750" class="E sw7" x2="650" y1="350"/>
<line y2="450" x1="750" class="E sw3" x2="850" y1="350"/>
<line y2="1350" x1="50" class="E sw8" x2="150" y1="1250"/>
<line y2="1650" x1="250" class="E sw5" x2="350" y1="1550"/>
<line y2="1350" x1="750" class="E sw4" x2="650" y1="1450"/>
<line y2="450" x1="950" class="E sw3" x2="850" y1="350"/>
<line y2="250" x1="850" class="E sw5" x2="750" y1="250"/>
<line y2="350" x1="850" class="E sw6" x2="850" y1="250"/>
<line y2="1850" x1="450" class="E sw8" x2="450" y1="1750"/>
<line y2="1850" x1="1050" class="E sw8" x2="1050" y1="1950"/>
<line y2="950" x1="750" class="E sw9" x2="750" y1="850"/>
<line y2="750" x1="750" class="E sw7" x2="750" y1="850"/>
<line y2="250" x1="450" class="E sw9" x2="450" y1="150"/>
<line x1="50" x2="150" y1="150" y2="150" style="stroke-width:11;" class="E"/>
<line y2="550" x1="350" class="E sw4" x2="250" y1="550"/>
<line y2="650" x1="350" class="E sw5" x2="350" y1="550"/>
<line y2="250" x1="450" class="E sw7" x2="450" y1="350"/>
<line x1="450" x2="450" y1="350" y2="450" style="stroke-width:11;" class="E"/>
<line y2="1850" x1="350" class="E sw4" x2="250" y1="1850"/>
<line x1="350" x2="450" y1="1850" y2="1850" style="stroke-width:11;" class="E"/>
<line x1="350" x2="250" y1="1950" y2="1950" style="stroke-width:11;" class="E"/>
<line y2="1950" x1="350" class="E sw7" x2="450" y1="1950"/>
<line y2="2150" x1="950" class="E sw6" x2="950" y1="2050"/>
<line y2="1950" x1="450" class="E sw9" x2="450" y1="2050"/>
<line y2="450" x1="650" class="E sw10" x2="550" y1="450"/>
<line y2="450" x1="650" class="E sw5" x2="750" y1="450"/>
<line x1="150" x2="50" y1="350" y2="350" style="stroke-width:11;" class="E"/>
<line y2="450" x1="150" class="E sw9" x2="150" y1="350"/>
<line y2="250" x1="150" class="E sw5" x2="150" y1="350"/>
<line y2="1950" x1="250" class="E sw4" x2="250" y1="2050"/>
<line y2="2150" x1="250" class="E sw9" x2="250" y1="2050"/>
<line y2="1450" x1="850" class="E sw10" x2="950" y1="1450"/>
<line y2="1450" x1="850" class="E sw9" x2="750" y1="1450"/>
<line x1="1050" x2="1050" y1="1250" y2="1350" style="stroke-width:11;" class="E"/>
<line y2="950" x1="250" class="E sw4" x2="350" y1="950"/>
<line y2="1350" x1="950" class="E sw9" x2="950" y1="1250"/>
<line y2="950" x1="1050" class="E sw9" x2="950" y1="950"/>
<line y2="150" x1="1050" class="E sw10" x2="950" y1="150"/>
<line x1="250" x2="250" y1="1950" y2="1850" style="stroke-width:11;" class="E"/>
<line x1="250" x2="150" y1="1950" y2="1950" style="stroke-width:11;" class="E"/>
<line y2="1750" x1="650" class="E sw5" x2="550" y1="1750"/>
<line y2="1950" x1="550" class="E sw4" x2="450" y1="1950"/>
<line y2="350" x1="50" class="E sw3" x2="50" y1="250"/>
<line y2="1950" x1="50" class="E sw4" x2="150" y1="1950"/>
<line y2="1950" x1="450" class="E sw10" x2="450" y1="1850"/>
<line y2="1450" x1="650" class="E sw7" x2="750" y1="1450"/>
<line y2="1250" x1="250" class="E sw5" x2="350" y1="1250"/>
<line y2="950" x1="950" class="E sw5" x2="850" y1="950"/>
<line x1="650" x2="750" y1="2050" y2="2050" style="stroke-width:11;" class="E"/>
<line y2="1750" x1="50" class="E sw8" x2="50" y1="1650"/>
<line y2="1650" x1="50" class="E sw6" x2="150" y1="1650"/>
<line y2="1350" x1="950" class="E sw10" x2="1050" y1="1350"/>
<line y2="1250" x1="650" class="E sw7" x2="550" y1="1250"/>
<line y2="550" x1="750" class="E sw4" x2="750" y1="650"/>
<line y2="350" x1="850" class="E sw5" x2="750" y1="350"/>
<line y2="450" x1="850" class="E sw7" x2="850" y1="350"/>
<line y2="1750" x1="150" class="E sw9" x2="50" y1="1750"/>
<line y2="1450" x1="150" class="E sw10" x2="250" y1="1450"/>
<line y2="650" x1="350" class="E sw10" x2="450" y1="650"/>
<line y2="2150" x1="350" class="E sw4" x2="250" y1="2150"/>
<line y2="350" x1="1050" class="E sw10" x2="1050" y1="450"/>
<line y2="1550" x1="1050" class="E sw6" x2="1050" y1="1650"/>
<line y2="1450" x1="450" class="E sw3" x2="450" y1="1350"/>
<line x1="750" x2="750" y1="550" y2="450" style="stroke-width:11;" class="E"/>
<line y2="450" x1="750" class="E sw8" x2="750" y1="350"/>
<line x1="150" x2="250" y1="50" y2="50" style="stroke-width:11;" class="E"/>
<line y2="1150" x1="50" class="E sw7" x2="50" y1="1250"/>
<line y2="450" x1="750" class="E sw9" x2="850" y1="450"/>
<line y2="150" x1="150" class="E sw9" x2="150" y1="250"/>
<line y2="350" x1="950" class="E sw4" x2="1050" y1="350"/>
<line y2="350" x1="2150" class="E sw10" x2="2150" y1="950"/>
<line y2="450" x1="1150" class="E sw3" x2="1150" y1="950"/>
<line y2="50" x1="1750" class="E sw6" x2="1350" y1="50"/>
<line y2="1250" x1="2150" class="E sw9" x2="2150" y1="1650"/>
<line y2="1450" x1="1450" class="E sw5" x2="1450" y1="1750"/>
<line y2="850" x1="2050" class="E sw4" x2="2050" y1="550"/>
<line y2="950" x1="1150" class="E sw7" x2="1150" y1="1250"/>
<line y2="2150" x1="1650" class="E sw6" x2="1350" y1="2150"/>
<line y2="1450" x1="1550" class="E sw7" x2="1550" y1="1750"/>
<line y2="1650" x1="1350" class="E sw8" x2="1150" y1="1450"/>
<line y2="250" x1="1750" class="E sw7" x2="1550" y1="50"/>
<line y2="2150" x1="2150" class="E sw5" x2="1950" y1="1950"/>
<line y2="250" x1="1750" class="E sw9" x2="1550" y1="150"/>
<line y2="450" x1="1550" class="E sw4" x2="1650" y1="650"/>
<line y2="1850" x1="1450" class="E sw10" x2="1250" y1="1750"/>
<line y2="50" x1="1450" class="E sw4" x2="1350" y1="250"/>
<line y2="1250" x1="2050" class="E sw4" x2="1950" y1="1050"/>
<line y2="1150" x1="2050" class="E sw9" x2="1850" y1="1050"/>
<line y2="350" x1="2050" class="E sw5" x2="2150" y1="550"/>
<line y2="1150" x1="1950" class="E sw4" x2="1850" y1="950"/>
<line y2="850" x1="1450" class="E sw3" x2="1650" y1="950"/>
<line y2="1050" x1="1250" class="E sw10" x2="1350" y1="1250"/>
<line y2="750" x1="1150" class="E sw10" x2="1250" y1="950"/>
<line y2="1050" x1="1150" class="E sw3" x2="1350" y1="950"/>
<line y2="150" x1="1750" class="E sw8" x2="1950" y1="50"/>
<line y2="1650" x1="1950" class="E sw10" x2="1850" y1="1850"/>
<line y2="550" x1="1850" class="E sw5" x2="1950" y1="750"/>
<line y2="850" x1="1850" class="E sw9" x2="2050" y1="750"/>
<line y2="450" x1="1250" class="E sw9" x2="1350" y1="650"/>
<line y2="2150" x1="1550" class="E sw3" x2="1350" y1="2050"/>
<line y2="450" x1="1850" class="E sw9" x2="2050" y1="350"/>
<line y2="250" x1="1850" class="E sw3" x2="2050" y1="350"/>
<line y2="150" x1="1850" class="E sw8" x2="1950" y1="350"/>
<line y2="1450" x1="2150" class="E sw3" x2="2050" y1="1650"/>
<line y2="1250" x1="1850" class="E sw9" x2="1650" y1="1150"/>
<line y2="750" x1="1450" class="E sw5" x2="1250" y1="650"/>
<line y2="450" x1="1450" class="E sw10" x2="1350" y1="650"/>
<line y2="750" x1="1350" class="E sw4" x2="1450" y1="950"/>
<line y2="750" x1="1350" class="E sw7" x2="1250" y1="950"/>
<line y2="850" x1="1850" class="E sw8" x2="2050" y1="950"/>
<line y2="850" x1="1850" class="E sw7" x2="1650" y1="950"/>
<line x1="1450" x2="1250" y1="1950" y2="1850" style="stroke-width:11;" class="E"/>
<line y2="1250" x1="2050" class="E sw7" x2="2150" y1="1450"/>
<line y2="2150" x1="2050" class="E sw5" x2="1950" y1="1950"/>
<line x1="1150" x2="1250" y1="1650" y2="1450" style="stroke-width:11;" class="E"/>
<line y2="1850" x1="1150" class="E sw7" x2="1250" y1="1650"/>
<line y2="1250" x1="1950" class="E sw10" x2="1850" y1="1450"/>
<line y2="150" x1="1750" class="E sw5" x2="1950" y1="250"/>
<line y2="650" x1="1650" class="E sw3" x2="1750" y1="450"/>
<line y2="250" x1="1650" class="E sw4" x2="1550" y1="450"/>
<line y2="1250" x1="1750" class="E sw9" x2="1850" y1="1450"/>
<line y2="1550" x1="1750" class="E sw10" x2="1950" y1="1450"/>
<line y2="1750" x1="1750" class="E sw6" x2="1650" y1="1550"/>
<line y2="1550" x1="1750" class="E sw7" x2="1750" y1="1750"/>
<line y2="1250" x1="1350" class="E sw10" x2="1550" y1="1250"/>
<line y2="1050" x1="1350" class="E sw4" x2="1350" y1="1250"/>
<line x1="1450" x2="1650" y1="850" y2="850" style="stroke-width:11;" class="E"/>
<line y2="150" x1="1750" class="E sw10" x2="1950" y1="150"/>
<line y2="450" x1="1550" class="E sw6" x2="1550" y1="650"/>
<line y2="1050" x1="2050" class="E sw10" x2="2050" y1="1250"/>
<line y2="350" x1="1850" class="E sw6" x2="1850" y1="550"/>
<line y2="1850" x1="1250" class="E sw7" x2="1250" y1="2050"/>
<line y2="2050" x1="1750" class="E sw4" x2="1950" y1="2050"/>
<line y2="250" x1="1550" class="E sw6" x2="1550" y1="450"/>
<line y2="350" x1="2050" class="E sw5" x2="1850" y1="350"/>
<line y2="2150" x1="1650" class="E sw5" x2="1850" y1="2150"/>
<line y2="1750" x1="2150" class="E sw7" x2="2150" y1="1950"/>
<line y2="950" x1="1850" class="E sw10" x2="1850" y1="750"/>
<line y2="650" x1="1250" class="E sw5" x2="1450" y1="650"/>
<line x1="1750" x2="1550" y1="1850" y2="1850" style="stroke-width:11;" class="E"/>
<line y2="50" x1="1150" class="E sw5" x2="1350" y1="50"/>
<line y2="750" x1="1250" class="E sw10" x2="1250" y1="950"/>
<line x1="2050" x2="2050" y1="1750" y2="1950" style="stroke-width:11;" class="E"/>
<line x1="1650" x2="1450" y1="750" y2="750" style="stroke-width:11;" class="E"/>
<line y2="450" x1="1150" class="E sw9" x2="1350" y1="450"/>
<line y2="1450" x1="1950" class="E sw7" x2="1750" y1="1450"/>
<line y2="450" x1="1750" class="E sw7" x2="1750" y1="650"/>
<line x1="1350" x2="1250" y1="250" y2="150" style="stroke-width:11;" class="E"/>
<line y2="1650" x1="1750" class="E sw3" x2="1850" y1="1750"/>
<line y2="1150" x1="1350" class="E sw5" x2="1450" y1="1250"/>
<line y2="1350" x1="1350" class="E sw9" x2="1250" y1="1250"/>
<line y2="2050" x1="1150" class="E sw7" x2="1250" y1="1950"/>
<line y2="1850" x1="1150" class="E sw4" x2="1250" y1="1950"/>
<line y2="950" x1="1450" class="E sw9" x2="1350" y1="850"/>
<line y2="50" x1="2150" class="E sw6" x2="2050" y1="150"/>
<line y2="750" x1="1550" class="E sw7" x2="1450" y1="650"/>
<line y2="1150" x1="2050" class="E sw9" x2="2150" y1="1250"/>
<line x1="1450" x2="1550" y1="1750" y2="1850" style="stroke-width:11;" class="E"/>
<line y2="450" x1="1850" class="E sw9" x2="1750" y1="550"/>
<line y2="450" x1="1750" class="E sw7" x2="1650" y1="350"/>
<line y2="2050" x1="1850" class="E sw10" x2="1750" y1="1950"/>
<line y2="1850" x1="1850" class="E sw4" x2="1950" y1="1950"/>
<line y2="2150" x1="1250" class="E sw8" x2="1350" y1="2050"/>
<line y2="1950" x1="1750" class="E sw6" x2="1650" y1="2050"/>
<line y2="550" x1="1550" class="E sw3" x2="1450" y1="450"/>
<line y2="350" x1="1550" class="E sw9" x2="1450" y1="450"/>
<line x1="1950" x2="2050" y1="2050" y2="1950" style="stroke-width:11;" class="E"/>
<line y2="350" x1="1450" class="E sw10" x2="1350" y1="250"/>
<line y2="950" x1="2050" class="E sw7" x2="1950" y1="1050"/>
<line y2="950" x1="2050" class="E sw7" x2="2150" y1="1050"/>
<line y2="1350" x1="1350" class="E sw8" x2="1250" y1="1450"/>
<line y2="850" x1="1950" class="E sw7" x2="2050" y1="950"/>
<line y2="1050" x1="1450" class="E sw8" x2="1350" y1="950"/>
<line y2="2050" x1="1650" class="E sw8" x2="1550" y1="2150"/>
<line y2="250" x1="1150" class="E sw10" x2="1250" y1="150"/>
<line y2="1850" x1="1650" class="E sw9" x2="1550" y1="1950"/>
<line y2="1750" x1="1950" class="E sw10" x2="2050" y1="1850"/>
<line y2="150" x1="2150" class="E sw3" x2="2050" y1="250"/>
<line x1="1250" x2="1150" y1="250" y2="350" style="stroke-width:11;" class="E"/>
<line y2="150" x1="1150" class="E sw6" x2="1250" y1="50"/>
<line x1="1250" x2="1350" y1="950" y2="1050" style="stroke-width:11;" class="E"/>
<line y2="850" x1="2150" class="E sw7" x2="2050" y1="950"/>
<line y2="1950" x1="1550" class="E sw8" x2="1450" y1="2050"/>
<line y2="250" x1="1850" class="E sw4" x2="1750" y1="350"/>
<line y2="2050" x1="1350" class="E sw8" x2="1450" y1="2150"/>
<line y2="450" x1="1950" class="E sw5" x2="2050" y1="550"/>
<line y2="1450" x1="1150" class="E sw10" x2="1250" y1="1350"/>
<line y2="1750" x1="1550" class="E sw4" x2="1650" y1="1850"/>
<line y2="1350" x1="1650" class="E sw8" x2="1750" y1="1250"/>
<line y2="1350" x1="1650" class="E sw4" x2="1550" y1="1250"/>
<line y2="1650" x1="2150" class="E sw4" x2="2050" y1="1750"/>
<line y2="1350" x1="1950" class="E sw4" x2="2050" y1="1450"/>
<line y2="1250" x1="1750" class="E sw3" x2="1850" y1="1350"/>
<line y2="1350" x1="1750" class="E sw4" x2="1650" y1="1450"/>
<line y2="450" x1="1450" class="E sw8" x2="1350" y1="550"/>
<line y2="250" x1="1450" class="E sw7" x2="1550" y1="350"/>
<line y2="450" x1="1450" class="E sw3" x2="1350" y1="350"/>
<line y2="1350" x1="2150" class="E sw8" x2="2050" y1="1250"/>
<line y2="1650" x1="1950" class="E sw5" x2="1850" y1="1550"/>
<line y2="1350" x1="1450" class="E sw4" x2="1550" y1="1450"/>
<line y2="450" x1="1250" class="E sw3" x2="1350" y1="350"/>
<line y2="250" x1="1350" class="E sw5" x2="1450" y1="250"/>
<line y2="350" x1="1350" class="E sw6" x2="1350" y1="250"/>
<line y2="1850" x1="1750" class="E sw8" x2="1750" y1="1750"/>
<line y2="1850" x1="1150" class="E sw8" x2="1150" y1="1950"/>
<line y2="950" x1="1450" class="E sw9" x2="1450" y1="850"/>
<line y2="750" x1="1450" class="E sw7" x2="1450" y1="850"/>
<line y2="250" x1="1750" class="E sw9" x2="1750" y1="150"/>
<line x1="2150" x2="2050" y1="150" y2="150" style="stroke-width:11;" class="E"/>
<line y2="550" x1="1850" class="E sw4" x2="1950" y1="550"/>
<line y2="650" x1="1850" class="E sw5" x2="1850" y1="550"/>
<line y2="250" x1="1750" class="E sw7" x2="1750" y1="350"/>
<line x1="1750" x2="1750" y1="350" y2="450" style="stroke-width:11;" class="E"/>
<line y2="1850" x1="1850" class="E sw4" x2="1950" y1="1850"/>
<line x1="1850" x2="1750" y1="1850" y2="1850" style="stroke-width:11;" class="E"/>
<line x1="1850" x2="1950" y1="1950" y2="1950" style="stroke-width:11;" class="E"/>
<line y2="1950" x1="1850" class="E sw7" x2="1750" y1="1950"/>
<line y2="2150" x1="1250" class="E sw6" x2="1250" y1="2050"/>
<line y2="1950" x1="1750" class="E sw9" x2="1750" y1="2050"/>
<line y2="450" x1="1550" class="E sw10" x2="1650" y1="450"/>
<line y2="450" x1="1550" class="E sw5" x2="1450" y1="450"/>
<line x1="2050" x2="2150" y1="350" y2="350" style="stroke-width:11;" class="E"/>
<line y2="450" x1="2050" class="E sw9" x2="2050" y1="350"/>
<line y2="250" x1="2050" class="E sw5" x2="2050" y1="350"/>
<line y2="1950" x1="1950" class="E sw4" x2="1950" y1="2050"/>
<line y2="2150" x1="1950" class="E sw9" x2="1950" y1="2050"/>
<line y2="1450" x1="1350" class="E sw10" x2="1250" y1="1450"/>
<line y2="1450" x1="1350" class="E sw9" x2="1450" y1="1450"/>
<line x1="1150" x2="1150" y1="1250" y2="1350" style="stroke-width:11;" class="E"/>
<line y2="950" x1="1950" class="E sw4" x2="1850" y1="950"/>
<line y2="1350" x1="1250" class="E sw9" x2="1250" y1="1250"/>
<line y2="950" x1="1150" class="E sw9" x2="1250" y1="950"/>
<line y2="150" x1="1150" class="E sw10" x2="1250" y1="150"/>
<line x1="1950" x2="1950" y1="1950" y2="1850" style="stroke-width:11;" class="E"/>
<line x1="1950" x2="2050" y1="1950" y2="1950" style="stroke-width:11;" class="E"/>
<line y2="1750" x1="1550" class="E sw5" x2="1650" y1="1750"/>
<line y2="1950" x1="1650" class="E sw4" x2="1750" y1="1950"/>
<line y2="350" x1="2150" class="E sw3" x2="2150" y1="250"/>
<line y2="1950" x1="2150" class="E sw4" x2="2050" y1="1950"/>
<line y2="1950" x1="1750" class="E sw10" x2="1750" y1="1850"/>
<line y2="1450" x1="1550" class="E sw7" x2="1450" y1="1450"/>
<line y2="1250" x1="1950" class="E sw5" x2="1850" y1="1250"/>
<line y2="950" x1="1250" class="E sw5" x2="1350" y1="950"/>
<line x1="1550" x2="1450" y1="2050" y2="2050" style="stroke-width:11;" class="E"/>
<line y2="1750" x1="2150" class="E sw8" x2="2150" y1="1650"/>
<line y2="1650" x1="2150" class="E sw6" x2="2050" y1="1650"/>
<line y2="1350" x1="1250" class="E sw10" x2="1150" y1="1350"/>
<line y2="1250" x1="1550" class="E sw7" x2="1650" y1="1250"/>
<line y2="550" x1="1450" class="E sw4" x2="1450" y1="650"/>
<line y2="350" x1="1350" class="E sw5" x2="1450" y1="350"/>
<line y2="450" x1="1350" class="E sw7" x2="1350" y1="350"/>
<line y2="1750" x1="2050" class="E sw9" x2="2150" y1="1750"/>
<line y2="1450" x1="2050" class="E sw10" x2="1950" y1="1450"/>
<line y2="650" x1="1850" class="E sw10" x2="1750" y1="650"/>
<line y2="2150" x1="1850" class="E sw4" x2="1950" y1="2150"/>
<line y2="350" x1="1150" class="E sw10" x2="1150" y1="450"/>
<line y2="1550" x1="1150" class="E sw6" x2="1150" y1="1650"/>
<line y2="1450" x1="1750" class="E sw3" x2="1750" y1="1350"/>
<line x1="1450" x2="1450" y1="550" y2="450" style="stroke-width:11;" class="E"/>
<line y2="450" x1="1450" class="E sw8" x2="1450" y1="350"/>
<line x1="2050" x2="1950" y1="50" y2="50" style="stroke-width:11;" class="E"/>
<line y2="1150" x1="2150" class="E sw7" x2="2150" y1="1250"/>
<line y2="450" x1="1450" class="E sw9" x2="1350" y1="450"/>
<line y2="150" x1="2050" class="E sw9" x2="2050" y1="250"/>
<line y2="350" x1="1250" class="E sw4" x2="1150" y1="350"/>
<line y2="50" x1="1050" class="E sw5" x2="1150" y1="50"/>
<line y2="150" x1="1050" class="E sw9" x2="1150" y1="150"/>
<line x1="950" x2="1250" y1="250" y2="250" style="stroke-width:11;" class="E"/>
<line y2="350" x1="1050" class="E sw9" x2="1150" y1="350"/>
<line y2="450" x1="1050" class="E sw7" x2="1150" y1="450"/>
<line y2="950" x1="1050" class="E sw6" x2="1150" y1="950"/>
<line y2="1250" x1="1050" class="E sw10" x2="1150" y1="1250"/>
<line y2="1350" x1="1050" class="E sw8" x2="1150" y1="1350"/>
<line y2="1450" x1="950" class="E sw8" x2="1250" y1="1450"/>
<line y2="1550" x1="1050" class="E sw6" x2="1150" y1="1550"/>
<line x1="1050" x2="1150" y1="1650" y2="1650" style="stroke-width:11;" class="E"/>
<line y2="1950" x1="1050" class="E sw8" x2="1150" y1="1950"/>
<line y2="1850" x1="1050" class="E sw3" x2="1150" y1="1850"/>
<line y2="2150" x1="950" class="E sw6" x2="1250" y1="2150"/>
<line y2="2050" x1="950" class="E sw8" x2="1250" y1="2050"/>
<circle r="14" class="N" cx="1950" cy="1450"/>
<circle r="5" class="N" cx="950" cy="1850"/>
<circle r="5" class="N" cx="2050" cy="150"/>
<circle r="11" class="N" cx="1350" cy="350"/>
<circle r="8" class="N" cx="450" cy="1950"/>
<circle r="6" class="N" cx="850" cy="1450"/>
<circle r="5" class="N" cx="2150" cy="250"/>
<circle r="6" class="N" cx="550" cy="450"/>
<circle r="5" class="N" cx="2150" cy="150"/>
<circle r="5" class="N" cx="1850" cy="950"/>
<circle r="11" class="N" cx="1950" cy="1850"/>
<circle r="9" class="N" cx="1750" cy="250"/>
<circle r="6" class="N" cx="1750" cy="350"/>
<circle r="9" class="N" cx="1750" cy="50"/>
<circle r="9" class="N" cx="1350" cy="450"/>
<circle r="5" class="N" cx="950" cy="2150"/>
<circle r="6" class="N" cx="450" cy="1750"/>
<circle r="8" class="N" cx="850" cy="1250"/>
<circle r="18" class="N" cx="50" cy="1150"/>
<circle r="11" class="N" cx="1050" cy="50"/>
<circle r="9" class="N" cx="950" cy="1350"/>
<circle r="9" class="N" cx="1250" cy="1350"/>
<circle r="11" class="N" cx="950" cy="650"/>
<circle r="11" class="N" cx="1250" cy="650"/>
<circle r="5" class="N" cx="250" cy="550"/>
<circle r="9" class="N" cx="450" cy="2050"/>
<circle r="5" class="N" cx="1850" cy="650"/>
<circle r="18" class="N" cx="1350" cy="250"/>
<circle r="8" class="N" cx="650" cy="1250"/>
<circle r="12" class="N" cx="750" cy="650"/>
<circle r="6" class="N" cx="450" cy="1850"/>
<circle r="8" class="N" cx="1350" cy="1250"/>
<circle r="11" class="N" cx="150" cy="1450"/>
<circle r="9" class="N" cx="950" cy="1450"/>
<circle r="5" class="N" cx="850" cy="2150"/>
<circle r="5" class="N" cx="50" cy="350"/>
<circle r="9" class="N" cx="850" cy="50"/>
<circle r="18" class="N" cx="2050" cy="1950"/>
<circle r="5" class="N" cx="1750" cy="450"/>
<circle r="5" class="N" cx="1550" cy="2050"/>
<circle r="8" class="N" cx="950" cy="350"/>
<circle r="5" class="N" cx="1450" cy="1450"/>
<circle r="5" class="N" cx="650" cy="1450"/>
<circle r="14" class="N" cx="1750" cy="1450"/>
<circle r="6" class="N" cx="1750" cy="1750"/>
<circle r="9" class="N" cx="350" cy="1650"/>
<circle r="9" class="N" cx="450" cy="50"/>
<circle r="6" class="N" cx="1150" cy="1650"/>
<circle r="8" class="N" cx="750" cy="850"/>
<circle r="8" class="N" cx="750" cy="950"/>
<circle r="8" class="N" cx="1250" cy="250"/>
<circle r="9" class="N" cx="850" cy="450"/>
<circle r="5" class="N" cx="550" cy="1750"/>
<circle r="12" class="N" cx="1450" cy="650"/>
<circle r="9" class="N" cx="450" cy="250"/>
<circle r="5" class="N" cx="1450" cy="2050"/>
<circle r="5" class="N" cx="50" cy="950"/>
<circle r="12" class="N" cx="1250" cy="150"/>
<circle r="8" class="N" cx="550" cy="1250"/>
<circle r="11" class="N" cx="2150" cy="1650"/>
<circle r="11" class="N" cx="2050" cy="1450"/>
<circle r="6" class="N" cx="1550" cy="1350"/>
<circle r="6" class="N" cx="350" cy="350"/>
<circle r="8" class="N" cx="350" cy="1850"/>
<circle r="8" class="N" cx="1450" cy="1150"/>
<circle r="5" class="N" cx="650" cy="1850"/>
<circle r="6" class="N" cx="1750" cy="1850"/>
<circle r="11" class="N" cx="2150" cy="1250"/>
<circle r="8" class="N" cx="1450" cy="750"/>
<circle r="6" class="N" cx="450" cy="350"/>
<circle r="8" class="N" cx="350" cy="1150"/>
<circle r="12" class="N" cx="1250" cy="950"/>
<circle r="5" class="N" cx="750" cy="1450"/>
<circle r="8" class="N" cx="1850" cy="1850"/>
<circle r="6" class="N" cx="1950" cy="950"/>
<circle r="5" class="N" cx="2050" cy="850"/>
<circle r="14" class="N" cx="1650" cy="1350"/>
<circle r="18" class="N" cx="850" cy="250"/>
<circle r="12" class="N" cx="450" cy="1350"/>
<circle r="5" class="N" cx="1950" cy="50"/>
<circle r="11" class="N" cx="850" cy="950"/>
<circle r="5" class="N" cx="1850" cy="550"/>
<circle r="11" class="N" cx="850" cy="350"/>
<circle r="9" class="N" cx="1350" cy="1050"/>
<circle r="11" class="N" cx="50" cy="1650"/>
<circle r="8" class="N" cx="1850" cy="2150"/>
<circle r="9" class="N" cx="1550" cy="250"/>
<circle r="12" class="N" cx="1050" cy="1250"/>
<circle r="6" class="N" cx="650" cy="650"/>
<circle r="9" class="N" cx="1150" cy="450"/>
<circle r="5" class="N" cx="1150" cy="1850"/>
<circle r="8" class="N" cx="350" cy="2150"/>
<circle r="11" class="N" cx="2050" cy="1650"/>
<circle r="11" class="N" cx="150" cy="1650"/>
<circle r="5" class="N" cx="1550" cy="1850"/>
<circle r="9" class="N" cx="1450" cy="350"/>
<circle r="6" class="N" cx="1650" cy="850"/>
<circle r="5" class="N" cx="150" cy="250"/>
<circle r="5" class="N" cx="1250" cy="1850"/>
<circle r="18" class="N" cx="2150" cy="1150"/>
<circle r="5" class="N" cx="750" cy="1750"/>
<circle r="6" class="N" cx="1150" cy="1550"/>
<circle r="5" class="N" cx="1950" cy="550"/>
<circle r="5" class="N" cx="150" cy="850"/>
<circle r="8" class="N" cx="1150" cy="350"/>
<circle r="11" class="N" cx="50" cy="1250"/>
<circle r="8" class="N" cx="1650" cy="1250"/>
<circle r="5" class="N" cx="2050" cy="450"/>
<circle r="8" class="N" cx="750" cy="1150"/>
<circle r="18" class="N" cx="1050" cy="1350"/>
<circle r="5" class="N" cx="1350" cy="2150"/>
<circle r="5" class="N" cx="2150" cy="350"/>
<circle r="5" class="N" cx="150" cy="50"/>
<circle r="6" class="N" cx="1050" cy="1650"/>
<circle r="9" class="N" cx="750" cy="550"/>
<circle r="5" class="N" cx="1250" cy="2150"/>
<circle r="5" class="N" cx="1550" cy="1450"/>
<circle r="8" class="N" cx="2050" cy="1050"/>
<circle r="18" class="N" cx="2050" cy="1750"/>
<circle r="5" class="N" cx="750" cy="2050"/>
<circle r="6" class="N" cx="550" cy="850"/>
<circle r="14" class="N" cx="250" cy="1450"/>
<circle r="6" class="N" cx="1650" cy="450"/>
<circle r="5" class="N" cx="1750" cy="650"/>
<circle r="18" class="N" cx="450" cy="150"/>
<circle r="5" class="N" cx="1050" cy="1950"/>
<circle r="9" class="N" cx="350" cy="1950"/>
<circle r="5" class="N" cx="950" cy="2050"/>
<circle r="5" class="N" cx="1150" cy="1950"/>
<circle r="11" class="N" cx="1950" cy="1250"/>
<circle r="8" class="N" cx="650" cy="450"/>
<circle r="6" class="N" cx="1350" cy="1450"/>
<circle r="9" class="N" cx="1850" cy="1950"/>
<circle r="12" class="N" cx="1950" cy="2150"/>
<circle r="8" class="N" cx="550" cy="750"/>
<circle r="18" class="N" cx="1250" cy="750"/>
<circle r="8" class="N" cx="150" cy="1050"/>
<circle r="5" class="N" cx="2050" cy="550"/>
<circle r="9" class="N" cx="1250" cy="1250"/>
<circle r="6" class="N" cx="1050" cy="1550"/>
<circle r="9" class="N" cx="950" cy="1250"/>
<circle r="11" class="N" cx="250" cy="150"/>
<circle r="5" class="N" cx="450" cy="1550"/>
<circle r="9" class="N" cx="1150" cy="150"/>
<circle r="6" class="N" cx="550" cy="2150"/>
<circle r="6" class="N" cx="1850" cy="350"/>
<circle r="5" class="N" cx="450" cy="650"/>
<circle r="14" class="N" cx="550" cy="1350"/>
<circle r="12" class="N" cx="1950" cy="1550"/>
<circle r="12" class="N" cx="50" cy="1950"/>
<circle r="5" class="N" cx="350" cy="650"/>
<circle r="5" class="N" cx="2050" cy="50"/>
<circle r="11" class="N" cx="1150" cy="950"/>
<circle r="5" class="N" cx="1450" cy="1950"/>
<circle r="8" class="N" cx="1850" cy="1150"/>
<circle r="8" class="N" cx="750" cy="750"/>
<circle r="5" class="N" cx="250" cy="50"/>
<circle r="5" class="N" cx="1450" cy="1750"/>
<circle r="5" class="N" cx="150" cy="150"/>
<circle r="5" class="N" cx="2150" cy="950"/>
<circle r="9" class="N" cx="650" cy="250"/>
<circle r="8" class="N" cx="1650" cy="750"/>
<circle r="9" class="N" cx="1850" cy="1650"/>
<circle r="5" class="N" cx="350" cy="750"/>
<circle r="9" class="N" cx="1450" cy="550"/>
<circle r="5" class="N" cx="750" cy="1950"/>
<circle r="9" class="N" cx="1450" cy="450"/>
<circle r="12" class="N" cx="2050" cy="1250"/>
<circle r="5" class="N" cx="50" cy="150"/>
<circle r="6" class="N" cx="250" cy="950"/>
<circle r="18" class="N" cx="350" cy="1250"/>
<circle r="5" class="N" cx="150" cy="550"/>
<circle r="12" class="N" cx="1950" cy="2050"/>
<circle r="5" class="N" cx="50" cy="250"/>
<circle r="11" class="N" cx="1450" cy="250"/>
<circle r="9" class="N" cx="1050" cy="450"/>
<circle r="5" class="N" cx="2050" cy="350"/>
<circle r="12" class="N" cx="1950" cy="1950"/>
<circle r="12" class="N" cx="950" cy="950"/>
<circle r="11" class="N" cx="250" cy="1250"/>
<circle r="11" class="N" cx="750" cy="250"/>
<circle r="6" class="N" cx="1650" cy="2150"/>
<circle r="9" class="N" cx="1350" cy="50"/>
<circle r="5" class="N" cx="1650" cy="1750"/>
<circle r="5" class="N" cx="650" cy="1750"/>
<circle r="9" class="N" cx="750" cy="350"/>
<circle r="11" class="N" cx="250" cy="1850"/>
<circle r="8" class="N" cx="1550" cy="1250"/>
<circle r="6" class="N" cx="1550" cy="650"/>
<circle r="5" class="N" cx="350" cy="950"/>
<circle r="8" class="N" cx="1250" cy="350"/>
<circle r="5" class="N" cx="1250" cy="2050"/>
<circle r="12" class="N" cx="150" cy="1350"/>
<circle r="5" class="N" cx="350" cy="550"/>
<circle r="12" class="N" cx="2050" cy="1350"/>
<circle r="11" class="N" cx="1050" cy="950"/>
<circle r="12" class="N" cx="1750" cy="1350"/>
<circle r="5" class="N" cx="1850" cy="750"/>
<circle r="8" class="N" cx="1750" cy="1950"/>
<circle r="8" class="N" cx="950" cy="250"/>
<circle r="8" class="N" cx="1050" cy="350"/>
<circle r="6" class="N" cx="1650" cy="1950"/>
<circle r="11" class="N" cx="1350" cy="950"/>
<circle r="5" class="N" cx="450" cy="450"/>
<circle r="18" class="N" cx="1750" cy="150"/>
<circle r="8" class="N" cx="1450" cy="850"/>
<circle r="12" class="N" cx="250" cy="1550"/>
<circle r="11" class="N" cx="1150" cy="50"/>
<circle r="14" class="N" cx="450" cy="1450"/>
<circle r="8" class="N" cx="1450" cy="950"/>
<circle r="5" class="N" cx="1550" cy="1750"/>
<circle r="5" class="N" cx="150" cy="350"/>
<circle r="12" class="N" cx="2150" cy="1750"/>
<circle r="9" class="N" cx="1050" cy="150"/>
<circle r="9" class="N" cx="750" cy="450"/>
<circle r="18" class="N" cx="150" cy="1750"/>
<circle r="5" class="N" cx="150" cy="450"/>
<circle r="12" class="N" cx="250" cy="1950"/>
<circle r="5" class="N" cx="650" cy="2050"/>
<circle r="8" class="N" cx="1550" cy="450"/>
<circle r="9" class="N" cx="1250" cy="1450"/>
<circle r="18" class="N" cx="1850" cy="1250"/>
<circle r="6" class="N" cx="650" cy="1350"/>
<circle r="12" class="N" cx="250" cy="2050"/>
<circle r="5" class="N" cx="1050" cy="1850"/>
<circle r="9" class="N" cx="850" cy="1050"/>
<circle r="12" class="N" cx="50" cy="1750"/>
<circle r="9" class="N" cx="1750" cy="2050"/>
<circle r="18" class="N" cx="1150" cy="1350"/>
<circle r="11" class="N" cx="1950" cy="150"/>
<circle r="18" class="N" cx="150" cy="1950"/>
<circle r="12" class="N" cx="250" cy="2150"/>
<circle r="12" class="N" cx="150" cy="1250"/>
<circle r="12" class="N" cx="2150" cy="1950"/>
<circle r="5" class="N" cx="1750" cy="1550"/>
<circle r="18" class="N" cx="950" cy="750"/>
<circle r="12" class="N" cx="1150" cy="1250"/>
<circle r="6" class="N" cx="550" cy="1950"/>
<circle r="12" class="N" cx="950" cy="150"/>
<circle r="5" class="N" cx="2050" cy="250"/>
<g id="fixedTbl" transform="translate(-100, 150)">
<text x="2350" y="15" class="TxtNrml">Mars2013-contest_NabfB_2013-tournament-sim2</text>
<text x="2350" y="140" class="Tb" text-anchor="middle">
<tspan x="2750">Total Score</tspan>
<tspan x="2950">Step Score</tspan>
<tspan x="3150">Zone Value</tspan>
<tspan x="3350">Ach. Pts</tspan>
</text>
</g>
<g id="fixedTbl2" transform="translate(-100, 150)">
<text x="2350" y="290" class="Tb2" text-anchor="middle">
<tspan x="2450">Role</tspan>
<tspan x="2565">Energy</tspan>
<tspan x="2680">Health</tspan>
<tspan x="2795">Strength</tspan>
<tspan x="2910">V.-range</tspan>
<tspan x="3025">Last Act.</tspan>
</text>
<text x="2350" y="320" class="Tb2" text-anchor="start">
<tspan fill="rgba(0,158,115,1.0)" x="2340">1</tspan>
<tspan x="2440">Ex</tspan>
</text>
<text x="2350" y="350" class="Tb2" text-anchor="start">
<tspan fill="rgba(0,158,115,1.0)" x="2340">2</tspan>
<tspan x="2440">Ex</tspan>
</text>
<text x="2350" y="380" class="Tb2" text-anchor="start">
<tspan fill="rgba(0,158,115,1.0)" x="2340">3</tspan>
<tspan x="2440">Ex</tspan>
</text>
<text x="2350" y="410" class="Tb2" text-anchor="start">
<tspan fill="rgba(0,158,115,1.0)" x="2340">4</tspan>
<tspan x="2440">Ex</tspan>
</text>
<text x="2350" y="440" class="Tb2" text-anchor="start">
<tspan fill="rgba(0,158,115,1.0)" x="2340">5</tspan>
<tspan x="2440">Ex</tspan>
</text>
<text x="2350" y="470" class="Tb2" text-anchor="start">
<tspan fill="rgba(0,158,115,1.0)" x="2340">6</tspan>
<tspan x="2440">Ex</tspan>
</text>
<text x="2350" y="500" class="Tb2" text-anchor="start">
<tspan fill="rgba(0,158,115,1.0)" x="2340">7</tspan>
<tspan x="2440">Re</tspan>
</text>
<text x="2350" y="530" class="Tb2" text-anchor="start">
<tspan fill="rgba(0,158,115,1.0)" x="2340">8</tspan>
<tspan x="2440">Re</tspan>
</text>
<text x="2350" y="560" class="Tb2" text-anchor="start">
<tspan fill="rgba(0,158,115,1.0)" x="2340">9</tspan>
<tspan x="2440">Re</tspan>
</text>
<text x="2350" y="590" class="Tb2" text-anchor="start">
<tspan fill="rgba(0,158,115,1.0)" x="2340">10</tspan>
<tspan x="2440">Re</tspan>
</text>
<text x="2350" y="620" class="Tb2" text-anchor="start">
<tspan fill="rgba(0,158,115,1.0)" x="2340">11</tspan>
<tspan x="2440">Re</tspan>
</text>
<text x="2350" y="650" class="Tb2" text-anchor="start">
<tspan fill="rgba(0,158,115,1.0)" x="2340">12</tspan>
<tspan x="2440">Re</tspan>
</text>
<text x="2350" y="680" class="Tb2" text-anchor="start">
<tspan fill="rgba(0,158,115,1.0)" x="2340">13</tspan>
<tspan x="2440">Sa</tspan>
</text>
<text x="2350" y="710" class="Tb2" text-anchor="start">
<tspan fill="rgba(0,158,115,1.0)" x="2340">14</tspan>
<tspan x="2440">Sa</tspan>
</text>
<text x="2350" y="740" class="Tb2" text-anchor="start">
<tspan fill="rgba(0,158,115,1.0)" x="2340">15</tspan>
<tspan x="2440">Sa</tspan>
</text>
<text x="2350" y="770" class="Tb2" text-anchor="start">
<tspan fill="rgba(0,158,115,1.0)" x="2340">16</tspan>
<tspan x="2440">Sa</tspan>
</text>
<text x="2350" y="800" class="Tb2" text-anchor="start">
<tspan fill="rgba(0,158,115,1.0)" x="2340">17</tspan>
<tspan x="2440">Se</tspan>
</text>
<text x="2350" y="830" class="Tb2" text-anchor="start">
<tspan fill="rgba(0,158,115,1.0)" x="2340">18</tspan>
<tspan x="2440">Se</tspan>
</text>
<text x="2350" y="860" class="Tb2" text-anchor="start">
<tspan fill="rgba(0,158,115,1.0)" x="2340">19</tspan>
<tspan x="2440">Se</tspan>
</text>
<text x="2350" y="890" class="Tb2" text-anchor="start">
<tspan fill="rgba(0,158,115,1.0)" x="2340">20</tspan>
<tspan x="2440">Se</tspan>
</text>
<text x="2350" y="920" class="Tb2" text-anchor="start">
<tspan fill="rgba(0,158,115,1.0)" x="2340">21</tspan>
<tspan x="2440">Se</tspan>
</text>
<text x="2350" y="950" class="Tb2" text-anchor="start">
<tspan fill="rgba(0,158,115,1.0)" x="2340">22</tspan>
<tspan x="2440">Se</tspan>
</text>
<text x="2350" y="980" class="Tb2" text-anchor="start">
<tspan fill="rgba(0,158,115,1.0)" x="2340">23</tspan>
<tspan x="2440">In</tspan>
</text>
<text x="2350" y="1010" class="Tb2" text-anchor="start">
<tspan fill="rgba(0,158,115,1.0)" x="2340">24</tspan>
<tspan x="2440">In</tspan>
</text>
<text x="2350" y="1040" class="Tb2" text-anchor="start">
<tspan fill="rgba(0,158,115,1.0)" x="2340">25</tspan>
<tspan x="2440">In</tspan>
</text>
<text x="2350" y="1070" class="Tb2" text-anchor="start">
<tspan fill="rgba(0,158,115,1.0)" x="2340">26</tspan>
<tspan x="2440">In</tspan>
</text>
<text x="2350" y="1100" class="Tb2" text-anchor="start">
<tspan fill="rgba(0,158,115,1.0)" x="2340">27</tspan>
<tspan x="2440">In</tspan>
</text>
<text x="2350" y="1130" class="Tb2" text-anchor="start">
<tspan fill="rgba(0,158,115,1.0)" x="2340">28</tspan>
<tspan x="2440">In</tspan>
</text>
<text x="2350" y="1160" class="Tb2" text-anchor="start">
<tspan fill="rgba(0,114,178,1.0)" x="2340">1</tspan>
<tspan x="2440">Ex</tspan>
</text>
<text x="2350" y="1190" class="Tb2" text-anchor="start">
<tspan fill="rgba(0,114,178,1.0)" x="2340">2</tspan>
<tspan x="2440">Ex</tspan>
</text>
<text x="2350" y="1220" class="Tb2" text-anchor="start">
<tspan fill="rgba(0,114,178,1.0)" x="2340">3</tspan>
<tspan x="2440">Ex</tspan>
</text>
<text x="2350" y="1250" class="Tb2" text-anchor="start">
<tspan fill="rgba(0,114,178,1.0)" x="2340">4</tspan>
<tspan x="2440">Ex</tspan>
</text>
<text x="2350" y="1280" class="Tb2" text-anchor="start">
<tspan fill="rgba(0,114,178,1.0)" x="2340">5</tspan>
<tspan x="2440">Ex</tspan>
</text>
<text x="2350" y="1310" class="Tb2" text-anchor="start">
<tspan fill="rgba(0,114,178,1.0)" x="2340">6</tspan>
<tspan x="2440">Ex</tspan>
</text>
<text x="2350" y="1340" class="Tb2" text-anchor="start">
<tspan fill="rgba(0,114,178,1.0)" x="2340">7</tspan>
<tspan x="2440">Re</tspan>
</text>
<text x="2350" y="1370" class="Tb2" text-anchor="start">
<tspan fill="rgba(0,114,178,1.0)" x="2340">8</tspan>
<tspan x="2440">Re</tspan>
</text>
<text x="2350" y="1400" class="Tb2" text-anchor="start">
<tspan fill="rgba(0,114,178,1.0)" x="2340">9</tspan>
<tspan x="2440">Re</tspan>
</text>
<text x="2350" y="1430" class="Tb2" text-anchor="start">
<tspan fill="rgba(0,114,178,1.0)" x="2340">10</tspan>
<tspan x="2440">Re</tspan>
</text>
<text x="2350" y="1460" class="Tb2" text-anchor="start">
<tspan fill="rgba(0,114,178,1.0)" x="2340">11</tspan>
<tspan x="2440">Re</tspan>
</text>
<text x="2350" y="1490" class="Tb2" text-anchor="start">
<tspan fill="rgba(0,114,178,1.0)" x="2340">12</tspan>
<tspan x="2440">Re</tspan>
</text>
<text x="2350" y="1520" class="Tb2" text-anchor="start">
<tspan fill="rgba(0,114,178,1.0)" x="2340">13</tspan>
<tspan x="2440">Sa</tspan>
</text>
<text x="2350" y="1550" class="Tb2" text-anchor="start">
<tspan fill="rgba(0,114,178,1.0)" x="2340">14</tspan>
<tspan x="2440">Sa</tspan>
</text>
<text x="2350" y="1580" class="Tb2" text-anchor="start">
<tspan fill="rgba(0,114,178,1.0)" x="2340">15</tspan>
<tspan x="2440">Sa</tspan>
</text>
<text x="2350" y="1610" class="Tb2" text-anchor="start">
<tspan fill="rgba(0,114,178,1.0)" x="2340">16</tspan>
<tspan x="2440">Sa</tspan>
</text>
<text x="2350" y="1640" class="Tb2" text-anchor="start">
<tspan fill="rgba(0,114,178,1.0)" x="2340">17</tspan>
<tspan x="2440">Se</tspan>
</text>
<text x="2350" y="1670" class="Tb2" text-anchor="start">
<tspan fill="rgba(0,114,178,1.0)" x="2340">18</tspan>
<tspan x="2440">Se</tspan>
</text>
<text x="2350" y="1700" class="Tb2" text-anchor="start">
<tspan fill="rgba(0,114,178,1.0)" x="2340">19</tspan>
<tspan x="2440">Se</tspan>
</text>
<text x="2350" y="1730" class="Tb2" text-anchor="start">
<tspan fill="rgba(0,114,178,1.0)" x="2340">20</tspan>
<tspan x="2440">Se</tspan>
</text>
<text x="2350" y="1760" class="Tb2" text-anchor="start">
<tspan fill="rgba(0,114,178,1.0)" x="2340">21</tspan>
<tspan x="2440">Se</tspan>
</text>
<text x="2350" y="1790" class="Tb2" text-anchor="start">
<tspan fill="rgba(0,114,178,1.0)" x="2340">22</tspan>
<tspan x="2440">Se</tspan>
</text>
<text x="2350" y="1820" class="Tb2" text-anchor="start">
<tspan fill="rgba(0,114,178,1.0)" x="2340">23</tspan>
<tspan x="2440">In</tspan>
</text>
<text x="2350" y="1850" class="Tb2" text-anchor="start">
<tspan fill="rgba(0,114,178,1.0)" x="2340">24</tspan>
<tspan x="2440">In</tspan>
</text>
<text x="2350" y="1880" class="Tb2" text-anchor="start">
<tspan fill="rgba(0,114,178,1.0)" x="2340">25</tspan>
<tspan x="2440">In</tspan>
</text>
<text x="2350" y="1910" class="Tb2" text-anchor="start">
<tspan fill="rgba(0,114,178,1.0)" x="2340">26</tspan>
<tspan x="2440">In</tspan>
</text>
<text x="2350" y="1940" class="Tb2" text-anchor="start">
<tspan fill="rgba(0,114,178,1.0)" x="2340">27</tspan>
<tspan x="2440">In</tspan>
</text>
<text x="2350" y="1970" class="Tb2" text-anchor="start">
<tspan fill="rgba(0,114,178,1.0)" x="2340">28</tspan>
<tspan x="2440">In</tspan>
</text>
</g>
</g>
</svg>
