<?xml version="1.0" encoding="UTF-8"?><?xml-stylesheet type="text/css" href="style.css"?><svg xmlns="http://www.w3.org/2000/svg" xmlns:xlink="http://www.w3.org/1999/xlink" contentScriptType="text/ecmascript" zoomAndPan="magnify" contentStyleType="text/css" preserveAspectRatio="xMidYMid meet" version="1.0">
<g id="scaleSvg" transform="scale(0.25)">
<polygon class="T1" points="1950,1450 1950,1250 2050,1350 "/>
<polygon class="T1" points="2050,1350 1950,1250 2050,1250 "/>
<polygon class="T1" points="2150,1250 2050,1350 2050,1250 "/>
<polygon class="T1" points="1950,1250 1950,1450 1950,1250 2050,1350 1950,1450 "/>
<polygon class="T1" points="1950,1450 2050,1350 1950,1250 2050,1250 2050,1350 "/>
<polygon class="T1" points="2050,1350 2150,1250 2050,1350 1950,1250 2050,1250 "/>
<polygon class="T1" points="2050,1250 1950,1250 2050,1350 1950,1450 1950,1250 "/>
<polygon class="T1" points="2150,1250 2050,1250 2150,1250 2050,1350 2050,1250 "/>
<polygon class="T1" points="1950,1450 1950,1550 1950,1450 1950,1250 2050,1350 "/>
<circle r="25" class="T1n" cx="2150" cy="950"/>
<circle r="25" class="T1n" cx="1950" cy="1450"/>
<circle r="25" class="T1n" cx="350" cy="750"/>
<circle r="25" class="T1n" cx="750" cy="1250"/>
<circle r="25" class="T1n" cx="250" cy="950"/>
<circle r="25" class="T1n" cx="450" cy="450"/>
<circle r="25" class="T1n" cx="1650" cy="350"/>
<circle r="25" class="T1n" cx="1150" cy="1550"/>
<circle r="25" class="T1n" cx="650" cy="1350"/>
<circle r="25" class="T1n" cx="550" cy="1350"/>
<circle r="25" class="T1n" cx="2050" cy="1350"/>
<circle r="25" class="T1n" cx="1950" cy="850"/>
<circle r="25" class="T1n" cx="1950" cy="1250"/>
<circle r="25" class="T1n" cx="1250" cy="950"/>
<circle r="25" class="T1n" cx="650" cy="650"/>
<circle r="25" class="T1n" cx="350" cy="650"/>
<circle r="25" class="T1n" cx="2050" cy="1250"/>
<circle r="25" class="T1n" cx="450" cy="650"/>
<circle r="25" class="T1n" cx="150" cy="450"/>
<circle r="25" class="T1n" cx="2150" cy="1250"/>
<circle r="25" class="T1n" cx="1050" cy="1750"/>
<circle r="25" class="T1n" cx="2150" cy="1050"/>
<circle r="25" class="T1n" cx="1650" cy="150"/>
<circle r="25" class="T1n" cx="650" cy="450"/>
<circle r="25" class="T1n" cx="1850" cy="1950"/>
<circle r="25" class="T1n" cx="750" cy="550"/>
<circle r="25" class="T1n" cx="1950" cy="1550"/>
<line y2="450" x1="450" class="T1e" x2="450" y1="650"/>
<line y2="550" x1="650" class="T1e" x2="750" y1="650"/>
<line y2="550" x1="650" class="T1e" x2="750" y1="450"/>
<line y2="1250" x1="650" class="T1e" x2="750" y1="1350"/>
<line y2="650" x1="350" class="T1e" x2="350" y1="750"/>
<line y2="650" x1="350" class="T1e" x2="450" y1="650"/>
<line y2="1350" x1="550" class="T1e" x2="650" y1="1350"/>
<line y2="1450" x1="1950" class="T1e" x2="1950" y1="1250"/>
<line y2="350" x1="1650" class="T1e" x2="1650" y1="150"/>
<line y2="1350" x1="1950" class="T1e" x2="2050" y1="1250"/>
<line y2="1350" x1="1950" class="T1e" x2="2050" y1="1450"/>
<line y2="1350" x1="2150" class="T1e" x2="2050" y1="1250"/>
<line y2="1250" x1="2050" class="T1e" x2="1950" y1="1250"/>
<line y2="1250" x1="2050" class="T1e" x2="2150" y1="1250"/>
<line y2="1350" x1="2050" class="T1e" x2="2050" y1="1250"/>
<line y2="1050" x1="2150" class="T1e" x2="2150" y1="950"/>
<line y2="1550" x1="1950" class="T1e" x2="1950" y1="1450"/>
<circle r="5" class="N" cx="2150" cy="950"/>
<circle r="8" class="N" cx="1950" cy="1450"/>
<circle r="14" class="N" cx="350" cy="750"/>
<circle r="8" class="N" cx="750" cy="1250"/>
<circle r="6" class="N" cx="250" cy="950"/>
<circle r="6" class="N" cx="450" cy="450"/>
<circle r="5" class="N" cx="1650" cy="350"/>
<circle r="5" class="N" cx="1150" cy="1550"/>
<circle r="8" class="N" cx="650" cy="1350"/>
<circle r="11" class="N" cx="550" cy="1350"/>
<circle r="6" class="N" cx="2050" cy="1350"/>
<circle r="11" class="N" cx="1950" cy="850"/>
<circle r="6" class="N" cx="1950" cy="1250"/>
<circle r="12" class="N" cx="1250" cy="950"/>
<circle r="8" class="N" cx="650" cy="650"/>
<circle r="18" class="N" cx="350" cy="650"/>
<circle r="6" class="N" cx="2050" cy="1250"/>
<circle r="8" class="N" cx="450" cy="650"/>
<circle r="5" class="N" cx="150" cy="450"/>
<circle r="6" class="N" cx="2150" cy="1250"/>
<circle r="5" class="N" cx="1050" cy="1750"/>
<circle r="5" class="N" cx="2150" cy="1050"/>
<circle r="5" class="N" cx="1650" cy="150"/>
<circle r="8" class="N" cx="650" cy="450"/>
<circle r="8" class="N" cx="1850" cy="1950"/>
<circle r="8" class="N" cx="750" cy="550"/>
<circle r="12" class="N" cx="1950" cy="1550"/>
<line y2="450" x1="450" class="E sw3" x2="450" y1="650"/>
<line y2="550" x1="650" class="E sw6" x2="750" y1="650"/>
<line y2="550" x1="650" class="E sw9" x2="750" y1="450"/>
<line y2="1250" x1="650" class="E sw3" x2="750" y1="1350"/>
<line y2="650" x1="350" class="E sw9" x2="350" y1="750"/>
<line y2="650" x1="350" class="E sw6" x2="450" y1="650"/>
<line y2="1350" x1="550" class="E sw8" x2="650" y1="1350"/>
<line y2="1450" x1="1950" class="E sw9" x2="1950" y1="1250"/>
<line y2="350" x1="1650" class="E sw9" x2="1650" y1="150"/>
<line x1="1950" x2="2050" y1="1250" y2="1350" style="stroke-width:11;" class="E"/>
<line y2="1350" x1="1950" class="E sw7" x2="2050" y1="1450"/>
<line x1="2150" x2="2050" y1="1250" y2="1350" style="stroke-width:11;" class="E"/>
<line y2="1250" x1="2050" class="E sw3" x2="1950" y1="1250"/>
<line y2="1250" x1="2050" class="E sw9" x2="2150" y1="1250"/>
<line y2="1350" x1="2050" class="E sw3" x2="2050" y1="1250"/>
<line x1="2150" x2="2150" y1="950" y2="1050" style="stroke-width:11;" class="E"/>
<line y2="1550" x1="1950" class="E sw7" x2="1950" y1="1450"/>
<polygon class="T2" points="250,550 50,650 150,550 "/>
<polygon class="T2" points="550,1750 450,1850 450,1750 "/>
<polygon class="T2" points="850,1850 850,2050 750,2050 750,1950 "/>
<polygon class="T2" points="550,2150 450,2050 550,1950 650,2050 "/>
<polygon class="T2" points="550,1950 450,2050 450,1950 450,1850 "/>
<polygon class="T2" points="50,650 250,550 50,650 150,550 250,550 "/>
<polygon class="T2" points="150,850 50,650 150,550 250,550 50,650 "/>
<polygon class="T2" points="450,1750 450,1550 450,1750 550,1750 450,1850 "/>
<polygon class="T2" points="50,650 50,850 50,650 150,550 250,550 "/>
<polygon class="T2" points="450,1750 350,1850 450,1750 550,1750 450,1850 "/>
<polygon class="T2" points="150,550 50,650 150,550 250,550 50,650 "/>
<polygon class="T2" points="550,1950 450,1850 450,1750 550,1750 450,1850 "/>
<polygon class="T2" points="450,1850 550,1750 450,1850 450,1750 550,1750 "/>
<polygon class="T2" points="450,1750 450,1850 450,1750 550,1750 450,1850 "/>
<polygon class="T2" points="550,1750 450,1750 550,1750 450,1850 450,1750 "/>
<polygon class="T2" points="250,550 150,550 250,550 50,650 150,550 "/>
<polygon class="T2" points="450,1850 450,1950 450,1850 450,1750 550,1750 "/>
<polygon class="T2" points="550,2150 850,2150 550,2150 450,2050 550,1950 650,2050 "/>
<polygon class="T2" points="850,2050 850,1850 850,2050 750,2050 750,1950 850,1850 "/>
<polygon class="T2" points="450,2050 550,2150 450,2050 550,1950 650,2050 550,2150 "/>
<polygon class="T2" points="550,2150 650,2050 550,2150 450,2050 550,1950 650,2050 "/>
<polygon class="T2" points="650,2050 550,1950 450,2050 450,1950 450,1850 550,1950 "/>
<polygon class="T2" points="850,1850 750,1950 850,1850 850,2050 750,2050 750,1950 "/>
<polygon class="T2" points="450,1950 450,2050 550,1950 650,2050 550,2150 450,2050 "/>
<polygon class="T2" points="650,2050 750,2050 650,2050 550,2150 450,2050 550,1950 "/>
<polygon class="T2" points="750,1950 750,2050 750,1950 850,1850 850,2050 750,2050 "/>
<polygon class="T2" points="750,2050 850,2050 750,2050 750,1950 850,1850 850,2050 "/>
<polygon class="T2" points="450,1550 350,1650 450,1550 450,1750 550,1750 450,1850 450,1750 "/>
<polygon class="T2" points="150,850 250,850 150,850 50,650 150,550 250,550 50,650 "/>
<circle r="25" class="T2n" cx="150" cy="550"/>
<circle r="25" class="T2n" cx="250" cy="850"/>
<circle r="25" class="T2n" cx="1150" cy="1850"/>
<circle r="25" class="T2n" cx="1850" cy="1850"/>
<circle r="25" class="T2n" cx="2150" cy="350"/>
<circle r="25" class="T2n" cx="450" cy="350"/>
<circle r="25" class="T2n" cx="250" cy="550"/>
<circle r="25" class="T2n" cx="50" cy="850"/>
<circle r="25" class="T2n" cx="1650" cy="2150"/>
<circle r="25" class="T2n" cx="150" cy="850"/>
<circle r="25" class="T2n" cx="850" cy="1850"/>
<circle r="25" class="T2n" cx="1750" cy="250"/>
<circle r="25" class="T2n" cx="450" cy="2050"/>
<circle r="25" class="T2n" cx="650" cy="2050"/>
<circle r="25" class="T2n" cx="750" cy="1950"/>
<circle r="25" class="T2n" cx="250" cy="1850"/>
<circle r="25" class="T2n" cx="850" cy="2150"/>
<circle r="25" class="T2n" cx="550" cy="2150"/>
<circle r="25" class="T2n" cx="750" cy="2050"/>
<circle r="25" class="T2n" cx="450" cy="1550"/>
<circle r="25" class="T2n" cx="350" cy="1850"/>
<circle r="25" class="T2n" cx="550" cy="1750"/>
<circle r="25" class="T2n" cx="1750" cy="1750"/>
<circle r="25" class="T2n" cx="450" cy="1750"/>
<circle r="25" class="T2n" cx="50" cy="650"/>
<circle r="25" class="T2n" cx="550" cy="850"/>
<circle r="25" class="T2n" cx="850" cy="2050"/>
<circle r="25" class="T2n" cx="50" cy="1650"/>
<circle r="25" class="T2n" cx="550" cy="1950"/>
<circle r="25" class="T2n" cx="350" cy="1650"/>
<circle r="25" class="T2n" cx="1950" cy="50"/>
<circle r="25" class="T2n" cx="1350" cy="50"/>
<circle r="25" class="T2n" cx="1450" cy="1150"/>
<circle r="25" class="T2n" cx="450" cy="1950"/>
<circle r="25" class="T2n" cx="450" cy="1850"/>
<circle r="25" class="T2n" cx="1350" cy="2150"/>
<line y2="2150" x1="550" class="T2e" x2="850" y1="2150"/>
<line y2="1650" x1="250" class="T2e" x2="350" y1="1850"/>
<line y2="650" x1="250" class="T2e" x2="50" y1="550"/>
<line y2="650" x1="150" class="T2e" x2="50" y1="850"/>
<line y2="1550" x1="450" class="T2e" x2="450" y1="1750"/>
<line y2="850" x1="50" class="T2e" x2="50" y1="650"/>
<line y2="2050" x1="850" class="T2e" x2="850" y1="1850"/>
<line y2="1850" x1="450" class="T2e" x2="350" y1="1750"/>
<line y2="2150" x1="450" class="T2e" x2="550" y1="2050"/>
<line y2="1950" x1="450" class="T2e" x2="550" y1="2050"/>
<line y2="650" x1="150" class="T2e" x2="50" y1="550"/>
<line y2="2050" x1="550" class="T2e" x2="650" y1="2150"/>
<line y2="1850" x1="550" class="T2e" x2="450" y1="1950"/>
<line y2="2050" x1="550" class="T2e" x2="650" y1="1950"/>
<line y2="1750" x1="450" class="T2e" x2="550" y1="1850"/>
<line y2="1850" x1="750" class="T2e" x2="850" y1="1950"/>
<line y2="1650" x1="450" class="T2e" x2="350" y1="1550"/>
<line y2="1850" x1="450" class="T2e" x2="450" y1="1750"/>
<line y2="1750" x1="450" class="T2e" x2="550" y1="1750"/>
<line y2="1950" x1="450" class="T2e" x2="450" y1="2050"/>
<line y2="550" x1="150" class="T2e" x2="250" y1="550"/>
<line y2="1950" x1="450" class="T2e" x2="450" y1="1850"/>
<line y2="2050" x1="650" class="T2e" x2="750" y1="2050"/>
<line y2="2050" x1="750" class="T2e" x2="750" y1="1950"/>
<line y2="850" x1="150" class="T2e" x2="250" y1="850"/>
<line y2="2050" x1="750" class="T2e" x2="850" y1="2050"/>
<line y2="2150" x1="1650" class="T2e" x2="1350" y1="2150"/>
<line y2="1850" x1="1750" class="T2e" x2="1850" y1="1750"/>
<circle r="6" class="N" cx="150" cy="550"/>
<circle r="11" class="N" cx="250" cy="850"/>
<circle r="5" class="N" cx="1150" cy="1850"/>
<circle r="9" class="N" cx="1850" cy="1850"/>
<circle r="5" class="N" cx="2150" cy="350"/>
<circle r="5" class="N" cx="450" cy="350"/>
<circle r="9" class="N" cx="250" cy="550"/>
<circle r="8" class="N" cx="50" cy="850"/>
<circle r="5" class="N" cx="1650" cy="2150"/>
<circle r="8" class="N" cx="150" cy="850"/>
<circle r="5" class="N" cx="850" cy="1850"/>
<circle r="5" class="N" cx="1750" cy="250"/>
<circle r="5" class="N" cx="450" cy="2050"/>
<circle r="5" class="N" cx="650" cy="2050"/>
<circle r="5" class="N" cx="750" cy="1950"/>
<circle r="14" class="N" cx="250" cy="1850"/>
<circle r="5" class="N" cx="850" cy="2150"/>
<circle r="5" class="N" cx="550" cy="2150"/>
<circle r="5" class="N" cx="750" cy="2050"/>
<circle r="14" class="N" cx="450" cy="1550"/>
<circle r="9" class="N" cx="350" cy="1850"/>
<circle r="8" class="N" cx="550" cy="1750"/>
<circle r="9" class="N" cx="1750" cy="1750"/>
<circle r="9" class="N" cx="450" cy="1750"/>
<circle r="8" class="N" cx="50" cy="650"/>
<circle r="8" class="N" cx="550" cy="850"/>
<circle r="5" class="N" cx="850" cy="2050"/>
<circle r="8" class="N" cx="50" cy="1650"/>
<circle r="5" class="N" cx="550" cy="1950"/>
<circle r="18" class="N" cx="350" cy="1650"/>
<circle r="5" class="N" cx="1950" cy="50"/>
<circle r="5" class="N" cx="1350" cy="50"/>
<circle r="11" class="N" cx="1450" cy="1150"/>
<circle r="5" class="N" cx="450" cy="1950"/>
<circle r="6" class="N" cx="450" cy="1850"/>
<circle r="5" class="N" cx="1350" cy="2150"/>
<line y2="2150" x1="550" class="E sw4" x2="850" y1="2150"/>
<line x1="250" x2="350" y1="1850" y2="1650" style="stroke-width:11;" class="E"/>
<line x1="250" x2="50" y1="550" y2="650" style="stroke-width:11;" class="E"/>
<line y2="650" x1="150" class="E sw4" x2="50" y1="850"/>
<line y2="1550" x1="450" class="E sw8" x2="450" y1="1750"/>
<line x1="50" x2="50" y1="650" y2="850" style="stroke-width:11;" class="E"/>
<line y2="2050" x1="850" class="E sw3" x2="850" y1="1850"/>
<line y2="1850" x1="450" class="E sw4" x2="350" y1="1750"/>
<line y2="2150" x1="450" class="E sw6" x2="550" y1="2050"/>
<line y2="1950" x1="450" class="E sw10" x2="550" y1="2050"/>
<line y2="650" x1="150" class="E sw9" x2="50" y1="550"/>
<line y2="2050" x1="550" class="E sw4" x2="650" y1="2150"/>
<line y2="1850" x1="550" class="E sw9" x2="450" y1="1950"/>
<line x1="550" x2="650" y1="1950" y2="2050" style="stroke-width:11;" class="E"/>
<line y2="1750" x1="450" class="E sw5" x2="550" y1="1850"/>
<line y2="1850" x1="750" class="E sw4" x2="850" y1="1950"/>
<line x1="450" x2="350" y1="1550" y2="1650" style="stroke-width:11;" class="E"/>
<line x1="450" x2="450" y1="1750" y2="1850" style="stroke-width:11;" class="E"/>
<line y2="1750" x1="450" class="E sw8" x2="550" y1="1750"/>
<line y2="1950" x1="450" class="E sw9" x2="450" y1="2050"/>
<line x1="150" x2="250" y1="550" y2="550" style="stroke-width:11;" class="E"/>
<line y2="1950" x1="450" class="E sw10" x2="450" y1="1850"/>
<line y2="2050" x1="650" class="E sw10" x2="750" y1="2050"/>
<line x1="750" x2="750" y1="1950" y2="2050" style="stroke-width:11;" class="E"/>
<line y2="850" x1="150" class="E sw5" x2="250" y1="850"/>
<line y2="2050" x1="750" class="E sw3" x2="850" y1="2050"/>
<line y2="2150" x1="1650" class="E sw4" x2="1350" y1="2150"/>
<line y2="1850" x1="1750" class="E sw4" x2="1850" y1="1750"/>
<rect x="239" width="36" y="880" height="36" class="s5 sw2 f13"/>
<rect x="230" width="54" y="862" height="18" class="s13 sw2 f7"/>
<text x="250" y="901" class="f4">20</text>
<polygon class=" s5 sw2 f13" points="1148,1880 1166,1880 1175,1889 1175,1907 1166,1916 1148,1916 1139,1907 1139,1889"/>
<rect x="1130" width="54" y="1862" height="18" class="s13 sw2 f7"/>
<text x="1150" y="1901" class="f4">7</text>
<polygon class=" s5 sw2 f14" points="348,780 366,780 375,789 375,807 366,816 348,816 339,807 339,789"/>
<rect x="330" width="54" y="762" height="18" class="s14 sw2 f8"/>
<text x="350" y="801" class="f4">11</text>
<polygon class=" s4 sw0 f4" points="366,762 366,768 372,768 360,780 360,774 354,774"/>
<polygon class=" s5 sw2 f13" points="730,1280 784,1280 757,1316"/>
<rect x="730" width="54" y="1262" height="18" class="s13 sw2 f7"/>
<text x="750" y="1301" class="f4">28</text>
<polygon class=" s5 sw2 f14" points="760,1253 814,1253 787,1289"/>
<rect x="760" width="54" y="1235" height="18" class="s14 sw2 f8"/>
<text x="780" y="1274" class="f4">24</text>
<line y2="1247" x1="790" class="s4 sw3" x2="802" y1="1241"/>
<circle r="6" class="s4 sw0 f4" cx="790" cy="1241"/>
<polygon class=" s5 sw2 f14" points="753,1215 807,1215 780,1251"/>
<rect x="753" width="54" y="1197" height="18" class="s14 sw2 f8"/>
<text x="773" y="1236" class="f4">25</text>
<line y2="1209" x1="783" class="s4 sw3" x2="795" y1="1203"/>
<circle r="6" class="s4 sw0 f4" cx="783" cy="1203"/>
<rect x="339" width="36" y="580" height="36" class="s5 sw2 f13"/>
<rect x="330" width="54" y="562" height="18" class="s13 sw2 f7"/>
<text x="350" y="601" class="f4">19</text>
<circle r="18" class="s5 sw2 f14" cx="387" cy="571"/>
<rect x="360" width="54" y="535" height="18" class="s14 sw2 f8"/>
<text x="380" y="574" class="f4">1</text>
<polygon class=" s4 sw0 f4" points="387,535 405,535 396,553"/>
<rect x="1839" width="36" y="1880" height="36" class="s5 sw2 f13"/>
<rect x="1830" width="54" y="1862" height="18" class="s13 sw2 f7"/>
<text x="1850" y="1901" class="f4">22</text>
<rect x="239" width="36" y="980" height="36" class="s5 sw2 f14"/>
<rect x="230" width="54" y="962" height="18" class="s14 sw2 f8"/>
<text x="250" y="1001" class="f4">22</text>
<polygon class=" s4 sw0 f4" points="266,962 266,968 272,968 260,980 260,974 254,974"/>
<polygon class=" s5 sw2 f13" points="2130,380 2184,380 2157,416"/>
<rect x="2130" width="54" y="362" height="18" class="s13 sw2 f7"/>
<text x="2150" y="401" class="f4">24</text>
<circle r="18" class="s5 sw2 f13" cx="457" cy="398"/>
<rect x="430" width="54" y="362" height="18" class="s13 sw2 f7"/>
<text x="450" y="401" class="f4">5</text>
<polygon class=" s5 sw2 f13" points="248,580 266,580 275,589 275,607 266,616 248,616 239,607 239,589"/>
<rect x="230" width="54" y="562" height="18" class="s13 sw2 f7"/>
<text x="250" y="601" class="f4">11</text>
<polygon class=" s5 sw2 f14" points="457,480 475,498 457,516 439,498"/>
<rect x="430" width="54" y="462" height="18" class="s14 sw2 f8"/>
<text x="450" y="501" class="f4">15</text>
<polygon class=" s4 sw0 f4" points="466,462 466,468 472,468 460,480 460,474 454,474"/>
<polygon class=" s5 sw2 f13" points="1030,780 1084,780 1057,816"/>
<rect x="1030" width="54" y="762" height="18" class="s13 sw2 f7"/>
<text x="1050" y="801" class="f4">23</text>
<polygon class=" s5 sw2 f14" points="1060,753 1114,753 1087,789"/>
<rect x="1060" width="54" y="735" height="18" class="s14 sw2 f8"/>
<text x="1080" y="774" class="f4">23</text>
<polygon class=" s4 sw0 f4" points="1096,735 1096,741 1102,741 1090,753 1090,747 1084,747"/>
<rect x="1639" width="36" y="380" height="36" class="s5 sw2 f14"/>
<rect x="1630" width="54" y="362" height="18" class="s14 sw2 f8"/>
<text x="1650" y="401" class="f4">21</text>
<polygon class=" s4 sw0 f4" points="1666,362 1666,368 1672,368 1660,380 1660,374 1654,374"/>
<polygon class=" s5 sw2 f14" points="1157,1580 1175,1598 1157,1616 1139,1598"/>
<rect x="1130" width="54" y="1562" height="18" class="s14 sw2 f8"/>
<text x="1150" y="1601" class="f4">16</text>
<polygon class=" s4 sw0 f4" points="1166,1562 1166,1568 1172,1568 1160,1580 1160,1574 1154,1574"/>
<circle r="18" class="s5 sw2 f13" cx="1657" cy="2198"/>
<rect x="1630" width="54" y="2162" height="18" class="s13 sw2 f7"/>
<text x="1650" y="2201" class="f4">4</text>
<polygon class=" s5 sw2 f13" points="848,1880 866,1880 875,1889 875,1907 866,1916 848,1916 839,1907 839,1889"/>
<rect x="830" width="54" y="1862" height="18" class="s13 sw2 f7"/>
<text x="850" y="1901" class="f4">12</text>
<polygon class=" s5 sw2 f13" points="1748,280 1766,280 1775,289 1775,307 1766,316 1748,316 1739,307 1739,289"/>
<rect x="1730" width="54" y="262" height="18" class="s13 sw2 f7"/>
<text x="1750" y="301" class="f4">9</text>
<polygon class=" s5 sw2 f13" points="1257,1680 1275,1698 1257,1716 1239,1698"/>
<rect x="1230" width="54" y="1662" height="18" class="s13 sw2 f7"/>
<text x="1250" y="1701" class="f4">13</text>
<polygon class=" s5 sw2 f14" points="1260,1653 1314,1653 1287,1689"/>
<rect x="1260" width="54" y="1635" height="18" class="s14 sw2 f8"/>
<text x="1280" y="1674" class="f4">26</text>
<line y2="1647" x1="1290" class="s4 sw3" x2="1302" y1="1641"/>
<circle r="6" class="s4 sw0 f4" cx="1290" cy="1641"/>
<rect x="539" width="36" y="1380" height="36" class="s5 sw2 f14"/>
<rect x="530" width="54" y="1362" height="18" class="s14 sw2 f8"/>
<text x="550" y="1401" class="f4">17</text>
<polygon class=" s4 sw0 f4" points="566,1362 566,1368 572,1368 560,1380 560,1374 554,1374"/>
<polygon class=" s5 sw2 f13" points="2057,1380 2075,1398 2057,1416 2039,1398"/>
<rect x="2030" width="54" y="1362" height="18" class="s13 sw2 f7"/>
<text x="2050" y="1401" class="f4">14</text>
<polygon class=" s5 sw2 f14" points="2060,1353 2114,1353 2087,1389"/>
<rect x="2060" width="54" y="1335" height="18" class="s14 sw2 f8"/>
<text x="2080" y="1374" class="f4">28</text>
<polygon class=" s4 sw0 f4" points="2096,1335 2096,1341 2102,1341 2090,1353 2090,1347 2084,1347"/>
<rect x="2062" width="36" y="1315" height="36" class="s5 sw2 f14"/>
<rect x="2053" width="54" y="1297" height="18" class="s14 sw2 f8"/>
<text x="2073" y="1336" class="f4">20</text>
<polygon class=" s4 sw0 f4" points="2089,1297 2089,1303 2095,1303 2083,1315 2083,1309 2077,1309"/>
<polygon class=" s5 sw2 f14" points="1948,880 1966,880 1975,889 1975,907 1966,916 1948,916 1939,907 1939,889"/>
<rect x="1930" width="54" y="862" height="18" class="s14 sw2 f8"/>
<text x="1950" y="901" class="f4">9</text>
<circle r="3" class="s4 sw0 f4" cx="1966" cy="865"/>
<circle r="3" class="s4 sw0 f4" cx="1966" cy="877"/>
<circle r="3" class="s4 sw0 f4" cx="1957" cy="871"/>
<circle r="3" class="s4 sw0 f4" cx="1975" cy="871"/>
<line y2="871" x1="1960" class="s4 sw1" x2="1972" y1="871"/>
<line y2="874" x1="1966" class="s4 sw1" x2="1966" y1="868"/>
<circle r="18" class="s5 sw2 f14" cx="1257" cy="998"/>
<rect x="1230" width="54" y="962" height="18" class="s14 sw2 f8"/>
<text x="1250" y="1001" class="f4">6</text>
<polygon class=" s4 sw0 f4" points="1266,962 1266,968 1272,968 1260,980 1260,974 1254,974"/>
<polygon class=" s5 sw2 f14" points="1278,953 1296,953 1305,962 1305,980 1296,989 1278,989 1269,980 1269,962"/>
<rect x="1260" width="54" y="935" height="18" class="s14 sw2 f8"/>
<text x="1280" y="974" class="f4">10</text>
<circle r="3" class="s4 sw0 f4" cx="1296" cy="938"/>
<circle r="3" class="s4 sw0 f4" cx="1296" cy="950"/>
<circle r="3" class="s4 sw0 f4" cx="1287" cy="944"/>
<circle r="3" class="s4 sw0 f4" cx="1305" cy="944"/>
<line y2="944" x1="1290" class="s4 sw1" x2="1302" y1="944"/>
<line y2="947" x1="1296" class="s4 sw1" x2="1296" y1="941"/>
<circle r="18" class="s5 sw2 f13" cx="257" cy="1898"/>
<rect x="230" width="54" y="1862" height="18" class="s13 sw2 f7"/>
<text x="250" y="1901" class="f4">1</text>
<rect x="269" width="36" y="1853" height="36" class="s5 sw2 f13"/>
<rect x="260" width="54" y="1835" height="18" class="s13 sw2 f7"/>
<text x="280" y="1874" class="f4">18</text>
<polygon class=" s5 sw2 f13" points="748,2080 766,2080 775,2089 775,2107 766,2116 748,2116 739,2107 739,2089"/>
<rect x="730" width="54" y="2062" height="18" class="s13 sw2 f7"/>
<text x="750" y="2101" class="f4">10</text>
<polygon class=" s5 sw2 f14" points="330,1980 384,1980 357,2016"/>
<rect x="330" width="54" y="1962" height="18" class="s14 sw2 f8"/>
<text x="350" y="2001" class="f4">27</text>
<polygon class=" s4 sw0 f4" points="366,1962 366,1968 372,1968 360,1980 360,1974 354,1974"/>
<circle r="18" class="s5 sw2 f13" cx="387" cy="1971"/>
<rect x="360" width="54" y="1935" height="18" class="s13 sw2 f7"/>
<text x="380" y="1974" class="f4">2</text>
<polygon class=" s5 sw2 f13" points="448,1580 466,1580 475,1589 475,1607 466,1616 448,1616 439,1607 439,1589"/>
<rect x="430" width="54" y="1562" height="18" class="s13 sw2 f7"/>
<text x="450" y="1601" class="f4">8</text>
<polygon class=" s5 sw2 f13" points="1730,1780 1784,1780 1757,1816"/>
<rect x="1730" width="54" y="1762" height="18" class="s13 sw2 f7"/>
<text x="1750" y="1801" class="f4">25</text>
<circle r="18" class="s5 sw2 f14" cx="357" cy="698"/>
<rect x="330" width="54" y="662" height="18" class="s14 sw2 f8"/>
<text x="350" y="701" class="f4">3</text>
<circle r="3" class="s4 sw0 f4" cx="366" cy="665"/>
<circle r="3" class="s4 sw0 f4" cx="366" cy="677"/>
<circle r="3" class="s4 sw0 f4" cx="357" cy="671"/>
<circle r="3" class="s4 sw0 f4" cx="375" cy="671"/>
<line y2="671" x1="360" class="s4 sw1" x2="372" y1="671"/>
<line y2="674" x1="366" class="s4 sw1" x2="366" y1="668"/>
<circle r="18" class="s5 sw2 f14" cx="2057" cy="1298"/>
<rect x="2030" width="54" y="1262" height="18" class="s14 sw2 f8"/>
<text x="2050" y="1301" class="f4">5</text>
<polygon class=" s4 sw0 f4" points="2057,1262 2075,1262 2066,1280"/>
<polygon class=" s5 sw2 f14" points="148,480 166,480 175,489 175,507 166,516 148,516 139,507 139,489"/>
<rect x="130" width="54" y="462" height="18" class="s14 sw2 f8"/>
<text x="150" y="501" class="f4">7</text>
<polygon class=" s4 sw0 f4" points="166,462 166,468 172,468 160,480 160,474 154,474"/>
<polygon class=" s5 sw2 f13" points="30,680 84,680 57,716"/>
<rect x="30" width="54" y="662" height="18" class="s13 sw2 f7"/>
<text x="50" y="701" class="f4">26</text>
<polygon class=" s5 sw2 f14" points="1048,1780 1066,1780 1075,1789 1075,1807 1066,1816 1048,1816 1039,1807 1039,1789"/>
<rect x="1030" width="54" y="1762" height="18" class="s14 sw2 f8"/>
<text x="1050" y="1801" class="f4">8</text>
<polygon class=" s4 sw0 f4" points="1066,1762 1066,1768 1072,1768 1060,1780 1060,1774 1054,1774"/>
<circle r="18" class="s5 sw2 f13" cx="557" cy="898"/>
<rect x="530" width="54" y="862" height="18" class="s13 sw2 f7"/>
<text x="550" y="901" class="f4">3</text>
<rect x="2139" width="36" y="1080" height="36" class="s5 sw2 f14"/>
<rect x="2130" width="54" y="1062" height="18" class="s14 sw2 f8"/>
<text x="2150" y="1101" class="f4">19</text>
<polygon class=" s4 sw0 f4" points="2166,1062 2166,1068 2172,1068 2160,1080 2160,1074 2154,1074"/>
<rect x="1639" width="36" y="180" height="36" class="s5 sw2 f14"/>
<rect x="1630" width="54" y="162" height="18" class="s14 sw2 f8"/>
<text x="1650" y="201" class="f4">18</text>
<polygon class=" s4 sw0 f4" points="1666,162 1666,168 1672,168 1660,180 1660,174 1654,174"/>
<rect x="39" width="36" y="1680" height="36" class="s5 sw2 f13"/>
<rect x="30" width="54" y="1662" height="18" class="s13 sw2 f7"/>
<text x="50" y="1701" class="f4">21</text>
<circle r="18" class="s5 sw2 f14" cx="1857" cy="1998"/>
<rect x="1830" width="54" y="1962" height="18" class="s14 sw2 f8"/>
<text x="1850" y="2001" class="f4">4</text>
<polygon class=" s4 sw0 f4" points="1866,1962 1866,1968 1872,1968 1860,1980 1860,1974 1854,1974"/>
<circle r="18" class="s5 sw2 f14" cx="757" cy="598"/>
<rect x="730" width="54" y="562" height="18" class="s14 sw2 f8"/>
<text x="750" y="601" class="f4">2</text>
<polygon class=" s4 sw0 f4" points="766,562 766,568 772,568 760,580 760,574 754,574"/>
<polygon class=" s5 sw2 f14" points="787,553 805,571 787,589 769,571"/>
<rect x="760" width="54" y="535" height="18" class="s14 sw2 f8"/>
<text x="780" y="574" class="f4">14</text>
<circle r="3" class="s4 sw0 f4" cx="796" cy="538"/>
<circle r="3" class="s4 sw0 f4" cx="796" cy="550"/>
<circle r="3" class="s4 sw0 f4" cx="787" cy="544"/>
<circle r="3" class="s4 sw0 f4" cx="805" cy="544"/>
<line y2="544" x1="790" class="s4 sw1" x2="802" y1="544"/>
<line y2="547" x1="796" class="s4 sw1" x2="796" y1="541"/>
<polygon class=" s5 sw2 f13" points="557,1980 575,1998 557,2016 539,1998"/>
<rect x="530" width="54" y="1962" height="18" class="s13 sw2 f7"/>
<text x="550" y="2001" class="f4">16</text>
<circle r="18" class="s5 sw2 f13" cx="1957" cy="98"/>
<rect x="1930" width="54" y="62" height="18" class="s13 sw2 f7"/>
<text x="1950" y="101" class="f4">6</text>
<rect x="1339" width="36" y="80" height="36" class="s5 sw2 f13"/>
<rect x="1330" width="54" y="62" height="18" class="s13 sw2 f7"/>
<text x="1350" y="101" class="f4">17</text>
<polygon class=" s5 sw2 f13" points="1430,1180 1484,1180 1457,1216"/>
<rect x="1430" width="54" y="1162" height="18" class="s13 sw2 f7"/>
<text x="1450" y="1201" class="f4">27</text>
<polygon class=" s5 sw2 f13" points="457,1980 475,1998 457,2016 439,1998"/>
<rect x="430" width="54" y="1962" height="18" class="s13 sw2 f7"/>
<text x="450" y="2001" class="f4">15</text>
<polygon class=" s5 sw2 f14" points="1957,1580 1975,1598 1957,1616 1939,1598"/>
<rect x="1930" width="54" y="1562" height="18" class="s14 sw2 f8"/>
<text x="1950" y="1601" class="f4">13</text>
<polygon class=" s4 sw0 f4" points="1966,1562 1966,1568 1972,1568 1960,1580 1960,1574 1954,1574"/>
<polygon class=" s5 sw2 f14" points="1978,1553 1996,1553 2005,1562 2005,1580 1996,1589 1978,1589 1969,1580 1969,1562"/>
<rect x="1960" width="54" y="1535" height="18" class="s14 sw2 f8"/>
<text x="1980" y="1574" class="f4">12</text>
<polygon class=" s4 sw0 f4" points="1996,1535 1996,1541 2002,1541 1990,1553 1990,1547 1984,1547"/>
<g id="teamTable" transform="translate(-100, 150)">
<text x="2350" y="75" class="TxtNrml">Step: 14</text>
<text x="2350" y="180" class="Tb" text-anchor="start">
<tspan fill="rgba(0,158,115,1.0)" x="2350">Nabf</tspan>
<tspan x="2750">675</tspan>
<tspan x="2950">62</tspan>
<tspan x="3150">50</tspan>
<tspan x="3350">12</tspan>
</text>
<text x="2350" y="220" class="Tb" text-anchor="start">
<tspan fill="rgba(0,114,178,1.0)" x="2350">B</tspan>
<tspan x="2750">390</tspan>
<tspan x="2950">29</tspan>
<tspan x="3150">27</tspan>
<tspan x="3350">2</tspan>
</text>
</g>
<g id="agentTable" transform="translate(-100, 150)">
<text x="2350" y="316" class="Tb2" text-anchor="start">
<tspan x="2535">13/35</tspan>
<tspan x="2650">4/4</tspan>
<tspan x="2765">0</tspan>
<tspan x="2880">2</tspan>
<tspan x="2995">probe :successful</tspan>
</text>
<text x="2350" y="346" class="Tb2" text-anchor="start">
<tspan x="2535">24/35</tspan>
<tspan x="2650">4/4</tspan>
<tspan x="2765">0</tspan>
<tspan x="2880">2</tspan>
<tspan x="2995">recharge :successful</tspan>
</text>
<text x="2350" y="376" class="Tb2" text-anchor="start">
<tspan x="2535">17/35</tspan>
<tspan x="2650">4/4</tspan>
<tspan x="2765">0</tspan>
<tspan x="2880">2</tspan>
<tspan x="2995">goto v204:successful</tspan>
</text>
<text x="2350" y="406" class="Tb2" text-anchor="start">
<tspan x="2535">35/35</tspan>
<tspan x="2650">4/4</tspan>
<tspan x="2765">0</tspan>
<tspan x="2880">2</tspan>
<tspan x="2995">recharge :successful</tspan>
</text>
<text x="2350" y="436" class="Tb2" text-anchor="start">
<tspan x="2535">29/35</tspan>
<tspan x="2650">4/4</tspan>
<tspan x="2765">0</tspan>
<tspan x="2880">2</tspan>
<tspan x="2995">probe :successful</tspan>
</text>
<text x="2350" y="466" class="Tb2" text-anchor="start">
<tspan x="2535">35/35</tspan>
<tspan x="2650">4/4</tspan>
<tspan x="2765">0</tspan>
<tspan x="2880">2</tspan>
<tspan x="2995">recharge :successful</tspan>
</text>
<text x="2350" y="496" class="Tb2" text-anchor="start">
<tspan x="2535">19/25</tspan>
<tspan x="2650">6/6</tspan>
<tspan x="2765">0</tspan>
<tspan x="2880">1</tspan>
<tspan x="2995">recharge :successful</tspan>
</text>
<text x="2350" y="526" class="Tb2" text-anchor="start">
<tspan x="2535">25/25</tspan>
<tspan x="2650">6/6</tspan>
<tspan x="2765">0</tspan>
<tspan x="2880">1</tspan>
<tspan x="2995">recharge :successful</tspan>
</text>
<text x="2350" y="556" class="Tb2" text-anchor="start">
<tspan x="2535">23/25</tspan>
<tspan x="2650">6/6</tspan>
<tspan x="2765">0</tspan>
<tspan x="2880">1</tspan>
<tspan x="2995">goto v149:successful</tspan>
</text>
<text x="2350" y="586" class="Tb2" text-anchor="start">
<tspan x="2535">7/25</tspan>
<tspan x="2650">6/6</tspan>
<tspan x="2765">0</tspan>
<tspan x="2880">1</tspan>
<tspan x="2995">goto v156:successful</tspan>
</text>
<text x="2350" y="616" class="Tb2" text-anchor="start">
<tspan x="2535">25/25</tspan>
<tspan x="2650">6/6</tspan>
<tspan x="2765">0</tspan>
<tspan x="2880">1</tspan>
<tspan x="2995">recharge :successful</tspan>
</text>
<text x="2350" y="646" class="Tb2" text-anchor="start">
<tspan x="2535">25/25</tspan>
<tspan x="2650">6/6</tspan>
<tspan x="2765">0</tspan>
<tspan x="2880">1</tspan>
<tspan x="2995">recharge :successful</tspan>
</text>
<text x="2350" y="676" class="Tb2" text-anchor="start">
<tspan x="2535">20/20</tspan>
<tspan x="2650">3/3</tspan>
<tspan x="2765">3</tspan>
<tspan x="2880">1</tspan>
<tspan x="2995">recharge :successful</tspan>
</text>
<text x="2350" y="706" class="Tb2" text-anchor="start">
<tspan x="2535">13/20</tspan>
<tspan x="2650">3/3</tspan>
<tspan x="2765">3</tspan>
<tspan x="2880">1</tspan>
<tspan x="2995">goto v262:successful</tspan>
</text>
<text x="2350" y="736" class="Tb2" text-anchor="start">
<tspan x="2535">18/20</tspan>
<tspan x="2650">3/3</tspan>
<tspan x="2765">3</tspan>
<tspan x="2880">1</tspan>
<tspan x="2995">recharge :successful</tspan>
</text>
<text x="2350" y="766" class="Tb2" text-anchor="start">
<tspan x="2535">20/20</tspan>
<tspan x="2650">3/3</tspan>
<tspan x="2765">3</tspan>
<tspan x="2880">1</tspan>
<tspan x="2995">recharge :successful</tspan>
</text>
<text x="2350" y="796" class="Tb2" text-anchor="start">
<tspan x="2535">30/30</tspan>
<tspan x="2650">1/1</tspan>
<tspan x="2765">0</tspan>
<tspan x="2880">3</tspan>
<tspan x="2995">recharge :successful</tspan>
</text>
<text x="2350" y="826" class="Tb2" text-anchor="start">
<tspan x="2535">30/30</tspan>
<tspan x="2650">1/1</tspan>
<tspan x="2765">0</tspan>
<tspan x="2880">3</tspan>
<tspan x="2995">recharge :successful</tspan>
</text>
<text x="2350" y="856" class="Tb2" text-anchor="start">
<tspan x="2535">30/30</tspan>
<tspan x="2650">1/1</tspan>
<tspan x="2765">0</tspan>
<tspan x="2880">3</tspan>
<tspan x="2995">recharge :successful</tspan>
</text>
<text x="2350" y="886" class="Tb2" text-anchor="start">
<tspan x="2535">30/30</tspan>
<tspan x="2650">1/1</tspan>
<tspan x="2765">0</tspan>
<tspan x="2880">3</tspan>
<tspan x="2995">recharge :successful</tspan>
</text>
<text x="2350" y="916" class="Tb2" text-anchor="start">
<tspan x="2535">26/30</tspan>
<tspan x="2650">1/1</tspan>
<tspan x="2765">0</tspan>
<tspan x="2880">3</tspan>
<tspan x="2995">recharge :successful</tspan>
</text>
<text x="2350" y="946" class="Tb2" text-anchor="start">
<tspan x="2535">30/30</tspan>
<tspan x="2650">1/1</tspan>
<tspan x="2765">0</tspan>
<tspan x="2880">3</tspan>
<tspan x="2995">recharge :successful</tspan>
</text>
<text x="2350" y="976" class="Tb2" text-anchor="start">
<tspan x="2535">25/25</tspan>
<tspan x="2650">6/6</tspan>
<tspan x="2765">0</tspan>
<tspan x="2880">1</tspan>
<tspan x="2995">recharge :successful</tspan>
</text>
<text x="2350" y="1006" class="Tb2" text-anchor="start">
<tspan x="2535">13/25</tspan>
<tspan x="2650">6/6</tspan>
<tspan x="2765">0</tspan>
<tspan x="2880">1</tspan>
<tspan x="2995">inspect :successful</tspan>
</text>
<text x="2350" y="1036" class="Tb2" text-anchor="start">
<tspan x="2535">21/25</tspan>
<tspan x="2650">6/6</tspan>
<tspan x="2765">0</tspan>
<tspan x="2880">1</tspan>
<tspan x="2995">inspect :successful</tspan>
</text>
<text x="2350" y="1066" class="Tb2" text-anchor="start">
<tspan x="2535">8/25</tspan>
<tspan x="2650">6/6</tspan>
<tspan x="2765">0</tspan>
<tspan x="2880">1</tspan>
<tspan x="2995">inspect :successful</tspan>
</text>
<text x="2350" y="1096" class="Tb2" text-anchor="start">
<tspan x="2535">25/25</tspan>
<tspan x="2650">6/6</tspan>
<tspan x="2765">0</tspan>
<tspan x="2880">1</tspan>
<tspan x="2995">recharge :successful</tspan>
</text>
<text x="2350" y="1126" class="Tb2" text-anchor="start">
<tspan x="2535">25/25</tspan>
<tspan x="2650">6/6</tspan>
<tspan x="2765">0</tspan>
<tspan x="2880">1</tspan>
<tspan x="2995">recharge :successful</tspan>
</text>
<text x="2350" y="1156" class="Tb2" text-anchor="start">
<tspan x="2535">35/35</tspan>
<tspan x="2650">4/4</tspan>
<tspan x="2765">0</tspan>
<tspan x="2880">2</tspan>
<tspan fill="red" x="2995">noAction :failed</tspan>
</text>
<text x="2350" y="1186" class="Tb2" text-anchor="start">
<tspan x="2535">35/35</tspan>
<tspan x="2650">4/4</tspan>
<tspan x="2765">0</tspan>
<tspan x="2880">2</tspan>
<tspan fill="red" x="2995">noAction :failed</tspan>
</text>
<text x="2350" y="1216" class="Tb2" text-anchor="start">
<tspan x="2535">35/35</tspan>
<tspan x="2650">4/4</tspan>
<tspan x="2765">0</tspan>
<tspan x="2880">2</tspan>
<tspan fill="red" x="2995">noAction :failed</tspan>
</text>
<text x="2350" y="1246" class="Tb2" text-anchor="start">
<tspan x="2535">35/35</tspan>
<tspan x="2650">4/4</tspan>
<tspan x="2765">0</tspan>
<tspan x="2880">2</tspan>
<tspan fill="red" x="2995">noAction :failed</tspan>
</text>
<text x="2350" y="1276" class="Tb2" text-anchor="start">
<tspan x="2535">35/35</tspan>
<tspan x="2650">4/4</tspan>
<tspan x="2765">0</tspan>
<tspan x="2880">2</tspan>
<tspan fill="red" x="2995">noAction :failed</tspan>
</text>
<text x="2350" y="1306" class="Tb2" text-anchor="start">
<tspan x="2535">35/35</tspan>
<tspan x="2650">4/4</tspan>
<tspan x="2765">0</tspan>
<tspan x="2880">2</tspan>
<tspan fill="red" x="2995">noAction :failed</tspan>
</text>
<text x="2350" y="1336" class="Tb2" text-anchor="start">
<tspan x="2535">25/25</tspan>
<tspan x="2650">6/6</tspan>
<tspan x="2765">0</tspan>
<tspan x="2880">1</tspan>
<tspan fill="red" x="2995">noAction :failed</tspan>
</text>
<text x="2350" y="1366" class="Tb2" text-anchor="start">
<tspan x="2535">25/25</tspan>
<tspan x="2650">6/6</tspan>
<tspan x="2765">0</tspan>
<tspan x="2880">1</tspan>
<tspan fill="red" x="2995">noAction :failed</tspan>
</text>
<text x="2350" y="1396" class="Tb2" text-anchor="start">
<tspan x="2535">25/25</tspan>
<tspan x="2650">6/6</tspan>
<tspan x="2765">0</tspan>
<tspan x="2880">1</tspan>
<tspan fill="red" x="2995">noAction :failed</tspan>
</text>
<text x="2350" y="1426" class="Tb2" text-anchor="start">
<tspan x="2535">25/25</tspan>
<tspan x="2650">6/6</tspan>
<tspan x="2765">0</tspan>
<tspan x="2880">1</tspan>
<tspan fill="red" x="2995">noAction :failed</tspan>
</text>
<text x="2350" y="1456" class="Tb2" text-anchor="start">
<tspan x="2535">25/25</tspan>
<tspan x="2650">6/6</tspan>
<tspan x="2765">0</tspan>
<tspan x="2880">1</tspan>
<tspan fill="red" x="2995">noAction :failed</tspan>
</text>
<text x="2350" y="1486" class="Tb2" text-anchor="start">
<tspan x="2535">25/25</tspan>
<tspan x="2650">6/6</tspan>
<tspan x="2765">0</tspan>
<tspan x="2880">1</tspan>
<tspan fill="red" x="2995">noAction :failed</tspan>
</text>
<text x="2350" y="1516" class="Tb2" text-anchor="start">
<tspan x="2535">20/20</tspan>
<tspan x="2650">3/3</tspan>
<tspan x="2765">3</tspan>
<tspan x="2880">1</tspan>
<tspan fill="red" x="2995">noAction :failed</tspan>
</text>
<text x="2350" y="1546" class="Tb2" text-anchor="start">
<tspan x="2535">20/20</tspan>
<tspan x="2650">3/3</tspan>
<tspan x="2765">3</tspan>
<tspan x="2880">1</tspan>
<tspan fill="red" x="2995">noAction :failed</tspan>
</text>
<text x="2350" y="1576" class="Tb2" text-anchor="start">
<tspan x="2535">20/20</tspan>
<tspan x="2650">3/3</tspan>
<tspan x="2765">3</tspan>
<tspan x="2880">1</tspan>
<tspan fill="red" x="2995">noAction :failed</tspan>
</text>
<text x="2350" y="1606" class="Tb2" text-anchor="start">
<tspan x="2535">20/20</tspan>
<tspan x="2650">3/3</tspan>
<tspan x="2765">3</tspan>
<tspan x="2880">1</tspan>
<tspan fill="red" x="2995">noAction :failed</tspan>
</text>
<text x="2350" y="1636" class="Tb2" text-anchor="start">
<tspan x="2535">30/30</tspan>
<tspan x="2650">1/1</tspan>
<tspan x="2765">0</tspan>
<tspan x="2880">3</tspan>
<tspan fill="red" x="2995">noAction :failed</tspan>
</text>
<text x="2350" y="1666" class="Tb2" text-anchor="start">
<tspan x="2535">30/30</tspan>
<tspan x="2650">1/1</tspan>
<tspan x="2765">0</tspan>
<tspan x="2880">3</tspan>
<tspan fill="red" x="2995">noAction :failed</tspan>
</text>
<text x="2350" y="1696" class="Tb2" text-anchor="start">
<tspan x="2535">30/30</tspan>
<tspan x="2650">1/1</tspan>
<tspan x="2765">0</tspan>
<tspan x="2880">3</tspan>
<tspan fill="red" x="2995">noAction :failed</tspan>
</text>
<text x="2350" y="1726" class="Tb2" text-anchor="start">
<tspan x="2535">30/30</tspan>
<tspan x="2650">1/1</tspan>
<tspan x="2765">0</tspan>
<tspan x="2880">3</tspan>
<tspan fill="red" x="2995">noAction :failed</tspan>
</text>
<text x="2350" y="1756" class="Tb2" text-anchor="start">
<tspan x="2535">30/30</tspan>
<tspan x="2650">1/1</tspan>
<tspan x="2765">0</tspan>
<tspan x="2880">3</tspan>
<tspan fill="red" x="2995">noAction :failed</tspan>
</text>
<text x="2350" y="1786" class="Tb2" text-anchor="start">
<tspan x="2535">30/30</tspan>
<tspan x="2650">1/1</tspan>
<tspan x="2765">0</tspan>
<tspan x="2880">3</tspan>
<tspan fill="red" x="2995">noAction :failed</tspan>
</text>
<text x="2350" y="1816" class="Tb2" text-anchor="start">
<tspan x="2535">25/25</tspan>
<tspan x="2650">6/6</tspan>
<tspan x="2765">0</tspan>
<tspan x="2880">1</tspan>
<tspan fill="red" x="2995">noAction :failed</tspan>
</text>
<text x="2350" y="1846" class="Tb2" text-anchor="start">
<tspan x="2535">25/25</tspan>
<tspan x="2650">6/6</tspan>
<tspan x="2765">0</tspan>
<tspan x="2880">1</tspan>
<tspan fill="red" x="2995">noAction :failed</tspan>
</text>
<text x="2350" y="1876" class="Tb2" text-anchor="start">
<tspan x="2535">25/25</tspan>
<tspan x="2650">6/6</tspan>
<tspan x="2765">0</tspan>
<tspan x="2880">1</tspan>
<tspan fill="red" x="2995">noAction :failed</tspan>
</text>
<text x="2350" y="1906" class="Tb2" text-anchor="start">
<tspan x="2535">25/25</tspan>
<tspan x="2650">6/6</tspan>
<tspan x="2765">0</tspan>
<tspan x="2880">1</tspan>
<tspan fill="red" x="2995">noAction :failed</tspan>
</text>
<text x="2350" y="1936" class="Tb2" text-anchor="start">
<tspan x="2535">25/25</tspan>
<tspan x="2650">6/6</tspan>
<tspan x="2765">0</tspan>
<tspan x="2880">1</tspan>
<tspan fill="red" x="2995">noAction :failed</tspan>
</text>
<text x="2350" y="1966" class="Tb2" text-anchor="start">
<tspan x="2535">25/25</tspan>
<tspan x="2650">6/6</tspan>
<tspan x="2765">0</tspan>
<tspan x="2880">1</tspan>
<tspan fill="red" x="2995">noAction :failed</tspan>
</text>
</g>
<line y2="442" x1="3290" class="s5 sw1" x2="3290" y1="1996"/>
<g id="achievementPart" transform="translate(-100, 150)">
<text x="3400" y="301" class="TxtAch">
<tspan x="3400">Achievements</tspan>
<tspan fill="rgba(0,158,115,1.0)" x="3400" y="331">Nabf</tspan>
<tspan x="3400" y="351">proved5</tspan>
<tspan x="3400" y="371">proved10</tspan>
<tspan x="3400" y="391">proved20</tspan>
<tspan x="3400" y="411">inspected5</tspan>
<tspan x="3400" y="431">area10</tspan>
<tspan x="3400" y="451">area20</tspan>
<tspan fill="rgba(0,114,178,1.0)" x="3400" y="476">B</tspan>
<tspan x="3400" y="496">area10</tspan>
</text>
</g>
</g>
</svg>
