<?xml version="1.0" encoding="UTF-8"?><?xml-stylesheet type="text/css" href="style.css"?><svg xmlns="http://www.w3.org/2000/svg" xmlns:xlink="http://www.w3.org/1999/xlink" contentScriptType="text/ecmascript" zoomAndPan="magnify" contentStyleType="text/css" preserveAspectRatio="xMidYMid meet" version="1.0">
<g id="scaleSvg" transform="scale(0.25)">
<polygon class="T1" points="850,450 950,650 750,650 "/>
<polygon class="T1" points="2150,1250 2150,1650 2050,1450 "/>
<polygon class="T1" points="1350,1050 1150,950 1250,950 "/>
<polygon class="T1" points="2150,1750 2050,1650 2150,1650 "/>
<polygon class="T1" points="1050,450 850,450 950,350 1050,350 "/>
<polygon class="T1" points="1050,450 1050,350 1150,350 1150,450 "/>
<polygon class="T1" points="2150,1250 2050,1450 1950,1450 2050,1350 "/>
<polygon class="T1" points="1350,450 1150,450 1150,350 1250,350 "/>
<polygon class="T1" points="950,650 850,450 950,650 750,650 850,450 "/>
<polygon class="T1" points="850,450 750,650 850,450 950,650 750,650 "/>
<polygon class="T1" points="750,650 950,650 750,650 850,450 950,650 "/>
<polygon class="T1" points="850,450 1050,450 850,450 950,650 750,650 "/>
<polygon class="T1" points="950,350 850,450 950,650 750,650 850,450 "/>
<polygon class="T1" points="1150,950 1150,450 1150,950 1250,950 1350,1050 "/>
<polygon class="T1" points="2150,1650 2150,1250 2150,1650 2050,1450 2150,1250 "/>
<polygon class="T1" points="1150,950 1350,1050 1150,950 1250,950 1350,1050 "/>
<polygon class="T1" points="2050,1450 2150,1650 2050,1450 2150,1250 2150,1650 "/>
<polygon class="T1" points="1350,1250 1350,1050 1150,950 1250,950 1350,1050 "/>
<polygon class="T1" points="1350,1050 1250,950 1350,1050 1150,950 1250,950 "/>
<polygon class="T1" points="2050,1650 2150,1750 2050,1650 2150,1650 2150,1750 "/>
<polygon class="T1" points="2150,1250 2050,1350 2150,1250 2150,1650 2050,1450 "/>
<polygon class="T1" points="1250,950 1150,950 1250,950 1350,1050 1150,950 "/>
<polygon class="T1" points="2150,1750 2150,1650 2050,1450 2150,1250 2150,1650 "/>
<polygon class="T1" points="2150,1650 2050,1650 2150,1650 2050,1450 2150,1250 "/>
<polygon class="T1" points="1950,1450 2050,1450 2150,1250 2150,1650 2050,1450 "/>
<polygon class="T1" points="1050,350 950,350 1050,350 1050,450 850,450 950,350 "/>
<polygon class="T1" points="1150,450 1350,450 1150,450 1150,350 1250,350 1350,450 "/>
<polygon class="T1" points="2050,1350 1950,1450 2050,1350 2150,1250 2050,1450 1950,1450 "/>
<polygon class="T1" points="1350,450 1250,350 1350,450 1150,450 1150,350 1250,350 "/>
<polygon class="T1" points="1250,350 1150,350 1150,450 1050,450 1050,350 1150,350 "/>
<polygon class="T1" points="1150,350 1050,350 1050,450 850,450 950,350 1050,350 "/>
<polygon class="T1" points="1050,450 1150,450 1150,350 1250,350 1350,450 1150,450 "/>
<polygon class="T1" points="1350,1250 1450,1150 1350,1250 1350,1050 1150,950 1250,950 1350,1050 "/>
<circle r="25" class="T1n" cx="1950" cy="1450"/>
<circle r="25" class="T1n" cx="2150" cy="150"/>
<circle r="25" class="T1n" cx="1350" cy="450"/>
<circle r="25" class="T1n" cx="450" cy="1750"/>
<circle r="25" class="T1n" cx="950" cy="650"/>
<circle r="25" class="T1n" cx="750" cy="650"/>
<circle r="25" class="T1n" cx="1350" cy="1250"/>
<circle r="25" class="T1n" cx="950" cy="350"/>
<circle r="25" class="T1n" cx="850" cy="450"/>
<circle r="25" class="T1n" cx="2150" cy="1650"/>
<circle r="25" class="T1n" cx="2050" cy="1450"/>
<circle r="25" class="T1n" cx="350" cy="350"/>
<circle r="25" class="T1n" cx="1450" cy="1150"/>
<circle r="25" class="T1n" cx="2150" cy="1250"/>
<circle r="25" class="T1n" cx="1250" cy="950"/>
<circle r="25" class="T1n" cx="1350" cy="1050"/>
<circle r="25" class="T1n" cx="1150" cy="450"/>
<circle r="25" class="T1n" cx="2050" cy="1650"/>
<circle r="25" class="T1n" cx="1150" cy="350"/>
<circle r="25" class="T1n" cx="1250" cy="2150"/>
<circle r="25" class="T1n" cx="350" cy="1950"/>
<circle r="25" class="T1n" cx="550" cy="1350"/>
<circle r="25" class="T1n" cx="1150" cy="950"/>
<circle r="25" class="T1n" cx="1650" cy="750"/>
<circle r="25" class="T1n" cx="1050" cy="450"/>
<circle r="25" class="T1n" cx="1250" cy="350"/>
<circle r="25" class="T1n" cx="350" cy="550"/>
<circle r="25" class="T1n" cx="2050" cy="1350"/>
<circle r="25" class="T1n" cx="1050" cy="350"/>
<circle r="25" class="T1n" cx="450" cy="450"/>
<circle r="25" class="T1n" cx="2150" cy="1750"/>
<circle r="25" class="T1n" cx="650" cy="2050"/>
<line y2="450" x1="950" class="T1e" x2="850" y1="650"/>
<line y2="450" x1="750" class="T1e" x2="850" y1="650"/>
<line y2="350" x1="350" class="T1e" x2="350" y1="550"/>
<line y2="650" x1="950" class="T1e" x2="750" y1="650"/>
<line y2="450" x1="1050" class="T1e" x2="850" y1="450"/>
<line y2="450" x1="350" class="T1e" x2="450" y1="550"/>
<line y2="450" x1="950" class="T1e" x2="850" y1="350"/>
<line y2="350" x1="1050" class="T1e" x2="1050" y1="450"/>
<line y2="350" x1="950" class="T1e" x2="1050" y1="350"/>
<line y2="450" x1="1150" class="T1e" x2="1150" y1="950"/>
<line y2="1250" x1="2150" class="T1e" x2="2150" y1="1650"/>
<line y2="1050" x1="1150" class="T1e" x2="1350" y1="950"/>
<line y2="1450" x1="2150" class="T1e" x2="2050" y1="1650"/>
<line y2="1250" x1="2050" class="T1e" x2="2150" y1="1450"/>
<line y2="1050" x1="1350" class="T1e" x2="1350" y1="1250"/>
<line y2="450" x1="1150" class="T1e" x2="1350" y1="450"/>
<line y2="1150" x1="1350" class="T1e" x2="1450" y1="1250"/>
<line y2="1050" x1="1250" class="T1e" x2="1350" y1="950"/>
<line y2="1650" x1="2150" class="T1e" x2="2050" y1="1750"/>
<line y2="1350" x1="1950" class="T1e" x2="2050" y1="1450"/>
<line y2="1350" x1="2150" class="T1e" x2="2050" y1="1250"/>
<line y2="450" x1="1250" class="T1e" x2="1350" y1="350"/>
<line y2="950" x1="1150" class="T1e" x2="1250" y1="950"/>
<line y2="1750" x1="2150" class="T1e" x2="2150" y1="1650"/>
<line y2="1650" x1="2150" class="T1e" x2="2050" y1="1650"/>
<line y2="1450" x1="2050" class="T1e" x2="1950" y1="1450"/>
<line y2="350" x1="1150" class="T1e" x2="1150" y1="450"/>
<line y2="350" x1="1250" class="T1e" x2="1150" y1="350"/>
<line y2="350" x1="1050" class="T1e" x2="1150" y1="350"/>
<line y2="450" x1="1050" class="T1e" x2="1150" y1="450"/>
<circle r="14" class="N" cx="1950" cy="1450"/>
<circle r="5" class="N" cx="2150" cy="150"/>
<circle r="9" class="N" cx="1350" cy="450"/>
<circle r="6" class="N" cx="450" cy="1750"/>
<circle r="11" class="N" cx="950" cy="650"/>
<circle r="12" class="N" cx="750" cy="650"/>
<circle r="8" class="N" cx="1350" cy="1250"/>
<circle r="8" class="N" cx="950" cy="350"/>
<circle r="9" class="N" cx="850" cy="450"/>
<circle r="11" class="N" cx="2150" cy="1650"/>
<circle r="11" class="N" cx="2050" cy="1450"/>
<circle r="6" class="N" cx="350" cy="350"/>
<circle r="8" class="N" cx="1450" cy="1150"/>
<circle r="11" class="N" cx="2150" cy="1250"/>
<circle r="12" class="N" cx="1250" cy="950"/>
<circle r="9" class="N" cx="1350" cy="1050"/>
<circle r="9" class="N" cx="1150" cy="450"/>
<circle r="11" class="N" cx="2050" cy="1650"/>
<circle r="8" class="N" cx="1150" cy="350"/>
<circle r="5" class="N" cx="1250" cy="2150"/>
<circle r="9" class="N" cx="350" cy="1950"/>
<circle r="14" class="N" cx="550" cy="1350"/>
<circle r="11" class="N" cx="1150" cy="950"/>
<circle r="8" class="N" cx="1650" cy="750"/>
<circle r="9" class="N" cx="1050" cy="450"/>
<circle r="8" class="N" cx="1250" cy="350"/>
<circle r="5" class="N" cx="350" cy="550"/>
<circle r="12" class="N" cx="2050" cy="1350"/>
<circle r="8" class="N" cx="1050" cy="350"/>
<circle r="5" class="N" cx="450" cy="450"/>
<circle r="12" class="N" cx="2150" cy="1750"/>
<circle r="5" class="N" cx="650" cy="2050"/>
<line y2="450" x1="950" class="E sw9" x2="850" y1="650"/>
<line y2="450" x1="750" class="E sw10" x2="850" y1="650"/>
<line y2="350" x1="350" class="E sw6" x2="350" y1="550"/>
<line y2="650" x1="950" class="E sw5" x2="750" y1="650"/>
<line y2="450" x1="1050" class="E sw9" x2="850" y1="450"/>
<line y2="450" x1="350" class="E sw9" x2="450" y1="550"/>
<line y2="450" x1="950" class="E sw3" x2="850" y1="350"/>
<line y2="350" x1="1050" class="E sw10" x2="1050" y1="450"/>
<line y2="350" x1="950" class="E sw4" x2="1050" y1="350"/>
<line y2="450" x1="1150" class="E sw3" x2="1150" y1="950"/>
<line y2="1250" x1="2150" class="E sw9" x2="2150" y1="1650"/>
<line y2="1050" x1="1150" class="E sw3" x2="1350" y1="950"/>
<line y2="1450" x1="2150" class="E sw3" x2="2050" y1="1650"/>
<line y2="1250" x1="2050" class="E sw7" x2="2150" y1="1450"/>
<line y2="1050" x1="1350" class="E sw4" x2="1350" y1="1250"/>
<line y2="450" x1="1150" class="E sw9" x2="1350" y1="450"/>
<line y2="1150" x1="1350" class="E sw5" x2="1450" y1="1250"/>
<line x1="1250" x2="1350" y1="950" y2="1050" style="stroke-width:11;" class="E"/>
<line y2="1650" x1="2150" class="E sw4" x2="2050" y1="1750"/>
<line y2="1350" x1="1950" class="E sw4" x2="2050" y1="1450"/>
<line y2="1350" x1="2150" class="E sw8" x2="2050" y1="1250"/>
<line y2="450" x1="1250" class="E sw3" x2="1350" y1="350"/>
<line y2="950" x1="1150" class="E sw9" x2="1250" y1="950"/>
<line y2="1750" x1="2150" class="E sw8" x2="2150" y1="1650"/>
<line y2="1650" x1="2150" class="E sw6" x2="2050" y1="1650"/>
<line y2="1450" x1="2050" class="E sw10" x2="1950" y1="1450"/>
<line y2="350" x1="1150" class="E sw10" x2="1150" y1="450"/>
<line y2="350" x1="1250" class="E sw4" x2="1150" y1="350"/>
<line y2="350" x1="1050" class="E sw9" x2="1150" y1="350"/>
<line y2="450" x1="1050" class="E sw7" x2="1150" y1="450"/>
<circle r="25" class="T2n" cx="1350" cy="350"/>
<circle r="25" class="T2n" cx="1950" cy="1850"/>
<circle r="25" class="T2n" cx="950" cy="1350"/>
<circle r="25" class="T2n" cx="350" cy="1650"/>
<circle r="25" class="T2n" cx="1450" cy="2050"/>
<circle r="25" class="T2n" cx="50" cy="950"/>
<circle r="25" class="T2n" cx="1850" cy="1850"/>
<circle r="25" class="T2n" cx="850" cy="250"/>
<circle r="25" class="T2n" cx="1850" cy="2150"/>
<circle r="25" class="T2n" cx="1450" cy="350"/>
<circle r="25" class="T2n" cx="1350" cy="2150"/>
<circle r="25" class="T2n" cx="750" cy="2050"/>
<circle r="25" class="T2n" cx="550" cy="850"/>
<circle r="25" class="T2n" cx="1950" cy="1250"/>
<circle r="25" class="T2n" cx="2050" cy="50"/>
<circle r="25" class="T2n" cx="1450" cy="250"/>
<circle r="25" class="T2n" cx="1950" cy="1950"/>
<circle r="25" class="T2n" cx="1350" cy="50"/>
<circle r="25" class="T2n" cx="650" cy="1750"/>
<circle r="25" class="T2n" cx="1250" cy="2050"/>
<circle r="25" class="T2n" cx="1850" cy="750"/>
<circle r="25" class="T2n" cx="250" cy="1550"/>
<circle r="25" class="T2n" cx="1150" cy="50"/>
<circle r="25" class="T2n" cx="450" cy="1450"/>
<circle r="25" class="T2n" cx="1950" cy="150"/>
<line y2="1550" x1="450" class="T2e" x2="250" y1="1450"/>
<line y2="1650" x1="250" class="T2e" x2="350" y1="1550"/>
<line y2="50" x1="1450" class="T2e" x2="1350" y1="250"/>
<line y2="50" x1="1150" class="T2e" x2="1350" y1="50"/>
<line y2="2150" x1="1250" class="T2e" x2="1350" y1="2050"/>
<line y2="350" x1="1450" class="T2e" x2="1350" y1="250"/>
<line y2="2050" x1="1350" class="T2e" x2="1450" y1="2150"/>
<line y2="1850" x1="1850" class="T2e" x2="1950" y1="1850"/>
<line y2="1850" x1="1950" class="T2e" x2="1950" y1="1950"/>
<line y2="350" x1="1350" class="T2e" x2="1450" y1="350"/>
<circle r="11" class="N" cx="1350" cy="350"/>
<circle r="11" class="N" cx="1950" cy="1850"/>
<circle r="9" class="N" cx="950" cy="1350"/>
<circle r="9" class="N" cx="350" cy="1650"/>
<circle r="5" class="N" cx="1450" cy="2050"/>
<circle r="5" class="N" cx="50" cy="950"/>
<circle r="8" class="N" cx="1850" cy="1850"/>
<circle r="18" class="N" cx="850" cy="250"/>
<circle r="8" class="N" cx="1850" cy="2150"/>
<circle r="9" class="N" cx="1450" cy="350"/>
<circle r="5" class="N" cx="1350" cy="2150"/>
<circle r="5" class="N" cx="750" cy="2050"/>
<circle r="6" class="N" cx="550" cy="850"/>
<circle r="11" class="N" cx="1950" cy="1250"/>
<circle r="5" class="N" cx="2050" cy="50"/>
<circle r="11" class="N" cx="1450" cy="250"/>
<circle r="12" class="N" cx="1950" cy="1950"/>
<circle r="9" class="N" cx="1350" cy="50"/>
<circle r="5" class="N" cx="650" cy="1750"/>
<circle r="5" class="N" cx="1250" cy="2050"/>
<circle r="5" class="N" cx="1850" cy="750"/>
<circle r="12" class="N" cx="250" cy="1550"/>
<circle r="11" class="N" cx="1150" cy="50"/>
<circle r="14" class="N" cx="450" cy="1450"/>
<circle r="11" class="N" cx="1950" cy="150"/>
<line y2="1550" x1="450" class="E sw10" x2="250" y1="1450"/>
<line y2="1650" x1="250" class="E sw5" x2="350" y1="1550"/>
<line y2="50" x1="1450" class="E sw4" x2="1350" y1="250"/>
<line y2="50" x1="1150" class="E sw5" x2="1350" y1="50"/>
<line y2="2150" x1="1250" class="E sw8" x2="1350" y1="2050"/>
<line y2="350" x1="1450" class="E sw10" x2="1350" y1="250"/>
<line y2="2050" x1="1350" class="E sw8" x2="1450" y1="2150"/>
<line y2="1850" x1="1850" class="E sw4" x2="1950" y1="1850"/>
<line x1="1950" x2="1950" y1="1950" y2="1850" style="stroke-width:11;" class="E"/>
<line y2="350" x1="1350" class="E sw5" x2="1450" y1="350"/>
<circle r="18" class="s5 sw2 f14" cx="2157" cy="198"/>
<rect x="2130" width="54" y="162" height="18" class="s14 sw2 f7"/>
<text x="2150" y="201" class="f4">2</text>
<polygon class=" s5 sw2 f14" points="1348,480 1366,480 1375,489 1375,507 1366,516 1348,516 1339,507 1339,489"/>
<rect x="1330" width="54" y="462" height="18" class="s14 sw2 f7"/>
<text x="1350" y="501" class="f4">8</text>
<circle r="18" class="s5 sw2 f14" cx="457" cy="1798"/>
<rect x="430" width="54" y="1762" height="18" class="s14 sw2 f7"/>
<text x="450" y="1801" class="f4">4</text>
<polygon class=" s5 sw2 f13" points="948,1380 966,1380 975,1389 975,1407 966,1416 948,1416 939,1407 939,1389"/>
<rect x="930" width="54" y="1362" height="18" class="s13 sw2 f7"/>
<text x="950" y="1401" class="f4">9</text>
<polygon class=" s5 sw2 f13" points="987,1353 1005,1371 987,1389 969,1371"/>
<rect x="960" width="54" y="1335" height="18" class="s13 sw2 f7"/>
<text x="980" y="1374" class="f4">16</text>
<polygon class=" s5 sw2 f14" points="748,680 766,680 775,689 775,707 766,716 748,716 739,707 739,689"/>
<rect x="730" width="54" y="662" height="18" class="s14 sw2 f7"/>
<text x="750" y="701" class="f4">9</text>
<polygon class=" s5 sw2 f14" points="1330,1280 1384,1280 1357,1316"/>
<rect x="1330" width="54" y="1262" height="18" class="s14 sw2 f7"/>
<text x="1350" y="1301" class="f4">23</text>
<polygon class=" s5 sw2 f14" points="948,380 966,380 975,389 975,407 966,416 948,416 939,407 939,389"/>
<rect x="930" width="54" y="362" height="18" class="s14 sw2 f7"/>
<text x="950" y="401" class="f4">11</text>
<rect x="339" width="36" y="1680" height="36" class="s5 sw2 f13"/>
<rect x="330" width="54" y="1662" height="18" class="s13 sw2 f7"/>
<text x="350" y="1701" class="f4">17</text>
<polygon class=" s5 sw2 f14" points="730,880 784,880 757,916"/>
<rect x="730" width="54" y="862" height="18" class="s14 sw2 f7"/>
<text x="750" y="901" class="f4">28</text>
<rect x="769" width="36" y="853" height="36" class="s5 sw2 f13"/>
<rect x="760" width="54" y="835" height="18" class="s13 sw2 f7"/>
<text x="780" y="874" class="f4">19</text>
<rect x="1439" width="36" y="2080" height="36" class="s5 sw2 f13"/>
<rect x="1430" width="54" y="2062" height="18" class="s13 sw2 f7"/>
<text x="1450" y="2101" class="f4">22</text>
<polygon class=" s5 sw2 f13" points="30,980 84,980 57,1016"/>
<rect x="30" width="54" y="962" height="18" class="s13 sw2 f7"/>
<text x="50" y="1001" class="f4">25</text>
<circle r="18" class="s5 sw2 f14" cx="2057" cy="1498"/>
<rect x="2030" width="54" y="1462" height="18" class="s14 sw2 f7"/>
<text x="2050" y="1501" class="f4">6</text>
<polygon class=" s5 sw2 f14" points="2087,1453 2105,1471 2087,1489 2069,1471"/>
<rect x="2060" width="54" y="1435" height="18" class="s14 sw2 f7"/>
<text x="2080" y="1474" class="f4">15</text>
<rect x="339" width="36" y="380" height="36" class="s5 sw2 f14"/>
<rect x="330" width="54" y="362" height="18" class="s14 sw2 f7"/>
<text x="350" y="401" class="f4">18</text>
<polygon class=" s5 sw2 f13" points="1848,1880 1866,1880 1875,1889 1875,1907 1866,1916 1848,1916 1839,1907 1839,1889"/>
<rect x="1830" width="54" y="1862" height="18" class="s13 sw2 f7"/>
<text x="1850" y="1901" class="f4">12</text>
<polygon class=" s5 sw2 f13" points="830,280 884,280 857,316"/>
<rect x="830" width="54" y="262" height="18" class="s13 sw2 f7"/>
<text x="850" y="301" class="f4">23</text>
<polygon class=" s5 sw2 f14" points="1930,80 1984,80 1957,116"/>
<rect x="1930" width="54" y="62" height="18" class="s14 sw2 f7"/>
<text x="1950" y="101" class="f4">24</text>
<polygon class=" s5 sw2 f13" points="1978,53 1996,53 2005,62 2005,80 1996,89 1978,89 1969,80 1969,62"/>
<rect x="1960" width="54" y="35" height="18" class="s13 sw2 f7"/>
<text x="1980" y="74" class="f4">7</text>
<rect x="1339" width="36" y="1080" height="36" class="s5 sw2 f14"/>
<rect x="1330" width="54" y="1062" height="18" class="s14 sw2 f7"/>
<text x="1350" y="1101" class="f4">19</text>
<polygon class=" s5 sw2 f13" points="1857,2180 1875,2198 1857,2216 1839,2198"/>
<rect x="1830" width="54" y="2162" height="18" class="s13 sw2 f7"/>
<text x="1850" y="2201" class="f4">14</text>
<rect x="1139" width="36" y="480" height="36" class="s5 sw2 f14"/>
<rect x="1130" width="54" y="462" height="18" class="s14 sw2 f7"/>
<text x="1150" y="501" class="f4">17</text>
<rect x="1439" width="36" y="380" height="36" class="s5 sw2 f13"/>
<rect x="1430" width="54" y="362" height="18" class="s13 sw2 f7"/>
<text x="1450" y="401" class="f4">18</text>
<polygon class=" s5 sw2 f14" points="730,1780 784,1780 757,1816"/>
<rect x="730" width="54" y="1762" height="18" class="s14 sw2 f7"/>
<text x="750" y="1801" class="f4">25</text>
<polygon class=" s5 sw2 f13" points="778,1753 796,1753 805,1762 805,1780 796,1789 778,1789 769,1780 769,1762"/>
<rect x="760" width="54" y="1735" height="18" class="s13 sw2 f7"/>
<text x="780" y="1774" class="f4">10</text>
<rect x="739" width="36" y="580" height="36" class="s5 sw2 f14"/>
<rect x="730" width="54" y="562" height="18" class="s14 sw2 f7"/>
<text x="750" y="601" class="f4">21</text>
<rect x="769" width="36" y="553" height="36" class="s5 sw2 f13"/>
<rect x="760" width="54" y="535" height="18" class="s13 sw2 f7"/>
<text x="780" y="574" class="f4">20</text>
<rect x="1239" width="36" y="2180" height="36" class="s5 sw2 f14"/>
<rect x="1230" width="54" y="2162" height="18" class="s14 sw2 f7"/>
<text x="1250" y="2201" class="f4">22</text>
<polygon class=" s5 sw2 f13" points="730,2080 784,2080 757,2116"/>
<rect x="730" width="54" y="2062" height="18" class="s13 sw2 f7"/>
<text x="750" y="2101" class="f4">27</text>
<rect x="539" width="36" y="880" height="36" class="s5 sw2 f13"/>
<rect x="530" width="54" y="862" height="18" class="s13 sw2 f7"/>
<text x="550" y="901" class="f4">21</text>
<rect x="339" width="36" y="1980" height="36" class="s5 sw2 f14"/>
<rect x="330" width="54" y="1962" height="18" class="s14 sw2 f7"/>
<text x="350" y="2001" class="f4">20</text>
<polygon class=" s5 sw2 f13" points="1948,1280 1966,1280 1975,1289 1975,1307 1966,1316 1948,1316 1939,1307 1939,1289"/>
<rect x="1930" width="54" y="1262" height="18" class="s13 sw2 f7"/>
<text x="1950" y="1301" class="f4">8</text>
<circle r="18" class="s5 sw2 f14" cx="557" cy="1398"/>
<rect x="530" width="54" y="1362" height="18" class="s14 sw2 f7"/>
<text x="550" y="1401" class="f4">3</text>
<polygon class=" s5 sw2 f13" points="2048,80 2066,80 2075,89 2075,107 2066,116 2048,116 2039,107 2039,89"/>
<rect x="2030" width="54" y="62" height="18" class="s13 sw2 f7"/>
<text x="2050" y="101" class="f4">11</text>
<polygon class=" s5 sw2 f14" points="1148,980 1166,980 1175,989 1175,1007 1166,1016 1148,1016 1139,1007 1139,989"/>
<rect x="1130" width="54" y="962" height="18" class="s14 sw2 f7"/>
<text x="1150" y="1001" class="f4">10</text>
<polygon class=" s5 sw2 f14" points="1160,953 1214,953 1187,989"/>
<rect x="1160" width="54" y="935" height="18" class="s14 sw2 f7"/>
<text x="1180" y="974" class="f4">27</text>
<circle r="18" class="s5 sw2 f13" cx="1180" cy="933"/>
<rect x="1153" width="54" y="897" height="18" class="s13 sw2 f7"/>
<text x="1173" y="936" class="f4">5</text>
<polygon class=" s5 sw2 f14" points="730,780 784,780 757,816"/>
<rect x="730" width="54" y="762" height="18" class="s14 sw2 f7"/>
<text x="750" y="801" class="f4">26</text>
<circle r="18" class="s5 sw2 f13" cx="787" cy="771"/>
<rect x="760" width="54" y="735" height="18" class="s13 sw2 f7"/>
<text x="780" y="774" class="f4">6</text>
<polygon class=" s5 sw2 f14" points="1657,780 1675,798 1657,816 1639,798"/>
<rect x="1630" width="54" y="762" height="18" class="s14 sw2 f7"/>
<text x="1650" y="801" class="f4">14</text>
<polygon class=" s5 sw2 f13" points="1430,280 1484,280 1457,316"/>
<rect x="1430" width="54" y="262" height="18" class="s13 sw2 f7"/>
<text x="1450" y="301" class="f4">26</text>
<circle r="18" class="s5 sw2 f13" cx="1957" cy="1998"/>
<rect x="1930" width="54" y="1962" height="18" class="s13 sw2 f7"/>
<text x="1950" y="2001" class="f4">2</text>
<circle r="18" class="s5 sw2 f13" cx="657" cy="1798"/>
<rect x="630" width="54" y="1762" height="18" class="s13 sw2 f7"/>
<text x="650" y="1801" class="f4">3</text>
<polygon class=" s5 sw2 f13" points="1257,2080 1275,2098 1257,2116 1239,2098"/>
<rect x="1230" width="54" y="2062" height="18" class="s13 sw2 f7"/>
<text x="1250" y="2101" class="f4">13</text>
<polygon class=" s5 sw2 f14" points="2048,1380 2066,1380 2075,1389 2075,1407 2066,1416 2048,1416 2039,1407 2039,1389"/>
<rect x="2030" width="54" y="1362" height="18" class="s14 sw2 f7"/>
<text x="2050" y="1401" class="f4">7</text>
<circle r="18" class="s5 sw2 f13" cx="1857" cy="798"/>
<rect x="1830" width="54" y="762" height="18" class="s13 sw2 f7"/>
<text x="1850" y="801" class="f4">4</text>
<polygon class=" s5 sw2 f14" points="1057,380 1075,398 1057,416 1039,398"/>
<rect x="1030" width="54" y="362" height="18" class="s14 sw2 f7"/>
<text x="1050" y="401" class="f4">16</text>
<circle r="18" class="s5 sw2 f14" cx="457" cy="498"/>
<rect x="430" width="54" y="462" height="18" class="s14 sw2 f7"/>
<text x="450" y="501" class="f4">5</text>
<circle r="18" class="s5 sw2 f13" cx="1157" cy="98"/>
<rect x="1130" width="54" y="62" height="18" class="s13 sw2 f7"/>
<text x="1150" y="101" class="f4">1</text>
<polygon class=" s5 sw2 f13" points="430,1480 484,1480 457,1516"/>
<rect x="430" width="54" y="1462" height="18" class="s13 sw2 f7"/>
<text x="450" y="1501" class="f4">28</text>
<polygon class=" s5 sw2 f14" points="2157,1780 2175,1798 2157,1816 2139,1798"/>
<rect x="2130" width="54" y="1762" height="18" class="s14 sw2 f7"/>
<text x="2150" y="1801" class="f4">13</text>
<circle r="18" class="s5 sw2 f14" cx="657" cy="2098"/>
<rect x="630" width="54" y="2062" height="18" class="s14 sw2 f7"/>
<text x="650" y="2101" class="f4">1</text>
<polygon class=" s5 sw2 f14" points="48,1780 66,1780 75,1789 75,1807 66,1816 48,1816 39,1807 39,1789"/>
<rect x="30" width="54" y="1762" height="18" class="s14 sw2 f7"/>
<text x="50" y="1801" class="f4">12</text>
<polygon class=" s5 sw2 f13" points="87,1753 105,1771 87,1789 69,1771"/>
<rect x="60" width="54" y="1735" height="18" class="s13 sw2 f7"/>
<text x="80" y="1774" class="f4">15</text>
<polygon class=" s5 sw2 f13" points="1930,180 1984,180 1957,216"/>
<rect x="1930" width="54" y="162" height="18" class="s13 sw2 f7"/>
<text x="1950" y="201" class="f4">24</text>
<g id="teamTable" transform="translate(-100, 150)">
<text x="2350" y="75" class="TxtNrml">Step: 412</text>
<text x="2350" y="180" class="Tb" text-anchor="start">
<tspan fill="rgba(0,158,115,1.0)" x="2350">Nabf</tspan>
<tspan x="2750">11124</tspan>
<tspan x="2950">27</tspan>
<tspan x="3150">25</tspan>
<tspan x="3350">2</tspan>
</text>
<text x="2350" y="220" class="Tb" text-anchor="start">
<tspan fill="rgba(0,114,178,1.0)" x="2350">B</tspan>
<tspan x="2750">5768</tspan>
<tspan x="2950">14</tspan>
<tspan x="3150">14</tspan>
<tspan x="3350">0</tspan>
</text>
</g>
<g id="agentTable" transform="translate(-100, 150)">
<text x="2350" y="316" class="Tb2" text-anchor="start">
<tspan x="2535">17/35</tspan>
<tspan x="2650">4/4</tspan>
<tspan x="2765">0</tspan>
<tspan x="2880">2</tspan>
<tspan fill="red" x="2995">noAction :failed</tspan>
</text>
<text x="2350" y="346" class="Tb2" text-anchor="start">
<tspan x="2535">35/35</tspan>
<tspan x="2650">4/4</tspan>
<tspan x="2765">0</tspan>
<tspan x="2880">2</tspan>
<tspan fill="red" x="2995">noAction :failed</tspan>
</text>
<text x="2350" y="376" class="Tb2" text-anchor="start">
<tspan x="2535">35/35</tspan>
<tspan x="2650">4/4</tspan>
<tspan x="2765">0</tspan>
<tspan x="2880">2</tspan>
<tspan fill="red" x="2995">noAction :failed</tspan>
</text>
<text x="2350" y="406" class="Tb2" text-anchor="start">
<tspan x="2535">35/35</tspan>
<tspan x="2650">4/4</tspan>
<tspan x="2765">0</tspan>
<tspan x="2880">2</tspan>
<tspan fill="red" x="2995">noAction :failed</tspan>
</text>
<text x="2350" y="436" class="Tb2" text-anchor="start">
<tspan x="2535">35/35</tspan>
<tspan x="2650">4/4</tspan>
<tspan x="2765">0</tspan>
<tspan x="2880">2</tspan>
<tspan fill="red" x="2995">noAction :failed</tspan>
</text>
<text x="2350" y="466" class="Tb2" text-anchor="start">
<tspan x="2535">35/35</tspan>
<tspan x="2650">4/4</tspan>
<tspan x="2765">0</tspan>
<tspan x="2880">2</tspan>
<tspan fill="red" x="2995">noAction :failed</tspan>
</text>
<text x="2350" y="496" class="Tb2" text-anchor="start">
<tspan x="2535">25/25</tspan>
<tspan x="2650">6/6</tspan>
<tspan x="2765">0</tspan>
<tspan x="2880">1</tspan>
<tspan fill="red" x="2995">noAction :failed</tspan>
</text>
<text x="2350" y="526" class="Tb2" text-anchor="start">
<tspan x="2535">25/25</tspan>
<tspan x="2650">6/6</tspan>
<tspan x="2765">0</tspan>
<tspan x="2880">1</tspan>
<tspan fill="red" x="2995">noAction :failed</tspan>
</text>
<text x="2350" y="556" class="Tb2" text-anchor="start">
<tspan x="2535">25/25</tspan>
<tspan x="2650">6/6</tspan>
<tspan x="2765">0</tspan>
<tspan x="2880">1</tspan>
<tspan fill="red" x="2995">noAction :failed</tspan>
</text>
<text x="2350" y="586" class="Tb2" text-anchor="start">
<tspan x="2535">25/25</tspan>
<tspan x="2650">6/6</tspan>
<tspan x="2765">0</tspan>
<tspan x="2880">1</tspan>
<tspan fill="red" x="2995">noAction :failed</tspan>
</text>
<text x="2350" y="616" class="Tb2" text-anchor="start">
<tspan x="2535">25/25</tspan>
<tspan x="2650">6/6</tspan>
<tspan x="2765">0</tspan>
<tspan x="2880">1</tspan>
<tspan fill="red" x="2995">noAction :failed</tspan>
</text>
<text x="2350" y="646" class="Tb2" text-anchor="start">
<tspan x="2535">25/25</tspan>
<tspan x="2650">6/6</tspan>
<tspan x="2765">0</tspan>
<tspan x="2880">1</tspan>
<tspan fill="red" x="2995">noAction :failed</tspan>
</text>
<text x="2350" y="676" class="Tb2" text-anchor="start">
<tspan x="2535">20/20</tspan>
<tspan x="2650">3/3</tspan>
<tspan x="2765">3</tspan>
<tspan x="2880">1</tspan>
<tspan fill="red" x="2995">noAction :failed</tspan>
</text>
<text x="2350" y="706" class="Tb2" text-anchor="start">
<tspan x="2535">20/20</tspan>
<tspan x="2650">3/3</tspan>
<tspan x="2765">3</tspan>
<tspan x="2880">1</tspan>
<tspan fill="red" x="2995">noAction :failed</tspan>
</text>
<text x="2350" y="736" class="Tb2" text-anchor="start">
<tspan x="2535">20/20</tspan>
<tspan x="2650">3/3</tspan>
<tspan x="2765">3</tspan>
<tspan x="2880">1</tspan>
<tspan fill="red" x="2995">noAction :failed</tspan>
</text>
<text x="2350" y="766" class="Tb2" text-anchor="start">
<tspan x="2535">20/20</tspan>
<tspan x="2650">3/3</tspan>
<tspan x="2765">3</tspan>
<tspan x="2880">1</tspan>
<tspan fill="red" x="2995">noAction :failed</tspan>
</text>
<text x="2350" y="796" class="Tb2" text-anchor="start">
<tspan x="2535">30/30</tspan>
<tspan x="2650">1/1</tspan>
<tspan x="2765">0</tspan>
<tspan x="2880">3</tspan>
<tspan fill="red" x="2995">noAction :failed</tspan>
</text>
<text x="2350" y="826" class="Tb2" text-anchor="start">
<tspan x="2535">30/30</tspan>
<tspan x="2650">1/1</tspan>
<tspan x="2765">0</tspan>
<tspan x="2880">3</tspan>
<tspan fill="red" x="2995">noAction :failed</tspan>
</text>
<text x="2350" y="856" class="Tb2" text-anchor="start">
<tspan x="2535">30/30</tspan>
<tspan x="2650">1/1</tspan>
<tspan x="2765">0</tspan>
<tspan x="2880">3</tspan>
<tspan fill="red" x="2995">noAction :failed</tspan>
</text>
<text x="2350" y="886" class="Tb2" text-anchor="start">
<tspan x="2535">30/30</tspan>
<tspan x="2650">1/1</tspan>
<tspan x="2765">0</tspan>
<tspan x="2880">3</tspan>
<tspan fill="red" x="2995">noAction :failed</tspan>
</text>
<text x="2350" y="916" class="Tb2" text-anchor="start">
<tspan x="2535">30/30</tspan>
<tspan x="2650">1/1</tspan>
<tspan x="2765">0</tspan>
<tspan x="2880">3</tspan>
<tspan fill="red" x="2995">noAction :failed</tspan>
</text>
<text x="2350" y="946" class="Tb2" text-anchor="start">
<tspan x="2535">30/30</tspan>
<tspan x="2650">1/1</tspan>
<tspan x="2765">0</tspan>
<tspan x="2880">3</tspan>
<tspan fill="red" x="2995">noAction :failed</tspan>
</text>
<text x="2350" y="976" class="Tb2" text-anchor="start">
<tspan x="2535">25/25</tspan>
<tspan x="2650">6/6</tspan>
<tspan x="2765">0</tspan>
<tspan x="2880">1</tspan>
<tspan fill="red" x="2995">noAction :failed</tspan>
</text>
<text x="2350" y="1006" class="Tb2" text-anchor="start">
<tspan x="2535">25/25</tspan>
<tspan x="2650">6/6</tspan>
<tspan x="2765">0</tspan>
<tspan x="2880">1</tspan>
<tspan fill="red" x="2995">noAction :failed</tspan>
</text>
<text x="2350" y="1036" class="Tb2" text-anchor="start">
<tspan x="2535">25/25</tspan>
<tspan x="2650">6/6</tspan>
<tspan x="2765">0</tspan>
<tspan x="2880">1</tspan>
<tspan fill="red" x="2995">noAction :failed</tspan>
</text>
<text x="2350" y="1066" class="Tb2" text-anchor="start">
<tspan x="2535">25/25</tspan>
<tspan x="2650">6/6</tspan>
<tspan x="2765">0</tspan>
<tspan x="2880">1</tspan>
<tspan fill="red" x="2995">noAction :failed</tspan>
</text>
<text x="2350" y="1096" class="Tb2" text-anchor="start">
<tspan x="2535">25/25</tspan>
<tspan x="2650">6/6</tspan>
<tspan x="2765">0</tspan>
<tspan x="2880">1</tspan>
<tspan fill="red" x="2995">noAction :failed</tspan>
</text>
<text x="2350" y="1126" class="Tb2" text-anchor="start">
<tspan x="2535">25/25</tspan>
<tspan x="2650">6/6</tspan>
<tspan x="2765">0</tspan>
<tspan x="2880">1</tspan>
<tspan fill="red" x="2995">noAction :failed</tspan>
</text>
<text x="2350" y="1156" class="Tb2" text-anchor="start">
<tspan x="2535">35/35</tspan>
<tspan x="2650">4/4</tspan>
<tspan x="2765">0</tspan>
<tspan x="2880">2</tspan>
<tspan fill="red" x="2995">noAction :failed</tspan>
</text>
<text x="2350" y="1186" class="Tb2" text-anchor="start">
<tspan x="2535">35/35</tspan>
<tspan x="2650">4/4</tspan>
<tspan x="2765">0</tspan>
<tspan x="2880">2</tspan>
<tspan fill="red" x="2995">noAction :failed</tspan>
</text>
<text x="2350" y="1216" class="Tb2" text-anchor="start">
<tspan x="2535">35/35</tspan>
<tspan x="2650">4/4</tspan>
<tspan x="2765">0</tspan>
<tspan x="2880">2</tspan>
<tspan fill="red" x="2995">noAction :failed</tspan>
</text>
<text x="2350" y="1246" class="Tb2" text-anchor="start">
<tspan x="2535">35/35</tspan>
<tspan x="2650">4/4</tspan>
<tspan x="2765">0</tspan>
<tspan x="2880">2</tspan>
<tspan fill="red" x="2995">noAction :failed</tspan>
</text>
<text x="2350" y="1276" class="Tb2" text-anchor="start">
<tspan x="2535">35/35</tspan>
<tspan x="2650">4/4</tspan>
<tspan x="2765">0</tspan>
<tspan x="2880">2</tspan>
<tspan fill="red" x="2995">noAction :failed</tspan>
</text>
<text x="2350" y="1306" class="Tb2" text-anchor="start">
<tspan x="2535">35/35</tspan>
<tspan x="2650">4/4</tspan>
<tspan x="2765">0</tspan>
<tspan x="2880">2</tspan>
<tspan fill="red" x="2995">noAction :failed</tspan>
</text>
<text x="2350" y="1336" class="Tb2" text-anchor="start">
<tspan x="2535">25/25</tspan>
<tspan x="2650">6/6</tspan>
<tspan x="2765">0</tspan>
<tspan x="2880">1</tspan>
<tspan fill="red" x="2995">noAction :failed</tspan>
</text>
<text x="2350" y="1366" class="Tb2" text-anchor="start">
<tspan x="2535">25/25</tspan>
<tspan x="2650">6/6</tspan>
<tspan x="2765">0</tspan>
<tspan x="2880">1</tspan>
<tspan fill="red" x="2995">noAction :failed</tspan>
</text>
<text x="2350" y="1396" class="Tb2" text-anchor="start">
<tspan x="2535">25/25</tspan>
<tspan x="2650">6/6</tspan>
<tspan x="2765">0</tspan>
<tspan x="2880">1</tspan>
<tspan fill="red" x="2995">noAction :failed</tspan>
</text>
<text x="2350" y="1426" class="Tb2" text-anchor="start">
<tspan x="2535">25/25</tspan>
<tspan x="2650">6/6</tspan>
<tspan x="2765">0</tspan>
<tspan x="2880">1</tspan>
<tspan fill="red" x="2995">noAction :failed</tspan>
</text>
<text x="2350" y="1456" class="Tb2" text-anchor="start">
<tspan x="2535">25/25</tspan>
<tspan x="2650">6/6</tspan>
<tspan x="2765">0</tspan>
<tspan x="2880">1</tspan>
<tspan fill="red" x="2995">noAction :failed</tspan>
</text>
<text x="2350" y="1486" class="Tb2" text-anchor="start">
<tspan x="2535">25/25</tspan>
<tspan x="2650">6/6</tspan>
<tspan x="2765">0</tspan>
<tspan x="2880">1</tspan>
<tspan fill="red" x="2995">noAction :failed</tspan>
</text>
<text x="2350" y="1516" class="Tb2" text-anchor="start">
<tspan x="2535">20/20</tspan>
<tspan x="2650">3/3</tspan>
<tspan x="2765">3</tspan>
<tspan x="2880">1</tspan>
<tspan fill="red" x="2995">noAction :failed</tspan>
</text>
<text x="2350" y="1546" class="Tb2" text-anchor="start">
<tspan x="2535">20/20</tspan>
<tspan x="2650">3/3</tspan>
<tspan x="2765">3</tspan>
<tspan x="2880">1</tspan>
<tspan fill="red" x="2995">noAction :failed</tspan>
</text>
<text x="2350" y="1576" class="Tb2" text-anchor="start">
<tspan x="2535">20/20</tspan>
<tspan x="2650">3/3</tspan>
<tspan x="2765">3</tspan>
<tspan x="2880">1</tspan>
<tspan fill="red" x="2995">noAction :failed</tspan>
</text>
<text x="2350" y="1606" class="Tb2" text-anchor="start">
<tspan x="2535">20/20</tspan>
<tspan x="2650">3/3</tspan>
<tspan x="2765">3</tspan>
<tspan x="2880">1</tspan>
<tspan fill="red" x="2995">noAction :failed</tspan>
</text>
<text x="2350" y="1636" class="Tb2" text-anchor="start">
<tspan x="2535">30/30</tspan>
<tspan x="2650">1/1</tspan>
<tspan x="2765">0</tspan>
<tspan x="2880">3</tspan>
<tspan fill="red" x="2995">noAction :failed</tspan>
</text>
<text x="2350" y="1666" class="Tb2" text-anchor="start">
<tspan x="2535">30/30</tspan>
<tspan x="2650">1/1</tspan>
<tspan x="2765">0</tspan>
<tspan x="2880">3</tspan>
<tspan fill="red" x="2995">noAction :failed</tspan>
</text>
<text x="2350" y="1696" class="Tb2" text-anchor="start">
<tspan x="2535">30/30</tspan>
<tspan x="2650">1/1</tspan>
<tspan x="2765">0</tspan>
<tspan x="2880">3</tspan>
<tspan fill="red" x="2995">noAction :failed</tspan>
</text>
<text x="2350" y="1726" class="Tb2" text-anchor="start">
<tspan x="2535">30/30</tspan>
<tspan x="2650">1/1</tspan>
<tspan x="2765">0</tspan>
<tspan x="2880">3</tspan>
<tspan fill="red" x="2995">noAction :failed</tspan>
</text>
<text x="2350" y="1756" class="Tb2" text-anchor="start">
<tspan x="2535">30/30</tspan>
<tspan x="2650">1/1</tspan>
<tspan x="2765">0</tspan>
<tspan x="2880">3</tspan>
<tspan fill="red" x="2995">noAction :failed</tspan>
</text>
<text x="2350" y="1786" class="Tb2" text-anchor="start">
<tspan x="2535">30/30</tspan>
<tspan x="2650">1/1</tspan>
<tspan x="2765">0</tspan>
<tspan x="2880">3</tspan>
<tspan fill="red" x="2995">noAction :failed</tspan>
</text>
<text x="2350" y="1816" class="Tb2" text-anchor="start">
<tspan x="2535">25/25</tspan>
<tspan x="2650">6/6</tspan>
<tspan x="2765">0</tspan>
<tspan x="2880">1</tspan>
<tspan fill="red" x="2995">noAction :failed</tspan>
</text>
<text x="2350" y="1846" class="Tb2" text-anchor="start">
<tspan x="2535">25/25</tspan>
<tspan x="2650">6/6</tspan>
<tspan x="2765">0</tspan>
<tspan x="2880">1</tspan>
<tspan fill="red" x="2995">noAction :failed</tspan>
</text>
<text x="2350" y="1876" class="Tb2" text-anchor="start">
<tspan x="2535">25/25</tspan>
<tspan x="2650">6/6</tspan>
<tspan x="2765">0</tspan>
<tspan x="2880">1</tspan>
<tspan fill="red" x="2995">noAction :failed</tspan>
</text>
<text x="2350" y="1906" class="Tb2" text-anchor="start">
<tspan x="2535">25/25</tspan>
<tspan x="2650">6/6</tspan>
<tspan x="2765">0</tspan>
<tspan x="2880">1</tspan>
<tspan fill="red" x="2995">noAction :failed</tspan>
</text>
<text x="2350" y="1936" class="Tb2" text-anchor="start">
<tspan x="2535">25/25</tspan>
<tspan x="2650">6/6</tspan>
<tspan x="2765">0</tspan>
<tspan x="2880">1</tspan>
<tspan fill="red" x="2995">noAction :failed</tspan>
</text>
<text x="2350" y="1966" class="Tb2" text-anchor="start">
<tspan x="2535">25/25</tspan>
<tspan x="2650">6/6</tspan>
<tspan x="2765">0</tspan>
<tspan x="2880">1</tspan>
<tspan fill="red" x="2995">noAction :failed</tspan>
</text>
</g>
<line y2="442" x1="3290" class="s5 sw1" x2="3290" y1="1996"/>
<g id="achievementPart" transform="translate(-100, 150)">
<text x="3400" y="301" class="TxtAch">
<tspan x="3400">Achievements</tspan>
<tspan fill="rgba(0,158,115,1.0)" x="3400" y="331">Nabf</tspan>
<tspan x="3400" y="351">area10</tspan>
<tspan fill="rgba(0,114,178,1.0)" x="3400" y="376">B</tspan>
</text>
</g>
</g>
</svg>
