<?xml version="1.0" encoding="UTF-8"?><?xml-stylesheet type="text/css" href="style.css"?><svg xmlns="http://www.w3.org/2000/svg" xmlns:xlink="http://www.w3.org/1999/xlink" contentScriptType="text/ecmascript" zoomAndPan="magnify" contentStyleType="text/css" preserveAspectRatio="xMidYMid meet" version="1.0">
<g id="scaleSvg" transform="scale(0.25)">
<polygon class="T1" points="750,1750 1050,1850 750,1950 "/>
<polygon class="T1" points="750,1750 750,1950 650,1850 "/>
<polygon class="T1" points="1950,550 1850,350 2050,450 "/>
<polygon class="T1" points="350,650 550,450 650,650 550,750 "/>
<polygon class="T1" points="1050,1850 750,1750 1050,1850 750,1950 750,1750 "/>
<polygon class="T1" points="750,1950 1050,1850 750,1950 750,1750 1050,1850 "/>
<polygon class="T1" points="650,2050 650,1850 750,1750 750,1950 650,1850 "/>
<polygon class="T1" points="750,1750 650,1850 750,1750 1050,1850 750,1950 "/>
<polygon class="T1" points="650,1850 750,1950 750,1750 1050,1850 750,1950 "/>
<polygon class="T1" points="1850,350 1950,550 1850,350 2050,450 1950,550 "/>
<polygon class="T1" points="2050,450 1850,350 2050,450 1950,550 1850,350 "/>
<polygon class="T1" points="1950,550 2050,450 1950,550 1850,350 2050,450 "/>
<polygon class="T1" points="1050,1850 1150,1850 1050,1850 750,1950 750,1750 "/>
<polygon class="T1" points="550,450 350,650 550,450 650,650 550,750 350,650 "/>
<polygon class="T1" points="650,650 550,450 650,650 550,750 350,650 550,450 "/>
<polygon class="T1" points="350,650 550,750 350,650 550,450 650,650 550,750 "/>
<polygon class="T1" points="550,750 650,650 550,750 350,650 550,450 650,650 "/>
<circle r="25" class="T1n" cx="750" cy="1750"/>
<circle r="25" class="T1n" cx="1250" cy="1450"/>
<circle r="25" class="T1n" cx="950" cy="650"/>
<circle r="25" class="T1n" cx="750" cy="850"/>
<circle r="25" class="T1n" cx="1450" cy="750"/>
<circle r="25" class="T1n" cx="1950" cy="950"/>
<circle r="25" class="T1n" cx="1350" cy="950"/>
<circle r="25" class="T1n" cx="650" cy="1850"/>
<circle r="25" class="T1n" cx="2050" cy="1050"/>
<circle r="25" class="T1n" cx="650" cy="650"/>
<circle r="25" class="T1n" cx="950" cy="1250"/>
<circle r="25" class="T1n" cx="650" cy="2050"/>
<circle r="25" class="T1n" cx="2050" cy="550"/>
<circle r="25" class="T1n" cx="1550" cy="650"/>
<circle r="25" class="T1n" cx="1750" cy="1450"/>
<circle r="25" class="T1n" cx="350" cy="650"/>
<circle r="25" class="T1n" cx="1850" cy="350"/>
<circle r="25" class="T1n" cx="1050" cy="1850"/>
<circle r="25" class="T1n" cx="1450" cy="450"/>
<circle r="25" class="T1n" cx="350" cy="2150"/>
<circle r="25" class="T1n" cx="2050" cy="150"/>
<circle r="25" class="T1n" cx="950" cy="1350"/>
<circle r="25" class="T1n" cx="950" cy="950"/>
<circle r="25" class="T1n" cx="1950" cy="550"/>
<circle r="25" class="T1n" cx="2050" cy="450"/>
<circle r="25" class="T1n" cx="550" cy="2150"/>
<circle r="25" class="T1n" cx="550" cy="450"/>
<circle r="25" class="T1n" cx="1150" cy="1850"/>
<circle r="25" class="T1n" cx="450" cy="2050"/>
<circle r="25" class="T1n" cx="850" cy="250"/>
<circle r="25" class="T1n" cx="550" cy="750"/>
<circle r="25" class="T1n" cx="2150" cy="950"/>
<circle r="25" class="T1n" cx="750" cy="1950"/>
<circle r="25" class="T1n" cx="1450" cy="550"/>
<line y2="1850" x1="750" class="T1e" x2="1050" y1="1750"/>
<line y2="1950" x1="1050" class="T1e" x2="750" y1="1850"/>
<line y2="950" x1="950" class="T1e" x2="950" y1="1250"/>
<line y2="450" x1="350" class="T1e" x2="550" y1="650"/>
<line y2="450" x1="650" class="T1e" x2="550" y1="650"/>
<line y2="750" x1="350" class="T1e" x2="550" y1="650"/>
<line y2="1950" x1="750" class="T1e" x2="750" y1="1750"/>
<line y2="1850" x1="650" class="T1e" x2="650" y1="2050"/>
<line y2="750" x1="650" class="T1e" x2="550" y1="650"/>
<line y2="1850" x1="750" class="T1e" x2="650" y1="1750"/>
<line y2="2150" x1="450" class="T1e" x2="550" y1="2050"/>
<line y2="2150" x1="450" class="T1e" x2="350" y1="2050"/>
<line y2="1850" x1="750" class="T1e" x2="650" y1="1950"/>
<line y2="1350" x1="950" class="T1e" x2="950" y1="1250"/>
<line y2="950" x1="2050" class="T1e" x2="2150" y1="550"/>
<line y2="550" x1="1850" class="T1e" x2="1950" y1="350"/>
<line y2="450" x1="1850" class="T1e" x2="2050" y1="350"/>
<line y2="750" x1="1350" class="T1e" x2="1450" y1="950"/>
<line y2="950" x1="1950" class="T1e" x2="2150" y1="950"/>
<line y2="750" x1="1550" class="T1e" x2="1450" y1="650"/>
<line y2="550" x1="1550" class="T1e" x2="1450" y1="650"/>
<line y2="950" x1="2050" class="T1e" x2="2150" y1="1050"/>
<line y2="450" x1="1950" class="T1e" x2="2050" y1="550"/>
<line y2="450" x1="1450" class="T1e" x2="1450" y1="550"/>
<line y2="1850" x1="1050" class="T1e" x2="1150" y1="1850"/>
<circle r="5" class="N" cx="750" cy="1750"/>
<circle r="6" class="N" cx="1250" cy="1450"/>
<circle r="9" class="N" cx="950" cy="650"/>
<circle r="18" class="N" cx="750" cy="850"/>
<circle r="5" class="N" cx="1450" cy="750"/>
<circle r="5" class="N" cx="1950" cy="950"/>
<circle r="6" class="N" cx="1350" cy="950"/>
<circle r="5" class="N" cx="650" cy="1850"/>
<circle r="5" class="N" cx="2050" cy="1050"/>
<circle r="5" class="N" cx="650" cy="650"/>
<circle r="11" class="N" cx="950" cy="1250"/>
<circle r="5" class="N" cx="650" cy="2050"/>
<circle r="5" class="N" cx="2050" cy="550"/>
<circle r="5" class="N" cx="1550" cy="650"/>
<circle r="6" class="N" cx="1750" cy="1450"/>
<circle r="5" class="N" cx="350" cy="650"/>
<circle r="5" class="N" cx="1850" cy="350"/>
<circle r="5" class="N" cx="1050" cy="1850"/>
<circle r="5" class="N" cx="1450" cy="450"/>
<circle r="5" class="N" cx="350" cy="2150"/>
<circle r="5" class="N" cx="2050" cy="150"/>
<circle r="8" class="N" cx="950" cy="1350"/>
<circle r="18" class="N" cx="950" cy="950"/>
<circle r="5" class="N" cx="1950" cy="550"/>
<circle r="5" class="N" cx="2050" cy="450"/>
<circle r="5" class="N" cx="550" cy="2150"/>
<circle r="5" class="N" cx="550" cy="450"/>
<circle r="5" class="N" cx="1150" cy="1850"/>
<circle r="5" class="N" cx="450" cy="2050"/>
<circle r="9" class="N" cx="850" cy="250"/>
<circle r="6" class="N" cx="550" cy="750"/>
<circle r="5" class="N" cx="2150" cy="950"/>
<circle r="5" class="N" cx="750" cy="1950"/>
<circle r="5" class="N" cx="1450" cy="550"/>
<line y2="1850" x1="750" class="E sw5" x2="1050" y1="1750"/>
<line y2="1950" x1="1050" class="E sw9" x2="750" y1="1850"/>
<line y2="950" x1="950" class="E sw3" x2="950" y1="1250"/>
<line y2="450" x1="350" class="E sw10" x2="550" y1="650"/>
<line y2="450" x1="650" class="E sw6" x2="550" y1="650"/>
<line y2="750" x1="350" class="E sw10" x2="550" y1="650"/>
<line x1="750" x2="750" y1="1750" y2="1950" style="stroke-width:11;" class="E"/>
<line y2="1850" x1="650" class="E sw10" x2="650" y1="2050"/>
<line y2="750" x1="650" class="E sw8" x2="550" y1="650"/>
<line y2="1850" x1="750" class="E sw5" x2="650" y1="1750"/>
<line y2="2150" x1="450" class="E sw9" x2="550" y1="2050"/>
<line y2="2150" x1="450" class="E sw10" x2="350" y1="2050"/>
<line y2="1850" x1="750" class="E sw6" x2="650" y1="1950"/>
<line y2="1350" x1="950" class="E sw4" x2="950" y1="1250"/>
<line y2="950" x1="2050" class="E sw6" x2="2150" y1="550"/>
<line y2="550" x1="1850" class="E sw10" x2="1950" y1="350"/>
<line x1="1850" x2="2050" y1="350" y2="450" style="stroke-width:11;" class="E"/>
<line x1="1350" x2="1450" y1="950" y2="750" style="stroke-width:11;" class="E"/>
<line y2="950" x1="1950" class="E sw7" x2="2150" y1="950"/>
<line y2="750" x1="1550" class="E sw3" x2="1450" y1="650"/>
<line y2="550" x1="1550" class="E sw3" x2="1450" y1="650"/>
<line y2="950" x1="2050" class="E sw8" x2="2150" y1="1050"/>
<line y2="450" x1="1950" class="E sw10" x2="2050" y1="550"/>
<line y2="450" x1="1450" class="E sw10" x2="1450" y1="550"/>
<line y2="1850" x1="1050" class="E sw8" x2="1150" y1="1850"/>
<polygon class="T2" points="50,1250 50,950 150,1050 "/>
<polygon class="T2" points="50,1250 150,1050 150,1250 "/>
<polygon class="T2" points="1450,250 1750,50 1750,150 "/>
<polygon class="T2" points="1450,250 1750,150 1750,250 "/>
<polygon class="T2" points="1550,1750 1750,1850 1550,1850 "/>
<polygon class="T2" points="1550,1850 1750,1850 1650,1950 "/>
<polygon class="T2" points="1550,2050 1550,1850 1650,1950 "/>
<polygon class="T2" points="150,1050 250,1250 150,1450 50,1250 "/>
<polygon class="T2" points="50,950 50,1250 50,950 150,1050 50,1250 "/>
<polygon class="T2" points="250,1250 150,1050 50,1250 50,950 150,1050 "/>
<polygon class="T2" points="50,1250 150,1450 50,1250 50,950 150,1050 "/>
<polygon class="T2" points="150,1250 150,1050 250,1250 150,1450 50,1250 "/>
<polygon class="T2" points="250,950 50,950 150,1050 50,1250 50,950 "/>
<polygon class="T2" points="150,1050 50,950 150,1050 50,1250 50,950 "/>
<polygon class="T2" points="1750,50 1450,250 1750,50 1750,150 1450,250 "/>
<polygon class="T2" points="1450,250 1750,250 1450,250 1750,50 1750,150 "/>
<polygon class="T2" points="1750,50 2050,50 1750,50 1750,150 1450,250 "/>
<polygon class="T2" points="1750,1850 1550,1750 1750,1850 1550,1850 1550,1750 "/>
<polygon class="T2" points="1550,1850 1550,2050 1550,1850 1750,1850 1650,1950 "/>
<polygon class="T2" points="1650,1950 1750,1850 1550,1850 1550,1750 1750,1850 "/>
<polygon class="T2" points="1550,2050 1650,1950 1550,2050 1550,1850 1650,1950 "/>
<polygon class="T2" points="1750,150 1750,50 1750,150 1450,250 1750,50 "/>
<polygon class="T2" points="1750,250 1750,150 1450,250 1750,50 1750,150 "/>
<polygon class="T2" points="1850,1850 1750,1850 1550,1850 1550,1750 1750,1850 "/>
<polygon class="T2" points="1550,1750 1550,1850 1750,1850 1650,1950 1550,1850 "/>
<polygon class="T2" points="150,1450 250,1250 150,1450 50,1250 150,1050 250,1250 "/>
<polygon class="T2" points="2150,150 2050,50 1750,50 1750,150 1450,250 1750,50 2050,50 "/>
<polygon class="T2" points="1850,1850 1950,1850 1850,1850 1750,1850 1550,1850 1550,1750 1750,1850 "/>
<circle r="25" class="T2n" cx="2150" cy="250"/>
<circle r="25" class="T2n" cx="150" cy="1050"/>
<circle r="25" class="T2n" cx="1250" cy="650"/>
<circle r="25" class="T2n" cx="1050" cy="1250"/>
<circle r="25" class="T2n" cx="2150" cy="350"/>
<circle r="25" class="T2n" cx="1550" cy="1850"/>
<circle r="25" class="T2n" cx="50" cy="1950"/>
<circle r="25" class="T2n" cx="1650" cy="1950"/>
<circle r="25" class="T2n" cx="1750" cy="1850"/>
<circle r="25" class="T2n" cx="1250" cy="950"/>
<circle r="25" class="T2n" cx="1950" cy="1850"/>
<circle r="25" class="T2n" cx="1050" cy="450"/>
<circle r="25" class="T2n" cx="950" cy="750"/>
<circle r="25" class="T2n" cx="1150" cy="450"/>
<circle r="25" class="T2n" cx="1550" cy="2050"/>
<circle r="25" class="T2n" cx="750" cy="750"/>
<circle r="25" class="T2n" cx="1750" cy="150"/>
<circle r="25" class="T2n" cx="250" cy="950"/>
<circle r="25" class="T2n" cx="1550" cy="1750"/>
<circle r="25" class="T2n" cx="1450" cy="250"/>
<circle r="25" class="T2n" cx="2150" cy="150"/>
<circle r="25" class="T2n" cx="1850" cy="750"/>
<circle r="25" class="T2n" cx="850" cy="950"/>
<circle r="25" class="T2n" cx="250" cy="2150"/>
<circle r="25" class="T2n" cx="150" cy="1250"/>
<circle r="25" class="T2n" cx="1750" cy="50"/>
<circle r="25" class="T2n" cx="50" cy="150"/>
<circle r="25" class="T2n" cx="1750" cy="250"/>
<circle r="25" class="T2n" cx="250" cy="1250"/>
<circle r="25" class="T2n" cx="150" cy="1450"/>
<circle r="25" class="T2n" cx="1450" cy="650"/>
<circle r="25" class="T2n" cx="50" cy="1250"/>
<circle r="25" class="T2n" cx="750" cy="950"/>
<circle r="25" class="T2n" cx="1050" cy="950"/>
<circle r="25" class="T2n" cx="50" cy="950"/>
<circle r="25" class="T2n" cx="2050" cy="50"/>
<circle r="25" class="T2n" cx="1850" cy="1850"/>
<circle r="25" class="T2n" cx="1650" cy="1350"/>
<line y2="450" x1="1050" class="T2e" x2="1050" y1="950"/>
<line y2="750" x1="1050" class="T2e" x2="950" y1="450"/>
<line y2="950" x1="1050" class="T2e" x2="1050" y1="1250"/>
<line y2="1250" x1="50" class="T2e" x2="50" y1="950"/>
<line y2="1250" x1="150" class="T2e" x2="250" y1="1050"/>
<line y2="1250" x1="150" class="T2e" x2="50" y1="1050"/>
<line y2="1450" x1="250" class="T2e" x2="150" y1="1250"/>
<line y2="750" x1="850" class="T2e" x2="750" y1="950"/>
<line y2="750" x1="850" class="T2e" x2="950" y1="950"/>
<line y2="1250" x1="150" class="T2e" x2="50" y1="1450"/>
<line y2="1050" x1="150" class="T2e" x2="150" y1="1250"/>
<line y2="950" x1="250" class="T2e" x2="50" y1="950"/>
<line y2="950" x1="150" class="T2e" x2="50" y1="1050"/>
<line y2="1250" x1="150" class="T2e" x2="50" y1="1250"/>
<line y2="50" x1="1450" class="T2e" x2="1750" y1="250"/>
<line y2="250" x1="1750" class="T2e" x2="1450" y1="150"/>
<line y2="250" x1="1450" class="T2e" x2="1750" y1="250"/>
<line y2="50" x1="1750" class="T2e" x2="2050" y1="50"/>
<line y2="1850" x1="1550" class="T2e" x2="1750" y1="1750"/>
<line y2="1850" x1="1750" class="T2e" x2="1550" y1="1850"/>
<line y2="1850" x1="1550" class="T2e" x2="1550" y1="2050"/>
<line y2="50" x1="2150" class="T2e" x2="2050" y1="150"/>
<line y2="1850" x1="1650" class="T2e" x2="1750" y1="1950"/>
<line y2="2050" x1="1650" class="T2e" x2="1550" y1="1950"/>
<line y2="1850" x1="1650" class="T2e" x2="1550" y1="1950"/>
<line y2="50" x1="1750" class="T2e" x2="1750" y1="150"/>
<line y2="250" x1="1750" class="T2e" x2="1750" y1="150"/>
<line y2="250" x1="2150" class="T2e" x2="2150" y1="150"/>
<line y2="1850" x1="1850" class="T2e" x2="1950" y1="1850"/>
<line y2="1850" x1="1850" class="T2e" x2="1750" y1="1850"/>
<line y2="1850" x1="1550" class="T2e" x2="1550" y1="1750"/>
<line y2="450" x1="1250" class="T2e" x2="1150" y1="650"/>
<line y2="450" x1="1050" class="T2e" x2="1150" y1="450"/>
<circle r="5" class="N" cx="2150" cy="250"/>
<circle r="5" class="N" cx="150" cy="1050"/>
<circle r="9" class="N" cx="1250" cy="650"/>
<circle r="9" class="N" cx="1050" cy="1250"/>
<circle r="5" class="N" cx="2150" cy="350"/>
<circle r="5" class="N" cx="1550" cy="1850"/>
<circle r="5" class="N" cx="50" cy="1950"/>
<circle r="5" class="N" cx="1650" cy="1950"/>
<circle r="5" class="N" cx="1750" cy="1850"/>
<circle r="18" class="N" cx="1250" cy="950"/>
<circle r="5" class="N" cx="1950" cy="1850"/>
<circle r="9" class="N" cx="1050" cy="450"/>
<circle r="8" class="N" cx="950" cy="750"/>
<circle r="9" class="N" cx="1150" cy="450"/>
<circle r="5" class="N" cx="1550" cy="2050"/>
<circle r="5" class="N" cx="750" cy="750"/>
<circle r="5" class="N" cx="1750" cy="150"/>
<circle r="5" class="N" cx="250" cy="950"/>
<circle r="5" class="N" cx="1550" cy="1750"/>
<circle r="5" class="N" cx="1450" cy="250"/>
<circle r="5" class="N" cx="2150" cy="150"/>
<circle r="6" class="N" cx="1850" cy="750"/>
<circle r="6" class="N" cx="850" cy="950"/>
<circle r="5" class="N" cx="250" cy="2150"/>
<circle r="5" class="N" cx="150" cy="1250"/>
<circle r="5" class="N" cx="1750" cy="50"/>
<circle r="5" class="N" cx="50" cy="150"/>
<circle r="5" class="N" cx="1750" cy="250"/>
<circle r="5" class="N" cx="250" cy="1250"/>
<circle r="5" class="N" cx="150" cy="1450"/>
<circle r="5" class="N" cx="1450" cy="650"/>
<circle r="5" class="N" cx="50" cy="1250"/>
<circle r="11" class="N" cx="750" cy="950"/>
<circle r="9" class="N" cx="1050" cy="950"/>
<circle r="5" class="N" cx="50" cy="950"/>
<circle r="5" class="N" cx="2050" cy="50"/>
<circle r="5" class="N" cx="1850" cy="1850"/>
<circle r="6" class="N" cx="1650" cy="1350"/>
<line y2="450" x1="1050" class="E sw10" x2="1050" y1="950"/>
<line y2="750" x1="1050" class="E sw6" x2="950" y1="450"/>
<line y2="950" x1="1050" class="E sw3" x2="1050" y1="1250"/>
<line y2="1250" x1="50" class="E sw6" x2="50" y1="950"/>
<line y2="1250" x1="150" class="E sw10" x2="250" y1="1050"/>
<line y2="1250" x1="150" class="E sw9" x2="50" y1="1050"/>
<line x1="250" x2="150" y1="1250" y2="1450" style="stroke-width:11;" class="E"/>
<line x1="850" x2="750" y1="950" y2="750" style="stroke-width:11;" class="E"/>
<line y2="750" x1="850" class="E sw4" x2="950" y1="950"/>
<line y2="1250" x1="150" class="E sw3" x2="50" y1="1450"/>
<line y2="1050" x1="150" class="E sw8" x2="150" y1="1250"/>
<line y2="950" x1="250" class="E sw7" x2="50" y1="950"/>
<line y2="950" x1="150" class="E sw8" x2="50" y1="1050"/>
<line y2="1250" x1="150" class="E sw8" x2="50" y1="1250"/>
<line y2="50" x1="1450" class="E sw7" x2="1750" y1="250"/>
<line y2="250" x1="1750" class="E sw6" x2="1450" y1="150"/>
<line x1="1450" x2="1750" y1="250" y2="250" style="stroke-width:11;" class="E"/>
<line y2="50" x1="1750" class="E sw9" x2="2050" y1="50"/>
<line y2="1850" x1="1550" class="E sw9" x2="1750" y1="1750"/>
<line y2="1850" x1="1750" class="E sw10" x2="1550" y1="1850"/>
<line y2="1850" x1="1550" class="E sw10" x2="1550" y1="2050"/>
<line y2="50" x1="2150" class="E sw7" x2="2050" y1="150"/>
<line y2="1850" x1="1650" class="E sw8" x2="1750" y1="1950"/>
<line y2="2050" x1="1650" class="E sw3" x2="1550" y1="1950"/>
<line x1="1650" x2="1550" y1="1950" y2="1850" style="stroke-width:11;" class="E"/>
<line y2="50" x1="1750" class="E sw10" x2="1750" y1="150"/>
<line y2="250" x1="1750" class="E sw7" x2="1750" y1="150"/>
<line y2="250" x1="2150" class="E sw6" x2="2150" y1="150"/>
<line y2="1850" x1="1850" class="E sw7" x2="1950" y1="1850"/>
<line y2="1850" x1="1850" class="E sw9" x2="1750" y1="1850"/>
<line y2="1850" x1="1550" class="E sw5" x2="1550" y1="1750"/>
<line x1="1250" x2="1150" y1="650" y2="450" style="stroke-width:11;" class="E"/>
<line y2="450" x1="1050" class="E sw3" x2="1150" y1="450"/>
<polygon class=" s5 sw2 f14" points="748,1780 766,1780 775,1789 775,1807 766,1816 748,1816 739,1807 739,1789"/>
<rect x="730" width="54" y="1762" height="18" class="s14 sw2 f7"/>
<text x="750" y="1801" class="f4">10</text>
<polygon class=" s5 sw2 f13" points="2148,280 2166,280 2175,289 2175,307 2166,316 2148,316 2139,307 2139,289"/>
<rect x="2130" width="54" y="262" height="18" class="s13 sw2 f7"/>
<text x="2150" y="301" class="f4">9</text>
<polygon class=" s5 sw2 f14" points="1257,1480 1275,1498 1257,1516 1239,1498"/>
<rect x="1230" width="54" y="1462" height="18" class="s14 sw2 f7"/>
<text x="1250" y="1501" class="f4">16</text>
<rect x="1039" width="36" y="1280" height="36" class="s5 sw2 f13"/>
<rect x="1030" width="54" y="1262" height="18" class="s13 sw2 f7"/>
<text x="1050" y="1301" class="f4">21</text>
<polygon class=" s5 sw2 f14" points="957,680 975,698 957,716 939,698"/>
<rect x="930" width="54" y="662" height="18" class="s14 sw2 f7"/>
<text x="950" y="701" class="f4">13</text>
<polygon class=" s5 sw2 f14" points="960,653 1014,653 987,689"/>
<rect x="960" width="54" y="635" height="18" class="s14 sw2 f7"/>
<text x="980" y="674" class="f4">27</text>
<polygon class=" s5 sw2 f13" points="2130,380 2184,380 2157,416"/>
<rect x="2130" width="54" y="362" height="18" class="s13 sw2 f7"/>
<text x="2150" y="401" class="f4">28</text>
<rect x="1539" width="36" y="1880" height="36" class="s5 sw2 f13"/>
<rect x="1530" width="54" y="1862" height="18" class="s13 sw2 f7"/>
<text x="1550" y="1901" class="f4">20</text>
<polygon class=" s5 sw2 f13" points="48,1980 66,1980 75,1989 75,2007 66,2016 48,2016 39,2007 39,1989"/>
<rect x="30" width="54" y="1962" height="18" class="s13 sw2 f7"/>
<text x="50" y="2001" class="f4">7</text>
<polygon class=" s5 sw2 f14" points="730,880 784,880 757,916"/>
<rect x="730" width="54" y="862" height="18" class="s14 sw2 f7"/>
<text x="750" y="901" class="f4">25</text>
<polygon class=" s5 sw2 f13" points="1657,1980 1675,1998 1657,2016 1639,1998"/>
<rect x="1630" width="54" y="1962" height="18" class="s13 sw2 f7"/>
<text x="1650" y="2001" class="f4">14</text>
<circle r="18" class="s5 sw2 f14" cx="1357" cy="998"/>
<rect x="1330" width="54" y="962" height="18" class="s14 sw2 f7"/>
<text x="1350" y="1001" class="f4">6</text>
<polygon class=" s5 sw2 f13" points="1730,1880 1784,1880 1757,1916"/>
<rect x="1730" width="54" y="1862" height="18" class="s13 sw2 f7"/>
<text x="1750" y="1901" class="f4">27</text>
<polygon class=" s5 sw2 f13" points="1230,980 1284,980 1257,1016"/>
<rect x="1230" width="54" y="962" height="18" class="s13 sw2 f7"/>
<text x="1250" y="1001" class="f4">23</text>
<circle r="18" class="s5 sw2 f13" cx="1957" cy="1898"/>
<rect x="1930" width="54" y="1862" height="18" class="s13 sw2 f7"/>
<text x="1950" y="1901" class="f4">4</text>
<polygon class=" s5 sw2 f13" points="1048,480 1066,480 1075,489 1075,507 1066,516 1048,516 1039,507 1039,489"/>
<rect x="1030" width="54" y="462" height="18" class="s13 sw2 f7"/>
<text x="1050" y="501" class="f4">8</text>
<polygon class=" s5 sw2 f14" points="2048,1080 2066,1080 2075,1089 2075,1107 2066,1116 2048,1116 2039,1107 2039,1089"/>
<rect x="2030" width="54" y="1062" height="18" class="s14 sw2 f7"/>
<text x="2050" y="1101" class="f4">11</text>
<polygon class=" s5 sw2 f14" points="648,680 666,680 675,689 675,707 666,716 648,716 639,707 639,689"/>
<rect x="630" width="54" y="662" height="18" class="s14 sw2 f7"/>
<text x="650" y="701" class="f4">9</text>
<polygon class=" s5 sw2 f14" points="687,653 705,671 687,689 669,671"/>
<rect x="660" width="54" y="635" height="18" class="s14 sw2 f7"/>
<text x="680" y="674" class="f4">14</text>
<polygon class=" s5 sw2 f13" points="957,780 975,798 957,816 939,798"/>
<rect x="930" width="54" y="762" height="18" class="s13 sw2 f7"/>
<text x="950" y="801" class="f4">15</text>
<polygon class=" s5 sw2 f13" points="960,753 1014,753 987,789"/>
<rect x="960" width="54" y="735" height="18" class="s13 sw2 f7"/>
<text x="980" y="774" class="f4">25</text>
<polygon class=" s5 sw2 f14" points="630,2080 684,2080 657,2116"/>
<rect x="630" width="54" y="2062" height="18" class="s14 sw2 f7"/>
<text x="650" y="2101" class="f4">24</text>
<rect x="1139" width="36" y="480" height="36" class="s5 sw2 f13"/>
<rect x="1130" width="54" y="462" height="18" class="s13 sw2 f7"/>
<text x="1150" y="501" class="f4">19</text>
<polygon class=" s5 sw2 f14" points="2048,580 2066,580 2075,589 2075,607 2066,616 2048,616 2039,607 2039,589"/>
<rect x="2030" width="54" y="562" height="18" class="s14 sw2 f7"/>
<text x="2050" y="601" class="f4">7</text>
<rect x="1539" width="36" y="680" height="36" class="s5 sw2 f14"/>
<rect x="1530" width="54" y="662" height="18" class="s14 sw2 f7"/>
<text x="1550" y="701" class="f4">20</text>
<circle r="18" class="s5 sw2 f14" cx="1757" cy="1498"/>
<rect x="1730" width="54" y="1462" height="18" class="s14 sw2 f7"/>
<text x="1750" y="1501" class="f4">5</text>
<rect x="139" width="36" y="1780" height="36" class="s5 sw2 f14"/>
<rect x="130" width="54" y="1762" height="18" class="s14 sw2 f7"/>
<text x="150" y="1801" class="f4">18</text>
<circle r="18" class="s5 sw2 f13" cx="187" cy="1771"/>
<rect x="160" width="54" y="1735" height="18" class="s13 sw2 f7"/>
<text x="180" y="1774" class="f4">5</text>
<polygon class=" s5 sw2 f13" points="748,780 766,780 775,789 775,807 766,816 748,816 739,807 739,789"/>
<rect x="730" width="54" y="762" height="18" class="s13 sw2 f7"/>
<text x="750" y="801" class="f4">11</text>
<polygon class=" s5 sw2 f13" points="1748,180 1766,180 1775,189 1775,207 1766,216 1748,216 1739,207 1739,189"/>
<rect x="1730" width="54" y="162" height="18" class="s13 sw2 f7"/>
<text x="1750" y="201" class="f4">10</text>
<rect x="339" width="36" y="680" height="36" class="s5 sw2 f14"/>
<rect x="330" width="54" y="662" height="18" class="s14 sw2 f7"/>
<text x="350" y="701" class="f4">22</text>
<circle r="18" class="s5 sw2 f13" cx="1457" cy="298"/>
<rect x="1430" width="54" y="262" height="18" class="s13 sw2 f7"/>
<text x="1450" y="301" class="f4">1</text>
<rect x="1839" width="36" y="780" height="36" class="s5 sw2 f13"/>
<rect x="1830" width="54" y="762" height="18" class="s13 sw2 f7"/>
<text x="1850" y="801" class="f4">18</text>
<rect x="639" width="36" y="1780" height="36" class="s5 sw2 f14"/>
<rect x="630" width="54" y="1762" height="18" class="s14 sw2 f7"/>
<text x="650" y="1801" class="f4">19</text>
<polygon class=" s5 sw2 f13" points="660,1753 714,1753 687,1789"/>
<rect x="660" width="54" y="1735" height="18" class="s13 sw2 f7"/>
<text x="680" y="1774" class="f4">26</text>
<polygon class=" s5 sw2 f14" points="1448,480 1466,480 1475,489 1475,507 1466,516 1448,516 1439,507 1439,489"/>
<rect x="1430" width="54" y="462" height="18" class="s14 sw2 f7"/>
<text x="1450" y="501" class="f4">8</text>
<polygon class=" s5 sw2 f14" points="330,2180 384,2180 357,2216"/>
<rect x="330" width="54" y="2162" height="18" class="s14 sw2 f7"/>
<text x="350" y="2201" class="f4">23</text>
<rect x="239" width="36" y="2180" height="36" class="s5 sw2 f13"/>
<rect x="230" width="54" y="2162" height="18" class="s13 sw2 f7"/>
<text x="250" y="2201" class="f4">22</text>
<polygon class=" s5 sw2 f14" points="2030,180 2084,180 2057,216"/>
<rect x="2030" width="54" y="162" height="18" class="s14 sw2 f7"/>
<text x="2050" y="201" class="f4">26</text>
<circle r="18" class="s5 sw2 f14" cx="957" cy="1398"/>
<rect x="930" width="54" y="1362" height="18" class="s14 sw2 f7"/>
<text x="950" y="1401" class="f4">3</text>
<circle r="18" class="s5 sw2 f13" cx="57" cy="198"/>
<rect x="30" width="54" y="162" height="18" class="s13 sw2 f7"/>
<text x="50" y="201" class="f4">3</text>
<circle r="18" class="s5 sw2 f13" cx="257" cy="1298"/>
<rect x="230" width="54" y="1262" height="18" class="s13 sw2 f7"/>
<text x="250" y="1301" class="f4">2</text>
<rect x="939" width="36" y="980" height="36" class="s5 sw2 f14"/>
<rect x="930" width="54" y="962" height="18" class="s14 sw2 f7"/>
<text x="950" y="1001" class="f4">21</text>
<rect x="1439" width="36" y="680" height="36" class="s5 sw2 f13"/>
<rect x="1430" width="54" y="662" height="18" class="s13 sw2 f7"/>
<text x="1450" y="701" class="f4">17</text>
<circle r="18" class="s5 sw2 f14" cx="1957" cy="598"/>
<rect x="1930" width="54" y="562" height="18" class="s14 sw2 f7"/>
<text x="1950" y="601" class="f4">2</text>
<rect x="1969" width="36" y="553" height="36" class="s5 sw2 f14"/>
<rect x="1960" width="54" y="535" height="18" class="s14 sw2 f7"/>
<text x="1980" y="574" class="f4">17</text>
<circle r="18" class="s5 sw2 f14" cx="1980" cy="533"/>
<rect x="1953" width="54" y="497" height="18" class="s14 sw2 f7"/>
<text x="1973" y="536" class="f4">1</text>
<polygon class=" s5 sw2 f14" points="2048,480 2066,480 2075,489 2075,507 2066,516 2048,516 2039,507 2039,489"/>
<rect x="2030" width="54" y="462" height="18" class="s14 sw2 f7"/>
<text x="2050" y="501" class="f4">12</text>
<polygon class=" s5 sw2 f14" points="2087,453 2105,471 2087,489 2069,471"/>
<rect x="2060" width="54" y="435" height="18" class="s14 sw2 f7"/>
<text x="2080" y="474" class="f4">15</text>
<polygon class=" s5 sw2 f13" points="48,1280 66,1280 75,1289 75,1307 66,1316 48,1316 39,1307 39,1289"/>
<rect x="30" width="54" y="1262" height="18" class="s13 sw2 f7"/>
<text x="50" y="1301" class="f4">12</text>
<polygon class=" s5 sw2 f13" points="757,980 775,998 757,1016 739,998"/>
<rect x="730" width="54" y="962" height="18" class="s13 sw2 f7"/>
<text x="750" y="1001" class="f4">13</text>
<circle r="18" class="s5 sw2 f14" cx="1157" cy="1898"/>
<rect x="1130" width="54" y="1862" height="18" class="s14 sw2 f7"/>
<text x="1150" y="1901" class="f4">4</text>
<polygon class=" s5 sw2 f13" points="30,980 84,980 57,1016"/>
<rect x="30" width="54" y="962" height="18" class="s13 sw2 f7"/>
<text x="50" y="1001" class="f4">24</text>
<polygon class=" s5 sw2 f14" points="830,280 884,280 857,316"/>
<rect x="830" width="54" y="262" height="18" class="s14 sw2 f7"/>
<text x="850" y="301" class="f4">28</text>
<circle r="18" class="s5 sw2 f13" cx="2057" cy="98"/>
<rect x="2030" width="54" y="62" height="18" class="s13 sw2 f7"/>
<text x="2050" y="101" class="f4">6</text>
<polygon class=" s5 sw2 f13" points="1657,1380 1675,1398 1657,1416 1639,1398"/>
<rect x="1630" width="54" y="1362" height="18" class="s13 sw2 f7"/>
<text x="1650" y="1401" class="f4">16</text>
<g id="teamTable" transform="translate(-100, 150)">
<text x="2350" y="75" class="TxtNrml">Step: 468</text>
<text x="2350" y="180" class="Tb" text-anchor="start">
<tspan fill="rgba(0,158,115,1.0)" x="2350">Nabf</tspan>
<tspan x="2750">13104</tspan>
<tspan x="2950">28</tspan>
<tspan x="3150">28</tspan>
<tspan x="3350">0</tspan>
</text>
<text x="2350" y="220" class="Tb" text-anchor="start">
<tspan fill="rgba(0,114,178,1.0)" x="2350">B</tspan>
<tspan x="2750">13572</tspan>
<tspan x="2950">29</tspan>
<tspan x="3150">29</tspan>
<tspan x="3350">0</tspan>
</text>
</g>
<g id="agentTable" transform="translate(-100, 150)">
<text x="2350" y="316" class="Tb2" text-anchor="start">
<tspan x="2535">26/35</tspan>
<tspan x="2650">4/4</tspan>
<tspan x="2765">0</tspan>
<tspan x="2880">2</tspan>
<tspan fill="red" x="2995">noAction :failed</tspan>
</text>
<text x="2350" y="346" class="Tb2" text-anchor="start">
<tspan x="2535">35/35</tspan>
<tspan x="2650">4/4</tspan>
<tspan x="2765">0</tspan>
<tspan x="2880">2</tspan>
<tspan fill="red" x="2995">noAction :failed</tspan>
</text>
<text x="2350" y="376" class="Tb2" text-anchor="start">
<tspan x="2535">35/35</tspan>
<tspan x="2650">4/4</tspan>
<tspan x="2765">0</tspan>
<tspan x="2880">2</tspan>
<tspan fill="red" x="2995">noAction :failed</tspan>
</text>
<text x="2350" y="406" class="Tb2" text-anchor="start">
<tspan x="2535">35/35</tspan>
<tspan x="2650">4/4</tspan>
<tspan x="2765">0</tspan>
<tspan x="2880">2</tspan>
<tspan fill="red" x="2995">noAction :failed</tspan>
</text>
<text x="2350" y="436" class="Tb2" text-anchor="start">
<tspan x="2535">35/35</tspan>
<tspan x="2650">4/4</tspan>
<tspan x="2765">0</tspan>
<tspan x="2880">2</tspan>
<tspan fill="red" x="2995">noAction :failed</tspan>
</text>
<text x="2350" y="466" class="Tb2" text-anchor="start">
<tspan x="2535">35/35</tspan>
<tspan x="2650">4/4</tspan>
<tspan x="2765">0</tspan>
<tspan x="2880">2</tspan>
<tspan fill="red" x="2995">noAction :failed</tspan>
</text>
<text x="2350" y="496" class="Tb2" text-anchor="start">
<tspan x="2535">25/25</tspan>
<tspan x="2650">6/6</tspan>
<tspan x="2765">0</tspan>
<tspan x="2880">1</tspan>
<tspan fill="red" x="2995">noAction :failed</tspan>
</text>
<text x="2350" y="526" class="Tb2" text-anchor="start">
<tspan x="2535">25/25</tspan>
<tspan x="2650">6/6</tspan>
<tspan x="2765">0</tspan>
<tspan x="2880">1</tspan>
<tspan fill="red" x="2995">noAction :failed</tspan>
</text>
<text x="2350" y="556" class="Tb2" text-anchor="start">
<tspan x="2535">25/25</tspan>
<tspan x="2650">6/6</tspan>
<tspan x="2765">0</tspan>
<tspan x="2880">1</tspan>
<tspan fill="red" x="2995">noAction :failed</tspan>
</text>
<text x="2350" y="586" class="Tb2" text-anchor="start">
<tspan x="2535">25/25</tspan>
<tspan x="2650">6/6</tspan>
<tspan x="2765">0</tspan>
<tspan x="2880">1</tspan>
<tspan fill="red" x="2995">noAction :failed</tspan>
</text>
<text x="2350" y="616" class="Tb2" text-anchor="start">
<tspan x="2535">25/25</tspan>
<tspan x="2650">6/6</tspan>
<tspan x="2765">0</tspan>
<tspan x="2880">1</tspan>
<tspan fill="red" x="2995">noAction :failed</tspan>
</text>
<text x="2350" y="646" class="Tb2" text-anchor="start">
<tspan x="2535">25/25</tspan>
<tspan x="2650">6/6</tspan>
<tspan x="2765">0</tspan>
<tspan x="2880">1</tspan>
<tspan fill="red" x="2995">noAction :failed</tspan>
</text>
<text x="2350" y="676" class="Tb2" text-anchor="start">
<tspan x="2535">20/20</tspan>
<tspan x="2650">3/3</tspan>
<tspan x="2765">3</tspan>
<tspan x="2880">1</tspan>
<tspan fill="red" x="2995">noAction :failed</tspan>
</text>
<text x="2350" y="706" class="Tb2" text-anchor="start">
<tspan x="2535">20/20</tspan>
<tspan x="2650">3/3</tspan>
<tspan x="2765">3</tspan>
<tspan x="2880">1</tspan>
<tspan fill="red" x="2995">noAction :failed</tspan>
</text>
<text x="2350" y="736" class="Tb2" text-anchor="start">
<tspan x="2535">20/20</tspan>
<tspan x="2650">3/3</tspan>
<tspan x="2765">3</tspan>
<tspan x="2880">1</tspan>
<tspan fill="red" x="2995">noAction :failed</tspan>
</text>
<text x="2350" y="766" class="Tb2" text-anchor="start">
<tspan x="2535">20/20</tspan>
<tspan x="2650">3/3</tspan>
<tspan x="2765">3</tspan>
<tspan x="2880">1</tspan>
<tspan fill="red" x="2995">noAction :failed</tspan>
</text>
<text x="2350" y="796" class="Tb2" text-anchor="start">
<tspan x="2535">30/30</tspan>
<tspan x="2650">1/1</tspan>
<tspan x="2765">0</tspan>
<tspan x="2880">3</tspan>
<tspan fill="red" x="2995">noAction :failed</tspan>
</text>
<text x="2350" y="826" class="Tb2" text-anchor="start">
<tspan x="2535">30/30</tspan>
<tspan x="2650">1/1</tspan>
<tspan x="2765">0</tspan>
<tspan x="2880">3</tspan>
<tspan fill="red" x="2995">noAction :failed</tspan>
</text>
<text x="2350" y="856" class="Tb2" text-anchor="start">
<tspan x="2535">30/30</tspan>
<tspan x="2650">1/1</tspan>
<tspan x="2765">0</tspan>
<tspan x="2880">3</tspan>
<tspan fill="red" x="2995">noAction :failed</tspan>
</text>
<text x="2350" y="886" class="Tb2" text-anchor="start">
<tspan x="2535">30/30</tspan>
<tspan x="2650">1/1</tspan>
<tspan x="2765">0</tspan>
<tspan x="2880">3</tspan>
<tspan fill="red" x="2995">noAction :failed</tspan>
</text>
<text x="2350" y="916" class="Tb2" text-anchor="start">
<tspan x="2535">30/30</tspan>
<tspan x="2650">1/1</tspan>
<tspan x="2765">0</tspan>
<tspan x="2880">3</tspan>
<tspan fill="red" x="2995">noAction :failed</tspan>
</text>
<text x="2350" y="946" class="Tb2" text-anchor="start">
<tspan x="2535">30/30</tspan>
<tspan x="2650">1/1</tspan>
<tspan x="2765">0</tspan>
<tspan x="2880">3</tspan>
<tspan fill="red" x="2995">noAction :failed</tspan>
</text>
<text x="2350" y="976" class="Tb2" text-anchor="start">
<tspan x="2535">25/25</tspan>
<tspan x="2650">6/6</tspan>
<tspan x="2765">0</tspan>
<tspan x="2880">1</tspan>
<tspan fill="red" x="2995">noAction :failed</tspan>
</text>
<text x="2350" y="1006" class="Tb2" text-anchor="start">
<tspan x="2535">25/25</tspan>
<tspan x="2650">6/6</tspan>
<tspan x="2765">0</tspan>
<tspan x="2880">1</tspan>
<tspan fill="red" x="2995">noAction :failed</tspan>
</text>
<text x="2350" y="1036" class="Tb2" text-anchor="start">
<tspan x="2535">25/25</tspan>
<tspan x="2650">6/6</tspan>
<tspan x="2765">0</tspan>
<tspan x="2880">1</tspan>
<tspan fill="red" x="2995">noAction :failed</tspan>
</text>
<text x="2350" y="1066" class="Tb2" text-anchor="start">
<tspan x="2535">25/25</tspan>
<tspan x="2650">6/6</tspan>
<tspan x="2765">0</tspan>
<tspan x="2880">1</tspan>
<tspan fill="red" x="2995">noAction :failed</tspan>
</text>
<text x="2350" y="1096" class="Tb2" text-anchor="start">
<tspan x="2535">25/25</tspan>
<tspan x="2650">6/6</tspan>
<tspan x="2765">0</tspan>
<tspan x="2880">1</tspan>
<tspan fill="red" x="2995">noAction :failed</tspan>
</text>
<text x="2350" y="1126" class="Tb2" text-anchor="start">
<tspan x="2535">25/25</tspan>
<tspan x="2650">6/6</tspan>
<tspan x="2765">0</tspan>
<tspan x="2880">1</tspan>
<tspan fill="red" x="2995">noAction :failed</tspan>
</text>
<text x="2350" y="1156" class="Tb2" text-anchor="start">
<tspan x="2535">35/35</tspan>
<tspan x="2650">4/4</tspan>
<tspan x="2765">0</tspan>
<tspan x="2880">2</tspan>
<tspan fill="red" x="2995">noAction :failed</tspan>
</text>
<text x="2350" y="1186" class="Tb2" text-anchor="start">
<tspan x="2535">35/35</tspan>
<tspan x="2650">4/4</tspan>
<tspan x="2765">0</tspan>
<tspan x="2880">2</tspan>
<tspan fill="red" x="2995">noAction :failed</tspan>
</text>
<text x="2350" y="1216" class="Tb2" text-anchor="start">
<tspan x="2535">35/35</tspan>
<tspan x="2650">4/4</tspan>
<tspan x="2765">0</tspan>
<tspan x="2880">2</tspan>
<tspan fill="red" x="2995">noAction :failed</tspan>
</text>
<text x="2350" y="1246" class="Tb2" text-anchor="start">
<tspan x="2535">35/35</tspan>
<tspan x="2650">4/4</tspan>
<tspan x="2765">0</tspan>
<tspan x="2880">2</tspan>
<tspan fill="red" x="2995">noAction :failed</tspan>
</text>
<text x="2350" y="1276" class="Tb2" text-anchor="start">
<tspan x="2535">35/35</tspan>
<tspan x="2650">4/4</tspan>
<tspan x="2765">0</tspan>
<tspan x="2880">2</tspan>
<tspan fill="red" x="2995">noAction :failed</tspan>
</text>
<text x="2350" y="1306" class="Tb2" text-anchor="start">
<tspan x="2535">35/35</tspan>
<tspan x="2650">4/4</tspan>
<tspan x="2765">0</tspan>
<tspan x="2880">2</tspan>
<tspan fill="red" x="2995">noAction :failed</tspan>
</text>
<text x="2350" y="1336" class="Tb2" text-anchor="start">
<tspan x="2535">25/25</tspan>
<tspan x="2650">6/6</tspan>
<tspan x="2765">0</tspan>
<tspan x="2880">1</tspan>
<tspan fill="red" x="2995">noAction :failed</tspan>
</text>
<text x="2350" y="1366" class="Tb2" text-anchor="start">
<tspan x="2535">25/25</tspan>
<tspan x="2650">6/6</tspan>
<tspan x="2765">0</tspan>
<tspan x="2880">1</tspan>
<tspan fill="red" x="2995">noAction :failed</tspan>
</text>
<text x="2350" y="1396" class="Tb2" text-anchor="start">
<tspan x="2535">25/25</tspan>
<tspan x="2650">6/6</tspan>
<tspan x="2765">0</tspan>
<tspan x="2880">1</tspan>
<tspan fill="red" x="2995">noAction :failed</tspan>
</text>
<text x="2350" y="1426" class="Tb2" text-anchor="start">
<tspan x="2535">25/25</tspan>
<tspan x="2650">6/6</tspan>
<tspan x="2765">0</tspan>
<tspan x="2880">1</tspan>
<tspan fill="red" x="2995">noAction :failed</tspan>
</text>
<text x="2350" y="1456" class="Tb2" text-anchor="start">
<tspan x="2535">25/25</tspan>
<tspan x="2650">6/6</tspan>
<tspan x="2765">0</tspan>
<tspan x="2880">1</tspan>
<tspan fill="red" x="2995">noAction :failed</tspan>
</text>
<text x="2350" y="1486" class="Tb2" text-anchor="start">
<tspan x="2535">25/25</tspan>
<tspan x="2650">6/6</tspan>
<tspan x="2765">0</tspan>
<tspan x="2880">1</tspan>
<tspan fill="red" x="2995">noAction :failed</tspan>
</text>
<text x="2350" y="1516" class="Tb2" text-anchor="start">
<tspan x="2535">20/20</tspan>
<tspan x="2650">3/3</tspan>
<tspan x="2765">3</tspan>
<tspan x="2880">1</tspan>
<tspan fill="red" x="2995">noAction :failed</tspan>
</text>
<text x="2350" y="1546" class="Tb2" text-anchor="start">
<tspan x="2535">20/20</tspan>
<tspan x="2650">3/3</tspan>
<tspan x="2765">3</tspan>
<tspan x="2880">1</tspan>
<tspan fill="red" x="2995">noAction :failed</tspan>
</text>
<text x="2350" y="1576" class="Tb2" text-anchor="start">
<tspan x="2535">20/20</tspan>
<tspan x="2650">3/3</tspan>
<tspan x="2765">3</tspan>
<tspan x="2880">1</tspan>
<tspan fill="red" x="2995">noAction :failed</tspan>
</text>
<text x="2350" y="1606" class="Tb2" text-anchor="start">
<tspan x="2535">20/20</tspan>
<tspan x="2650">3/3</tspan>
<tspan x="2765">3</tspan>
<tspan x="2880">1</tspan>
<tspan fill="red" x="2995">noAction :failed</tspan>
</text>
<text x="2350" y="1636" class="Tb2" text-anchor="start">
<tspan x="2535">30/30</tspan>
<tspan x="2650">1/1</tspan>
<tspan x="2765">0</tspan>
<tspan x="2880">3</tspan>
<tspan fill="red" x="2995">noAction :failed</tspan>
</text>
<text x="2350" y="1666" class="Tb2" text-anchor="start">
<tspan x="2535">30/30</tspan>
<tspan x="2650">1/1</tspan>
<tspan x="2765">0</tspan>
<tspan x="2880">3</tspan>
<tspan fill="red" x="2995">noAction :failed</tspan>
</text>
<text x="2350" y="1696" class="Tb2" text-anchor="start">
<tspan x="2535">30/30</tspan>
<tspan x="2650">1/1</tspan>
<tspan x="2765">0</tspan>
<tspan x="2880">3</tspan>
<tspan fill="red" x="2995">noAction :failed</tspan>
</text>
<text x="2350" y="1726" class="Tb2" text-anchor="start">
<tspan x="2535">30/30</tspan>
<tspan x="2650">1/1</tspan>
<tspan x="2765">0</tspan>
<tspan x="2880">3</tspan>
<tspan fill="red" x="2995">noAction :failed</tspan>
</text>
<text x="2350" y="1756" class="Tb2" text-anchor="start">
<tspan x="2535">30/30</tspan>
<tspan x="2650">1/1</tspan>
<tspan x="2765">0</tspan>
<tspan x="2880">3</tspan>
<tspan fill="red" x="2995">noAction :failed</tspan>
</text>
<text x="2350" y="1786" class="Tb2" text-anchor="start">
<tspan x="2535">30/30</tspan>
<tspan x="2650">1/1</tspan>
<tspan x="2765">0</tspan>
<tspan x="2880">3</tspan>
<tspan fill="red" x="2995">noAction :failed</tspan>
</text>
<text x="2350" y="1816" class="Tb2" text-anchor="start">
<tspan x="2535">25/25</tspan>
<tspan x="2650">6/6</tspan>
<tspan x="2765">0</tspan>
<tspan x="2880">1</tspan>
<tspan fill="red" x="2995">noAction :failed</tspan>
</text>
<text x="2350" y="1846" class="Tb2" text-anchor="start">
<tspan x="2535">25/25</tspan>
<tspan x="2650">6/6</tspan>
<tspan x="2765">0</tspan>
<tspan x="2880">1</tspan>
<tspan fill="red" x="2995">noAction :failed</tspan>
</text>
<text x="2350" y="1876" class="Tb2" text-anchor="start">
<tspan x="2535">25/25</tspan>
<tspan x="2650">6/6</tspan>
<tspan x="2765">0</tspan>
<tspan x="2880">1</tspan>
<tspan fill="red" x="2995">noAction :failed</tspan>
</text>
<text x="2350" y="1906" class="Tb2" text-anchor="start">
<tspan x="2535">25/25</tspan>
<tspan x="2650">6/6</tspan>
<tspan x="2765">0</tspan>
<tspan x="2880">1</tspan>
<tspan fill="red" x="2995">noAction :failed</tspan>
</text>
<text x="2350" y="1936" class="Tb2" text-anchor="start">
<tspan x="2535">25/25</tspan>
<tspan x="2650">6/6</tspan>
<tspan x="2765">0</tspan>
<tspan x="2880">1</tspan>
<tspan fill="red" x="2995">noAction :failed</tspan>
</text>
<text x="2350" y="1966" class="Tb2" text-anchor="start">
<tspan x="2535">25/25</tspan>
<tspan x="2650">6/6</tspan>
<tspan x="2765">0</tspan>
<tspan x="2880">1</tspan>
<tspan fill="red" x="2995">noAction :failed</tspan>
</text>
</g>
<line y2="442" x1="3290" class="s5 sw1" x2="3290" y1="1996"/>
<g id="achievementPart" transform="translate(-100, 150)">
<text x="3400" y="301" class="TxtAch">
<tspan x="3400">Achievements</tspan>
<tspan fill="rgba(0,158,115,1.0)" x="3400" y="331">Nabf</tspan>
<tspan fill="rgba(0,114,178,1.0)" x="3400" y="356">B</tspan>
</text>
</g>
</g>
</svg>
