<?xml version="1.0" encoding="UTF-8"?><?xml-stylesheet type="text/css" href="style.css"?><svg xmlns="http://www.w3.org/2000/svg" xmlns:xlink="http://www.w3.org/1999/xlink" contentScriptType="text/ecmascript" zoomAndPan="magnify" contentStyleType="text/css" preserveAspectRatio="xMidYMid meet" version="1.0">
<g id="scaleSvg" transform="scale(0.25)">
<rect x="1939" width="36" y="580" height="36" class="s5 sw2 f14"/>
<rect x="1930" width="54" y="562" height="18" class="s14 sw2 f8"/>
<text x="1950" y="601" class="f4">19</text>
<polygon class=" s5 sw2 f14" points="248,880 266,880 275,889 275,907 266,916 248,916 239,907 239,889"/>
<rect x="230" width="54" y="862" height="18" class="s14 sw2 f8"/>
<text x="250" y="901" class="f4">7</text>
<rect x="269" width="36" y="853" height="36" class="s5 sw2 f13"/>
<rect x="260" width="54" y="835" height="18" class="s13 sw2 f8"/>
<text x="280" y="874" class="f4">20</text>
<polygon class=" s5 sw2 f13" points="1148,1880 1166,1880 1175,1889 1175,1907 1166,1916 1148,1916 1139,1907 1139,1889"/>
<rect x="1130" width="54" y="1862" height="18" class="s13 sw2 f8"/>
<text x="1150" y="1901" class="f4">7</text>
<polygon class=" s5 sw2 f14" points="1930,1480 1984,1480 1957,1516"/>
<rect x="1930" width="54" y="1462" height="18" class="s14 sw2 f8"/>
<text x="1950" y="1501" class="f4">28</text>
<polygon class=" s5 sw2 f13" points="730,1280 784,1280 757,1316"/>
<rect x="730" width="54" y="1262" height="18" class="s13 sw2 f8"/>
<text x="750" y="1301" class="f4">28</text>
<rect x="2039" width="36" y="280" height="36" class="s5 sw2 f14"/>
<rect x="2030" width="54" y="262" height="18" class="s14 sw2 f8"/>
<text x="2050" y="301" class="f4">18</text>
<rect x="339" width="36" y="580" height="36" class="s5 sw2 f13"/>
<rect x="330" width="54" y="562" height="18" class="s13 sw2 f8"/>
<text x="350" y="601" class="f4">19</text>
<polygon class=" s5 sw2 f14" points="1230,780 1284,780 1257,816"/>
<rect x="1230" width="54" y="762" height="18" class="s14 sw2 f8"/>
<text x="1250" y="801" class="f4">23</text>
<polygon class=" s5 sw2 f14" points="1648,1180 1666,1180 1675,1189 1675,1207 1666,1216 1648,1216 1639,1207 1639,1189"/>
<rect x="1630" width="54" y="1162" height="18" class="s14 sw2 f8"/>
<text x="1650" y="1201" class="f4">12</text>
<rect x="1839" width="36" y="1880" height="36" class="s5 sw2 f13"/>
<rect x="1830" width="54" y="1862" height="18" class="s13 sw2 f8"/>
<text x="1850" y="1901" class="f4">22</text>
<circle r="18" class="s5 sw2 f14" cx="257" cy="998"/>
<rect x="230" width="54" y="962" height="18" class="s14 sw2 f8"/>
<text x="250" y="1001" class="f4">1</text>
<polygon class=" s5 sw2 f13" points="2130,380 2184,380 2157,416"/>
<rect x="2130" width="54" y="362" height="18" class="s13 sw2 f8"/>
<text x="2150" y="401" class="f4">24</text>
<circle r="18" class="s5 sw2 f13" cx="457" cy="398"/>
<rect x="430" width="54" y="362" height="18" class="s13 sw2 f8"/>
<text x="450" y="401" class="f4">5</text>
<polygon class=" s5 sw2 f14" points="1848,380 1866,380 1875,389 1875,407 1866,416 1848,416 1839,407 1839,389"/>
<rect x="1830" width="54" y="362" height="18" class="s14 sw2 f8"/>
<text x="1850" y="401" class="f4">9</text>
<polygon class=" s5 sw2 f13" points="248,580 266,580 275,589 275,607 266,616 248,616 239,607 239,589"/>
<rect x="230" width="54" y="562" height="18" class="s13 sw2 f8"/>
<text x="250" y="601" class="f4">11</text>
<rect x="939" width="36" y="1280" height="36" class="s5 sw2 f14"/>
<rect x="930" width="54" y="1262" height="18" class="s14 sw2 f8"/>
<text x="950" y="1301" class="f4">17</text>
<polygon class=" s5 sw2 f14" points="657,180 675,198 657,216 639,198"/>
<rect x="630" width="54" y="162" height="18" class="s14 sw2 f8"/>
<text x="650" y="201" class="f4">15</text>
<circle r="18" class="s5 sw2 f14" cx="957" cy="798"/>
<rect x="930" width="54" y="762" height="18" class="s14 sw2 f8"/>
<text x="950" y="801" class="f4">2</text>
<polygon class=" s5 sw2 f13" points="1030,780 1084,780 1057,816"/>
<rect x="1030" width="54" y="762" height="18" class="s13 sw2 f8"/>
<text x="1050" y="801" class="f4">23</text>
<polygon class=" s5 sw2 f14" points="1130,1680 1184,1680 1157,1716"/>
<rect x="1130" width="54" y="1662" height="18" class="s14 sw2 f8"/>
<text x="1150" y="1701" class="f4">26</text>
<polygon class=" s5 sw2 f14" points="457,780 475,798 457,816 439,798"/>
<rect x="430" width="54" y="762" height="18" class="s14 sw2 f8"/>
<text x="450" y="801" class="f4">14</text>
<polygon class=" s5 sw2 f14" points="148,1080 166,1080 175,1089 175,1107 166,1116 148,1116 139,1107 139,1089"/>
<rect x="130" width="54" y="1062" height="18" class="s14 sw2 f8"/>
<text x="150" y="1101" class="f4">11</text>
<circle r="18" class="s5 sw2 f13" cx="1657" cy="2198"/>
<rect x="1630" width="54" y="2162" height="18" class="s13 sw2 f8"/>
<text x="1650" y="2201" class="f4">4</text>
<polygon class=" s5 sw2 f14" points="848,1880 866,1880 875,1889 875,1907 866,1916 848,1916 839,1907 839,1889"/>
<rect x="830" width="54" y="1862" height="18" class="s14 sw2 f8"/>
<text x="850" y="1901" class="f4">8</text>
<polygon class=" s5 sw2 f13" points="878,1853 896,1853 905,1862 905,1880 896,1889 878,1889 869,1880 869,1862"/>
<rect x="860" width="54" y="1835" height="18" class="s13 sw2 f8"/>
<text x="880" y="1874" class="f4">12</text>
<polygon class=" s5 sw2 f13" points="1748,280 1766,280 1775,289 1775,307 1766,316 1748,316 1739,307 1739,289"/>
<rect x="1730" width="54" y="262" height="18" class="s13 sw2 f8"/>
<text x="1750" y="301" class="f4">9</text>
<polygon class=" s5 sw2 f14" points="430,1380 484,1380 457,1416"/>
<rect x="430" width="54" y="1362" height="18" class="s14 sw2 f8"/>
<text x="450" y="1401" class="f4">25</text>
<polygon class=" s5 sw2 f13" points="1257,1680 1275,1698 1257,1716 1239,1698"/>
<rect x="1230" width="54" y="1662" height="18" class="s13 sw2 f8"/>
<text x="1250" y="1701" class="f4">13</text>
<polygon class=" s5 sw2 f13" points="2057,1380 2075,1398 2057,1416 2039,1398"/>
<rect x="2030" width="54" y="1362" height="18" class="s13 sw2 f8"/>
<text x="2050" y="1401" class="f4">14</text>
<circle r="18" class="s5 sw2 f13" cx="257" cy="1898"/>
<rect x="230" width="54" y="1862" height="18" class="s13 sw2 f8"/>
<text x="250" y="1901" class="f4">1</text>
<rect x="269" width="36" y="1853" height="36" class="s5 sw2 f13"/>
<rect x="260" width="54" y="1835" height="18" class="s13 sw2 f8"/>
<text x="280" y="1874" class="f4">18</text>
<polygon class=" s5 sw2 f13" points="748,2080 766,2080 775,2089 775,2107 766,2116 748,2116 739,2107 739,2089"/>
<rect x="730" width="54" y="2062" height="18" class="s13 sw2 f8"/>
<text x="750" y="2101" class="f4">10</text>
<polygon class=" s5 sw2 f14" points="330,1980 384,1980 357,2016"/>
<rect x="330" width="54" y="1962" height="18" class="s14 sw2 f8"/>
<text x="350" y="2001" class="f4">27</text>
<circle r="18" class="s5 sw2 f13" cx="387" cy="1971"/>
<rect x="360" width="54" y="1935" height="18" class="s13 sw2 f8"/>
<text x="380" y="1974" class="f4">2</text>
<circle r="18" class="s5 sw2 f14" cx="1757" cy="1598"/>
<rect x="1730" width="54" y="1562" height="18" class="s14 sw2 f8"/>
<text x="1750" y="1601" class="f4">5</text>
<polygon class=" s5 sw2 f13" points="448,1580 466,1580 475,1589 475,1607 466,1616 448,1616 439,1607 439,1589"/>
<rect x="430" width="54" y="1562" height="18" class="s13 sw2 f8"/>
<text x="450" y="1601" class="f4">8</text>
<polygon class=" s5 sw2 f13" points="1730,1780 1784,1780 1757,1816"/>
<rect x="1730" width="54" y="1762" height="18" class="s13 sw2 f8"/>
<text x="1750" y="1801" class="f4">25</text>
<polygon class=" s5 sw2 f14" points="1657,1780 1675,1798 1657,1816 1639,1798"/>
<rect x="1630" width="54" y="1762" height="18" class="s14 sw2 f8"/>
<text x="1650" y="1801" class="f4">13</text>
<polygon class=" s5 sw2 f14" points="1248,1280 1266,1280 1275,1289 1275,1307 1266,1316 1248,1316 1239,1307 1239,1289"/>
<rect x="1230" width="54" y="1262" height="18" class="s14 sw2 f8"/>
<text x="1250" y="1301" class="f4">10</text>
<circle r="18" class="s5 sw2 f14" cx="157" cy="498"/>
<rect x="130" width="54" y="462" height="18" class="s14 sw2 f8"/>
<text x="150" y="501" class="f4">3</text>
<polygon class=" s5 sw2 f14" points="957,1480 975,1498 957,1516 939,1498"/>
<rect x="930" width="54" y="1462" height="18" class="s14 sw2 f8"/>
<text x="950" y="1501" class="f4">16</text>
<rect x="39" width="36" y="680" height="36" class="s5 sw2 f14"/>
<rect x="30" width="54" y="662" height="18" class="s14 sw2 f8"/>
<text x="50" y="701" class="f4">22</text>
<polygon class=" s5 sw2 f13" points="60,653 114,653 87,689"/>
<rect x="60" width="54" y="635" height="18" class="s13 sw2 f8"/>
<text x="80" y="674" class="f4">26</text>
<polygon class=" s5 sw2 f14" points="930,1380 984,1380 957,1416"/>
<rect x="930" width="54" y="1362" height="18" class="s14 sw2 f8"/>
<text x="950" y="1401" class="f4">24</text>
<circle r="18" class="s5 sw2 f13" cx="557" cy="898"/>
<rect x="530" width="54" y="862" height="18" class="s13 sw2 f8"/>
<text x="550" y="901" class="f4">3</text>
<rect x="39" width="36" y="1680" height="36" class="s5 sw2 f13"/>
<rect x="30" width="54" y="1662" height="18" class="s13 sw2 f8"/>
<text x="50" y="1701" class="f4">21</text>
<polygon class=" s5 sw2 f13" points="557,1980 575,1998 557,2016 539,1998"/>
<rect x="530" width="54" y="1962" height="18" class="s13 sw2 f8"/>
<text x="550" y="2001" class="f4">16</text>
<circle r="18" class="s5 sw2 f14" cx="1757" cy="1998"/>
<rect x="1730" width="54" y="1962" height="18" class="s14 sw2 f8"/>
<text x="1750" y="2001" class="f4">4</text>
<circle r="18" class="s5 sw2 f13" cx="1957" cy="98"/>
<rect x="1930" width="54" y="62" height="18" class="s13 sw2 f8"/>
<text x="1950" y="101" class="f4">6</text>
<rect x="1139" width="36" y="380" height="36" class="s5 sw2 f14"/>
<rect x="1130" width="54" y="362" height="18" class="s14 sw2 f8"/>
<text x="1150" y="401" class="f4">21</text>
<rect x="1339" width="36" y="80" height="36" class="s5 sw2 f13"/>
<rect x="1330" width="54" y="62" height="18" class="s13 sw2 f8"/>
<text x="1350" y="101" class="f4">17</text>
<circle r="18" class="s5 sw2 f14" cx="1357" cy="1298"/>
<rect x="1330" width="54" y="1262" height="18" class="s14 sw2 f8"/>
<text x="1350" y="1301" class="f4">6</text>
<polygon class=" s5 sw2 f13" points="1430,1180 1484,1180 1457,1216"/>
<rect x="1430" width="54" y="1162" height="18" class="s13 sw2 f8"/>
<text x="1450" y="1201" class="f4">27</text>
<polygon class=" s5 sw2 f13" points="457,1980 475,1998 457,2016 439,1998"/>
<rect x="430" width="54" y="1962" height="18" class="s13 sw2 f8"/>
<text x="450" y="2001" class="f4">15</text>
<rect x="2139" width="36" y="1980" height="36" class="s5 sw2 f14"/>
<rect x="2130" width="54" y="1962" height="18" class="s14 sw2 f8"/>
<text x="2150" y="2001" class="f4">20</text>
<g id="teamTable" transform="translate(-100, 150)">
<text x="2350" y="75" class="TxtNrml">Step: 0</text>
<text x="2350" y="180" class="Tb" text-anchor="start">
<tspan fill="rgba(0,158,115,1.0)" x="2350">Nabf</tspan>
<tspan x="2750">0</tspan>
<tspan x="2950">0</tspan>
<tspan x="3150">0</tspan>
<tspan x="3350">0</tspan>
</text>
<text x="2350" y="220" class="Tb" text-anchor="start">
<tspan fill="rgba(0,114,178,1.0)" x="2350">B</tspan>
<tspan x="2750">0</tspan>
<tspan x="2950">0</tspan>
<tspan x="3150">0</tspan>
<tspan x="3350">0</tspan>
</text>
</g>
<g id="agentTable" transform="translate(-100, 150)">
<text x="2350" y="316" class="Tb2" text-anchor="start">
<tspan x="2535">35/35</tspan>
<tspan x="2650">4/4</tspan>
<tspan x="2765">0</tspan>
<tspan x="2880">2</tspan>
<tspan x="2995">skip null:successful</tspan>
</text>
<text x="2350" y="346" class="Tb2" text-anchor="start">
<tspan x="2535">35/35</tspan>
<tspan x="2650">4/4</tspan>
<tspan x="2765">0</tspan>
<tspan x="2880">2</tspan>
<tspan x="2995">skip null:successful</tspan>
</text>
<text x="2350" y="376" class="Tb2" text-anchor="start">
<tspan x="2535">35/35</tspan>
<tspan x="2650">4/4</tspan>
<tspan x="2765">0</tspan>
<tspan x="2880">2</tspan>
<tspan x="2995">skip null:successful</tspan>
</text>
<text x="2350" y="406" class="Tb2" text-anchor="start">
<tspan x="2535">35/35</tspan>
<tspan x="2650">4/4</tspan>
<tspan x="2765">0</tspan>
<tspan x="2880">2</tspan>
<tspan x="2995">skip null:successful</tspan>
</text>
<text x="2350" y="436" class="Tb2" text-anchor="start">
<tspan x="2535">35/35</tspan>
<tspan x="2650">4/4</tspan>
<tspan x="2765">0</tspan>
<tspan x="2880">2</tspan>
<tspan x="2995">skip null:successful</tspan>
</text>
<text x="2350" y="466" class="Tb2" text-anchor="start">
<tspan x="2535">35/35</tspan>
<tspan x="2650">4/4</tspan>
<tspan x="2765">0</tspan>
<tspan x="2880">2</tspan>
<tspan x="2995">skip null:successful</tspan>
</text>
<text x="2350" y="496" class="Tb2" text-anchor="start">
<tspan x="2535">25/25</tspan>
<tspan x="2650">6/6</tspan>
<tspan x="2765">0</tspan>
<tspan x="2880">1</tspan>
<tspan x="2995">skip null:successful</tspan>
</text>
<text x="2350" y="526" class="Tb2" text-anchor="start">
<tspan x="2535">25/25</tspan>
<tspan x="2650">6/6</tspan>
<tspan x="2765">0</tspan>
<tspan x="2880">1</tspan>
<tspan x="2995">skip null:successful</tspan>
</text>
<text x="2350" y="556" class="Tb2" text-anchor="start">
<tspan x="2535">25/25</tspan>
<tspan x="2650">6/6</tspan>
<tspan x="2765">0</tspan>
<tspan x="2880">1</tspan>
<tspan x="2995">skip null:successful</tspan>
</text>
<text x="2350" y="586" class="Tb2" text-anchor="start">
<tspan x="2535">25/25</tspan>
<tspan x="2650">6/6</tspan>
<tspan x="2765">0</tspan>
<tspan x="2880">1</tspan>
<tspan x="2995">skip null:successful</tspan>
</text>
<text x="2350" y="616" class="Tb2" text-anchor="start">
<tspan x="2535">25/25</tspan>
<tspan x="2650">6/6</tspan>
<tspan x="2765">0</tspan>
<tspan x="2880">1</tspan>
<tspan x="2995">skip null:successful</tspan>
</text>
<text x="2350" y="646" class="Tb2" text-anchor="start">
<tspan x="2535">25/25</tspan>
<tspan x="2650">6/6</tspan>
<tspan x="2765">0</tspan>
<tspan x="2880">1</tspan>
<tspan x="2995">skip null:successful</tspan>
</text>
<text x="2350" y="676" class="Tb2" text-anchor="start">
<tspan x="2535">20/20</tspan>
<tspan x="2650">3/3</tspan>
<tspan x="2765">3</tspan>
<tspan x="2880">1</tspan>
<tspan x="2995">skip null:successful</tspan>
</text>
<text x="2350" y="706" class="Tb2" text-anchor="start">
<tspan x="2535">20/20</tspan>
<tspan x="2650">3/3</tspan>
<tspan x="2765">3</tspan>
<tspan x="2880">1</tspan>
<tspan x="2995">skip null:successful</tspan>
</text>
<text x="2350" y="736" class="Tb2" text-anchor="start">
<tspan x="2535">20/20</tspan>
<tspan x="2650">3/3</tspan>
<tspan x="2765">3</tspan>
<tspan x="2880">1</tspan>
<tspan x="2995">skip null:successful</tspan>
</text>
<text x="2350" y="766" class="Tb2" text-anchor="start">
<tspan x="2535">20/20</tspan>
<tspan x="2650">3/3</tspan>
<tspan x="2765">3</tspan>
<tspan x="2880">1</tspan>
<tspan x="2995">skip null:successful</tspan>
</text>
<text x="2350" y="796" class="Tb2" text-anchor="start">
<tspan x="2535">30/30</tspan>
<tspan x="2650">1/1</tspan>
<tspan x="2765">0</tspan>
<tspan x="2880">3</tspan>
<tspan x="2995">skip null:successful</tspan>
</text>
<text x="2350" y="826" class="Tb2" text-anchor="start">
<tspan x="2535">30/30</tspan>
<tspan x="2650">1/1</tspan>
<tspan x="2765">0</tspan>
<tspan x="2880">3</tspan>
<tspan x="2995">skip null:successful</tspan>
</text>
<text x="2350" y="856" class="Tb2" text-anchor="start">
<tspan x="2535">30/30</tspan>
<tspan x="2650">1/1</tspan>
<tspan x="2765">0</tspan>
<tspan x="2880">3</tspan>
<tspan x="2995">skip null:successful</tspan>
</text>
<text x="2350" y="886" class="Tb2" text-anchor="start">
<tspan x="2535">30/30</tspan>
<tspan x="2650">1/1</tspan>
<tspan x="2765">0</tspan>
<tspan x="2880">3</tspan>
<tspan x="2995">skip null:successful</tspan>
</text>
<text x="2350" y="916" class="Tb2" text-anchor="start">
<tspan x="2535">30/30</tspan>
<tspan x="2650">1/1</tspan>
<tspan x="2765">0</tspan>
<tspan x="2880">3</tspan>
<tspan x="2995">skip null:successful</tspan>
</text>
<text x="2350" y="946" class="Tb2" text-anchor="start">
<tspan x="2535">30/30</tspan>
<tspan x="2650">1/1</tspan>
<tspan x="2765">0</tspan>
<tspan x="2880">3</tspan>
<tspan x="2995">skip null:successful</tspan>
</text>
<text x="2350" y="976" class="Tb2" text-anchor="start">
<tspan x="2535">25/25</tspan>
<tspan x="2650">6/6</tspan>
<tspan x="2765">0</tspan>
<tspan x="2880">1</tspan>
<tspan x="2995">skip null:successful</tspan>
</text>
<text x="2350" y="1006" class="Tb2" text-anchor="start">
<tspan x="2535">25/25</tspan>
<tspan x="2650">6/6</tspan>
<tspan x="2765">0</tspan>
<tspan x="2880">1</tspan>
<tspan x="2995">skip null:successful</tspan>
</text>
<text x="2350" y="1036" class="Tb2" text-anchor="start">
<tspan x="2535">25/25</tspan>
<tspan x="2650">6/6</tspan>
<tspan x="2765">0</tspan>
<tspan x="2880">1</tspan>
<tspan x="2995">skip null:successful</tspan>
</text>
<text x="2350" y="1066" class="Tb2" text-anchor="start">
<tspan x="2535">25/25</tspan>
<tspan x="2650">6/6</tspan>
<tspan x="2765">0</tspan>
<tspan x="2880">1</tspan>
<tspan x="2995">skip null:successful</tspan>
</text>
<text x="2350" y="1096" class="Tb2" text-anchor="start">
<tspan x="2535">25/25</tspan>
<tspan x="2650">6/6</tspan>
<tspan x="2765">0</tspan>
<tspan x="2880">1</tspan>
<tspan x="2995">skip null:successful</tspan>
</text>
<text x="2350" y="1126" class="Tb2" text-anchor="start">
<tspan x="2535">25/25</tspan>
<tspan x="2650">6/6</tspan>
<tspan x="2765">0</tspan>
<tspan x="2880">1</tspan>
<tspan x="2995">skip null:successful</tspan>
</text>
<text x="2350" y="1156" class="Tb2" text-anchor="start">
<tspan x="2535">35/35</tspan>
<tspan x="2650">4/4</tspan>
<tspan x="2765">0</tspan>
<tspan x="2880">2</tspan>
<tspan x="2995">skip null:successful</tspan>
</text>
<text x="2350" y="1186" class="Tb2" text-anchor="start">
<tspan x="2535">35/35</tspan>
<tspan x="2650">4/4</tspan>
<tspan x="2765">0</tspan>
<tspan x="2880">2</tspan>
<tspan x="2995">skip null:successful</tspan>
</text>
<text x="2350" y="1216" class="Tb2" text-anchor="start">
<tspan x="2535">35/35</tspan>
<tspan x="2650">4/4</tspan>
<tspan x="2765">0</tspan>
<tspan x="2880">2</tspan>
<tspan x="2995">skip null:successful</tspan>
</text>
<text x="2350" y="1246" class="Tb2" text-anchor="start">
<tspan x="2535">35/35</tspan>
<tspan x="2650">4/4</tspan>
<tspan x="2765">0</tspan>
<tspan x="2880">2</tspan>
<tspan x="2995">skip null:successful</tspan>
</text>
<text x="2350" y="1276" class="Tb2" text-anchor="start">
<tspan x="2535">35/35</tspan>
<tspan x="2650">4/4</tspan>
<tspan x="2765">0</tspan>
<tspan x="2880">2</tspan>
<tspan x="2995">skip null:successful</tspan>
</text>
<text x="2350" y="1306" class="Tb2" text-anchor="start">
<tspan x="2535">35/35</tspan>
<tspan x="2650">4/4</tspan>
<tspan x="2765">0</tspan>
<tspan x="2880">2</tspan>
<tspan x="2995">skip null:successful</tspan>
</text>
<text x="2350" y="1336" class="Tb2" text-anchor="start">
<tspan x="2535">25/25</tspan>
<tspan x="2650">6/6</tspan>
<tspan x="2765">0</tspan>
<tspan x="2880">1</tspan>
<tspan x="2995">skip null:successful</tspan>
</text>
<text x="2350" y="1366" class="Tb2" text-anchor="start">
<tspan x="2535">25/25</tspan>
<tspan x="2650">6/6</tspan>
<tspan x="2765">0</tspan>
<tspan x="2880">1</tspan>
<tspan x="2995">skip null:successful</tspan>
</text>
<text x="2350" y="1396" class="Tb2" text-anchor="start">
<tspan x="2535">25/25</tspan>
<tspan x="2650">6/6</tspan>
<tspan x="2765">0</tspan>
<tspan x="2880">1</tspan>
<tspan x="2995">skip null:successful</tspan>
</text>
<text x="2350" y="1426" class="Tb2" text-anchor="start">
<tspan x="2535">25/25</tspan>
<tspan x="2650">6/6</tspan>
<tspan x="2765">0</tspan>
<tspan x="2880">1</tspan>
<tspan x="2995">skip null:successful</tspan>
</text>
<text x="2350" y="1456" class="Tb2" text-anchor="start">
<tspan x="2535">25/25</tspan>
<tspan x="2650">6/6</tspan>
<tspan x="2765">0</tspan>
<tspan x="2880">1</tspan>
<tspan x="2995">skip null:successful</tspan>
</text>
<text x="2350" y="1486" class="Tb2" text-anchor="start">
<tspan x="2535">25/25</tspan>
<tspan x="2650">6/6</tspan>
<tspan x="2765">0</tspan>
<tspan x="2880">1</tspan>
<tspan x="2995">skip null:successful</tspan>
</text>
<text x="2350" y="1516" class="Tb2" text-anchor="start">
<tspan x="2535">20/20</tspan>
<tspan x="2650">3/3</tspan>
<tspan x="2765">3</tspan>
<tspan x="2880">1</tspan>
<tspan x="2995">skip null:successful</tspan>
</text>
<text x="2350" y="1546" class="Tb2" text-anchor="start">
<tspan x="2535">20/20</tspan>
<tspan x="2650">3/3</tspan>
<tspan x="2765">3</tspan>
<tspan x="2880">1</tspan>
<tspan x="2995">skip null:successful</tspan>
</text>
<text x="2350" y="1576" class="Tb2" text-anchor="start">
<tspan x="2535">20/20</tspan>
<tspan x="2650">3/3</tspan>
<tspan x="2765">3</tspan>
<tspan x="2880">1</tspan>
<tspan x="2995">skip null:successful</tspan>
</text>
<text x="2350" y="1606" class="Tb2" text-anchor="start">
<tspan x="2535">20/20</tspan>
<tspan x="2650">3/3</tspan>
<tspan x="2765">3</tspan>
<tspan x="2880">1</tspan>
<tspan x="2995">skip null:successful</tspan>
</text>
<text x="2350" y="1636" class="Tb2" text-anchor="start">
<tspan x="2535">30/30</tspan>
<tspan x="2650">1/1</tspan>
<tspan x="2765">0</tspan>
<tspan x="2880">3</tspan>
<tspan x="2995">skip null:successful</tspan>
</text>
<text x="2350" y="1666" class="Tb2" text-anchor="start">
<tspan x="2535">30/30</tspan>
<tspan x="2650">1/1</tspan>
<tspan x="2765">0</tspan>
<tspan x="2880">3</tspan>
<tspan x="2995">skip null:successful</tspan>
</text>
<text x="2350" y="1696" class="Tb2" text-anchor="start">
<tspan x="2535">30/30</tspan>
<tspan x="2650">1/1</tspan>
<tspan x="2765">0</tspan>
<tspan x="2880">3</tspan>
<tspan x="2995">skip null:successful</tspan>
</text>
<text x="2350" y="1726" class="Tb2" text-anchor="start">
<tspan x="2535">30/30</tspan>
<tspan x="2650">1/1</tspan>
<tspan x="2765">0</tspan>
<tspan x="2880">3</tspan>
<tspan x="2995">skip null:successful</tspan>
</text>
<text x="2350" y="1756" class="Tb2" text-anchor="start">
<tspan x="2535">30/30</tspan>
<tspan x="2650">1/1</tspan>
<tspan x="2765">0</tspan>
<tspan x="2880">3</tspan>
<tspan x="2995">skip null:successful</tspan>
</text>
<text x="2350" y="1786" class="Tb2" text-anchor="start">
<tspan x="2535">30/30</tspan>
<tspan x="2650">1/1</tspan>
<tspan x="2765">0</tspan>
<tspan x="2880">3</tspan>
<tspan x="2995">skip null:successful</tspan>
</text>
<text x="2350" y="1816" class="Tb2" text-anchor="start">
<tspan x="2535">25/25</tspan>
<tspan x="2650">6/6</tspan>
<tspan x="2765">0</tspan>
<tspan x="2880">1</tspan>
<tspan x="2995">skip null:successful</tspan>
</text>
<text x="2350" y="1846" class="Tb2" text-anchor="start">
<tspan x="2535">25/25</tspan>
<tspan x="2650">6/6</tspan>
<tspan x="2765">0</tspan>
<tspan x="2880">1</tspan>
<tspan x="2995">skip null:successful</tspan>
</text>
<text x="2350" y="1876" class="Tb2" text-anchor="start">
<tspan x="2535">25/25</tspan>
<tspan x="2650">6/6</tspan>
<tspan x="2765">0</tspan>
<tspan x="2880">1</tspan>
<tspan x="2995">skip null:successful</tspan>
</text>
<text x="2350" y="1906" class="Tb2" text-anchor="start">
<tspan x="2535">25/25</tspan>
<tspan x="2650">6/6</tspan>
<tspan x="2765">0</tspan>
<tspan x="2880">1</tspan>
<tspan x="2995">skip null:successful</tspan>
</text>
<text x="2350" y="1936" class="Tb2" text-anchor="start">
<tspan x="2535">25/25</tspan>
<tspan x="2650">6/6</tspan>
<tspan x="2765">0</tspan>
<tspan x="2880">1</tspan>
<tspan x="2995">skip null:successful</tspan>
</text>
<text x="2350" y="1966" class="Tb2" text-anchor="start">
<tspan x="2535">25/25</tspan>
<tspan x="2650">6/6</tspan>
<tspan x="2765">0</tspan>
<tspan x="2880">1</tspan>
<tspan x="2995">skip null:successful</tspan>
</text>
</g>
<line y2="442" x1="3290" class="s5 sw1" x2="3290" y1="1996"/>
<g id="achievementPart" transform="translate(-100, 150)">
<text x="3400" y="301" class="TxtAch">
<tspan x="3400">Achievements</tspan>
<tspan fill="rgba(0,158,115,1.0)" x="3400" y="331">Nabf</tspan>
<tspan fill="rgba(0,114,178,1.0)" x="3400" y="356">B</tspan>
</text>
</g>
</g>
</svg>
