<?xml version="1.0" encoding="UTF-8"?><?xml-stylesheet type="text/css" href="style.css"?><svg xmlns="http://www.w3.org/2000/svg" xmlns:xlink="http://www.w3.org/1999/xlink" contentScriptType="text/ecmascript" zoomAndPan="magnify" contentStyleType="text/css" preserveAspectRatio="xMidYMid meet" version="1.0">
<g id="scaleSvg" transform="scale(0.25)">
<polygon class="T1" points="550,1150 650,1250 550,1250 "/>
<polygon class="T1" points="650,1350 550,1250 650,1250 "/>
<polygon class="T1" points="1650,1250 1550,1350 1550,1250 "/>
<polygon class="T1" points="1550,1350 1650,1250 1650,1350 "/>
<polygon class="T1" points="650,1250 550,1150 650,1250 550,1250 550,1150 "/>
<polygon class="T1" points="550,1250 650,1350 550,1250 650,1250 650,1350 "/>
<polygon class="T1" points="650,1350 750,1250 650,1350 550,1250 650,1250 "/>
<polygon class="T1" points="650,1350 650,1250 550,1250 550,1150 650,1250 "/>
<polygon class="T1" points="550,1150 550,1250 650,1250 650,1350 550,1250 "/>
<polygon class="T1" points="1550,1450 1650,1350 1550,1350 1650,1250 1650,1350 "/>
<polygon class="T1" points="1650,1250 1550,1250 1650,1250 1550,1350 1550,1250 "/>
<polygon class="T1" points="1550,1250 1550,1350 1650,1250 1650,1350 1550,1350 "/>
<polygon class="T1" points="1650,1350 1650,1250 1550,1350 1550,1250 1650,1250 "/>
<polygon class="T1" points="1550,1350 1650,1350 1550,1350 1650,1250 1650,1350 "/>
<polygon class="T1" points="850,1350 750,1250 650,1350 550,1250 650,1250 650,1350 750,1250 "/>
<polygon class="T1" points="1550,1750 1550,1450 1650,1350 1550,1350 1650,1250 1650,1350 1550,1450 "/>
<circle r="25" class="T1n" cx="550" cy="1150"/>
<circle r="25" class="T1n" cx="2050" cy="1450"/>
<circle r="25" class="T1n" cx="450" cy="50"/>
<circle r="25" class="T1n" cx="750" cy="1250"/>
<circle r="25" class="T1n" cx="1550" cy="1350"/>
<circle r="25" class="T1n" cx="1650" cy="1250"/>
<circle r="25" class="T1n" cx="850" cy="1350"/>
<circle r="25" class="T1n" cx="750" cy="250"/>
<circle r="25" class="T1n" cx="650" cy="150"/>
<circle r="25" class="T1n" cx="350" cy="150"/>
<circle r="25" class="T1n" cx="1450" cy="1750"/>
<circle r="25" class="T1n" cx="650" cy="1350"/>
<circle r="25" class="T1n" cx="1550" cy="1250"/>
<circle r="25" class="T1n" cx="850" cy="350"/>
<circle r="25" class="T1n" cx="1250" cy="950"/>
<circle r="25" class="T1n" cx="1550" cy="1450"/>
<circle r="25" class="T1n" cx="1550" cy="1750"/>
<circle r="25" class="T1n" cx="2050" cy="1150"/>
<circle r="25" class="T1n" cx="1550" cy="1850"/>
<circle r="25" class="T1n" cx="1150" cy="1950"/>
<circle r="25" class="T1n" cx="650" cy="1250"/>
<circle r="25" class="T1n" cx="1050" cy="1550"/>
<circle r="25" class="T1n" cx="850" cy="1450"/>
<circle r="25" class="T1n" cx="550" cy="1250"/>
<circle r="25" class="T1n" cx="1750" cy="1950"/>
<circle r="25" class="T1n" cx="1650" cy="1350"/>
<circle r="25" class="T1n" cx="2150" cy="1950"/>
<line y2="150" x1="450" class="T1e" x2="650" y1="50"/>
<line y2="350" x1="750" class="T1e" x2="850" y1="250"/>
<line y2="150" x1="750" class="T1e" x2="650" y1="250"/>
<line y2="150" x1="450" class="T1e" x2="350" y1="50"/>
<line y2="1150" x1="650" class="T1e" x2="550" y1="1250"/>
<line y2="1350" x1="550" class="T1e" x2="650" y1="1250"/>
<line y2="1250" x1="650" class="T1e" x2="750" y1="1350"/>
<line y2="1250" x1="850" class="T1e" x2="750" y1="1350"/>
<line y2="1350" x1="850" class="T1e" x2="850" y1="1450"/>
<line y2="1250" x1="650" class="T1e" x2="550" y1="1250"/>
<line y2="1350" x1="650" class="T1e" x2="650" y1="1250"/>
<line y2="1150" x1="550" class="T1e" x2="550" y1="1250"/>
<line y2="1450" x1="1550" class="T1e" x2="1550" y1="1750"/>
<line y2="1850" x1="1450" class="T1e" x2="1550" y1="1750"/>
<line y2="1350" x1="1550" class="T1e" x2="1650" y1="1450"/>
<line y2="1350" x1="1650" class="T1e" x2="1550" y1="1250"/>
<line y2="1850" x1="1550" class="T1e" x2="1550" y1="1750"/>
<line y2="1250" x1="1550" class="T1e" x2="1650" y1="1250"/>
<line y2="1350" x1="1550" class="T1e" x2="1550" y1="1250"/>
<line y2="1350" x1="1650" class="T1e" x2="1650" y1="1250"/>
<line y2="1350" x1="1650" class="T1e" x2="1550" y1="1350"/>
<circle r="6" class="N" cx="550" cy="1150"/>
<circle r="9" class="N" cx="2050" cy="1450"/>
<circle r="5" class="N" cx="450" cy="50"/>
<circle r="8" class="N" cx="750" cy="1250"/>
<circle r="8" class="N" cx="1550" cy="1350"/>
<circle r="8" class="N" cx="1650" cy="1250"/>
<circle r="8" class="N" cx="850" cy="1350"/>
<circle r="5" class="N" cx="750" cy="250"/>
<circle r="5" class="N" cx="650" cy="150"/>
<circle r="5" class="N" cx="350" cy="150"/>
<circle r="5" class="N" cx="1450" cy="1750"/>
<circle r="8" class="N" cx="650" cy="1350"/>
<circle r="6" class="N" cx="1550" cy="1250"/>
<circle r="6" class="N" cx="850" cy="350"/>
<circle r="12" class="N" cx="1250" cy="950"/>
<circle r="18" class="N" cx="1550" cy="1450"/>
<circle r="15" class="N" cx="1550" cy="1750"/>
<circle r="5" class="N" cx="2050" cy="1150"/>
<circle r="6" class="N" cx="1550" cy="1850"/>
<circle r="5" class="N" cx="1150" cy="1950"/>
<circle r="6" class="N" cx="650" cy="1250"/>
<circle r="5" class="N" cx="1050" cy="1550"/>
<circle r="5" class="N" cx="850" cy="1450"/>
<circle r="8" class="N" cx="550" cy="1250"/>
<circle r="5" class="N" cx="1750" cy="1950"/>
<circle r="11" class="N" cx="1650" cy="1350"/>
<circle r="6" class="N" cx="2150" cy="1950"/>
<line y2="150" x1="450" class="E sw9" x2="650" y1="50"/>
<line x1="750" x2="850" y1="250" y2="350" style="stroke-width:11;" class="E"/>
<line y2="150" x1="750" class="E sw4" x2="650" y1="250"/>
<line y2="150" x1="450" class="E sw6" x2="350" y1="50"/>
<line y2="1150" x1="650" class="E sw7" x2="550" y1="1250"/>
<line y2="1350" x1="550" class="E sw5" x2="650" y1="1250"/>
<line y2="1250" x1="650" class="E sw3" x2="750" y1="1350"/>
<line x1="850" x2="750" y1="1350" y2="1250" style="stroke-width:11;" class="E"/>
<line y2="1350" x1="850" class="E sw3" x2="850" y1="1450"/>
<line y2="1250" x1="650" class="E sw3" x2="550" y1="1250"/>
<line y2="1350" x1="650" class="E sw5" x2="650" y1="1250"/>
<line y2="1150" x1="550" class="E sw8" x2="550" y1="1250"/>
<line x1="1550" x2="1550" y1="1750" y2="1450" style="stroke-width:11;" class="E"/>
<line y2="1850" x1="1450" class="E sw7" x2="1550" y1="1750"/>
<line y2="1350" x1="1550" class="E sw3" x2="1650" y1="1450"/>
<line y2="1350" x1="1650" class="E sw5" x2="1550" y1="1250"/>
<line y2="1850" x1="1550" class="E sw7" x2="1550" y1="1750"/>
<line y2="1250" x1="1550" class="E sw3" x2="1650" y1="1250"/>
<line y2="1350" x1="1550" class="E sw5" x2="1550" y1="1250"/>
<line x1="1650" x2="1650" y1="1250" y2="1350" style="stroke-width:11;" class="E"/>
<line y2="1350" x1="1650" class="E sw8" x2="1550" y1="1350"/>
<polygon class="T2" points="250,550 50,650 150,550 "/>
<polygon class="T2" points="550,1750 450,1850 450,1750 "/>
<polygon class="T2" points="850,1850 850,2050 750,2050 750,1950 "/>
<polygon class="T2" points="550,2150 450,2050 550,1950 650,2050 "/>
<polygon class="T2" points="550,1950 450,2050 450,1950 450,1850 "/>
<polygon class="T2" points="50,650 250,550 50,650 150,550 250,550 "/>
<polygon class="T2" points="450,1750 450,1550 450,1750 550,1750 450,1850 "/>
<polygon class="T2" points="50,650 50,850 50,650 150,550 250,550 "/>
<polygon class="T2" points="450,1750 350,1850 450,1750 550,1750 450,1850 "/>
<polygon class="T2" points="150,550 50,650 150,550 250,550 50,650 "/>
<polygon class="T2" points="550,1950 450,1850 450,1750 550,1750 450,1850 "/>
<polygon class="T2" points="450,1850 550,1750 450,1850 450,1750 550,1750 "/>
<polygon class="T2" points="450,1750 450,1850 450,1750 550,1750 450,1850 "/>
<polygon class="T2" points="550,1750 450,1750 550,1750 450,1850 450,1750 "/>
<polygon class="T2" points="250,550 150,550 250,550 50,650 150,550 "/>
<polygon class="T2" points="450,1850 450,1950 450,1850 450,1750 550,1750 "/>
<polygon class="T2" points="550,2150 850,2150 550,2150 450,2050 550,1950 650,2050 "/>
<polygon class="T2" points="850,2050 850,1850 850,2050 750,2050 750,1950 850,1850 "/>
<polygon class="T2" points="450,2050 550,2150 450,2050 550,1950 650,2050 550,2150 "/>
<polygon class="T2" points="550,2150 650,2050 550,2150 450,2050 550,1950 650,2050 "/>
<polygon class="T2" points="650,2050 550,1950 450,2050 450,1950 450,1850 550,1950 "/>
<polygon class="T2" points="850,1850 750,1950 850,1850 850,2050 750,2050 750,1950 "/>
<polygon class="T2" points="450,1950 450,2050 550,1950 650,2050 550,2150 450,2050 "/>
<polygon class="T2" points="650,2050 750,2050 650,2050 550,2150 450,2050 550,1950 "/>
<polygon class="T2" points="750,1950 750,2050 750,1950 850,1850 850,2050 750,2050 "/>
<polygon class="T2" points="750,2050 850,2050 750,2050 750,1950 850,1850 850,2050 "/>
<polygon class="T2" points="450,1550 350,1650 450,1550 450,1750 550,1750 450,1850 450,1750 "/>
<circle r="25" class="T2n" cx="150" cy="550"/>
<circle r="25" class="T2n" cx="1150" cy="1850"/>
<circle r="25" class="T2n" cx="1850" cy="1850"/>
<circle r="25" class="T2n" cx="2150" cy="350"/>
<circle r="25" class="T2n" cx="450" cy="350"/>
<circle r="25" class="T2n" cx="250" cy="550"/>
<circle r="25" class="T2n" cx="50" cy="850"/>
<circle r="25" class="T2n" cx="1650" cy="2150"/>
<circle r="25" class="T2n" cx="850" cy="1850"/>
<circle r="25" class="T2n" cx="1750" cy="250"/>
<circle r="25" class="T2n" cx="450" cy="2050"/>
<circle r="25" class="T2n" cx="650" cy="2050"/>
<circle r="25" class="T2n" cx="750" cy="1950"/>
<circle r="25" class="T2n" cx="250" cy="1850"/>
<circle r="25" class="T2n" cx="850" cy="2150"/>
<circle r="25" class="T2n" cx="550" cy="2150"/>
<circle r="25" class="T2n" cx="750" cy="2050"/>
<circle r="25" class="T2n" cx="450" cy="1550"/>
<circle r="25" class="T2n" cx="350" cy="1850"/>
<circle r="25" class="T2n" cx="550" cy="1750"/>
<circle r="25" class="T2n" cx="1750" cy="1750"/>
<circle r="25" class="T2n" cx="450" cy="1750"/>
<circle r="25" class="T2n" cx="50" cy="650"/>
<circle r="25" class="T2n" cx="550" cy="850"/>
<circle r="25" class="T2n" cx="850" cy="2050"/>
<circle r="25" class="T2n" cx="50" cy="1650"/>
<circle r="25" class="T2n" cx="550" cy="1950"/>
<circle r="25" class="T2n" cx="350" cy="1650"/>
<circle r="25" class="T2n" cx="1950" cy="50"/>
<circle r="25" class="T2n" cx="1350" cy="50"/>
<circle r="25" class="T2n" cx="1450" cy="1150"/>
<circle r="25" class="T2n" cx="450" cy="1950"/>
<circle r="25" class="T2n" cx="450" cy="1850"/>
<circle r="25" class="T2n" cx="1350" cy="2150"/>
<line y2="2150" x1="550" class="T2e" x2="850" y1="2150"/>
<line y2="1650" x1="250" class="T2e" x2="350" y1="1850"/>
<line y2="650" x1="250" class="T2e" x2="50" y1="550"/>
<line y2="1550" x1="450" class="T2e" x2="450" y1="1750"/>
<line y2="850" x1="50" class="T2e" x2="50" y1="650"/>
<line y2="2050" x1="850" class="T2e" x2="850" y1="1850"/>
<line y2="1850" x1="450" class="T2e" x2="350" y1="1750"/>
<line y2="2150" x1="450" class="T2e" x2="550" y1="2050"/>
<line y2="1950" x1="450" class="T2e" x2="550" y1="2050"/>
<line y2="650" x1="150" class="T2e" x2="50" y1="550"/>
<line y2="2050" x1="550" class="T2e" x2="650" y1="2150"/>
<line y2="1850" x1="550" class="T2e" x2="450" y1="1950"/>
<line y2="2050" x1="550" class="T2e" x2="650" y1="1950"/>
<line y2="1750" x1="450" class="T2e" x2="550" y1="1850"/>
<line y2="1850" x1="750" class="T2e" x2="850" y1="1950"/>
<line y2="1650" x1="450" class="T2e" x2="350" y1="1550"/>
<line y2="1850" x1="450" class="T2e" x2="450" y1="1750"/>
<line y2="1750" x1="450" class="T2e" x2="550" y1="1750"/>
<line y2="1950" x1="450" class="T2e" x2="450" y1="2050"/>
<line y2="550" x1="150" class="T2e" x2="250" y1="550"/>
<line y2="1950" x1="450" class="T2e" x2="450" y1="1850"/>
<line y2="2050" x1="650" class="T2e" x2="750" y1="2050"/>
<line y2="2050" x1="750" class="T2e" x2="750" y1="1950"/>
<line y2="2050" x1="750" class="T2e" x2="850" y1="2050"/>
<line y2="2150" x1="1650" class="T2e" x2="1350" y1="2150"/>
<line y2="1850" x1="1750" class="T2e" x2="1850" y1="1750"/>
<circle r="6" class="N" cx="150" cy="550"/>
<circle r="5" class="N" cx="1150" cy="1850"/>
<circle r="9" class="N" cx="1850" cy="1850"/>
<circle r="5" class="N" cx="2150" cy="350"/>
<circle r="5" class="N" cx="450" cy="350"/>
<circle r="9" class="N" cx="250" cy="550"/>
<circle r="8" class="N" cx="50" cy="850"/>
<circle r="5" class="N" cx="1650" cy="2150"/>
<circle r="5" class="N" cx="850" cy="1850"/>
<circle r="5" class="N" cx="1750" cy="250"/>
<circle r="5" class="N" cx="450" cy="2050"/>
<circle r="5" class="N" cx="650" cy="2050"/>
<circle r="5" class="N" cx="750" cy="1950"/>
<circle r="14" class="N" cx="250" cy="1850"/>
<circle r="5" class="N" cx="850" cy="2150"/>
<circle r="5" class="N" cx="550" cy="2150"/>
<circle r="5" class="N" cx="750" cy="2050"/>
<circle r="14" class="N" cx="450" cy="1550"/>
<circle r="9" class="N" cx="350" cy="1850"/>
<circle r="8" class="N" cx="550" cy="1750"/>
<circle r="9" class="N" cx="1750" cy="1750"/>
<circle r="9" class="N" cx="450" cy="1750"/>
<circle r="8" class="N" cx="50" cy="650"/>
<circle r="8" class="N" cx="550" cy="850"/>
<circle r="5" class="N" cx="850" cy="2050"/>
<circle r="8" class="N" cx="50" cy="1650"/>
<circle r="5" class="N" cx="550" cy="1950"/>
<circle r="18" class="N" cx="350" cy="1650"/>
<circle r="5" class="N" cx="1950" cy="50"/>
<circle r="5" class="N" cx="1350" cy="50"/>
<circle r="11" class="N" cx="1450" cy="1150"/>
<circle r="5" class="N" cx="450" cy="1950"/>
<circle r="6" class="N" cx="450" cy="1850"/>
<circle r="5" class="N" cx="1350" cy="2150"/>
<line y2="2150" x1="550" class="E sw4" x2="850" y1="2150"/>
<line x1="250" x2="350" y1="1850" y2="1650" style="stroke-width:11;" class="E"/>
<line x1="250" x2="50" y1="550" y2="650" style="stroke-width:11;" class="E"/>
<line y2="1550" x1="450" class="E sw8" x2="450" y1="1750"/>
<line x1="50" x2="50" y1="650" y2="850" style="stroke-width:11;" class="E"/>
<line y2="2050" x1="850" class="E sw3" x2="850" y1="1850"/>
<line y2="1850" x1="450" class="E sw4" x2="350" y1="1750"/>
<line y2="2150" x1="450" class="E sw6" x2="550" y1="2050"/>
<line y2="1950" x1="450" class="E sw10" x2="550" y1="2050"/>
<line y2="650" x1="150" class="E sw9" x2="50" y1="550"/>
<line y2="2050" x1="550" class="E sw4" x2="650" y1="2150"/>
<line y2="1850" x1="550" class="E sw9" x2="450" y1="1950"/>
<line x1="550" x2="650" y1="1950" y2="2050" style="stroke-width:11;" class="E"/>
<line y2="1750" x1="450" class="E sw5" x2="550" y1="1850"/>
<line y2="1850" x1="750" class="E sw4" x2="850" y1="1950"/>
<line x1="450" x2="350" y1="1550" y2="1650" style="stroke-width:11;" class="E"/>
<line x1="450" x2="450" y1="1750" y2="1850" style="stroke-width:11;" class="E"/>
<line y2="1750" x1="450" class="E sw8" x2="550" y1="1750"/>
<line y2="1950" x1="450" class="E sw9" x2="450" y1="2050"/>
<line x1="150" x2="250" y1="550" y2="550" style="stroke-width:11;" class="E"/>
<line y2="1950" x1="450" class="E sw10" x2="450" y1="1850"/>
<line y2="2050" x1="650" class="E sw10" x2="750" y1="2050"/>
<line x1="750" x2="750" y1="1950" y2="2050" style="stroke-width:11;" class="E"/>
<line y2="2050" x1="750" class="E sw3" x2="850" y1="2050"/>
<line y2="2150" x1="1650" class="E sw4" x2="1350" y1="2150"/>
<line y2="1850" x1="1750" class="E sw4" x2="1850" y1="1750"/>
<polygon class=" s5 sw2 f14" points="557,1180 575,1198 557,1216 539,1198"/>
<rect x="530" width="54" y="1162" height="18" class="s14 sw2 f8"/>
<text x="550" y="1201" class="f4">14</text>
<circle r="3" class="s4 sw0 f4" cx="566" cy="1165"/>
<circle r="3" class="s4 sw0 f4" cx="566" cy="1177"/>
<circle r="3" class="s4 sw0 f4" cx="557" cy="1171"/>
<circle r="3" class="s4 sw0 f4" cx="575" cy="1171"/>
<line y2="1171" x1="560" class="s4 sw1" x2="572" y1="1171"/>
<line y2="1174" x1="566" class="s4 sw1" x2="566" y1="1168"/>
<rect x="2039" width="36" y="1480" height="36" class="s5 sw2 f14"/>
<rect x="2030" width="54" y="1462" height="18" class="s14 sw2 f8"/>
<text x="2050" y="1501" class="f4">20</text>
<circle r="3" class="s4 sw0 f4" cx="2066" cy="1465"/>
<circle r="3" class="s4 sw0 f4" cx="2066" cy="1477"/>
<circle r="3" class="s4 sw0 f4" cx="2057" cy="1471"/>
<circle r="3" class="s4 sw0 f4" cx="2075" cy="1471"/>
<line y2="1471" x1="2060" class="s4 sw1" x2="2072" y1="1471"/>
<line y2="1474" x1="2066" class="s4 sw1" x2="2066" y1="1468"/>
<rect x="239" width="36" y="880" height="36" class="s5 sw2 f13"/>
<rect x="230" width="54" y="862" height="18" class="s13 sw2 f7"/>
<text x="250" y="901" class="f4">20</text>
<circle r="18" class="s5 sw2 f14" cx="287" cy="871"/>
<rect x="260" width="54" y="835" height="18" class="s14 sw2 f8"/>
<text x="280" y="874" class="f4">1</text>
<circle r="3" class="s4 sw0 f4" cx="296" cy="838"/>
<circle r="3" class="s4 sw0 f4" cx="296" cy="850"/>
<circle r="3" class="s4 sw0 f4" cx="287" cy="844"/>
<circle r="3" class="s4 sw0 f4" cx="305" cy="844"/>
<line y2="844" x1="290" class="s4 sw1" x2="302" y1="844"/>
<line y2="847" x1="296" class="s4 sw1" x2="296" y1="841"/>
<polygon class=" s5 sw2 f13" points="1148,1880 1166,1880 1175,1889 1175,1907 1166,1916 1148,1916 1139,1907 1139,1889"/>
<rect x="1130" width="54" y="1862" height="18" class="s13 sw2 f7"/>
<text x="1150" y="1901" class="f4">7</text>
<polygon class=" s5 sw2 f13" points="730,1280 784,1280 757,1316"/>
<rect x="730" width="54" y="1262" height="18" class="s13 sw2 f7"/>
<text x="750" y="1301" class="f4">28</text>
<polygon class=" s5 sw2 f14" points="760,1253 814,1253 787,1289"/>
<rect x="760" width="54" y="1235" height="18" class="s14 sw2 f8"/>
<text x="780" y="1274" class="f4">25</text>
<line y2="1247" x1="790" class="s4 sw3" x2="802" y1="1241"/>
<circle r="6" class="s4 sw0 f4" cx="790" cy="1241"/>
<polygon class=" s5 sw2 f14" points="753,1215 807,1215 780,1251"/>
<rect x="753" width="54" y="1197" height="18" class="s14 sw2 f8"/>
<text x="773" y="1236" class="f4">24</text>
<polygon class=" s4 sw0 f4" points="789,1197 789,1203 795,1203 783,1215 783,1209 777,1209"/>
<polygon class=" s5 sw2 f14" points="743,1202 761,1220 743,1238 725,1220"/>
<rect x="716" width="54" y="1184" height="18" class="s14 sw2 f8"/>
<text x="736" y="1223" class="f4">15</text>
<circle r="3" class="s4 sw0 f4" cx="752" cy="1187"/>
<circle r="3" class="s4 sw0 f4" cx="752" cy="1199"/>
<circle r="3" class="s4 sw0 f4" cx="743" cy="1193"/>
<circle r="3" class="s4 sw0 f4" cx="761" cy="1193"/>
<line y2="1193" x1="746" class="s4 sw1" x2="758" y1="1193"/>
<line y2="1196" x1="752" class="s4 sw1" x2="752" y1="1190"/>
<rect x="339" width="36" y="580" height="36" class="s5 sw2 f13"/>
<rect x="330" width="54" y="562" height="18" class="s13 sw2 f7"/>
<text x="350" y="601" class="f4">19</text>
<rect x="369" width="36" y="553" height="36" class="s5 sw2 f14"/>
<rect x="360" width="54" y="535" height="18" class="s14 sw2 f8"/>
<text x="380" y="574" class="f4">17</text>
<circle r="3" class="s4 sw0 f4" cx="396" cy="538"/>
<circle r="3" class="s4 sw0 f4" cx="396" cy="550"/>
<circle r="3" class="s4 sw0 f4" cx="387" cy="544"/>
<circle r="3" class="s4 sw0 f4" cx="405" cy="544"/>
<line y2="544" x1="390" class="s4 sw1" x2="402" y1="544"/>
<line y2="547" x1="396" class="s4 sw1" x2="396" y1="541"/>
<circle r="18" class="s5 sw2 f14" cx="1557" cy="1398"/>
<rect x="1530" width="54" y="1362" height="18" class="s14 sw2 f8"/>
<text x="1550" y="1401" class="f4">4</text>
<polygon class=" s4 sw0 f4" points="1557,1362 1575,1362 1566,1380"/>
<rect x="1839" width="36" y="1880" height="36" class="s5 sw2 f13"/>
<rect x="1830" width="54" y="1862" height="18" class="s13 sw2 f7"/>
<text x="1850" y="1901" class="f4">22</text>
<polygon class=" s5 sw2 f13" points="2130,380 2184,380 2157,416"/>
<rect x="2130" width="54" y="362" height="18" class="s13 sw2 f7"/>
<text x="2150" y="401" class="f4">24</text>
<circle r="18" class="s5 sw2 f13" cx="457" cy="398"/>
<rect x="430" width="54" y="362" height="18" class="s13 sw2 f7"/>
<text x="450" y="401" class="f4">5</text>
<polygon class=" s5 sw2 f13" points="248,580 266,580 275,589 275,607 266,616 248,616 239,607 239,589"/>
<rect x="230" width="54" y="562" height="18" class="s13 sw2 f7"/>
<text x="250" y="601" class="f4">11</text>
<polygon class=" s5 sw2 f14" points="648,180 666,180 675,189 675,207 666,216 648,216 639,207 639,189"/>
<rect x="630" width="54" y="162" height="18" class="s14 sw2 f8"/>
<text x="650" y="201" class="f4">11</text>
<circle r="3" class="s4 sw0 f4" cx="666" cy="165"/>
<circle r="3" class="s4 sw0 f4" cx="666" cy="177"/>
<circle r="3" class="s4 sw0 f4" cx="657" cy="171"/>
<circle r="3" class="s4 sw0 f4" cx="675" cy="171"/>
<line y2="171" x1="660" class="s4 sw1" x2="672" y1="171"/>
<line y2="174" x1="666" class="s4 sw1" x2="666" y1="168"/>
<circle r="18" class="s5 sw2 f14" cx="357" cy="198"/>
<rect x="330" width="54" y="162" height="18" class="s14 sw2 f8"/>
<text x="350" y="201" class="f4">3</text>
<polygon class=" s4 sw0 f4" points="357,162 375,162 366,180"/>
<polygon class=" s5 sw2 f13" points="1030,780 1084,780 1057,816"/>
<rect x="1030" width="54" y="762" height="18" class="s13 sw2 f7"/>
<text x="1050" y="801" class="f4">23</text>
<polygon class=" s5 sw2 f14" points="1060,753 1114,753 1087,789"/>
<rect x="1060" width="54" y="735" height="18" class="s14 sw2 f8"/>
<text x="1080" y="774" class="f4">23</text>
<line y2="747" x1="1090" class="s4 sw3" x2="1102" y1="741"/>
<circle r="6" class="s4 sw0 f4" cx="1090" cy="741"/>
<polygon class=" s5 sw2 f14" points="1448,1780 1466,1780 1475,1789 1475,1807 1466,1816 1448,1816 1439,1807 1439,1789"/>
<rect x="1430" width="54" y="1762" height="18" class="s14 sw2 f8"/>
<text x="1450" y="1801" class="f4">7</text>
<polygon class=" s4 sw0 f4" points="1466,1762 1466,1768 1472,1768 1460,1780 1460,1774 1454,1774"/>
<polygon class=" s5 sw2 f14" points="648,1380 666,1380 675,1389 675,1407 666,1416 648,1416 639,1407 639,1389"/>
<rect x="630" width="54" y="1362" height="18" class="s14 sw2 f8"/>
<text x="650" y="1401" class="f4">10</text>
<circle r="3" class="s4 sw0 f4" cx="666" cy="1365"/>
<circle r="3" class="s4 sw0 f4" cx="666" cy="1377"/>
<circle r="3" class="s4 sw0 f4" cx="657" cy="1371"/>
<circle r="3" class="s4 sw0 f4" cx="675" cy="1371"/>
<line y2="1371" x1="660" class="s4 sw1" x2="672" y1="1371"/>
<line y2="1374" x1="666" class="s4 sw1" x2="666" y1="1368"/>
<polygon class=" s5 sw2 f14" points="1548,1280 1566,1280 1575,1289 1575,1307 1566,1316 1548,1316 1539,1307 1539,1289"/>
<rect x="1530" width="54" y="1262" height="18" class="s14 sw2 f8"/>
<text x="1550" y="1301" class="f4">9</text>
<circle r="3" class="s4 sw0 f4" cx="1566" cy="1265"/>
<circle r="3" class="s4 sw0 f4" cx="1566" cy="1277"/>
<circle r="3" class="s4 sw0 f4" cx="1557" cy="1271"/>
<circle r="3" class="s4 sw0 f4" cx="1575" cy="1271"/>
<line y2="1271" x1="1560" class="s4 sw1" x2="1572" y1="1271"/>
<line y2="1274" x1="1566" class="s4 sw1" x2="1566" y1="1268"/>
<circle r="18" class="s5 sw2 f13" cx="1657" cy="2198"/>
<rect x="1630" width="54" y="2162" height="18" class="s13 sw2 f7"/>
<text x="1650" y="2201" class="f4">4</text>
<polygon class=" s5 sw2 f13" points="848,1880 866,1880 875,1889 875,1907 866,1916 848,1916 839,1907 839,1889"/>
<rect x="830" width="54" y="1862" height="18" class="s13 sw2 f7"/>
<text x="850" y="1901" class="f4">12</text>
<polygon class=" s5 sw2 f13" points="1748,280 1766,280 1775,289 1775,307 1766,316 1748,316 1739,307 1739,289"/>
<rect x="1730" width="54" y="262" height="18" class="s13 sw2 f7"/>
<text x="1750" y="301" class="f4">9</text>
<polygon class=" s5 sw2 f13" points="1257,1680 1275,1698 1257,1716 1239,1698"/>
<rect x="1230" width="54" y="1662" height="18" class="s13 sw2 f7"/>
<text x="1250" y="1701" class="f4">13</text>
<polygon class=" s5 sw2 f14" points="1260,1653 1314,1653 1287,1689"/>
<rect x="1260" width="54" y="1635" height="18" class="s14 sw2 f8"/>
<text x="1280" y="1674" class="f4">26</text>
<line y2="1647" x1="1290" class="s4 sw3" x2="1302" y1="1641"/>
<circle r="6" class="s4 sw0 f4" cx="1290" cy="1641"/>
<circle r="18" class="s5 sw2 f14" cx="857" cy="398"/>
<rect x="830" width="54" y="362" height="18" class="s14 sw2 f8"/>
<text x="850" y="401" class="f4">2</text>
<polygon class=" s4 sw0 f4" points="857,362 875,362 866,380"/>
<polygon class=" s5 sw2 f13" points="2057,1380 2075,1398 2057,1416 2039,1398"/>
<rect x="2030" width="54" y="1362" height="18" class="s13 sw2 f7"/>
<text x="2050" y="1401" class="f4">14</text>
<polygon class=" s5 sw2 f14" points="2060,1353 2114,1353 2087,1389"/>
<rect x="2060" width="54" y="1335" height="18" class="s14 sw2 f8"/>
<text x="2080" y="1374" class="f4">28</text>
<line y2="1347" x1="2090" class="s4 sw3" x2="2102" y1="1341"/>
<circle r="6" class="s4 sw0 f4" cx="2090" cy="1341"/>
<rect x="1239" width="36" y="980" height="36" class="s5 sw2 f14"/>
<rect x="1230" width="54" y="962" height="18" class="s14 sw2 f8"/>
<text x="1250" y="1001" class="f4">18</text>
<circle r="3" class="s4 sw0 f4" cx="1266" cy="965"/>
<circle r="3" class="s4 sw0 f4" cx="1266" cy="977"/>
<circle r="3" class="s4 sw0 f4" cx="1257" cy="971"/>
<circle r="3" class="s4 sw0 f4" cx="1275" cy="971"/>
<line y2="971" x1="1260" class="s4 sw1" x2="1272" y1="971"/>
<line y2="974" x1="1266" class="s4 sw1" x2="1266" y1="968"/>
<circle r="18" class="s5 sw2 f13" cx="257" cy="1898"/>
<rect x="230" width="54" y="1862" height="18" class="s13 sw2 f7"/>
<text x="250" y="1901" class="f4">1</text>
<rect x="269" width="36" y="1853" height="36" class="s5 sw2 f13"/>
<rect x="260" width="54" y="1835" height="18" class="s13 sw2 f7"/>
<text x="280" y="1874" class="f4">18</text>
<polygon class=" s5 sw2 f13" points="748,2080 766,2080 775,2089 775,2107 766,2116 748,2116 739,2107 739,2089"/>
<rect x="730" width="54" y="2062" height="18" class="s13 sw2 f7"/>
<text x="750" y="2101" class="f4">10</text>
<polygon class=" s5 sw2 f14" points="330,1980 384,1980 357,2016"/>
<rect x="330" width="54" y="1962" height="18" class="s14 sw2 f8"/>
<text x="350" y="2001" class="f4">27</text>
<line y2="1974" x1="360" class="s4 sw3" x2="372" y1="1968"/>
<circle r="6" class="s4 sw0 f4" cx="360" cy="1968"/>
<circle r="18" class="s5 sw2 f13" cx="387" cy="1971"/>
<rect x="360" width="54" y="1935" height="18" class="s13 sw2 f7"/>
<text x="380" y="1974" class="f4">2</text>
<polygon class=" s5 sw2 f14" points="1557,1480 1575,1498 1557,1516 1539,1498"/>
<rect x="1530" width="54" y="1462" height="18" class="s14 sw2 f8"/>
<text x="1550" y="1501" class="f4">16</text>
<circle r="3" class="s4 sw0 f4" cx="1566" cy="1465"/>
<circle r="3" class="s4 sw0 f4" cx="1566" cy="1477"/>
<circle r="3" class="s4 sw0 f4" cx="1557" cy="1471"/>
<circle r="3" class="s4 sw0 f4" cx="1575" cy="1471"/>
<line y2="1471" x1="1560" class="s4 sw1" x2="1572" y1="1471"/>
<line y2="1474" x1="1566" class="s4 sw1" x2="1566" y1="1468"/>
<polygon class=" s5 sw2 f13" points="448,1580 466,1580 475,1589 475,1607 466,1616 448,1616 439,1607 439,1589"/>
<rect x="430" width="54" y="1562" height="18" class="s13 sw2 f7"/>
<text x="450" y="1601" class="f4">8</text>
<polygon class=" s5 sw2 f14" points="1548,1780 1566,1780 1575,1789 1575,1807 1566,1816 1548,1816 1539,1807 1539,1789"/>
<rect x="1530" width="54" y="1762" height="18" class="s14 sw2 f8"/>
<text x="1550" y="1801" class="f4">8</text>
<polygon class=" s4 sw0 f4" points="1566,1762 1566,1768 1572,1768 1560,1780 1560,1774 1554,1774"/>
<polygon class=" s5 sw2 f13" points="1730,1780 1784,1780 1757,1816"/>
<rect x="1730" width="54" y="1762" height="18" class="s13 sw2 f7"/>
<text x="1750" y="1801" class="f4">25</text>
<rect x="2039" width="36" y="1180" height="36" class="s5 sw2 f14"/>
<rect x="2030" width="54" y="1162" height="18" class="s14 sw2 f8"/>
<text x="2050" y="1201" class="f4">21</text>
<polygon class=" s4 sw0 f4" points="2066,1162 2066,1168 2072,1168 2060,1180 2060,1174 2054,1174"/>
<polygon class=" s5 sw2 f14" points="2087,1153 2105,1171 2087,1189 2069,1171"/>
<rect x="2060" width="54" y="1135" height="18" class="s14 sw2 f8"/>
<text x="2080" y="1174" class="f4">13</text>
<polygon class=" s4 sw0 f4" points="2096,1135 2096,1141 2102,1141 2090,1153 2090,1147 2084,1147"/>
<rect x="1139" width="36" y="1980" height="36" class="s5 sw2 f14"/>
<rect x="1130" width="54" y="1962" height="18" class="s14 sw2 f8"/>
<text x="1150" y="2001" class="f4">19</text>
<circle r="3" class="s4 sw0 f4" cx="1166" cy="1965"/>
<circle r="3" class="s4 sw0 f4" cx="1166" cy="1977"/>
<circle r="3" class="s4 sw0 f4" cx="1157" cy="1971"/>
<circle r="3" class="s4 sw0 f4" cx="1175" cy="1971"/>
<line y2="1971" x1="1160" class="s4 sw1" x2="1172" y1="1971"/>
<line y2="1974" x1="1166" class="s4 sw1" x2="1166" y1="1968"/>
<rect x="1039" width="36" y="1580" height="36" class="s5 sw2 f14"/>
<rect x="1030" width="54" y="1562" height="18" class="s14 sw2 f8"/>
<text x="1050" y="1601" class="f4">22</text>
<circle r="3" class="s4 sw0 f4" cx="1066" cy="1565"/>
<circle r="3" class="s4 sw0 f4" cx="1066" cy="1577"/>
<circle r="3" class="s4 sw0 f4" cx="1057" cy="1571"/>
<circle r="3" class="s4 sw0 f4" cx="1075" cy="1571"/>
<line y2="1571" x1="1060" class="s4 sw1" x2="1072" y1="1571"/>
<line y2="1574" x1="1066" class="s4 sw1" x2="1066" y1="1568"/>
<polygon class=" s5 sw2 f13" points="30,680 84,680 57,716"/>
<rect x="30" width="54" y="662" height="18" class="s13 sw2 f7"/>
<text x="50" y="701" class="f4">26</text>
<circle r="18" class="s5 sw2 f14" cx="857" cy="1498"/>
<rect x="830" width="54" y="1462" height="18" class="s14 sw2 f8"/>
<text x="850" y="1501" class="f4">6</text>
<polygon class=" s4 sw0 f4" points="857,1462 875,1462 866,1480"/>
<circle r="18" class="s5 sw2 f13" cx="557" cy="898"/>
<rect x="530" width="54" y="862" height="18" class="s13 sw2 f7"/>
<text x="550" y="901" class="f4">3</text>
<rect x="39" width="36" y="1680" height="36" class="s5 sw2 f13"/>
<rect x="30" width="54" y="1662" height="18" class="s13 sw2 f7"/>
<text x="50" y="1701" class="f4">21</text>
<polygon class=" s5 sw2 f13" points="557,1980 575,1998 557,2016 539,1998"/>
<rect x="530" width="54" y="1962" height="18" class="s13 sw2 f7"/>
<text x="550" y="2001" class="f4">16</text>
<polygon class=" s5 sw2 f14" points="1748,1980 1766,1980 1775,1989 1775,2007 1766,2016 1748,2016 1739,2007 1739,1989"/>
<rect x="1730" width="54" y="1962" height="18" class="s14 sw2 f8"/>
<text x="1750" y="2001" class="f4">12</text>
<polygon class=" s4 sw0 f4" points="1766,1962 1766,1968 1772,1968 1760,1980 1760,1974 1754,1974"/>
<circle r="18" class="s5 sw2 f13" cx="1957" cy="98"/>
<rect x="1930" width="54" y="62" height="18" class="s13 sw2 f7"/>
<text x="1950" y="101" class="f4">6</text>
<rect x="1339" width="36" y="80" height="36" class="s5 sw2 f13"/>
<rect x="1330" width="54" y="62" height="18" class="s13 sw2 f7"/>
<text x="1350" y="101" class="f4">17</text>
<polygon class=" s5 sw2 f13" points="1430,1180 1484,1180 1457,1216"/>
<rect x="1430" width="54" y="1162" height="18" class="s13 sw2 f7"/>
<text x="1450" y="1201" class="f4">27</text>
<polygon class=" s5 sw2 f13" points="457,1980 475,1998 457,2016 439,1998"/>
<rect x="430" width="54" y="1962" height="18" class="s13 sw2 f7"/>
<text x="450" y="2001" class="f4">15</text>
<circle r="18" class="s5 sw2 f14" cx="2157" cy="1998"/>
<rect x="2130" width="54" y="1962" height="18" class="s14 sw2 f8"/>
<text x="2150" y="2001" class="f4">5</text>
<circle r="3" class="s4 sw0 f4" cx="2166" cy="1965"/>
<circle r="3" class="s4 sw0 f4" cx="2166" cy="1977"/>
<circle r="3" class="s4 sw0 f4" cx="2157" cy="1971"/>
<circle r="3" class="s4 sw0 f4" cx="2175" cy="1971"/>
<line y2="1971" x1="2160" class="s4 sw1" x2="2172" y1="1971"/>
<line y2="1974" x1="2166" class="s4 sw1" x2="2166" y1="1968"/>
<g id="teamTable" transform="translate(-100, 150)">
<text x="2350" y="75" class="TxtNrml">Step: 52</text>
<text x="2350" y="180" class="Tb" text-anchor="start">
<tspan fill="rgba(0,158,115,1.0)" x="2350">Nabf</tspan>
<tspan x="2750">3603</tspan>
<tspan x="2950">66</tspan>
<tspan x="3150">48</tspan>
<tspan x="3350">18</tspan>
</text>
<text x="2350" y="220" class="Tb" text-anchor="start">
<tspan fill="rgba(0,114,178,1.0)" x="2350">B</tspan>
<tspan x="2750">1460</tspan>
<tspan x="2950">27</tspan>
<tspan x="3150">25</tspan>
<tspan x="3350">2</tspan>
</text>
</g>
<g id="agentTable" transform="translate(-100, 150)">
<text x="2350" y="316" class="Tb2" text-anchor="start">
<tspan x="2535">15/35</tspan>
<tspan x="2650">4/4</tspan>
<tspan x="2765">0</tspan>
<tspan x="2880">2</tspan>
<tspan x="2995">goto v13:successful</tspan>
</text>
<text x="2350" y="346" class="Tb2" text-anchor="start">
<tspan x="2535">9/35</tspan>
<tspan x="2650">4/4</tspan>
<tspan x="2765">0</tspan>
<tspan x="2880">2</tspan>
<tspan x="2995">probe :successful</tspan>
</text>
<text x="2350" y="376" class="Tb2" text-anchor="start">
<tspan x="2535">10/35</tspan>
<tspan x="2650">4/4</tspan>
<tspan x="2765">0</tspan>
<tspan x="2880">2</tspan>
<tspan x="2995">probe :successful</tspan>
</text>
<text x="2350" y="406" class="Tb2" text-anchor="start">
<tspan x="2535">22/35</tspan>
<tspan x="2650">4/4</tspan>
<tspan x="2765">0</tspan>
<tspan x="2880">2</tspan>
<tspan x="2995">probe :successful</tspan>
</text>
<text x="2350" y="436" class="Tb2" text-anchor="start">
<tspan x="2535">17/35</tspan>
<tspan x="2650">4/4</tspan>
<tspan x="2765">0</tspan>
<tspan x="2880">2</tspan>
<tspan x="2995">goto v293:successful</tspan>
</text>
<text x="2350" y="466" class="Tb2" text-anchor="start">
<tspan x="2535">17/35</tspan>
<tspan x="2650">4/4</tspan>
<tspan x="2765">0</tspan>
<tspan x="2880">2</tspan>
<tspan x="2995">probe :successful</tspan>
</text>
<text x="2350" y="496" class="Tb2" text-anchor="start">
<tspan x="2535">17/25</tspan>
<tspan x="2650">6/6</tspan>
<tspan x="2765">0</tspan>
<tspan x="2880">1</tspan>
<tspan x="2995">recharge :successful</tspan>
</text>
<text x="2350" y="526" class="Tb2" text-anchor="start">
<tspan x="2535">20/25</tspan>
<tspan x="2650">6/6</tspan>
<tspan x="2765">0</tspan>
<tspan x="2880">1</tspan>
<tspan x="2995">recharge :successful</tspan>
</text>
<text x="2350" y="556" class="Tb2" text-anchor="start">
<tspan x="2535">9/25</tspan>
<tspan x="2650">6/6</tspan>
<tspan x="2765">0</tspan>
<tspan x="2880">1</tspan>
<tspan x="2995">goto v111:successful</tspan>
</text>
<text x="2350" y="586" class="Tb2" text-anchor="start">
<tspan x="2535">14/25</tspan>
<tspan x="2650">6/6</tspan>
<tspan x="2765">0</tspan>
<tspan x="2880">1</tspan>
<tspan x="2995">goto v102:successful</tspan>
</text>
<text x="2350" y="616" class="Tb2" text-anchor="start">
<tspan x="2535">10/25</tspan>
<tspan x="2650">6/6</tspan>
<tspan x="2765">0</tspan>
<tspan x="2880">1</tspan>
<tspan x="2995">goto v81:successful</tspan>
</text>
<text x="2350" y="646" class="Tb2" text-anchor="start">
<tspan x="2535">20/25</tspan>
<tspan x="2650">6/6</tspan>
<tspan x="2765">0</tspan>
<tspan x="2880">1</tspan>
<tspan x="2995">recharge :successful</tspan>
</text>
<text x="2350" y="676" class="Tb2" text-anchor="start">
<tspan x="2535">16/20</tspan>
<tspan x="2650">3/3</tspan>
<tspan x="2765">3</tspan>
<tspan x="2880">1</tspan>
<tspan x="2995">recharge :successful</tspan>
</text>
<text x="2350" y="706" class="Tb2" text-anchor="start">
<tspan x="2535">14/20</tspan>
<tspan x="2650">3/3</tspan>
<tspan x="2765">3</tspan>
<tspan x="2880">1</tspan>
<tspan x="2995">goto v5:successful</tspan>
</text>
<text x="2350" y="736" class="Tb2" text-anchor="start">
<tspan x="2535">15/20</tspan>
<tspan x="2650">3/3</tspan>
<tspan x="2765">3</tspan>
<tspan x="2880">1</tspan>
<tspan x="2995">goto v21:successful</tspan>
</text>
<text x="2350" y="766" class="Tb2" text-anchor="start">
<tspan x="2535">16/20</tspan>
<tspan x="2650">3/3</tspan>
<tspan x="2765">3</tspan>
<tspan x="2880">1</tspan>
<tspan x="2995">goto v177:successful</tspan>
</text>
<text x="2350" y="796" class="Tb2" text-anchor="start">
<tspan x="2535">14/30</tspan>
<tspan x="2650">1/1</tspan>
<tspan x="2765">0</tspan>
<tspan x="2880">3</tspan>
<tspan x="2995">goto v33:successful</tspan>
</text>
<text x="2350" y="826" class="Tb2" text-anchor="start">
<tspan x="2535">14/30</tspan>
<tspan x="2650">1/1</tspan>
<tspan x="2765">0</tspan>
<tspan x="2880">3</tspan>
<tspan x="2995">goto v156:successful</tspan>
</text>
<text x="2350" y="856" class="Tb2" text-anchor="start">
<tspan x="2535">13/30</tspan>
<tspan x="2650">1/1</tspan>
<tspan x="2765">0</tspan>
<tspan x="2880">3</tspan>
<tspan x="2995">goto v214:successful</tspan>
</text>
<text x="2350" y="886" class="Tb2" text-anchor="start">
<tspan x="2535">18/30</tspan>
<tspan x="2650">1/1</tspan>
<tspan x="2765">0</tspan>
<tspan x="2880">3</tspan>
<tspan x="2995">goto v12:successful</tspan>
</text>
<text x="2350" y="916" class="Tb2" text-anchor="start">
<tspan x="2535">23/30</tspan>
<tspan x="2650">1/1</tspan>
<tspan x="2765">0</tspan>
<tspan x="2880">3</tspan>
<tspan x="2995">recharge :successful</tspan>
</text>
<text x="2350" y="946" class="Tb2" text-anchor="start">
<tspan x="2535">2/30</tspan>
<tspan x="2650">1/1</tspan>
<tspan x="2765">0</tspan>
<tspan x="2880">3</tspan>
<tspan x="2995">goto v219:successful</tspan>
</text>
<text x="2350" y="976" class="Tb2" text-anchor="start">
<tspan x="2535">1/25</tspan>
<tspan x="2650">6/6</tspan>
<tspan x="2765">0</tspan>
<tspan x="2880">1</tspan>
<tspan x="2995">inspect :successful</tspan>
</text>
<text x="2350" y="1006" class="Tb2" text-anchor="start">
<tspan x="2535">13/25</tspan>
<tspan x="2650">6/6</tspan>
<tspan x="2765">0</tspan>
<tspan x="2880">1</tspan>
<tspan x="2995">recharge :successful</tspan>
</text>
<text x="2350" y="1036" class="Tb2" text-anchor="start">
<tspan x="2535">1/25</tspan>
<tspan x="2650">6/6</tspan>
<tspan x="2765">0</tspan>
<tspan x="2880">1</tspan>
<tspan x="2995">inspect :successful</tspan>
</text>
<text x="2350" y="1066" class="Tb2" text-anchor="start">
<tspan x="2535">9/25</tspan>
<tspan x="2650">6/6</tspan>
<tspan x="2765">0</tspan>
<tspan x="2880">1</tspan>
<tspan x="2995">inspect :successful</tspan>
</text>
<text x="2350" y="1096" class="Tb2" text-anchor="start">
<tspan x="2535">0/25</tspan>
<tspan x="2650">6/6</tspan>
<tspan x="2765">0</tspan>
<tspan x="2880">1</tspan>
<tspan x="2995">inspect :successful</tspan>
</text>
<text x="2350" y="1126" class="Tb2" text-anchor="start">
<tspan x="2535">10/25</tspan>
<tspan x="2650">6/6</tspan>
<tspan x="2765">0</tspan>
<tspan x="2880">1</tspan>
<tspan x="2995">inspect :successful</tspan>
</text>
<text x="2350" y="1156" class="Tb2" text-anchor="start">
<tspan x="2535">35/35</tspan>
<tspan x="2650">4/4</tspan>
<tspan x="2765">0</tspan>
<tspan x="2880">2</tspan>
<tspan fill="red" x="2995">noAction :failed</tspan>
</text>
<text x="2350" y="1186" class="Tb2" text-anchor="start">
<tspan x="2535">35/35</tspan>
<tspan x="2650">4/4</tspan>
<tspan x="2765">0</tspan>
<tspan x="2880">2</tspan>
<tspan fill="red" x="2995">noAction :failed</tspan>
</text>
<text x="2350" y="1216" class="Tb2" text-anchor="start">
<tspan x="2535">35/35</tspan>
<tspan x="2650">4/4</tspan>
<tspan x="2765">0</tspan>
<tspan x="2880">2</tspan>
<tspan fill="red" x="2995">noAction :failed</tspan>
</text>
<text x="2350" y="1246" class="Tb2" text-anchor="start">
<tspan x="2535">35/35</tspan>
<tspan x="2650">4/4</tspan>
<tspan x="2765">0</tspan>
<tspan x="2880">2</tspan>
<tspan fill="red" x="2995">noAction :failed</tspan>
</text>
<text x="2350" y="1276" class="Tb2" text-anchor="start">
<tspan x="2535">35/35</tspan>
<tspan x="2650">4/4</tspan>
<tspan x="2765">0</tspan>
<tspan x="2880">2</tspan>
<tspan fill="red" x="2995">noAction :failed</tspan>
</text>
<text x="2350" y="1306" class="Tb2" text-anchor="start">
<tspan x="2535">35/35</tspan>
<tspan x="2650">4/4</tspan>
<tspan x="2765">0</tspan>
<tspan x="2880">2</tspan>
<tspan fill="red" x="2995">noAction :failed</tspan>
</text>
<text x="2350" y="1336" class="Tb2" text-anchor="start">
<tspan x="2535">25/25</tspan>
<tspan x="2650">6/6</tspan>
<tspan x="2765">0</tspan>
<tspan x="2880">1</tspan>
<tspan fill="red" x="2995">noAction :failed</tspan>
</text>
<text x="2350" y="1366" class="Tb2" text-anchor="start">
<tspan x="2535">25/25</tspan>
<tspan x="2650">6/6</tspan>
<tspan x="2765">0</tspan>
<tspan x="2880">1</tspan>
<tspan fill="red" x="2995">noAction :failed</tspan>
</text>
<text x="2350" y="1396" class="Tb2" text-anchor="start">
<tspan x="2535">25/25</tspan>
<tspan x="2650">6/6</tspan>
<tspan x="2765">0</tspan>
<tspan x="2880">1</tspan>
<tspan fill="red" x="2995">noAction :failed</tspan>
</text>
<text x="2350" y="1426" class="Tb2" text-anchor="start">
<tspan x="2535">25/25</tspan>
<tspan x="2650">6/6</tspan>
<tspan x="2765">0</tspan>
<tspan x="2880">1</tspan>
<tspan fill="red" x="2995">noAction :failed</tspan>
</text>
<text x="2350" y="1456" class="Tb2" text-anchor="start">
<tspan x="2535">25/25</tspan>
<tspan x="2650">6/6</tspan>
<tspan x="2765">0</tspan>
<tspan x="2880">1</tspan>
<tspan fill="red" x="2995">noAction :failed</tspan>
</text>
<text x="2350" y="1486" class="Tb2" text-anchor="start">
<tspan x="2535">25/25</tspan>
<tspan x="2650">6/6</tspan>
<tspan x="2765">0</tspan>
<tspan x="2880">1</tspan>
<tspan fill="red" x="2995">noAction :failed</tspan>
</text>
<text x="2350" y="1516" class="Tb2" text-anchor="start">
<tspan x="2535">20/20</tspan>
<tspan x="2650">3/3</tspan>
<tspan x="2765">3</tspan>
<tspan x="2880">1</tspan>
<tspan fill="red" x="2995">noAction :failed</tspan>
</text>
<text x="2350" y="1546" class="Tb2" text-anchor="start">
<tspan x="2535">20/20</tspan>
<tspan x="2650">3/3</tspan>
<tspan x="2765">3</tspan>
<tspan x="2880">1</tspan>
<tspan fill="red" x="2995">noAction :failed</tspan>
</text>
<text x="2350" y="1576" class="Tb2" text-anchor="start">
<tspan x="2535">20/20</tspan>
<tspan x="2650">3/3</tspan>
<tspan x="2765">3</tspan>
<tspan x="2880">1</tspan>
<tspan fill="red" x="2995">noAction :failed</tspan>
</text>
<text x="2350" y="1606" class="Tb2" text-anchor="start">
<tspan x="2535">20/20</tspan>
<tspan x="2650">3/3</tspan>
<tspan x="2765">3</tspan>
<tspan x="2880">1</tspan>
<tspan fill="red" x="2995">noAction :failed</tspan>
</text>
<text x="2350" y="1636" class="Tb2" text-anchor="start">
<tspan x="2535">30/30</tspan>
<tspan x="2650">1/1</tspan>
<tspan x="2765">0</tspan>
<tspan x="2880">3</tspan>
<tspan fill="red" x="2995">noAction :failed</tspan>
</text>
<text x="2350" y="1666" class="Tb2" text-anchor="start">
<tspan x="2535">30/30</tspan>
<tspan x="2650">1/1</tspan>
<tspan x="2765">0</tspan>
<tspan x="2880">3</tspan>
<tspan fill="red" x="2995">noAction :failed</tspan>
</text>
<text x="2350" y="1696" class="Tb2" text-anchor="start">
<tspan x="2535">30/30</tspan>
<tspan x="2650">1/1</tspan>
<tspan x="2765">0</tspan>
<tspan x="2880">3</tspan>
<tspan fill="red" x="2995">noAction :failed</tspan>
</text>
<text x="2350" y="1726" class="Tb2" text-anchor="start">
<tspan x="2535">30/30</tspan>
<tspan x="2650">1/1</tspan>
<tspan x="2765">0</tspan>
<tspan x="2880">3</tspan>
<tspan fill="red" x="2995">noAction :failed</tspan>
</text>
<text x="2350" y="1756" class="Tb2" text-anchor="start">
<tspan x="2535">30/30</tspan>
<tspan x="2650">1/1</tspan>
<tspan x="2765">0</tspan>
<tspan x="2880">3</tspan>
<tspan fill="red" x="2995">noAction :failed</tspan>
</text>
<text x="2350" y="1786" class="Tb2" text-anchor="start">
<tspan x="2535">30/30</tspan>
<tspan x="2650">1/1</tspan>
<tspan x="2765">0</tspan>
<tspan x="2880">3</tspan>
<tspan fill="red" x="2995">noAction :failed</tspan>
</text>
<text x="2350" y="1816" class="Tb2" text-anchor="start">
<tspan x="2535">25/25</tspan>
<tspan x="2650">6/6</tspan>
<tspan x="2765">0</tspan>
<tspan x="2880">1</tspan>
<tspan fill="red" x="2995">noAction :failed</tspan>
</text>
<text x="2350" y="1846" class="Tb2" text-anchor="start">
<tspan x="2535">25/25</tspan>
<tspan x="2650">6/6</tspan>
<tspan x="2765">0</tspan>
<tspan x="2880">1</tspan>
<tspan fill="red" x="2995">noAction :failed</tspan>
</text>
<text x="2350" y="1876" class="Tb2" text-anchor="start">
<tspan x="2535">25/25</tspan>
<tspan x="2650">6/6</tspan>
<tspan x="2765">0</tspan>
<tspan x="2880">1</tspan>
<tspan fill="red" x="2995">noAction :failed</tspan>
</text>
<text x="2350" y="1906" class="Tb2" text-anchor="start">
<tspan x="2535">25/25</tspan>
<tspan x="2650">6/6</tspan>
<tspan x="2765">0</tspan>
<tspan x="2880">1</tspan>
<tspan fill="red" x="2995">noAction :failed</tspan>
</text>
<text x="2350" y="1936" class="Tb2" text-anchor="start">
<tspan x="2535">25/25</tspan>
<tspan x="2650">6/6</tspan>
<tspan x="2765">0</tspan>
<tspan x="2880">1</tspan>
<tspan fill="red" x="2995">noAction :failed</tspan>
</text>
<text x="2350" y="1966" class="Tb2" text-anchor="start">
<tspan x="2535">25/25</tspan>
<tspan x="2650">6/6</tspan>
<tspan x="2765">0</tspan>
<tspan x="2880">1</tspan>
<tspan fill="red" x="2995">noAction :failed</tspan>
</text>
</g>
<line y2="442" x1="3290" class="s5 sw1" x2="3290" y1="1996"/>
<g id="achievementPart" transform="translate(-100, 150)">
<text x="3400" y="301" class="TxtAch">
<tspan x="3400">Achievements</tspan>
<tspan fill="rgba(0,158,115,1.0)" x="3400" y="331">Nabf</tspan>
<tspan x="3400" y="351">proved5</tspan>
<tspan x="3400" y="371">proved10</tspan>
<tspan x="3400" y="391">proved20</tspan>
<tspan x="3400" y="411">proved40</tspan>
<tspan x="3400" y="431">proved80</tspan>
<tspan x="3400" y="451">inspected5</tspan>
<tspan x="3400" y="471">area10</tspan>
<tspan x="3400" y="491">area20</tspan>
<tspan x="3400" y="511">area40</tspan>
<tspan fill="rgba(0,114,178,1.0)" x="3400" y="536">B</tspan>
<tspan x="3400" y="556">area10</tspan>
</text>
</g>
</g>
</svg>
