<?xml version="1.0" encoding="UTF-8"?><?xml-stylesheet type="text/css" href="style.css"?><svg xmlns="http://www.w3.org/2000/svg" xmlns:xlink="http://www.w3.org/1999/xlink" contentScriptType="text/ecmascript" zoomAndPan="magnify" contentStyleType="text/css" preserveAspectRatio="xMidYMid meet" version="1.0">
<g id="scaleSvg" transform="scale(0.25)">
<polygon class="T1" points="1350,1050 1150,1050 1250,950 "/>
<polygon class="T1" points="1350,1050 1250,950 1350,950 "/>
<polygon class="T1" points="1350,950 1250,750 1350,950 1350,1050 1250,950 "/>
<polygon class="T1" points="1150,1050 1350,1050 1150,1050 1250,950 1350,1050 "/>
<polygon class="T1" points="1450,850 1350,950 1350,1050 1250,950 1350,950 "/>
<polygon class="T1" points="1250,950 1150,1050 1250,950 1350,1050 1150,1050 "/>
<polygon class="T1" points="1350,950 1250,950 1350,1050 1150,1050 1250,950 "/>
<polygon class="T1" points="1350,1050 1350,950 1350,1050 1150,1050 1250,950 "/>
<polygon class="T1" points="1450,650 1250,750 1350,950 1350,1050 1250,950 1350,950 1250,750 "/>
<polygon class="T1" points="1450,850 1650,850 1450,850 1350,950 1350,1050 1250,950 1350,950 "/>
<circle r="25" class="T1n" cx="750" cy="1250"/>
<circle r="25" class="T1n" cx="1550" cy="650"/>
<circle r="25" class="T1n" cx="1250" cy="750"/>
<circle r="25" class="T1n" cx="1450" cy="650"/>
<circle r="25" class="T1n" cx="1350" cy="1050"/>
<circle r="25" class="T1n" cx="2050" cy="1650"/>
<circle r="25" class="T1n" cx="1650" cy="850"/>
<circle r="25" class="T1n" cx="1450" cy="850"/>
<circle r="25" class="T1n" cx="850" cy="450"/>
<circle r="25" class="T1n" cx="450" cy="1050"/>
<circle r="25" class="T1n" cx="1950" cy="1250"/>
<circle r="25" class="T1n" cx="1250" cy="950"/>
<circle r="25" class="T1n" cx="1850" cy="1250"/>
<circle r="25" class="T1n" cx="1150" cy="1050"/>
<circle r="25" class="T1n" cx="650" cy="650"/>
<circle r="25" class="T1n" cx="450" cy="650"/>
<circle r="25" class="T1n" cx="1250" cy="350"/>
<circle r="25" class="T1n" cx="1450" cy="550"/>
<circle r="25" class="T1n" cx="1450" cy="1350"/>
<circle r="25" class="T1n" cx="650" cy="450"/>
<circle r="25" class="T1n" cx="50" cy="1350"/>
<circle r="25" class="T1n" cx="1750" cy="750"/>
<circle r="25" class="T1n" cx="750" cy="650"/>
<circle r="25" class="T1n" cx="750" cy="550"/>
<circle r="25" class="T1n" cx="1350" cy="950"/>
<circle r="25" class="T1n" cx="1450" cy="1450"/>
<circle r="25" class="T1n" cx="1550" cy="450"/>
<line y2="450" x1="750" class="T1e" x2="850" y1="650"/>
<line y2="550" x1="650" class="T1e" x2="750" y1="650"/>
<line y2="550" x1="650" class="T1e" x2="750" y1="450"/>
<line y2="550" x1="750" class="T1e" x2="750" y1="650"/>
<line y2="750" x1="1450" class="T1e" x2="1250" y1="650"/>
<line y2="750" x1="1350" class="T1e" x2="1250" y1="950"/>
<line y2="850" x1="1450" class="T1e" x2="1650" y1="850"/>
<line y2="1050" x1="1350" class="T1e" x2="1150" y1="1050"/>
<line y2="950" x1="1450" class="T1e" x2="1350" y1="850"/>
<line y2="550" x1="1550" class="T1e" x2="1450" y1="650"/>
<line y2="550" x1="1550" class="T1e" x2="1450" y1="450"/>
<line y2="1050" x1="1250" class="T1e" x2="1350" y1="950"/>
<line y2="1050" x1="1250" class="T1e" x2="1150" y1="950"/>
<line y2="750" x1="1650" class="T1e" x2="1750" y1="850"/>
<line y2="1250" x1="1950" class="T1e" x2="1850" y1="1250"/>
<line y2="950" x1="1250" class="T1e" x2="1350" y1="950"/>
<line y2="550" x1="1450" class="T1e" x2="1450" y1="650"/>
<line y2="1050" x1="1350" class="T1e" x2="1350" y1="950"/>
<line y2="1350" x1="1450" class="T1e" x2="1450" y1="1450"/>
<circle r="8" class="N" cx="750" cy="1250"/>
<circle r="8" class="N" cx="1550" cy="650"/>
<circle r="9" class="N" cx="1250" cy="750"/>
<circle r="11" class="N" cx="1450" cy="650"/>
<circle r="18" class="N" cx="1350" cy="1050"/>
<circle r="11" class="N" cx="2050" cy="1650"/>
<circle r="8" class="N" cx="1650" cy="850"/>
<circle r="8" class="N" cx="1450" cy="850"/>
<circle r="18" class="N" cx="850" cy="450"/>
<circle r="5" class="N" cx="450" cy="1050"/>
<circle r="6" class="N" cx="1950" cy="1250"/>
<circle r="12" class="N" cx="1250" cy="950"/>
<circle r="8" class="N" cx="1850" cy="1250"/>
<circle r="12" class="N" cx="1150" cy="1050"/>
<circle r="8" class="N" cx="650" cy="650"/>
<circle r="8" class="N" cx="450" cy="650"/>
<circle r="5" class="N" cx="1250" cy="350"/>
<circle r="8" class="N" cx="1450" cy="550"/>
<circle r="5" class="N" cx="1450" cy="1350"/>
<circle r="8" class="N" cx="650" cy="450"/>
<circle r="6" class="N" cx="50" cy="1350"/>
<circle r="8" class="N" cx="1750" cy="750"/>
<circle r="11" class="N" cx="750" cy="650"/>
<circle r="8" class="N" cx="750" cy="550"/>
<circle r="9" class="N" cx="1350" cy="950"/>
<circle r="5" class="N" cx="1450" cy="1450"/>
<circle r="8" class="N" cx="1550" cy="450"/>
<line y2="450" x1="750" class="E sw5" x2="850" y1="650"/>
<line y2="550" x1="650" class="E sw6" x2="750" y1="650"/>
<line y2="550" x1="650" class="E sw9" x2="750" y1="450"/>
<line y2="550" x1="750" class="E sw9" x2="750" y1="650"/>
<line y2="750" x1="1450" class="E sw4" x2="1250" y1="650"/>
<line y2="750" x1="1350" class="E sw8" x2="1250" y1="950"/>
<line x1="1450" x2="1650" y1="850" y2="850" style="stroke-width:11;" class="E"/>
<line y2="1050" x1="1350" class="E sw9" x2="1150" y1="1050"/>
<line y2="950" x1="1450" class="E sw10" x2="1350" y1="850"/>
<line y2="550" x1="1550" class="E sw6" x2="1450" y1="650"/>
<line y2="550" x1="1550" class="E sw9" x2="1450" y1="450"/>
<line y2="1050" x1="1250" class="E sw8" x2="1350" y1="950"/>
<line x1="1250" x2="1150" y1="950" y2="1050" style="stroke-width:11;" class="E"/>
<line y2="750" x1="1650" class="E sw8" x2="1750" y1="850"/>
<line y2="1250" x1="1950" class="E sw9" x2="1850" y1="1250"/>
<line y2="950" x1="1250" class="E sw8" x2="1350" y1="950"/>
<line y2="550" x1="1450" class="E sw9" x2="1450" y1="650"/>
<line y2="1050" x1="1350" class="E sw8" x2="1350" y1="950"/>
<line y2="1350" x1="1450" class="E sw8" x2="1450" y1="1450"/>
<polygon class="T2" points="550,1750 450,1850 450,1750 "/>
<polygon class="T2" points="850,1850 850,2050 750,2050 750,1950 "/>
<polygon class="T2" points="550,2150 450,2050 550,1950 650,2050 "/>
<polygon class="T2" points="550,1950 450,2050 450,1950 450,1850 "/>
<polygon class="T2" points="450,1750 450,1550 450,1750 550,1750 450,1850 "/>
<polygon class="T2" points="450,1750 350,1850 450,1750 550,1750 450,1850 "/>
<polygon class="T2" points="550,1950 450,1850 450,1750 550,1750 450,1850 "/>
<polygon class="T2" points="450,1850 550,1750 450,1850 450,1750 550,1750 "/>
<polygon class="T2" points="450,1750 450,1850 450,1750 550,1750 450,1850 "/>
<polygon class="T2" points="550,1750 450,1750 550,1750 450,1850 450,1750 "/>
<polygon class="T2" points="450,1850 450,1950 450,1850 450,1750 550,1750 "/>
<polygon class="T2" points="550,2150 850,2150 550,2150 450,2050 550,1950 650,2050 "/>
<polygon class="T2" points="850,2050 850,1850 850,2050 750,2050 750,1950 850,1850 "/>
<polygon class="T2" points="450,2050 550,2150 450,2050 550,1950 650,2050 550,2150 "/>
<polygon class="T2" points="550,2150 650,2050 550,2150 450,2050 550,1950 650,2050 "/>
<polygon class="T2" points="650,2050 550,1950 450,2050 450,1950 450,1850 550,1950 "/>
<polygon class="T2" points="850,1850 750,1950 850,1850 850,2050 750,2050 750,1950 "/>
<polygon class="T2" points="450,1950 450,2050 550,1950 650,2050 550,2150 450,2050 "/>
<polygon class="T2" points="650,2050 750,2050 650,2050 550,2150 450,2050 550,1950 "/>
<polygon class="T2" points="750,1950 750,2050 750,1950 850,1850 850,2050 750,2050 "/>
<polygon class="T2" points="750,2050 850,2050 750,2050 750,1950 850,1850 850,2050 "/>
<polygon class="T2" points="450,1550 350,1650 450,1550 450,1750 550,1750 450,1850 450,1750 "/>
<circle r="25" class="T2n" cx="250" cy="850"/>
<circle r="25" class="T2n" cx="1150" cy="1850"/>
<circle r="25" class="T2n" cx="350" cy="550"/>
<circle r="25" class="T2n" cx="1850" cy="1850"/>
<circle r="25" class="T2n" cx="2150" cy="350"/>
<circle r="25" class="T2n" cx="250" cy="550"/>
<circle r="25" class="T2n" cx="1650" cy="2150"/>
<circle r="25" class="T2n" cx="850" cy="1850"/>
<circle r="25" class="T2n" cx="1750" cy="250"/>
<circle r="25" class="T2n" cx="450" cy="2050"/>
<circle r="25" class="T2n" cx="650" cy="2050"/>
<circle r="25" class="T2n" cx="750" cy="1950"/>
<circle r="25" class="T2n" cx="250" cy="1850"/>
<circle r="25" class="T2n" cx="850" cy="2150"/>
<circle r="25" class="T2n" cx="550" cy="2150"/>
<circle r="25" class="T2n" cx="750" cy="2050"/>
<circle r="25" class="T2n" cx="450" cy="1550"/>
<circle r="25" class="T2n" cx="350" cy="1850"/>
<circle r="25" class="T2n" cx="550" cy="1750"/>
<circle r="25" class="T2n" cx="1750" cy="1750"/>
<circle r="25" class="T2n" cx="350" cy="650"/>
<circle r="25" class="T2n" cx="450" cy="1750"/>
<circle r="25" class="T2n" cx="550" cy="850"/>
<circle r="25" class="T2n" cx="850" cy="2050"/>
<circle r="25" class="T2n" cx="50" cy="1650"/>
<circle r="25" class="T2n" cx="550" cy="1950"/>
<circle r="25" class="T2n" cx="350" cy="1650"/>
<circle r="25" class="T2n" cx="1950" cy="50"/>
<circle r="25" class="T2n" cx="1350" cy="50"/>
<circle r="25" class="T2n" cx="1450" cy="1150"/>
<circle r="25" class="T2n" cx="450" cy="1950"/>
<circle r="25" class="T2n" cx="450" cy="1850"/>
<circle r="25" class="T2n" cx="1350" cy="2150"/>
<line y2="2150" x1="550" class="T2e" x2="850" y1="2150"/>
<line y2="1650" x1="250" class="T2e" x2="350" y1="1850"/>
<line y2="850" x1="350" class="T2e" x2="250" y1="650"/>
<line y2="1550" x1="450" class="T2e" x2="450" y1="1750"/>
<line y2="2050" x1="850" class="T2e" x2="850" y1="1850"/>
<line y2="1850" x1="450" class="T2e" x2="350" y1="1750"/>
<line y2="2150" x1="450" class="T2e" x2="550" y1="2050"/>
<line y2="1950" x1="450" class="T2e" x2="550" y1="2050"/>
<line y2="2050" x1="550" class="T2e" x2="650" y1="2150"/>
<line y2="1850" x1="550" class="T2e" x2="450" y1="1950"/>
<line y2="2050" x1="550" class="T2e" x2="650" y1="1950"/>
<line y2="1750" x1="450" class="T2e" x2="550" y1="1850"/>
<line y2="650" x1="250" class="T2e" x2="350" y1="550"/>
<line y2="1850" x1="750" class="T2e" x2="850" y1="1950"/>
<line y2="1650" x1="450" class="T2e" x2="350" y1="1550"/>
<line y2="1850" x1="450" class="T2e" x2="450" y1="1750"/>
<line y2="1750" x1="450" class="T2e" x2="550" y1="1750"/>
<line y2="550" x1="350" class="T2e" x2="250" y1="550"/>
<line y2="1950" x1="450" class="T2e" x2="450" y1="2050"/>
<line y2="1950" x1="450" class="T2e" x2="450" y1="1850"/>
<line y2="2050" x1="650" class="T2e" x2="750" y1="2050"/>
<line y2="2050" x1="750" class="T2e" x2="750" y1="1950"/>
<line y2="2050" x1="750" class="T2e" x2="850" y1="2050"/>
<line y2="2150" x1="1650" class="T2e" x2="1350" y1="2150"/>
<line y2="1850" x1="1750" class="T2e" x2="1850" y1="1750"/>
<circle r="11" class="N" cx="250" cy="850"/>
<circle r="5" class="N" cx="1150" cy="1850"/>
<circle r="6" class="N" cx="350" cy="550"/>
<circle r="9" class="N" cx="1850" cy="1850"/>
<circle r="5" class="N" cx="2150" cy="350"/>
<circle r="9" class="N" cx="250" cy="550"/>
<circle r="5" class="N" cx="1650" cy="2150"/>
<circle r="5" class="N" cx="850" cy="1850"/>
<circle r="5" class="N" cx="1750" cy="250"/>
<circle r="5" class="N" cx="450" cy="2050"/>
<circle r="5" class="N" cx="650" cy="2050"/>
<circle r="5" class="N" cx="750" cy="1950"/>
<circle r="14" class="N" cx="250" cy="1850"/>
<circle r="5" class="N" cx="850" cy="2150"/>
<circle r="5" class="N" cx="550" cy="2150"/>
<circle r="5" class="N" cx="750" cy="2050"/>
<circle r="14" class="N" cx="450" cy="1550"/>
<circle r="9" class="N" cx="350" cy="1850"/>
<circle r="8" class="N" cx="550" cy="1750"/>
<circle r="9" class="N" cx="1750" cy="1750"/>
<circle r="18" class="N" cx="350" cy="650"/>
<circle r="9" class="N" cx="450" cy="1750"/>
<circle r="8" class="N" cx="550" cy="850"/>
<circle r="5" class="N" cx="850" cy="2050"/>
<circle r="8" class="N" cx="50" cy="1650"/>
<circle r="5" class="N" cx="550" cy="1950"/>
<circle r="18" class="N" cx="350" cy="1650"/>
<circle r="5" class="N" cx="1950" cy="50"/>
<circle r="5" class="N" cx="1350" cy="50"/>
<circle r="11" class="N" cx="1450" cy="1150"/>
<circle r="5" class="N" cx="450" cy="1950"/>
<circle r="6" class="N" cx="450" cy="1850"/>
<circle r="5" class="N" cx="1350" cy="2150"/>
<line y2="2150" x1="550" class="E sw4" x2="850" y1="2150"/>
<line x1="250" x2="350" y1="1850" y2="1650" style="stroke-width:11;" class="E"/>
<line y2="850" x1="350" class="E sw4" x2="250" y1="650"/>
<line y2="1550" x1="450" class="E sw8" x2="450" y1="1750"/>
<line y2="2050" x1="850" class="E sw3" x2="850" y1="1850"/>
<line y2="1850" x1="450" class="E sw4" x2="350" y1="1750"/>
<line y2="2150" x1="450" class="E sw6" x2="550" y1="2050"/>
<line y2="1950" x1="450" class="E sw10" x2="550" y1="2050"/>
<line y2="2050" x1="550" class="E sw4" x2="650" y1="2150"/>
<line y2="1850" x1="550" class="E sw9" x2="450" y1="1950"/>
<line x1="550" x2="650" y1="1950" y2="2050" style="stroke-width:11;" class="E"/>
<line y2="1750" x1="450" class="E sw5" x2="550" y1="1850"/>
<line y2="650" x1="250" class="E sw8" x2="350" y1="550"/>
<line y2="1850" x1="750" class="E sw4" x2="850" y1="1950"/>
<line x1="450" x2="350" y1="1550" y2="1650" style="stroke-width:11;" class="E"/>
<line x1="450" x2="450" y1="1750" y2="1850" style="stroke-width:11;" class="E"/>
<line y2="1750" x1="450" class="E sw8" x2="550" y1="1750"/>
<line y2="550" x1="350" class="E sw5" x2="250" y1="550"/>
<line y2="1950" x1="450" class="E sw9" x2="450" y1="2050"/>
<line y2="1950" x1="450" class="E sw10" x2="450" y1="1850"/>
<line y2="2050" x1="650" class="E sw10" x2="750" y1="2050"/>
<line x1="750" x2="750" y1="1950" y2="2050" style="stroke-width:11;" class="E"/>
<line y2="2050" x1="750" class="E sw3" x2="850" y1="2050"/>
<line y2="2150" x1="1650" class="E sw4" x2="1350" y1="2150"/>
<line y2="1850" x1="1750" class="E sw4" x2="1850" y1="1750"/>
<rect x="239" width="36" y="880" height="36" class="s5 sw2 f13"/>
<rect x="230" width="54" y="862" height="18" class="s13 sw2 f7"/>
<text x="250" y="901" class="f4">20</text>
<polygon class=" s5 sw2 f13" points="1148,1880 1166,1880 1175,1889 1175,1907 1166,1916 1148,1916 1139,1907 1139,1889"/>
<rect x="1130" width="54" y="1862" height="18" class="s13 sw2 f7"/>
<text x="1150" y="1901" class="f4">7</text>
<polygon class=" s5 sw2 f13" points="730,1280 784,1280 757,1316"/>
<rect x="730" width="54" y="1262" height="18" class="s13 sw2 f7"/>
<text x="750" y="1301" class="f4">28</text>
<polygon class=" s5 sw2 f14" points="760,1253 814,1253 787,1289"/>
<rect x="760" width="54" y="1235" height="18" class="s14 sw2 f8"/>
<text x="780" y="1274" class="f4">25</text>
<polygon class=" s4 sw0 f4" points="796,1235 796,1241 802,1241 790,1253 790,1247 784,1247"/>
<polygon class=" s5 sw2 f14" points="753,1215 807,1215 780,1251"/>
<rect x="753" width="54" y="1197" height="18" class="s14 sw2 f8"/>
<text x="773" y="1236" class="f4">24</text>
<line y2="1209" x1="783" class="s4 sw3" x2="795" y1="1203"/>
<circle r="6" class="s4 sw0 f4" cx="783" cy="1203"/>
<rect x="339" width="36" y="580" height="36" class="s5 sw2 f13"/>
<rect x="330" width="54" y="562" height="18" class="s13 sw2 f7"/>
<text x="350" y="601" class="f4">19</text>
<rect x="1439" width="36" y="680" height="36" class="s5 sw2 f14"/>
<rect x="1430" width="54" y="662" height="18" class="s14 sw2 f8"/>
<text x="1450" y="701" class="f4">21</text>
<circle r="3" class="s4 sw0 f4" cx="1466" cy="665"/>
<circle r="3" class="s4 sw0 f4" cx="1466" cy="677"/>
<circle r="3" class="s4 sw0 f4" cx="1457" cy="671"/>
<circle r="3" class="s4 sw0 f4" cx="1475" cy="671"/>
<line y2="671" x1="1460" class="s4 sw1" x2="1472" y1="671"/>
<line y2="674" x1="1466" class="s4 sw1" x2="1466" y1="668"/>
<rect x="1839" width="36" y="1880" height="36" class="s5 sw2 f13"/>
<rect x="1830" width="54" y="1862" height="18" class="s13 sw2 f7"/>
<text x="1850" y="1901" class="f4">22</text>
<polygon class=" s5 sw2 f13" points="2130,380 2184,380 2157,416"/>
<rect x="2130" width="54" y="362" height="18" class="s13 sw2 f7"/>
<text x="2150" y="401" class="f4">24</text>
<circle r="18" class="s5 sw2 f13" cx="457" cy="398"/>
<rect x="430" width="54" y="362" height="18" class="s13 sw2 f7"/>
<text x="450" y="401" class="f4">5</text>
<polygon class=" s5 sw2 f14" points="478,353 496,353 505,362 505,380 496,389 478,389 469,380 469,362"/>
<rect x="460" width="54" y="335" height="18" class="s14 sw2 f8"/>
<text x="480" y="374" class="f4">11</text>
<circle r="3" class="s4 sw0 f4" cx="496" cy="338"/>
<circle r="3" class="s4 sw0 f4" cx="496" cy="350"/>
<circle r="3" class="s4 sw0 f4" cx="487" cy="344"/>
<circle r="3" class="s4 sw0 f4" cx="505" cy="344"/>
<line y2="344" x1="490" class="s4 sw1" x2="502" y1="344"/>
<line y2="347" x1="496" class="s4 sw1" x2="496" y1="341"/>
<circle r="18" class="s5 sw2 f14" cx="2057" cy="1698"/>
<rect x="2030" width="54" y="1662" height="18" class="s14 sw2 f8"/>
<text x="2050" y="1701" class="f4">4</text>
<circle r="3" class="s4 sw0 f4" cx="2066" cy="1665"/>
<circle r="3" class="s4 sw0 f4" cx="2066" cy="1677"/>
<circle r="3" class="s4 sw0 f4" cx="2057" cy="1671"/>
<circle r="3" class="s4 sw0 f4" cx="2075" cy="1671"/>
<line y2="1671" x1="2060" class="s4 sw1" x2="2072" y1="1671"/>
<line y2="1674" x1="2066" class="s4 sw1" x2="2066" y1="1668"/>
<polygon class=" s5 sw2 f13" points="248,580 266,580 275,589 275,607 266,616 248,616 239,607 239,589"/>
<rect x="230" width="54" y="562" height="18" class="s13 sw2 f7"/>
<text x="250" y="601" class="f4">11</text>
<polygon class=" s5 sw2 f13" points="1030,780 1084,780 1057,816"/>
<rect x="1030" width="54" y="762" height="18" class="s13 sw2 f7"/>
<text x="1050" y="801" class="f4">23</text>
<polygon class=" s5 sw2 f14" points="1060,753 1114,753 1087,789"/>
<rect x="1060" width="54" y="735" height="18" class="s14 sw2 f8"/>
<text x="1080" y="774" class="f4">23</text>
<polygon class=" s4 sw0 f4" points="1096,735 1096,741 1102,741 1090,753 1090,747 1084,747"/>
<circle r="18" class="s5 sw2 f13" cx="1657" cy="2198"/>
<rect x="1630" width="54" y="2162" height="18" class="s13 sw2 f7"/>
<text x="1650" y="2201" class="f4">4</text>
<polygon class=" s5 sw2 f13" points="848,1880 866,1880 875,1889 875,1907 866,1916 848,1916 839,1907 839,1889"/>
<rect x="830" width="54" y="1862" height="18" class="s13 sw2 f7"/>
<text x="850" y="1901" class="f4">12</text>
<circle r="18" class="s5 sw2 f14" cx="857" cy="498"/>
<rect x="830" width="54" y="462" height="18" class="s14 sw2 f8"/>
<text x="850" y="501" class="f4">2</text>
<polygon class=" s4 sw0 f4" points="857,462 875,462 866,480"/>
<polygon class=" s5 sw2 f13" points="1748,280 1766,280 1775,289 1775,307 1766,316 1748,316 1739,307 1739,289"/>
<rect x="1730" width="54" y="262" height="18" class="s13 sw2 f7"/>
<text x="1750" y="301" class="f4">9</text>
<polygon class=" s5 sw2 f13" points="1257,1680 1275,1698 1257,1716 1239,1698"/>
<rect x="1230" width="54" y="1662" height="18" class="s13 sw2 f7"/>
<text x="1250" y="1701" class="f4">13</text>
<polygon class=" s5 sw2 f14" points="1260,1653 1314,1653 1287,1689"/>
<rect x="1260" width="54" y="1635" height="18" class="s14 sw2 f8"/>
<text x="1280" y="1674" class="f4">26</text>
<line y2="1647" x1="1290" class="s4 sw3" x2="1302" y1="1641"/>
<circle r="6" class="s4 sw0 f4" cx="1290" cy="1641"/>
<rect x="439" width="36" y="1080" height="36" class="s5 sw2 f14"/>
<rect x="430" width="54" y="1062" height="18" class="s14 sw2 f8"/>
<text x="450" y="1101" class="f4">17</text>
<circle r="3" class="s4 sw0 f4" cx="466" cy="1065"/>
<circle r="3" class="s4 sw0 f4" cx="466" cy="1077"/>
<circle r="3" class="s4 sw0 f4" cx="457" cy="1071"/>
<circle r="3" class="s4 sw0 f4" cx="475" cy="1071"/>
<line y2="1071" x1="460" class="s4 sw1" x2="472" y1="1071"/>
<line y2="1074" x1="466" class="s4 sw1" x2="466" y1="1068"/>
<polygon class=" s5 sw2 f13" points="2057,1380 2075,1398 2057,1416 2039,1398"/>
<rect x="2030" width="54" y="1362" height="18" class="s13 sw2 f7"/>
<text x="2050" y="1401" class="f4">14</text>
<polygon class=" s5 sw2 f14" points="2060,1353 2114,1353 2087,1389"/>
<rect x="2060" width="54" y="1335" height="18" class="s14 sw2 f8"/>
<text x="2080" y="1374" class="f4">28</text>
<line y2="1347" x1="2090" class="s4 sw3" x2="2102" y1="1341"/>
<circle r="6" class="s4 sw0 f4" cx="2090" cy="1341"/>
<circle r="18" class="s5 sw2 f14" cx="1957" cy="1298"/>
<rect x="1930" width="54" y="1262" height="18" class="s14 sw2 f8"/>
<text x="1950" y="1301" class="f4">5</text>
<polygon class=" s4 sw0 f4" points="1957,1262 1975,1262 1966,1280"/>
<rect x="1969" width="36" y="1253" height="36" class="s5 sw2 f14"/>
<rect x="1960" width="54" y="1235" height="18" class="s14 sw2 f8"/>
<text x="1980" y="1274" class="f4">19</text>
<circle r="3" class="s4 sw0 f4" cx="1996" cy="1238"/>
<circle r="3" class="s4 sw0 f4" cx="1996" cy="1250"/>
<circle r="3" class="s4 sw0 f4" cx="1987" cy="1244"/>
<circle r="3" class="s4 sw0 f4" cx="2005" cy="1244"/>
<line y2="1244" x1="1990" class="s4 sw1" x2="2002" y1="1244"/>
<line y2="1247" x1="1996" class="s4 sw1" x2="1996" y1="1241"/>
<circle r="18" class="s5 sw2 f13" cx="257" cy="1898"/>
<rect x="230" width="54" y="1862" height="18" class="s13 sw2 f7"/>
<text x="250" y="1901" class="f4">1</text>
<rect x="269" width="36" y="1853" height="36" class="s5 sw2 f13"/>
<rect x="260" width="54" y="1835" height="18" class="s13 sw2 f7"/>
<text x="280" y="1874" class="f4">18</text>
<rect x="1839" width="36" y="1280" height="36" class="s5 sw2 f14"/>
<rect x="1830" width="54" y="1262" height="18" class="s14 sw2 f8"/>
<text x="1850" y="1301" class="f4">20</text>
<polygon class=" s4 sw0 f4" points="1866,1262 1866,1268 1872,1268 1860,1280 1860,1274 1854,1274"/>
<polygon class=" s5 sw2 f14" points="1878,1253 1896,1253 1905,1262 1905,1280 1896,1289 1878,1289 1869,1280 1869,1262"/>
<rect x="1860" width="54" y="1235" height="18" class="s14 sw2 f8"/>
<text x="1880" y="1274" class="f4">12</text>
<circle r="3" class="s4 sw0 f4" cx="1896" cy="1238"/>
<circle r="3" class="s4 sw0 f4" cx="1896" cy="1250"/>
<circle r="3" class="s4 sw0 f4" cx="1887" cy="1244"/>
<circle r="3" class="s4 sw0 f4" cx="1905" cy="1244"/>
<line y2="1244" x1="1890" class="s4 sw1" x2="1902" y1="1244"/>
<line y2="1247" x1="1896" class="s4 sw1" x2="1896" y1="1241"/>
<polygon class=" s5 sw2 f14" points="1880,1215 1898,1233 1880,1251 1862,1233"/>
<rect x="1853" width="54" y="1197" height="18" class="s14 sw2 f8"/>
<text x="1873" y="1236" class="f4">13</text>
<circle r="3" class="s4 sw0 f4" cx="1889" cy="1200"/>
<circle r="3" class="s4 sw0 f4" cx="1889" cy="1212"/>
<circle r="3" class="s4 sw0 f4" cx="1880" cy="1206"/>
<circle r="3" class="s4 sw0 f4" cx="1898" cy="1206"/>
<line y2="1206" x1="1883" class="s4 sw1" x2="1895" y1="1206"/>
<line y2="1209" x1="1889" class="s4 sw1" x2="1889" y1="1203"/>
<polygon class=" s5 sw2 f13" points="748,2080 766,2080 775,2089 775,2107 766,2116 748,2116 739,2107 739,2089"/>
<rect x="730" width="54" y="2062" height="18" class="s13 sw2 f7"/>
<text x="750" y="2101" class="f4">10</text>
<circle r="18" class="s5 sw2 f14" cx="1157" cy="1098"/>
<rect x="1130" width="54" y="1062" height="18" class="s14 sw2 f8"/>
<text x="1150" y="1101" class="f4">6</text>
<circle r="3" class="s4 sw0 f4" cx="1166" cy="1065"/>
<circle r="3" class="s4 sw0 f4" cx="1166" cy="1077"/>
<circle r="3" class="s4 sw0 f4" cx="1157" cy="1071"/>
<circle r="3" class="s4 sw0 f4" cx="1175" cy="1071"/>
<line y2="1071" x1="1160" class="s4 sw1" x2="1172" y1="1071"/>
<line y2="1074" x1="1166" class="s4 sw1" x2="1166" y1="1068"/>
<polygon class=" s5 sw2 f14" points="330,1980 384,1980 357,2016"/>
<rect x="330" width="54" y="1962" height="18" class="s14 sw2 f8"/>
<text x="350" y="2001" class="f4">27</text>
<line y2="1974" x1="360" class="s4 sw3" x2="372" y1="1968"/>
<circle r="6" class="s4 sw0 f4" cx="360" cy="1968"/>
<circle r="18" class="s5 sw2 f13" cx="387" cy="1971"/>
<rect x="360" width="54" y="1935" height="18" class="s13 sw2 f7"/>
<text x="380" y="1974" class="f4">2</text>
<polygon class=" s5 sw2 f13" points="448,1580 466,1580 475,1589 475,1607 466,1616 448,1616 439,1607 439,1589"/>
<rect x="430" width="54" y="1562" height="18" class="s13 sw2 f7"/>
<text x="450" y="1601" class="f4">8</text>
<polygon class=" s5 sw2 f13" points="1730,1780 1784,1780 1757,1816"/>
<rect x="1730" width="54" y="1762" height="18" class="s13 sw2 f7"/>
<text x="1750" y="1801" class="f4">25</text>
<polygon class=" s5 sw2 f14" points="457,680 475,698 457,716 439,698"/>
<rect x="430" width="54" y="662" height="18" class="s14 sw2 f8"/>
<text x="450" y="701" class="f4">15</text>
<circle r="3" class="s4 sw0 f4" cx="466" cy="665"/>
<circle r="3" class="s4 sw0 f4" cx="466" cy="677"/>
<circle r="3" class="s4 sw0 f4" cx="457" cy="671"/>
<circle r="3" class="s4 sw0 f4" cx="475" cy="671"/>
<line y2="671" x1="460" class="s4 sw1" x2="472" y1="671"/>
<line y2="674" x1="466" class="s4 sw1" x2="466" y1="668"/>
<circle r="18" class="s5 sw2 f14" cx="487" cy="671"/>
<rect x="460" width="54" y="635" height="18" class="s14 sw2 f8"/>
<text x="480" y="674" class="f4">1</text>
<circle r="3" class="s4 sw0 f4" cx="496" cy="638"/>
<circle r="3" class="s4 sw0 f4" cx="496" cy="650"/>
<circle r="3" class="s4 sw0 f4" cx="487" cy="644"/>
<circle r="3" class="s4 sw0 f4" cx="505" cy="644"/>
<line y2="644" x1="490" class="s4 sw1" x2="502" y1="644"/>
<line y2="647" x1="496" class="s4 sw1" x2="496" y1="641"/>
<circle r="18" class="s5 sw2 f14" cx="480" cy="633"/>
<rect x="453" width="54" y="597" height="18" class="s14 sw2 f8"/>
<text x="473" y="636" class="f4">3</text>
<circle r="3" class="s4 sw0 f4" cx="489" cy="600"/>
<circle r="3" class="s4 sw0 f4" cx="489" cy="612"/>
<circle r="3" class="s4 sw0 f4" cx="480" cy="606"/>
<circle r="3" class="s4 sw0 f4" cx="498" cy="606"/>
<line y2="606" x1="483" class="s4 sw1" x2="495" y1="606"/>
<line y2="609" x1="489" class="s4 sw1" x2="489" y1="603"/>
<rect x="1239" width="36" y="380" height="36" class="s5 sw2 f14"/>
<rect x="1230" width="54" y="362" height="18" class="s14 sw2 f8"/>
<text x="1250" y="401" class="f4">18</text>
<circle r="3" class="s4 sw0 f4" cx="1266" cy="365"/>
<circle r="3" class="s4 sw0 f4" cx="1266" cy="377"/>
<circle r="3" class="s4 sw0 f4" cx="1257" cy="371"/>
<circle r="3" class="s4 sw0 f4" cx="1275" cy="371"/>
<line y2="371" x1="1260" class="s4 sw1" x2="1272" y1="371"/>
<line y2="374" x1="1266" class="s4 sw1" x2="1266" y1="368"/>
<polygon class=" s5 sw2 f13" points="30,680 84,680 57,716"/>
<rect x="30" width="54" y="662" height="18" class="s13 sw2 f7"/>
<text x="50" y="701" class="f4">26</text>
<polygon class=" s5 sw2 f14" points="78,653 96,653 105,662 105,680 96,689 78,689 69,680 69,662"/>
<rect x="60" width="54" y="635" height="18" class="s14 sw2 f8"/>
<text x="80" y="674" class="f4">7</text>
<circle r="3" class="s4 sw0 f4" cx="96" cy="638"/>
<circle r="3" class="s4 sw0 f4" cx="96" cy="650"/>
<circle r="3" class="s4 sw0 f4" cx="87" cy="644"/>
<circle r="3" class="s4 sw0 f4" cx="105" cy="644"/>
<line y2="644" x1="90" class="s4 sw1" x2="102" y1="644"/>
<line y2="647" x1="96" class="s4 sw1" x2="96" y1="641"/>
<circle r="18" class="s5 sw2 f13" cx="557" cy="898"/>
<rect x="530" width="54" y="862" height="18" class="s13 sw2 f7"/>
<text x="550" y="901" class="f4">3</text>
<rect x="39" width="36" y="1680" height="36" class="s5 sw2 f13"/>
<rect x="30" width="54" y="1662" height="18" class="s13 sw2 f7"/>
<text x="50" y="1701" class="f4">21</text>
<rect x="39" width="36" y="1380" height="36" class="s5 sw2 f14"/>
<rect x="30" width="54" y="1362" height="18" class="s14 sw2 f8"/>
<text x="50" y="1401" class="f4">22</text>
<polygon class=" s4 sw0 f4" points="66,1362 66,1368 72,1368 60,1380 60,1374 54,1374"/>
<polygon class=" s5 sw2 f14" points="1748,780 1766,780 1775,789 1775,807 1766,816 1748,816 1739,807 1739,789"/>
<rect x="1730" width="54" y="762" height="18" class="s14 sw2 f8"/>
<text x="1750" y="801" class="f4">9</text>
<circle r="3" class="s4 sw0 f4" cx="1766" cy="765"/>
<circle r="3" class="s4 sw0 f4" cx="1766" cy="777"/>
<circle r="3" class="s4 sw0 f4" cx="1757" cy="771"/>
<circle r="3" class="s4 sw0 f4" cx="1775" cy="771"/>
<line y2="771" x1="1760" class="s4 sw1" x2="1772" y1="771"/>
<line y2="774" x1="1766" class="s4 sw1" x2="1766" y1="768"/>
<polygon class=" s5 sw2 f14" points="757,580 775,598 757,616 739,598"/>
<rect x="730" width="54" y="562" height="18" class="s14 sw2 f8"/>
<text x="750" y="601" class="f4">14</text>
<polygon class=" s4 sw0 f4" points="766,562 766,568 772,568 760,580 760,574 754,574"/>
<polygon class=" s5 sw2 f13" points="557,1980 575,1998 557,2016 539,1998"/>
<rect x="530" width="54" y="1962" height="18" class="s13 sw2 f7"/>
<text x="550" y="2001" class="f4">16</text>
<polygon class=" s5 sw2 f14" points="1348,980 1366,980 1375,989 1375,1007 1366,1016 1348,1016 1339,1007 1339,989"/>
<rect x="1330" width="54" y="962" height="18" class="s14 sw2 f8"/>
<text x="1350" y="1001" class="f4">10</text>
<circle r="3" class="s4 sw0 f4" cx="1366" cy="965"/>
<circle r="3" class="s4 sw0 f4" cx="1366" cy="977"/>
<circle r="3" class="s4 sw0 f4" cx="1357" cy="971"/>
<circle r="3" class="s4 sw0 f4" cx="1375" cy="971"/>
<line y2="971" x1="1360" class="s4 sw1" x2="1372" y1="971"/>
<line y2="974" x1="1366" class="s4 sw1" x2="1366" y1="968"/>
<circle r="18" class="s5 sw2 f13" cx="1957" cy="98"/>
<rect x="1930" width="54" y="62" height="18" class="s13 sw2 f7"/>
<text x="1950" y="101" class="f4">6</text>
<rect x="1339" width="36" y="80" height="36" class="s5 sw2 f13"/>
<rect x="1330" width="54" y="62" height="18" class="s13 sw2 f7"/>
<text x="1350" y="101" class="f4">17</text>
<polygon class=" s5 sw2 f13" points="1430,1180 1484,1180 1457,1216"/>
<rect x="1430" width="54" y="1162" height="18" class="s13 sw2 f7"/>
<text x="1450" y="1201" class="f4">27</text>
<polygon class=" s5 sw2 f13" points="457,1980 475,1998 457,2016 439,1998"/>
<rect x="430" width="54" y="1962" height="18" class="s13 sw2 f7"/>
<text x="450" y="2001" class="f4">15</text>
<polygon class=" s5 sw2 f14" points="1457,1480 1475,1498 1457,1516 1439,1498"/>
<rect x="1430" width="54" y="1462" height="18" class="s14 sw2 f8"/>
<text x="1450" y="1501" class="f4">16</text>
<circle r="3" class="s4 sw0 f4" cx="1466" cy="1465"/>
<circle r="3" class="s4 sw0 f4" cx="1466" cy="1477"/>
<circle r="3" class="s4 sw0 f4" cx="1457" cy="1471"/>
<circle r="3" class="s4 sw0 f4" cx="1475" cy="1471"/>
<line y2="1471" x1="1460" class="s4 sw1" x2="1472" y1="1471"/>
<line y2="1474" x1="1466" class="s4 sw1" x2="1466" y1="1468"/>
<polygon class=" s5 sw2 f14" points="1478,1453 1496,1453 1505,1462 1505,1480 1496,1489 1478,1489 1469,1480 1469,1462"/>
<rect x="1460" width="54" y="1435" height="18" class="s14 sw2 f8"/>
<text x="1480" y="1474" class="f4">8</text>
<circle r="3" class="s4 sw0 f4" cx="1496" cy="1438"/>
<circle r="3" class="s4 sw0 f4" cx="1496" cy="1450"/>
<circle r="3" class="s4 sw0 f4" cx="1487" cy="1444"/>
<circle r="3" class="s4 sw0 f4" cx="1505" cy="1444"/>
<line y2="1444" x1="1490" class="s4 sw1" x2="1502" y1="1444"/>
<line y2="1447" x1="1496" class="s4 sw1" x2="1496" y1="1441"/>
<g id="teamTable" transform="translate(-100, 150)">
<text x="2350" y="75" class="TxtNrml">Step: 16</text>
<text x="2350" y="180" class="Tb" text-anchor="start">
<tspan fill="rgba(0,158,115,1.0)" x="2350">Nabf</tspan>
<tspan x="2750">780</tspan>
<tspan x="2950">70</tspan>
<tspan x="3150">58</tspan>
<tspan x="3350">12</tspan>
</text>
<text x="2350" y="220" class="Tb" text-anchor="start">
<tspan fill="rgba(0,114,178,1.0)" x="2350">B</tspan>
<tspan x="2750">457</tspan>
<tspan x="2950">27</tspan>
<tspan x="3150">25</tspan>
<tspan x="3350">2</tspan>
</text>
</g>
<g id="agentTable" transform="translate(-100, 150)">
<text x="2350" y="316" class="Tb2" text-anchor="start">
<tspan x="2535">8/35</tspan>
<tspan x="2650">4/4</tspan>
<tspan x="2765">0</tspan>
<tspan x="2880">2</tspan>
<tspan x="2995">goto v209:successful</tspan>
</text>
<text x="2350" y="346" class="Tb2" text-anchor="start">
<tspan x="2535">12/35</tspan>
<tspan x="2650">4/4</tspan>
<tspan x="2765">0</tspan>
<tspan x="2880">2</tspan>
<tspan x="2995">probe :successful</tspan>
</text>
<text x="2350" y="376" class="Tb2" text-anchor="start">
<tspan x="2535">11/35</tspan>
<tspan x="2650">4/4</tspan>
<tspan x="2765">0</tspan>
<tspan x="2880">2</tspan>
<tspan x="2995">goto v209:successful</tspan>
</text>
<text x="2350" y="406" class="Tb2" text-anchor="start">
<tspan x="2535">15/35</tspan>
<tspan x="2650">4/4</tspan>
<tspan x="2765">0</tspan>
<tspan x="2880">2</tspan>
<tspan x="2995">goto v62:successful</tspan>
</text>
<text x="2350" y="436" class="Tb2" text-anchor="start">
<tspan x="2535">17/35</tspan>
<tspan x="2650">4/4</tspan>
<tspan x="2765">0</tspan>
<tspan x="2880">2</tspan>
<tspan x="2995">probe :successful</tspan>
</text>
<text x="2350" y="466" class="Tb2" text-anchor="start">
<tspan x="2535">18/35</tspan>
<tspan x="2650">4/4</tspan>
<tspan x="2765">0</tspan>
<tspan x="2880">2</tspan>
<tspan x="2995">goto v167:successful</tspan>
</text>
<text x="2350" y="496" class="Tb2" text-anchor="start">
<tspan x="2535">15/25</tspan>
<tspan x="2650">6/6</tspan>
<tspan x="2765">0</tspan>
<tspan x="2880">1</tspan>
<tspan x="2995">goto v226:successful</tspan>
</text>
<text x="2350" y="526" class="Tb2" text-anchor="start">
<tspan x="2535">6/25</tspan>
<tspan x="2650">6/6</tspan>
<tspan x="2765">0</tspan>
<tspan x="2880">1</tspan>
<tspan x="2995">goto v297:successful</tspan>
</text>
<text x="2350" y="556" class="Tb2" text-anchor="start">
<tspan x="2535">2/25</tspan>
<tspan x="2650">6/6</tspan>
<tspan x="2765">0</tspan>
<tspan x="2880">1</tspan>
<tspan x="2995">goto v260:successful</tspan>
</text>
<text x="2350" y="586" class="Tb2" text-anchor="start">
<tspan x="2535">7/25</tspan>
<tspan x="2650">6/6</tspan>
<tspan x="2765">0</tspan>
<tspan x="2880">1</tspan>
<tspan x="2995">goto v264:successful</tspan>
</text>
<text x="2350" y="616" class="Tb2" text-anchor="start">
<tspan x="2535">12/25</tspan>
<tspan x="2650">6/6</tspan>
<tspan x="2765">0</tspan>
<tspan x="2880">1</tspan>
<tspan x="2995">goto v60:successful</tspan>
</text>
<text x="2350" y="646" class="Tb2" text-anchor="start">
<tspan x="2535">5/25</tspan>
<tspan x="2650">6/6</tspan>
<tspan x="2765">0</tspan>
<tspan x="2880">1</tspan>
<tspan x="2995">goto v164:successful</tspan>
</text>
<text x="2350" y="676" class="Tb2" text-anchor="start">
<tspan x="2535">9/20</tspan>
<tspan x="2650">3/3</tspan>
<tspan x="2765">3</tspan>
<tspan x="2880">1</tspan>
<tspan x="2995">goto v164:successful</tspan>
</text>
<text x="2350" y="706" class="Tb2" text-anchor="start">
<tspan x="2535">10/20</tspan>
<tspan x="2650">3/3</tspan>
<tspan x="2765">3</tspan>
<tspan x="2880">1</tspan>
<tspan x="2995">recharge :successful</tspan>
</text>
<text x="2350" y="736" class="Tb2" text-anchor="start">
<tspan x="2535">17/20</tspan>
<tspan x="2650">3/3</tspan>
<tspan x="2765">3</tspan>
<tspan x="2880">1</tspan>
<tspan x="2995">goto v209:successful</tspan>
</text>
<text x="2350" y="766" class="Tb2" text-anchor="start">
<tspan x="2535">13/20</tspan>
<tspan x="2650">3/3</tspan>
<tspan x="2765">3</tspan>
<tspan x="2880">1</tspan>
<tspan x="2995">goto v297:successful</tspan>
</text>
<text x="2350" y="796" class="Tb2" text-anchor="start">
<tspan x="2535">8/30</tspan>
<tspan x="2650">1/1</tspan>
<tspan x="2765">0</tspan>
<tspan x="2880">3</tspan>
<tspan x="2995">goto v140:successful</tspan>
</text>
<text x="2350" y="826" class="Tb2" text-anchor="start">
<tspan x="2535">11/30</tspan>
<tspan x="2650">1/1</tspan>
<tspan x="2765">0</tspan>
<tspan x="2880">3</tspan>
<tspan x="2995">goto v221:successful</tspan>
</text>
<text x="2350" y="856" class="Tb2" text-anchor="start">
<tspan x="2535">8/30</tspan>
<tspan x="2650">1/1</tspan>
<tspan x="2765">0</tspan>
<tspan x="2880">3</tspan>
<tspan x="2995">goto v153:successful</tspan>
</text>
<text x="2350" y="886" class="Tb2" text-anchor="start">
<tspan x="2535">20/30</tspan>
<tspan x="2650">1/1</tspan>
<tspan x="2765">0</tspan>
<tspan x="2880">3</tspan>
<tspan x="2995">recharge :successful</tspan>
</text>
<text x="2350" y="916" class="Tb2" text-anchor="start">
<tspan x="2535">12/30</tspan>
<tspan x="2650">1/1</tspan>
<tspan x="2765">0</tspan>
<tspan x="2880">3</tspan>
<tspan x="2995">goto v45:successful</tspan>
</text>
<text x="2350" y="946" class="Tb2" text-anchor="start">
<tspan x="2535">22/30</tspan>
<tspan x="2650">1/1</tspan>
<tspan x="2765">0</tspan>
<tspan x="2880">3</tspan>
<tspan x="2995">recharge :successful</tspan>
</text>
<text x="2350" y="976" class="Tb2" text-anchor="start">
<tspan x="2535">13/25</tspan>
<tspan x="2650">6/6</tspan>
<tspan x="2765">0</tspan>
<tspan x="2880">1</tspan>
<tspan x="2995">recharge :successful</tspan>
</text>
<text x="2350" y="1006" class="Tb2" text-anchor="start">
<tspan x="2535">8/25</tspan>
<tspan x="2650">6/6</tspan>
<tspan x="2765">0</tspan>
<tspan x="2880">1</tspan>
<tspan x="2995">inspect :successful</tspan>
</text>
<text x="2350" y="1036" class="Tb2" text-anchor="start">
<tspan x="2535">13/25</tspan>
<tspan x="2650">6/6</tspan>
<tspan x="2765">0</tspan>
<tspan x="2880">1</tspan>
<tspan x="2995">recharge :successful</tspan>
</text>
<text x="2350" y="1066" class="Tb2" text-anchor="start">
<tspan x="2535">6/25</tspan>
<tspan x="2650">6/6</tspan>
<tspan x="2765">0</tspan>
<tspan x="2880">1</tspan>
<tspan x="2995">inspect :successful</tspan>
</text>
<text x="2350" y="1096" class="Tb2" text-anchor="start">
<tspan x="2535">12/25</tspan>
<tspan x="2650">6/6</tspan>
<tspan x="2765">0</tspan>
<tspan x="2880">1</tspan>
<tspan x="2995">inspect :successful</tspan>
</text>
<text x="2350" y="1126" class="Tb2" text-anchor="start">
<tspan x="2535">7/25</tspan>
<tspan x="2650">6/6</tspan>
<tspan x="2765">0</tspan>
<tspan x="2880">1</tspan>
<tspan x="2995">inspect :successful</tspan>
</text>
<text x="2350" y="1156" class="Tb2" text-anchor="start">
<tspan x="2535">35/35</tspan>
<tspan x="2650">4/4</tspan>
<tspan x="2765">0</tspan>
<tspan x="2880">2</tspan>
<tspan fill="red" x="2995">noAction :failed</tspan>
</text>
<text x="2350" y="1186" class="Tb2" text-anchor="start">
<tspan x="2535">35/35</tspan>
<tspan x="2650">4/4</tspan>
<tspan x="2765">0</tspan>
<tspan x="2880">2</tspan>
<tspan fill="red" x="2995">noAction :failed</tspan>
</text>
<text x="2350" y="1216" class="Tb2" text-anchor="start">
<tspan x="2535">35/35</tspan>
<tspan x="2650">4/4</tspan>
<tspan x="2765">0</tspan>
<tspan x="2880">2</tspan>
<tspan fill="red" x="2995">noAction :failed</tspan>
</text>
<text x="2350" y="1246" class="Tb2" text-anchor="start">
<tspan x="2535">35/35</tspan>
<tspan x="2650">4/4</tspan>
<tspan x="2765">0</tspan>
<tspan x="2880">2</tspan>
<tspan fill="red" x="2995">noAction :failed</tspan>
</text>
<text x="2350" y="1276" class="Tb2" text-anchor="start">
<tspan x="2535">35/35</tspan>
<tspan x="2650">4/4</tspan>
<tspan x="2765">0</tspan>
<tspan x="2880">2</tspan>
<tspan fill="red" x="2995">noAction :failed</tspan>
</text>
<text x="2350" y="1306" class="Tb2" text-anchor="start">
<tspan x="2535">35/35</tspan>
<tspan x="2650">4/4</tspan>
<tspan x="2765">0</tspan>
<tspan x="2880">2</tspan>
<tspan fill="red" x="2995">noAction :failed</tspan>
</text>
<text x="2350" y="1336" class="Tb2" text-anchor="start">
<tspan x="2535">25/25</tspan>
<tspan x="2650">6/6</tspan>
<tspan x="2765">0</tspan>
<tspan x="2880">1</tspan>
<tspan fill="red" x="2995">noAction :failed</tspan>
</text>
<text x="2350" y="1366" class="Tb2" text-anchor="start">
<tspan x="2535">25/25</tspan>
<tspan x="2650">6/6</tspan>
<tspan x="2765">0</tspan>
<tspan x="2880">1</tspan>
<tspan fill="red" x="2995">noAction :failed</tspan>
</text>
<text x="2350" y="1396" class="Tb2" text-anchor="start">
<tspan x="2535">25/25</tspan>
<tspan x="2650">6/6</tspan>
<tspan x="2765">0</tspan>
<tspan x="2880">1</tspan>
<tspan fill="red" x="2995">noAction :failed</tspan>
</text>
<text x="2350" y="1426" class="Tb2" text-anchor="start">
<tspan x="2535">25/25</tspan>
<tspan x="2650">6/6</tspan>
<tspan x="2765">0</tspan>
<tspan x="2880">1</tspan>
<tspan fill="red" x="2995">noAction :failed</tspan>
</text>
<text x="2350" y="1456" class="Tb2" text-anchor="start">
<tspan x="2535">25/25</tspan>
<tspan x="2650">6/6</tspan>
<tspan x="2765">0</tspan>
<tspan x="2880">1</tspan>
<tspan fill="red" x="2995">noAction :failed</tspan>
</text>
<text x="2350" y="1486" class="Tb2" text-anchor="start">
<tspan x="2535">25/25</tspan>
<tspan x="2650">6/6</tspan>
<tspan x="2765">0</tspan>
<tspan x="2880">1</tspan>
<tspan fill="red" x="2995">noAction :failed</tspan>
</text>
<text x="2350" y="1516" class="Tb2" text-anchor="start">
<tspan x="2535">20/20</tspan>
<tspan x="2650">3/3</tspan>
<tspan x="2765">3</tspan>
<tspan x="2880">1</tspan>
<tspan fill="red" x="2995">noAction :failed</tspan>
</text>
<text x="2350" y="1546" class="Tb2" text-anchor="start">
<tspan x="2535">20/20</tspan>
<tspan x="2650">3/3</tspan>
<tspan x="2765">3</tspan>
<tspan x="2880">1</tspan>
<tspan fill="red" x="2995">noAction :failed</tspan>
</text>
<text x="2350" y="1576" class="Tb2" text-anchor="start">
<tspan x="2535">20/20</tspan>
<tspan x="2650">3/3</tspan>
<tspan x="2765">3</tspan>
<tspan x="2880">1</tspan>
<tspan fill="red" x="2995">noAction :failed</tspan>
</text>
<text x="2350" y="1606" class="Tb2" text-anchor="start">
<tspan x="2535">20/20</tspan>
<tspan x="2650">3/3</tspan>
<tspan x="2765">3</tspan>
<tspan x="2880">1</tspan>
<tspan fill="red" x="2995">noAction :failed</tspan>
</text>
<text x="2350" y="1636" class="Tb2" text-anchor="start">
<tspan x="2535">30/30</tspan>
<tspan x="2650">1/1</tspan>
<tspan x="2765">0</tspan>
<tspan x="2880">3</tspan>
<tspan fill="red" x="2995">noAction :failed</tspan>
</text>
<text x="2350" y="1666" class="Tb2" text-anchor="start">
<tspan x="2535">30/30</tspan>
<tspan x="2650">1/1</tspan>
<tspan x="2765">0</tspan>
<tspan x="2880">3</tspan>
<tspan fill="red" x="2995">noAction :failed</tspan>
</text>
<text x="2350" y="1696" class="Tb2" text-anchor="start">
<tspan x="2535">30/30</tspan>
<tspan x="2650">1/1</tspan>
<tspan x="2765">0</tspan>
<tspan x="2880">3</tspan>
<tspan fill="red" x="2995">noAction :failed</tspan>
</text>
<text x="2350" y="1726" class="Tb2" text-anchor="start">
<tspan x="2535">30/30</tspan>
<tspan x="2650">1/1</tspan>
<tspan x="2765">0</tspan>
<tspan x="2880">3</tspan>
<tspan fill="red" x="2995">noAction :failed</tspan>
</text>
<text x="2350" y="1756" class="Tb2" text-anchor="start">
<tspan x="2535">30/30</tspan>
<tspan x="2650">1/1</tspan>
<tspan x="2765">0</tspan>
<tspan x="2880">3</tspan>
<tspan fill="red" x="2995">noAction :failed</tspan>
</text>
<text x="2350" y="1786" class="Tb2" text-anchor="start">
<tspan x="2535">30/30</tspan>
<tspan x="2650">1/1</tspan>
<tspan x="2765">0</tspan>
<tspan x="2880">3</tspan>
<tspan fill="red" x="2995">noAction :failed</tspan>
</text>
<text x="2350" y="1816" class="Tb2" text-anchor="start">
<tspan x="2535">25/25</tspan>
<tspan x="2650">6/6</tspan>
<tspan x="2765">0</tspan>
<tspan x="2880">1</tspan>
<tspan fill="red" x="2995">noAction :failed</tspan>
</text>
<text x="2350" y="1846" class="Tb2" text-anchor="start">
<tspan x="2535">25/25</tspan>
<tspan x="2650">6/6</tspan>
<tspan x="2765">0</tspan>
<tspan x="2880">1</tspan>
<tspan fill="red" x="2995">noAction :failed</tspan>
</text>
<text x="2350" y="1876" class="Tb2" text-anchor="start">
<tspan x="2535">25/25</tspan>
<tspan x="2650">6/6</tspan>
<tspan x="2765">0</tspan>
<tspan x="2880">1</tspan>
<tspan fill="red" x="2995">noAction :failed</tspan>
</text>
<text x="2350" y="1906" class="Tb2" text-anchor="start">
<tspan x="2535">25/25</tspan>
<tspan x="2650">6/6</tspan>
<tspan x="2765">0</tspan>
<tspan x="2880">1</tspan>
<tspan fill="red" x="2995">noAction :failed</tspan>
</text>
<text x="2350" y="1936" class="Tb2" text-anchor="start">
<tspan x="2535">25/25</tspan>
<tspan x="2650">6/6</tspan>
<tspan x="2765">0</tspan>
<tspan x="2880">1</tspan>
<tspan fill="red" x="2995">noAction :failed</tspan>
</text>
<text x="2350" y="1966" class="Tb2" text-anchor="start">
<tspan x="2535">25/25</tspan>
<tspan x="2650">6/6</tspan>
<tspan x="2765">0</tspan>
<tspan x="2880">1</tspan>
<tspan fill="red" x="2995">noAction :failed</tspan>
</text>
</g>
<line y2="442" x1="3290" class="s5 sw1" x2="3290" y1="1996"/>
<g id="achievementPart" transform="translate(-100, 150)">
<text x="3400" y="301" class="TxtAch">
<tspan x="3400">Achievements</tspan>
<tspan fill="rgba(0,158,115,1.0)" x="3400" y="331">Nabf</tspan>
<tspan x="3400" y="351">proved5</tspan>
<tspan x="3400" y="371">proved10</tspan>
<tspan x="3400" y="391">proved20</tspan>
<tspan x="3400" y="411">inspected5</tspan>
<tspan x="3400" y="431">area10</tspan>
<tspan x="3400" y="451">area20</tspan>
<tspan fill="rgba(0,114,178,1.0)" x="3400" y="476">B</tspan>
<tspan x="3400" y="496">area10</tspan>
</text>
</g>
</g>
</svg>
